<svg width="115" height="55" viewBox="0 0 115 55" fill="none" xmlns="http://www.w3.org/2000/svg">
<rect width="115" height="55" rx="27.5" fill="black"/>
<path d="M33.512 38V31.536H27.336V27.824H33.512V21.36H37.224V27.824H43.432V31.536H37.224V38H33.512ZM55.9253 38.384C54.0693 38.384 52.4799 38.0853 51.1573 37.488C49.8559 36.8693 48.8533 36.016 48.1493 34.928C47.4666 33.8187 47.1253 32.5173 47.1253 31.024H52.0213C52.0213 31.7067 52.1599 32.3147 52.4373 32.848C52.7146 33.3813 53.1199 33.7973 53.6533 34.096C54.1866 34.3733 54.8266 34.512 55.5733 34.512C56.3199 34.512 56.9493 34.3627 57.4613 34.064C57.9733 33.7653 58.3679 33.3387 58.6453 32.784C58.9226 32.208 59.0613 31.536 59.0613 30.768C59.0613 30 58.9226 29.3493 58.6453 28.816C58.3679 28.2827 57.9733 27.8773 57.4613 27.6C56.9493 27.3013 56.3413 27.152 55.6373 27.152C55.0186 27.152 54.4959 27.248 54.0693 27.44C53.6639 27.632 53.3333 27.856 53.0773 28.112C52.8213 28.368 52.6079 28.6133 52.4373 28.848L47.9893 28.272L48.9173 16.016H62.9333V20.592H53.0453L52.7573 24.88C52.8853 24.7733 53.1306 24.6133 53.4933 24.4C53.8773 24.1867 54.3786 23.984 54.9973 23.792C55.6373 23.6 56.3733 23.504 57.2053 23.504C58.6133 23.504 59.8506 23.7813 60.9173 24.336C61.9839 24.8907 62.8159 25.712 63.4132 26.8C64.0319 27.888 64.3413 29.2213 64.3413 30.8C64.3413 32.2933 63.9999 33.616 63.3173 34.768C62.6346 35.8987 61.6639 36.784 60.4053 37.424C59.1466 38.064 57.6533 38.384 55.9253 38.384ZM74.1333 38L66.2293 16.016H72.3733L76.4053 28.432C76.4906 28.688 76.5973 29.0293 76.7253 29.456C76.8533 29.8613 76.9813 30.288 77.1093 30.736C77.2586 31.1627 77.3759 31.5467 77.4613 31.888H77.6853C77.7919 31.568 77.8986 31.2053 78.0053 30.8C78.1333 30.3733 78.2613 29.9573 78.3893 29.552C78.5173 29.1253 78.6239 28.7627 78.7093 28.464L82.7413 16.016H88.6613L80.7893 38H74.1333Z" fill="white"/>
</svg>
