<svg width="114" height="55" viewBox="0 0 114 55" fill="none" xmlns="http://www.w3.org/2000/svg">
<rect width="114" height="55" rx="27.5" fill="black"/>
<path d="M35.048 38.384C33.128 38.384 31.5173 38.1067 30.216 37.552C28.936 36.976 27.976 36.208 27.336 35.248C26.696 34.2667 26.376 33.1573 26.376 31.92V31.344H31.24V31.952C31.24 32.7413 31.5387 33.3707 32.136 33.84C32.7333 34.3093 33.6187 34.544 34.792 34.544C35.9653 34.544 36.84 34.2773 37.416 33.744C37.992 33.1893 38.28 32.4107 38.28 31.408C38.28 30.704 38.1413 30.1493 37.864 29.744C37.5867 29.3387 37.2133 29.0507 36.744 28.88C36.296 28.688 35.7947 28.592 35.24 28.592H33.16V25.008H35.016C35.5493 25.008 36.0187 24.912 36.424 24.72C36.8507 24.5067 37.1813 24.1973 37.416 23.792C37.672 23.3867 37.8 22.8747 37.8 22.256C37.8 21.68 37.6827 21.1893 37.448 20.784C37.2133 20.3573 36.8613 20.0373 36.392 19.824C35.944 19.5893 35.4107 19.472 34.792 19.472C34.216 19.472 33.6827 19.5787 33.192 19.792C32.7227 20.0053 32.3493 20.304 32.072 20.688C31.816 21.072 31.688 21.52 31.688 22.032V22.448H26.984V21.648C26.984 20.496 27.304 19.472 27.944 18.576C28.6053 17.6587 29.544 16.944 30.76 16.432C31.976 15.8987 33.416 15.632 35.08 15.632C36.7227 15.632 38.1413 15.888 39.336 16.4C40.5307 16.8907 41.448 17.5947 42.088 18.512C42.728 19.408 43.048 20.4427 43.048 21.616C43.048 22.4053 42.8987 23.1307 42.6 23.792C42.3227 24.432 41.928 24.976 41.416 25.424C40.9253 25.872 40.3493 26.2347 39.688 26.512V26.64C40.8827 27.0027 41.832 27.6533 42.536 28.592C43.24 29.5093 43.592 30.6613 43.592 32.048C43.5707 33.2853 43.2293 34.384 42.568 35.344C41.9067 36.2827 40.9467 37.0293 39.688 37.584C38.4293 38.1173 36.8827 38.384 35.048 38.384ZM53.352 38L45.448 16.016H51.592L55.624 28.432C55.7093 28.688 55.816 29.0293 55.944 29.456C56.072 29.8613 56.2 30.288 56.328 30.736C56.4773 31.1627 56.5947 31.5467 56.68 31.888H56.904C57.0107 31.568 57.1173 31.2053 57.224 30.8C57.352 30.3733 57.48 29.9573 57.608 29.552C57.736 29.1253 57.8427 28.7627 57.928 28.464L61.96 16.016H67.88L60.008 38H53.352ZM78.3605 38.384C76.4405 38.384 74.8298 38.1067 73.5285 37.552C72.2485 36.976 71.2885 36.208 70.6485 35.248C70.0085 34.2667 69.6885 33.1573 69.6885 31.92V31.344H74.5525V31.952C74.5525 32.7413 74.8512 33.3707 75.4485 33.84C76.0458 34.3093 76.9312 34.544 78.1045 34.544C79.2778 34.544 80.1525 34.2773 80.7285 33.744C81.3045 33.1893 81.5925 32.4107 81.5925 31.408C81.5925 30.704 81.4538 30.1493 81.1765 29.744C80.8992 29.3387 80.5258 29.0507 80.0565 28.88C79.6085 28.688 79.1072 28.592 78.5525 28.592H76.4725V25.008H78.3285C78.8618 25.008 79.3312 24.912 79.7365 24.72C80.1632 24.5067 80.4938 24.1973 80.7285 23.792C80.9845 23.3867 81.1125 22.8747 81.1125 22.256C81.1125 21.68 80.9952 21.1893 80.7605 20.784C80.5258 20.3573 80.1738 20.0373 79.7045 19.824C79.2565 19.5893 78.7232 19.472 78.1045 19.472C77.5285 19.472 76.9952 19.5787 76.5045 19.792C76.0352 20.0053 75.6618 20.304 75.3845 20.688C75.1285 21.072 75.0005 21.52 75.0005 22.032V22.448H70.2965V21.648C70.2965 20.496 70.6165 19.472 71.2565 18.576C71.9178 17.6587 72.8565 16.944 74.0725 16.432C75.2885 15.8987 76.7285 15.632 78.3925 15.632C80.0352 15.632 81.4538 15.888 82.6485 16.4C83.8432 16.8907 84.7605 17.5947 85.4005 18.512C86.0405 19.408 86.3605 20.4427 86.3605 21.616C86.3605 22.4053 86.2112 23.1307 85.9125 23.792C85.6352 24.432 85.2405 24.976 84.7285 25.424C84.2378 25.872 83.6618 26.2347 83.0005 26.512V26.64C84.1952 27.0027 85.1445 27.6533 85.8485 28.592C86.5525 29.5093 86.9045 30.6613 86.9045 32.048C86.8832 33.2853 86.5418 34.384 85.8805 35.344C85.2192 36.2827 84.2592 37.0293 83.0005 37.584C81.7418 38.1173 80.1952 38.384 78.3605 38.384Z" fill="white"/>
</svg>
