<svg width="197" height="55" viewBox="0 0 197 55" fill="none" xmlns="http://www.w3.org/2000/svg">
<rect width="197" height="55" rx="27.5" fill="black"/>
<path d="M35.144 38.384C33.288 38.384 31.6987 38.0853 30.376 37.488C29.0747 36.8693 28.072 36.016 27.368 34.928C26.6853 33.8187 26.344 32.5173 26.344 31.024H31.24C31.24 31.7067 31.3787 32.3147 31.656 32.848C31.9333 33.3813 32.3387 33.7973 32.872 34.096C33.4053 34.3733 34.0453 34.512 34.792 34.512C35.5387 34.512 36.168 34.3627 36.68 34.064C37.192 33.7653 37.5867 33.3387 37.864 32.784C38.1413 32.208 38.28 31.536 38.28 30.768C38.28 30 38.1413 29.3493 37.864 28.816C37.5867 28.2827 37.192 27.8773 36.68 27.6C36.168 27.3013 35.56 27.152 34.856 27.152C34.2373 27.152 33.7147 27.248 33.288 27.44C32.8827 27.632 32.552 27.856 32.296 28.112C32.04 28.368 31.8267 28.6133 31.656 28.848L27.208 28.272L28.136 16.016H42.152V20.592H32.264L31.976 24.88C32.104 24.7733 32.3493 24.6133 32.712 24.4C33.096 24.1867 33.5973 23.984 34.216 23.792C34.856 23.6 35.592 23.504 36.424 23.504C37.832 23.504 39.0693 23.7813 40.136 24.336C41.2027 24.8907 42.0347 25.712 42.632 26.8C43.2507 27.888 43.56 29.2213 43.56 30.8C43.56 32.2933 43.2187 33.616 42.536 34.768C41.8533 35.8987 40.8827 36.784 39.624 37.424C38.3653 38.064 36.872 38.384 35.144 38.384ZM53.352 38L45.448 16.016H51.592L55.624 28.432C55.7093 28.688 55.816 29.0293 55.944 29.456C56.072 29.8613 56.2 30.288 56.328 30.736C56.4773 31.1627 56.5947 31.5467 56.68 31.888H56.904C57.0107 31.568 57.1173 31.2053 57.224 30.8C57.352 30.3733 57.48 29.9573 57.608 29.552C57.736 29.1253 57.8427 28.7627 57.928 28.464L61.96 16.016H67.88L60.008 38H53.352ZM76.775 38V16.016H90.215C91.3457 16.016 92.3697 16.24 93.287 16.688C94.2043 17.136 94.9297 17.7653 95.463 18.576C96.0177 19.3867 96.295 20.336 96.295 21.424C96.295 22.384 96.1243 23.2053 95.783 23.888C95.463 24.5707 95.0257 25.1253 94.471 25.552C93.9377 25.9787 93.3297 26.2987 92.647 26.512V26.64C93.4363 26.8107 94.151 27.12 94.791 27.568C95.431 27.9947 95.9323 28.5813 96.295 29.328C96.679 30.0747 96.871 30.9813 96.871 32.048C96.871 33.3067 96.5723 34.384 95.975 35.28C95.3777 36.1547 94.5883 36.8267 93.607 37.296C92.6257 37.7653 91.527 38 90.311 38H76.775ZM82.503 33.584H88.743C89.4257 33.584 89.9697 33.3813 90.375 32.976C90.8017 32.5707 91.015 31.952 91.015 31.12C91.015 30.672 90.919 30.2773 90.727 29.936C90.5563 29.5733 90.2897 29.296 89.927 29.104C89.5857 28.912 89.159 28.816 88.647 28.816H82.503V33.584ZM82.503 24.752H88.231C88.7003 24.752 89.095 24.656 89.415 24.464C89.7563 24.272 90.0123 24.0053 90.183 23.664C90.375 23.3227 90.471 22.9173 90.471 22.448C90.471 21.7653 90.2683 21.232 89.863 20.848C89.4577 20.464 88.9457 20.272 88.327 20.272H82.503V24.752ZM110.731 38.384C108.619 38.384 106.795 38.0533 105.259 37.392C103.744 36.7307 102.581 35.7387 101.771 34.416C100.96 33.0933 100.555 31.4507 100.555 29.488V16.016H106.315V29.36C106.315 30.768 106.688 31.8773 107.435 32.688C108.181 33.4987 109.28 33.904 110.731 33.904C112.181 33.904 113.291 33.4987 114.059 32.688C114.827 31.8773 115.211 30.768 115.211 29.36V16.016H120.939V29.488C120.939 31.4507 120.533 33.0933 119.723 34.416C118.912 35.7387 117.749 36.7307 116.235 37.392C114.72 38.0533 112.885 38.384 110.731 38.384ZM135.793 38.384C133.425 38.384 131.409 37.9787 129.745 37.168C128.103 36.336 126.855 35.0773 126.001 33.392C125.148 31.7067 124.721 29.5733 124.721 26.992C124.721 23.1947 125.671 20.3573 127.569 18.48C129.489 16.5813 132.231 15.632 135.793 15.632C137.777 15.632 139.537 15.9733 141.073 16.656C142.609 17.3173 143.804 18.32 144.657 19.664C145.532 20.9867 145.969 22.64 145.969 24.624H140.369C140.369 23.6853 140.177 22.8853 139.793 22.224C139.431 21.5413 138.908 21.0187 138.225 20.656C137.564 20.2933 136.753 20.112 135.793 20.112C134.599 20.112 133.617 20.3573 132.849 20.848C132.081 21.3387 131.516 22.0427 131.153 22.96C130.791 23.8773 130.609 24.9867 130.609 26.288V27.728C130.609 29.0293 130.791 30.1493 131.153 31.088C131.516 32.0053 132.071 32.7093 132.817 33.2C133.585 33.6693 134.567 33.904 135.761 33.904C136.785 33.904 137.649 33.7333 138.353 33.392C139.079 33.0507 139.623 32.5493 139.985 31.888C140.369 31.2053 140.561 30.3947 140.561 29.456H145.969C145.969 31.44 145.543 33.0933 144.689 34.416C143.857 35.7387 142.673 36.7307 141.137 37.392C139.623 38.0533 137.841 38.384 135.793 38.384ZM149.744 38V16.016H155.472V25.776L164.176 16.016H171.28L163.088 25.008L171.44 38H164.656L159.12 28.912L155.472 32.272V38H149.744Z" fill="white"/>
</svg>
