<svg width="127" height="55" viewBox="0 0 127 55" fill="none" xmlns="http://www.w3.org/2000/svg">
<rect width="127" height="55" rx="27.5" fill="black"/>
<path d="M27.4 38V16.016H40.84C41.9707 16.016 42.9947 16.24 43.912 16.688C44.8293 17.136 45.5547 17.7653 46.088 18.576C46.6427 19.3867 46.92 20.336 46.92 21.424C46.92 22.384 46.7493 23.2053 46.408 23.888C46.088 24.5707 45.6507 25.1253 45.096 25.552C44.5627 25.9787 43.9547 26.2987 43.272 26.512V26.64C44.0613 26.8107 44.776 27.12 45.416 27.568C46.056 27.9947 46.5573 28.5813 46.92 29.328C47.304 30.0747 47.496 30.9813 47.496 32.048C47.496 33.3067 47.1973 34.384 46.6 35.28C46.0027 36.1547 45.2133 36.8267 44.232 37.296C43.2507 37.7653 42.152 38 40.936 38H27.4ZM33.128 33.584H39.368C40.0507 33.584 40.5947 33.3813 41 32.976C41.4267 32.5707 41.64 31.952 41.64 31.12C41.64 30.672 41.544 30.2773 41.352 29.936C41.1813 29.5733 40.9147 29.296 40.552 29.104C40.2107 28.912 39.784 28.816 39.272 28.816H33.128V33.584ZM33.128 24.752H38.856C39.3253 24.752 39.72 24.656 40.04 24.464C40.3813 24.272 40.6373 24.0053 40.808 23.664C41 23.3227 41.096 22.9173 41.096 22.448C41.096 21.7653 40.8933 21.232 40.488 20.848C40.0827 20.464 39.5707 20.272 38.952 20.272H33.128V24.752ZM58.9878 38.384C57.1104 38.384 55.4998 38.064 54.1558 37.424C52.8331 36.784 51.8091 35.8133 51.0838 34.512C50.3798 33.1893 50.0278 31.536 50.0278 29.552C50.0278 27.568 50.3798 25.9253 51.0838 24.624C51.8091 23.3227 52.8331 22.352 54.1558 21.712C55.4998 21.072 57.1104 20.752 58.9878 20.752C60.8864 20.752 62.4971 21.072 63.8198 21.712C65.1638 22.352 66.1878 23.3227 66.8918 24.624C67.6171 25.9253 67.9798 27.568 67.9798 29.552C67.9798 31.536 67.6171 33.1893 66.8918 34.512C66.1878 35.8133 65.1638 36.784 63.8198 37.424C62.4971 38.064 60.8864 38.384 58.9878 38.384ZM58.9878 34.576C59.8624 34.576 60.5664 34.4053 61.0998 34.064C61.6544 33.7227 62.0491 33.232 62.2838 32.592C62.5398 31.9307 62.6678 31.12 62.6678 30.16V28.976C62.6678 28.016 62.5398 27.2053 62.2838 26.544C62.0491 25.8827 61.6544 25.392 61.0998 25.072C60.5664 24.7307 59.8624 24.56 58.9878 24.56C58.1344 24.56 57.4304 24.7307 56.8758 25.072C56.3424 25.392 55.9478 25.8827 55.6918 26.544C55.4571 27.2053 55.3398 28.016 55.3398 28.976V30.16C55.3398 31.12 55.4571 31.9307 55.6918 32.592C55.9478 33.232 56.3424 33.7227 56.8758 34.064C57.4304 34.4053 58.1344 34.576 58.9878 34.576ZM79.3003 38.384C77.4229 38.384 75.8123 38.064 74.4683 37.424C73.1456 36.784 72.1216 35.8133 71.3963 34.512C70.6923 33.1893 70.3403 31.536 70.3403 29.552C70.3403 27.568 70.6923 25.9253 71.3963 24.624C72.1216 23.3227 73.1456 22.352 74.4683 21.712C75.8123 21.072 77.4229 20.752 79.3003 20.752C81.1989 20.752 82.8096 21.072 84.1323 21.712C85.4763 22.352 86.5003 23.3227 87.2043 24.624C87.9296 25.9253 88.2923 27.568 88.2923 29.552C88.2923 31.536 87.9296 33.1893 87.2043 34.512C86.5003 35.8133 85.4763 36.784 84.1323 37.424C82.8096 38.064 81.1989 38.384 79.3003 38.384ZM79.3003 34.576C80.1749 34.576 80.8789 34.4053 81.4123 34.064C81.9669 33.7227 82.3616 33.232 82.5963 32.592C82.8523 31.9307 82.9803 31.12 82.9803 30.16V28.976C82.9803 28.016 82.8523 27.2053 82.5963 26.544C82.3616 25.8827 81.9669 25.392 81.4123 25.072C80.8789 24.7307 80.1749 24.56 79.3003 24.56C78.4469 24.56 77.7429 24.7307 77.1883 25.072C76.6549 25.392 76.2603 25.8827 76.0043 26.544C75.7696 27.2053 75.6523 28.016 75.6523 28.976V30.16C75.6523 31.12 75.7696 31.9307 76.0043 32.592C76.2603 33.232 76.6549 33.7227 77.1883 34.064C77.7429 34.4053 78.4469 34.576 79.3003 34.576ZM97.3728 38.384C96.2848 38.384 95.3568 38.224 94.5888 37.904C93.8421 37.5627 93.2768 37.0613 92.8928 36.4C92.5301 35.7387 92.3488 34.9387 92.3488 34V24.944H90.1408V21.136H92.5088L93.5968 16.208H97.5648V21.136H100.861V24.944H97.5648V32.72C97.5648 33.3173 97.6821 33.776 97.9167 34.096C98.1514 34.416 98.5781 34.576 99.1968 34.576H100.861V37.84C100.583 37.9253 100.231 38.0107 99.8048 38.096C99.3994 38.2027 98.9834 38.2773 98.5568 38.32C98.1301 38.3627 97.7354 38.384 97.3728 38.384Z" fill="white"/>
</svg>
