<svg width="105" height="55" viewBox="0 0 105 55" fill="none" xmlns="http://www.w3.org/2000/svg">
<rect width="105" height="55" rx="27.5" fill="black"/>
<path d="M27.4 38V16.016H33.128V38H27.4ZM37.1313 38V36.688C37.1313 35.7493 37.3126 34.8853 37.6753 34.096C38.0379 33.3067 38.5286 32.5707 39.1473 31.888C39.7659 31.2053 40.4486 30.5547 41.1953 29.936C41.9633 29.296 42.7313 28.688 43.4993 28.112C44.3739 27.472 45.1953 26.8533 45.9633 26.256C46.7313 25.6587 47.3499 25.0293 47.8193 24.368C48.3099 23.7067 48.5553 22.9707 48.5553 22.16C48.5553 21.7333 48.4486 21.328 48.2353 20.944C48.0433 20.5387 47.7233 20.208 47.2753 19.952C46.8486 19.696 46.2726 19.568 45.5473 19.568C44.8219 19.568 44.2139 19.7067 43.7233 19.984C43.2326 20.24 42.8593 20.6027 42.6033 21.072C42.3473 21.5413 42.2193 22.096 42.2193 22.736V23.696H37.3553C37.3339 23.568 37.3126 23.4293 37.2913 23.28C37.2913 23.1093 37.2913 22.9173 37.2913 22.704C37.2913 21.168 37.6433 19.8773 38.3473 18.832C39.0513 17.7867 40.0433 16.9973 41.3233 16.464C42.6246 15.9093 44.1713 15.632 45.9633 15.632C47.3286 15.632 48.5019 15.8133 49.4833 16.176C50.4859 16.5387 51.3073 17.0293 51.9473 17.648C52.5873 18.2667 53.0566 18.9707 53.3553 19.76C53.6753 20.528 53.8353 21.328 53.8353 22.16C53.8353 23.1627 53.6539 24.0693 53.2913 24.88C52.9286 25.6907 52.4273 26.4587 51.7873 27.184C51.1473 27.888 50.4006 28.5707 49.5473 29.232C48.6939 29.872 47.7766 30.5227 46.7953 31.184C46.3046 31.5253 45.8566 31.8453 45.4513 32.144C45.0673 32.4213 44.7579 32.6667 44.5233 32.88C44.2886 33.0933 44.1179 33.2853 44.0113 33.456H54.0273V38H37.1313ZM68.0433 38.384C65.6753 38.384 63.6593 37.9787 61.9953 37.168C60.3526 36.336 59.1046 35.0773 58.2513 33.392C57.3979 31.7067 56.9713 29.5733 56.9713 26.992C56.9713 23.1947 57.9206 20.3573 59.8193 18.48C61.7393 16.5813 64.4806 15.632 68.0433 15.632C70.0273 15.632 71.7873 15.9733 73.3233 16.656C74.8593 17.3173 76.0539 18.32 76.9073 19.664C77.7819 20.9867 78.2193 22.64 78.2193 24.624H72.6193C72.6193 23.6853 72.4273 22.8853 72.0433 22.224C71.6806 21.5413 71.1579 21.0187 70.4753 20.656C69.8139 20.2933 69.0033 20.112 68.0433 20.112C66.8486 20.112 65.8673 20.3573 65.0993 20.848C64.3313 21.3387 63.7659 22.0427 63.4033 22.96C63.0406 23.8773 62.8593 24.9867 62.8593 26.288V27.728C62.8593 29.0293 63.0406 30.1493 63.4033 31.088C63.7659 32.0053 64.3206 32.7093 65.0673 33.2C65.8353 33.6693 66.8166 33.904 68.0113 33.904C69.0353 33.904 69.8993 33.7333 70.6033 33.392C71.3286 33.0507 71.8726 32.5493 72.2353 31.888C72.6193 31.2053 72.8113 30.3947 72.8113 29.456H78.2193C78.2193 31.44 77.7926 33.0933 76.9393 34.416C76.1073 35.7387 74.9233 36.7307 73.3873 37.392C71.8726 38.0533 70.0913 38.384 68.0433 38.384Z" fill="white"/>
</svg>
