<svg width="267" height="102" viewBox="0 0 267 102" fill="none" xmlns="http://www.w3.org/2000/svg">
<path d="M28 91.5992H6.048V80.5912C6.048 78.9699 6.336 77.6366 6.912 76.5912C7.488 75.5246 8.29867 74.7246 9.344 74.1912C10.3893 73.6579 11.6373 73.3912 13.088 73.3912C14.5173 73.3912 15.7653 73.6686 16.832 74.2232C17.8987 74.7779 18.7307 75.6099 19.328 76.7192C19.904 77.8072 20.192 79.1726 20.192 80.8152V87.4392H28V91.5992ZM16.64 87.4392V80.9432C16.64 79.8766 16.3307 79.0552 15.712 78.4792C15.072 77.8819 14.1973 77.5833 13.088 77.5833C12.3413 77.5833 11.712 77.7112 11.2 77.9672C10.688 78.2232 10.2933 78.5966 10.016 79.0872C9.73867 79.5779 9.6 80.1966 9.6 80.9432V87.4392H16.64ZM28.384 63.3382C28.384 65.1729 28.0747 66.7089 27.456 67.9462C26.816 69.1836 25.8453 70.1116 24.544 70.7302C23.2427 71.3489 21.5893 71.6582 19.584 71.6582C17.5573 71.6582 15.904 71.3489 14.624 70.7302C13.3227 70.1116 12.3627 69.1836 11.744 67.9462C11.104 66.7089 10.784 65.1729 10.784 63.3382C10.784 61.4822 11.104 59.9462 11.744 58.7302C12.3627 57.4929 13.3227 56.5649 14.624 55.9462C15.904 55.3276 17.5573 55.0182 19.584 55.0182C21.5893 55.0182 23.2427 55.3276 24.544 55.9462C25.8453 56.5649 26.816 57.4929 27.456 58.7302C28.0747 59.9462 28.384 61.4822 28.384 63.3382ZM25.184 63.3382C25.184 62.3142 24.992 61.4929 24.608 60.8742C24.2027 60.2342 23.6053 59.7756 22.816 59.4982C22.0053 59.1996 21.0027 59.0502 19.808 59.0502H19.36C18.1653 59.0502 17.1733 59.1996 16.384 59.4982C15.5733 59.7756 14.976 60.2342 14.592 60.8742C14.1867 61.4929 13.984 62.3142 13.984 63.3382C13.984 64.3622 14.1867 65.1942 14.592 65.8342C14.976 66.4529 15.5733 66.9116 16.384 67.2102C17.1733 67.4876 18.1653 67.6262 19.36 67.6262H19.808C21.0027 67.6262 22.0053 67.4876 22.816 67.2102C23.6053 66.9116 24.2027 66.4529 24.608 65.8342C24.992 65.1942 25.184 64.3622 25.184 63.3382ZM28 48.6612L11.168 53.6852V49.6532L20.32 47.3172C20.7893 47.1892 21.2587 47.0826 21.728 46.9972C22.176 46.9119 22.56 46.8372 22.88 46.7732C23.2 46.7092 23.392 46.6666 23.456 46.6452V46.4532C23.072 46.3679 22.656 46.2826 22.208 46.1972C21.76 46.1119 21.3547 46.0372 20.992 45.9732C20.608 45.8879 20.352 45.8346 20.224 45.8132L11.168 43.6372V39.4452L20.256 37.1732C20.5547 37.0879 20.9067 37.0132 21.312 36.9492C21.696 36.8639 22.08 36.7786 22.464 36.6932C22.848 36.6079 23.1787 36.5439 23.456 36.5012V36.3092C23.2 36.2666 22.8907 36.2132 22.528 36.1493C22.1653 36.0639 21.792 35.9786 21.408 35.8932C21.024 35.8079 20.672 35.7332 20.352 35.6692L11.168 33.3652V29.6212L28 34.6132V38.7412L19.968 40.6612C19.5627 40.7466 19.104 40.8532 18.592 40.9812C18.08 41.0879 17.568 41.1946 17.056 41.3012C16.544 41.3866 16.1067 41.4612 15.744 41.5252V41.7172C15.8933 41.7172 16.16 41.7492 16.544 41.8132C16.928 41.8772 17.408 41.9732 17.984 42.1012C18.56 42.2079 19.2213 42.3572 19.968 42.5492L28 44.5332V48.6612ZM28.384 20.2192C28.384 22.0112 28.0747 23.5046 27.456 24.6992C26.816 25.8939 25.8453 26.7899 24.544 27.3872C23.2427 27.9846 21.5893 28.2832 19.584 28.2832C17.5573 28.2832 15.904 27.9846 14.624 27.3872C13.3227 26.7899 12.3627 25.8939 11.744 24.6992C11.104 23.5046 10.784 22.0112 10.784 20.2192C10.784 18.5979 11.0933 17.2432 11.712 16.1552C12.3093 15.0459 13.2373 14.2139 14.496 13.6592C15.7547 13.1046 17.3867 12.8272 19.392 12.8272H20.544L20.544 24.2832C21.5893 24.2406 22.4747 24.0806 23.2 23.8032C23.904 23.5259 24.4373 23.0992 24.8 22.5232C25.1413 21.9259 25.312 21.1472 25.312 20.1872C25.312 19.6966 25.248 19.2379 25.12 18.8112C24.992 18.3846 24.8 18.0112 24.544 17.6912C24.2667 17.3712 23.9253 17.1259 23.52 16.9552C23.1147 16.7632 22.6453 16.6672 22.112 16.6672L22.112 12.8272C23.1787 12.8272 24.1067 13.0192 24.896 13.4032C25.6853 13.7659 26.336 14.2886 26.848 14.9712C27.36 15.6326 27.744 16.4112 28 17.3072C28.256 18.2032 28.384 19.1739 28.384 20.2192ZM17.792 24.2192V16.8912C17.088 16.8912 16.4907 16.9766 16 17.1472C15.5093 17.2966 15.104 17.5206 14.784 17.8192C14.464 18.0966 14.24 18.4379 14.112 18.8432C13.9627 19.2486 13.888 19.7072 13.888 20.2192C13.888 21.0512 14.0267 21.7552 14.304 22.3312C14.5813 22.8859 15.008 23.3126 15.584 23.6112C16.16 23.9099 16.896 24.1126 17.792 24.2192ZM28 9.51375H11.168V6.24975L13.824 5.92975V5.70575C13.2907 5.49242 12.8 5.23642 12.352 4.93775C11.8827 4.61775 11.5093 4.21242 11.232 3.72175C10.9333 3.23108 10.784 2.63375 10.784 1.92975C10.784 1.58842 10.816 1.27908 10.88 1.00175C10.944 0.703082 11.008 0.479082 11.072 0.329749H14.752L14.752 1.51375C14.752 2.17508 14.848 2.76175 15.04 3.27375C15.2107 3.78575 15.488 4.22308 15.872 4.58575C16.256 4.92708 16.736 5.18308 17.312 5.35375C17.888 5.52442 18.56 5.60975 19.328 5.60975H28V9.51375Z" fill="black"/>
<mask id="path-2-inside-1_56_120" fill="white">
<path d="M45 0H244V51H45V0Z"/>
</mask>
<path d="M45 51H42V54H45V51ZM244 48H45V54H244V48ZM48 51V0H42V51H48Z" fill="black" mask="url(#path-2-inside-1_56_120)"/>
<path d="M63.432 36V14.048H67.592V36H63.432ZM72.1113 36V19.168H75.3753L75.6953 21.408H75.9193C76.3033 20.896 76.7513 20.448 77.2633 20.064C77.7966 19.6587 78.3939 19.3493 79.0553 19.136C79.7379 18.9013 80.4846 18.784 81.2953 18.784C82.3619 18.784 83.3006 18.976 84.1113 19.36C84.9433 19.744 85.5939 20.3627 86.0633 21.216C86.5326 22.0693 86.7673 23.2107 86.7673 24.64V36H82.8313V25.344C82.8313 24.7467 82.7566 24.256 82.6073 23.872C82.4793 23.4667 82.2766 23.1467 81.9993 22.912C81.7433 22.656 81.4233 22.4747 81.0393 22.368C80.6553 22.2613 80.2286 22.208 79.7593 22.208C79.0553 22.208 78.4153 22.3787 77.8393 22.72C77.2846 23.0613 76.8366 23.5307 76.4953 24.128C76.1753 24.7253 76.0153 25.4187 76.0153 26.208V36H72.1113ZM92.0788 23.264V19.168H96.1108V23.264H92.0788ZM92.0788 36V31.904H96.1108V36H92.0788ZM115.091 36.384C113.256 36.384 111.763 36.096 110.611 35.52C109.459 34.944 108.616 34.176 108.083 33.216C107.55 32.2347 107.283 31.1573 107.283 29.984C107.283 28.7893 107.56 27.744 108.115 26.848C108.691 25.9307 109.598 25.2267 110.835 24.736C109.832 24.2027 109.086 23.5093 108.595 22.656C108.104 21.7813 107.859 20.8213 107.859 19.776C107.859 18.6453 108.126 17.6213 108.659 16.704C109.192 15.7867 109.992 15.0507 111.059 14.496C112.147 13.9413 113.491 13.664 115.091 13.664C116.691 13.664 118.024 13.9413 119.091 14.496C120.158 15.0507 120.958 15.7867 121.491 16.704C122.046 17.6213 122.323 18.6453 122.323 19.776C122.323 20.8213 122.067 21.7813 121.555 22.656C121.064 23.5093 120.318 24.2027 119.315 24.736C120.574 25.2267 121.48 25.9307 122.035 26.848C122.59 27.744 122.867 28.7893 122.867 29.984C122.867 31.1573 122.6 32.2347 122.067 33.216C121.534 34.176 120.691 34.944 119.539 35.52C118.408 36.096 116.926 36.384 115.091 36.384ZM115.091 33.216C116.307 33.216 117.235 32.9173 117.875 32.32C118.515 31.7013 118.835 30.8587 118.835 29.792C118.835 28.704 118.515 27.8613 117.875 27.264C117.235 26.6667 116.307 26.368 115.091 26.368C113.875 26.368 112.936 26.6667 112.275 27.264C111.635 27.8613 111.315 28.704 111.315 29.792C111.315 30.8587 111.635 31.7013 112.275 32.32C112.936 32.9173 113.875 33.216 115.091 33.216ZM115.091 23.2C116.115 23.2 116.915 22.9333 117.491 22.4C118.088 21.8453 118.387 21.056 118.387 20.032C118.387 19.0293 118.088 18.2507 117.491 17.696C116.915 17.12 116.115 16.832 115.091 16.832C114.046 16.832 113.235 17.12 112.659 17.696C112.083 18.2507 111.795 19.0293 111.795 20.032C111.795 21.056 112.083 21.8453 112.659 22.4C113.235 22.9333 114.046 23.2 115.091 23.2ZM132.633 36L124.633 14.048H129.145L134.361 29.152C134.446 29.3653 134.531 29.6107 134.617 29.888C134.702 30.1653 134.787 30.432 134.873 30.688C134.958 30.9227 135.033 31.136 135.097 31.328H135.257C135.321 31.1573 135.385 30.9547 135.449 30.72C135.534 30.4853 135.619 30.24 135.705 29.984C135.79 29.7067 135.875 29.44 135.961 29.184L141.145 14.048H145.465L137.465 36H132.633ZM153.468 29.152V25.568H161.564V29.152H153.468ZM170.882 36V34.944C170.882 33.984 171.053 33.1093 171.394 32.32C171.735 31.5307 172.194 30.816 172.77 30.176C173.346 29.5147 173.986 28.896 174.69 28.32C175.415 27.7227 176.141 27.1573 176.866 26.624C177.762 25.9627 178.605 25.3013 179.394 24.64C180.183 23.9573 180.823 23.232 181.314 22.464C181.805 21.6747 182.05 20.8 182.05 19.84C182.05 19.392 181.943 18.944 181.73 18.496C181.517 18.048 181.165 17.6747 180.674 17.376C180.205 17.0773 179.565 16.928 178.754 16.928C177.943 16.928 177.271 17.0667 176.738 17.344C176.205 17.6 175.799 17.9733 175.522 18.464C175.266 18.9547 175.138 19.5627 175.138 20.288V21.6H171.234C171.213 21.4933 171.191 21.3333 171.17 21.12C171.149 20.9067 171.138 20.64 171.138 20.32C171.138 18.7413 171.49 17.472 172.194 16.512C172.919 15.5307 173.869 14.816 175.042 14.368C176.237 13.8987 177.527 13.664 178.914 13.664C180.365 13.664 181.549 13.8773 182.466 14.304C183.405 14.7307 184.13 15.2747 184.642 15.936C185.175 16.5973 185.538 17.3013 185.73 18.048C185.943 18.7947 186.05 19.4773 186.05 20.096C186.05 21.12 185.869 22.0587 185.506 22.912C185.165 23.744 184.685 24.5333 184.066 25.28C183.447 26.0053 182.711 26.7093 181.858 27.392C181.026 28.0533 180.13 28.7253 179.17 29.408C178.679 29.7493 178.199 30.0907 177.73 30.432C177.261 30.7733 176.845 31.1147 176.482 31.456C176.141 31.7973 175.874 32.1387 175.682 32.48H186.178V36H170.882ZM196.904 36.384C195.709 36.384 194.642 36.2133 193.704 35.872C192.765 35.5093 191.965 34.9013 191.304 34.048C190.642 33.1947 190.141 32.0427 189.799 30.592C189.458 29.12 189.288 27.264 189.288 25.024C189.288 22.784 189.458 20.9387 189.799 19.488C190.141 18.016 190.642 16.8533 191.304 16C191.965 15.1467 192.765 14.5493 193.704 14.208C194.642 13.8453 195.709 13.664 196.904 13.664C198.098 13.664 199.154 13.8453 200.072 14.208C201.01 14.5493 201.81 15.1467 202.472 16C203.133 16.8533 203.634 18.016 203.976 19.488C204.317 20.9387 204.488 22.784 204.488 25.024C204.488 27.264 204.317 29.12 203.976 30.592C203.634 32.0427 203.133 33.1947 202.472 34.048C201.81 34.9013 201.01 35.5093 200.072 35.872C199.154 36.2133 198.098 36.384 196.904 36.384ZM196.904 33.184C197.906 33.184 198.653 32.9173 199.144 32.384C199.656 31.8293 199.997 31.0187 200.168 29.952C200.36 28.864 200.456 27.52 200.456 25.92V24.256C200.456 22.6133 200.36 21.248 200.168 20.16C199.997 19.0507 199.656 18.2293 199.144 17.696C198.653 17.1413 197.906 16.864 196.904 16.864C195.922 16.864 195.165 17.1413 194.632 17.696C194.12 18.2293 193.768 19.04 193.576 20.128C193.405 21.1947 193.32 22.5387 193.32 24.16V25.824C193.32 27.4453 193.405 28.8107 193.576 29.92C193.768 31.008 194.12 31.8293 194.632 32.384C195.165 32.9173 195.922 33.184 196.904 33.184ZM214.414 36L206.414 14.048H210.926L216.142 29.152C216.227 29.3653 216.312 29.6107 216.398 29.888C216.483 30.1653 216.568 30.432 216.654 30.688C216.739 30.9227 216.814 31.136 216.878 31.328H217.038C217.102 31.1573 217.166 30.9547 217.23 30.72C217.315 30.4853 217.4 30.24 217.486 29.984C217.571 29.7067 217.656 29.44 217.742 29.184L222.926 14.048H227.246L219.246 36H214.414Z" fill="black"/>
<mask id="path-5-inside-2_56_120" fill="white">
<path d="M45 51H267V102H45V51Z"/>
</mask>
<path d="M48 102V51H42V102H48Z" fill="black" mask="url(#path-5-inside-2_56_120)"/>
<path d="M73.512 87.384C71.2293 87.384 69.256 86.9787 67.592 86.168C65.928 85.336 64.648 84.0773 63.752 82.392C62.8773 80.7067 62.44 78.584 62.44 76.024C62.44 73.4427 62.8773 71.32 63.752 69.656C64.648 67.9707 65.928 66.7227 67.592 65.912C69.256 65.08 71.2293 64.664 73.512 64.664C75.816 64.664 77.7893 65.08 79.432 65.912C81.096 66.7227 82.3653 67.9707 83.24 69.656C84.136 71.32 84.584 73.4427 84.584 76.024C84.584 78.584 84.136 80.7067 83.24 82.392C82.3653 84.0773 81.096 85.336 79.432 86.168C77.7893 86.9787 75.816 87.384 73.512 87.384ZM73.512 83.864C74.6213 83.864 75.592 83.704 76.424 83.384C77.2773 83.064 77.992 82.5947 78.568 81.976C79.144 81.336 79.5813 80.5573 79.88 79.64C80.1787 78.7013 80.328 77.624 80.328 76.408V75.704C80.328 74.4667 80.1787 73.3787 79.88 72.44C79.5813 71.5013 79.144 70.7227 78.568 70.104C77.992 69.464 77.2773 68.984 76.424 68.664C75.592 68.344 74.6213 68.184 73.512 68.184C72.4027 68.184 71.4213 68.344 70.568 68.664C69.736 68.984 69.032 69.464 68.456 70.104C67.88 70.7227 67.4427 71.5013 67.144 72.44C66.8667 73.3787 66.728 74.4667 66.728 75.704V76.408C66.728 77.624 66.8667 78.7013 67.144 79.64C67.4427 80.5573 67.88 81.336 68.456 81.976C69.032 82.5947 69.736 83.064 70.568 83.384C71.4213 83.704 72.4027 83.864 73.512 83.864ZM93.4553 87.384C91.8339 87.384 90.5113 86.9467 89.4873 86.072C88.4846 85.176 87.9833 83.6613 87.9833 81.528V70.168H91.8873V80.824C91.8873 81.4213 91.9513 81.9227 92.0793 82.328C92.2286 82.712 92.4313 83.032 92.6873 83.288C92.9646 83.5227 93.2953 83.6933 93.6793 83.8C94.0633 83.9067 94.4899 83.96 94.9593 83.96C95.6633 83.96 96.2926 83.7893 96.8473 83.448C97.4233 83.1067 97.8713 82.6373 98.1913 82.04C98.5326 81.4213 98.7033 80.728 98.7033 79.96V70.168H102.607V87H99.3753L99.0553 84.76H98.8313C98.4473 85.272 97.9886 85.7307 97.4553 86.136C96.9433 86.52 96.3459 86.8187 95.6633 87.032C95.0019 87.2667 94.2659 87.384 93.4553 87.384ZM111.216 87.384C110.17 87.384 109.349 87.1813 108.752 86.776C108.154 86.3493 107.728 85.816 107.472 85.176C107.237 84.5147 107.12 83.8427 107.12 83.16V73.368H105.104V70.168H107.216L107.92 65.464H111.024V70.168H113.936V73.368H111.024V82.776C111.024 83.224 111.141 83.576 111.376 83.832C111.61 84.0667 111.962 84.184 112.432 84.184H113.936V86.872C113.722 86.9573 113.456 87.032 113.135 87.096C112.837 87.1813 112.517 87.2453 112.176 87.288C111.834 87.352 111.514 87.384 111.216 87.384ZM118.11 74.264V70.168H122.142V74.264H118.11ZM118.11 87V82.904H122.142V87H118.11ZM141.09 87.384C139.554 87.384 138.2 87.096 137.026 86.52C135.874 85.944 134.978 85.1227 134.338 84.056C133.698 82.968 133.378 81.6773 133.378 80.184H137.41C137.41 80.9947 137.56 81.7093 137.858 82.328C138.157 82.9253 138.584 83.384 139.138 83.704C139.693 84.024 140.344 84.184 141.09 84.184C141.816 84.184 142.445 84.024 142.978 83.704C143.512 83.384 143.928 82.904 144.226 82.264C144.546 81.6027 144.706 80.792 144.706 79.832C144.706 78.936 144.557 78.2 144.258 77.624C143.96 77.0267 143.544 76.5893 143.01 76.312C142.477 76.0133 141.869 75.864 141.186 75.864C140.674 75.864 140.205 75.9493 139.778 76.12C139.352 76.2907 138.978 76.5147 138.658 76.792C138.338 77.048 138.061 77.3467 137.826 77.688L134.114 77.208L135.01 65.048H147.618V68.6H138.402L138.05 74.008C138.349 73.7947 138.69 73.592 139.074 73.4C139.458 73.208 139.906 73.048 140.418 72.92C140.952 72.792 141.56 72.728 142.242 72.728C143.458 72.728 144.557 72.984 145.538 73.496C146.52 74.008 147.298 74.7867 147.874 75.832C148.45 76.8773 148.738 78.2107 148.738 79.832C148.738 81.432 148.429 82.7973 147.81 83.928C147.192 85.0587 146.306 85.9227 145.154 86.52C144.024 87.096 142.669 87.384 141.09 87.384ZM158.633 87L150.633 65.048H155.145L160.361 80.152C160.446 80.3653 160.531 80.6107 160.617 80.888C160.702 81.1653 160.787 81.432 160.873 81.688C160.958 81.9227 161.033 82.136 161.097 82.328H161.257C161.321 82.1573 161.385 81.9547 161.449 81.72C161.534 81.4853 161.619 81.24 161.705 80.984C161.79 80.7067 161.875 80.44 161.961 80.184L167.145 65.048H171.465L163.465 87H158.633ZM169.497 92.216V90.584C170.03 90.4987 170.457 90.2853 170.777 89.944C171.097 89.6027 171.331 89.176 171.481 88.664C171.651 88.152 171.737 87.5973 171.737 87H169.753V82.904H173.785V86.648C173.785 87.8853 173.582 88.888 173.177 89.656C172.793 90.424 172.27 91 171.609 91.384C170.969 91.7893 170.265 92.0667 169.497 92.216ZM184.601 87V85.944C184.601 84.984 184.771 84.1093 185.113 83.32C185.454 82.5307 185.913 81.816 186.489 81.176C187.065 80.5147 187.705 79.896 188.409 79.32C189.134 78.7227 189.859 78.1573 190.585 77.624C191.481 76.9627 192.323 76.3013 193.113 75.64C193.902 74.9573 194.542 74.232 195.033 73.464C195.523 72.6747 195.769 71.8 195.769 70.84C195.769 70.392 195.662 69.944 195.449 69.496C195.235 69.048 194.883 68.6747 194.393 68.376C193.923 68.0773 193.283 67.928 192.473 67.928C191.662 67.928 190.99 68.0667 190.457 68.344C189.923 68.6 189.518 68.9733 189.241 69.464C188.985 69.9547 188.857 70.5627 188.857 71.288V72.6H184.953C184.931 72.4933 184.91 72.3333 184.889 72.12C184.867 71.9067 184.857 71.64 184.857 71.32C184.857 69.7413 185.209 68.472 185.913 67.512C186.638 66.5307 187.587 65.816 188.761 65.368C189.955 64.8987 191.246 64.664 192.633 64.664C194.083 64.664 195.267 64.8773 196.185 65.304C197.123 65.7307 197.849 66.2747 198.361 66.936C198.894 67.5973 199.257 68.3013 199.449 69.048C199.662 69.7947 199.769 70.4773 199.769 71.096C199.769 72.12 199.587 73.0587 199.225 73.912C198.883 74.744 198.403 75.5333 197.785 76.28C197.166 77.0053 196.43 77.7093 195.577 78.392C194.745 79.0533 193.849 79.7253 192.889 80.408C192.398 80.7493 191.918 81.0907 191.449 81.432C190.979 81.7733 190.563 82.1147 190.201 82.456C189.859 82.7973 189.593 83.1387 189.401 83.48H199.897V87H184.601ZM210.59 87.384C209.054 87.384 207.7 87.096 206.526 86.52C205.374 85.944 204.478 85.1227 203.838 84.056C203.198 82.968 202.878 81.6773 202.878 80.184H206.91C206.91 80.9947 207.06 81.7093 207.358 82.328C207.657 82.9253 208.084 83.384 208.638 83.704C209.193 84.024 209.844 84.184 210.59 84.184C211.316 84.184 211.945 84.024 212.478 83.704C213.012 83.384 213.428 82.904 213.726 82.264C214.046 81.6027 214.206 80.792 214.206 79.832C214.206 78.936 214.057 78.2 213.758 77.624C213.46 77.0267 213.044 76.5893 212.51 76.312C211.977 76.0133 211.369 75.864 210.686 75.864C210.174 75.864 209.705 75.9493 209.278 76.12C208.852 76.2907 208.478 76.5147 208.158 76.792C207.838 77.048 207.561 77.3467 207.326 77.688L203.614 77.208L204.51 65.048H217.118V68.6H207.902L207.55 74.008C207.849 73.7947 208.19 73.592 208.574 73.4C208.958 73.208 209.406 73.048 209.918 72.92C210.452 72.792 211.06 72.728 211.742 72.728C212.958 72.728 214.057 72.984 215.038 73.496C216.02 74.008 216.798 74.7867 217.374 75.832C217.95 76.8773 218.238 78.2107 218.238 79.832C218.238 81.432 217.929 82.7973 217.31 83.928C216.692 85.0587 215.806 85.9227 214.654 86.52C213.524 87.096 212.169 87.384 210.59 87.384ZM226.085 87L220.133 65.048H224.549L228.101 79.16C228.165 79.3733 228.229 79.672 228.293 80.056C228.357 80.4187 228.421 80.8027 228.485 81.208C228.549 81.6133 228.602 81.976 228.645 82.296H228.805C228.847 82.04 228.879 81.7627 228.901 81.464C228.943 81.1653 228.986 80.8667 229.029 80.568C229.093 80.2693 229.146 80.0027 229.189 79.768C229.231 79.512 229.263 79.3093 229.285 79.16L232.581 65.048H237.925L241.221 79.16C241.285 79.3733 241.349 79.672 241.413 80.056C241.477 80.4187 241.541 80.8027 241.605 81.208C241.669 81.6133 241.722 81.976 241.765 82.296H241.925C241.967 82.0613 242.01 81.8053 242.053 81.528C242.117 81.2293 242.17 80.9413 242.213 80.664C242.277 80.3653 242.341 80.088 242.405 79.832C242.469 79.576 242.522 79.352 242.565 79.16L246.117 65.048H250.021L244.037 87H239.269L235.717 72.6C235.653 72.3013 235.578 71.96 235.493 71.576C235.429 71.1707 235.365 70.776 235.301 70.392C235.258 69.9867 235.215 69.6347 235.173 69.336H235.045C235.023 69.656 234.981 70.0293 234.917 70.456C234.874 70.8613 234.821 71.256 234.757 71.64C234.693 72.024 234.629 72.344 234.565 72.6L231.045 87H226.085Z" fill="black"/>
</svg>
