<svg width="205" height="55" viewBox="0 0 205 55" fill="none" xmlns="http://www.w3.org/2000/svg">
<rect width="205" height="55" rx="27.5" fill="black"/>
<path d="M27.4 38V16.016H33.128V38H27.4ZM37.9313 38V16.016H50.6993C52.3206 16.016 53.6753 16.3253 54.7633 16.944C55.8513 17.5413 56.6619 18.3733 57.1953 19.44C57.7499 20.4853 58.0273 21.6587 58.0273 22.96C58.0273 24.368 57.6966 25.6267 57.0353 26.736C56.3953 27.824 55.4886 28.6773 54.3153 29.296L58.7313 38H52.3313L48.6833 30.256H43.6593V38H37.9313ZM43.6593 26H49.5793C50.3686 26 50.9979 25.744 51.4673 25.232C51.9579 24.6987 52.2033 23.9947 52.2033 23.12C52.2033 22.544 52.0966 22.0533 51.8833 21.648C51.6699 21.2427 51.3713 20.9333 50.9873 20.72C50.6033 20.4853 50.1339 20.368 49.5793 20.368H43.6593V26ZM77.1138 38.384C75.7271 38.384 74.4258 38.256 73.2098 38C71.9938 37.7653 70.9164 37.3707 69.9778 36.816C69.0604 36.2613 68.3351 35.536 67.8018 34.64C67.2684 33.7227 67.0018 32.6027 67.0018 31.28C67.0018 31.1947 67.0018 31.0987 67.0018 30.992C67.0018 30.8853 67.0124 30.8 67.0338 30.736H72.5698C72.5698 30.8 72.5591 30.8853 72.5378 30.992C72.5378 31.0773 72.5378 31.152 72.5378 31.216C72.5378 31.8987 72.7084 32.4533 73.0498 32.88C73.4124 33.2853 73.9138 33.584 74.5538 33.776C75.1938 33.9467 75.9404 34.032 76.7938 34.032C77.2631 34.032 77.7004 34.0107 78.1058 33.968C78.5111 33.9253 78.8738 33.8507 79.1938 33.744C79.5138 33.6373 79.7911 33.5093 80.0258 33.36C80.2818 33.1893 80.4631 32.9973 80.5698 32.784C80.6978 32.5493 80.7618 32.2827 80.7618 31.984C80.7618 31.4933 80.5698 31.088 80.1858 30.768C79.8231 30.448 79.3218 30.1813 78.6818 29.968C78.0631 29.7547 77.3591 29.552 76.5698 29.36C75.7804 29.168 74.9591 28.9653 74.1058 28.752C73.2524 28.5387 72.4311 28.272 71.6418 27.952C70.8524 27.632 70.1378 27.2267 69.4978 26.736C68.8791 26.2453 68.3778 25.6373 67.9938 24.912C67.6311 24.1653 67.4498 23.2693 67.4498 22.224C67.4498 21.072 67.6951 20.08 68.1858 19.248C68.6764 18.3947 69.3484 17.7013 70.2018 17.168C71.0764 16.6347 72.0791 16.2507 73.2098 16.016C74.3404 15.76 75.5458 15.632 76.8258 15.632C78.0844 15.632 79.2578 15.76 80.3458 16.016C81.4551 16.272 82.4364 16.6773 83.2898 17.232C84.1431 17.7653 84.8044 18.448 85.2738 19.28C85.7644 20.0907 86.0204 21.072 86.0418 22.224V22.608H80.5378V22.384C80.5378 21.8933 80.3991 21.4667 80.1218 21.104C79.8658 20.72 79.4711 20.4213 78.9378 20.208C78.4044 19.9733 77.7431 19.856 76.9538 19.856C76.1644 19.856 75.4924 19.9307 74.9378 20.08C74.4044 20.2293 73.9884 20.4427 73.6898 20.72C73.4124 20.9973 73.2738 21.328 73.2738 21.712C73.2738 22.1813 73.4551 22.5653 73.8177 22.864C74.2018 23.1627 74.7138 23.4187 75.3538 23.632C75.9938 23.8453 76.7084 24.048 77.4978 24.24C78.2871 24.4107 79.0978 24.6027 79.9298 24.816C80.7831 25.008 81.6044 25.264 82.3938 25.584C83.1831 25.8827 83.8978 26.2773 84.5378 26.768C85.1778 27.2373 85.6791 27.824 86.0418 28.528C86.4258 29.232 86.6178 30.0853 86.6178 31.088C86.6178 32.8373 86.2018 34.2453 85.3698 35.312C84.5591 36.3787 83.4284 37.1573 81.9778 37.648C80.5484 38.1387 78.9271 38.384 77.1138 38.384ZM98.1463 38.384C96.2263 38.384 94.5943 38.0747 93.2503 37.456C91.9063 36.816 90.8716 35.8453 90.1463 34.544C89.4423 33.2427 89.0903 31.5787 89.0903 29.552C89.0903 27.568 89.4423 25.9253 90.1463 24.624C90.8503 23.3227 91.8636 22.352 93.1863 21.712C94.5089 21.072 96.0983 20.752 97.9543 20.752C99.7889 20.752 101.336 21.0613 102.594 21.68C103.874 22.2987 104.845 23.248 105.506 24.528C106.168 25.808 106.498 27.4613 106.498 29.488V30.608H94.4023C94.4023 31.504 94.5303 32.2613 94.7863 32.88C95.0423 33.4987 95.4369 33.968 95.9703 34.288C96.5036 34.608 97.2183 34.768 98.1143 34.768C98.6476 34.768 99.1169 34.704 99.5223 34.576C99.9276 34.448 100.269 34.2667 100.546 34.032C100.824 33.776 101.037 33.4773 101.186 33.136C101.336 32.7947 101.41 32.4107 101.41 31.984H106.498C106.498 33.008 106.306 33.9253 105.922 34.736C105.56 35.5253 105.016 36.1973 104.29 36.752C103.565 37.2853 102.68 37.6907 101.634 37.968C100.61 38.2453 99.4476 38.384 98.1463 38.384ZM94.4343 27.696H101.154C101.154 27.1413 101.08 26.6613 100.93 26.256C100.802 25.8293 100.6 25.4773 100.322 25.2C100.066 24.9227 99.7463 24.72 99.3623 24.592C98.9996 24.4427 98.5729 24.368 98.0823 24.368C97.3143 24.368 96.6743 24.496 96.1623 24.752C95.6503 25.008 95.2556 25.3813 94.9783 25.872C94.7009 26.3627 94.5196 26.9707 94.4343 27.696ZM109.703 38V21.136H114.023L114.407 23.536H114.631C115.057 22.96 115.548 22.4587 116.103 22.032C116.657 21.6053 117.287 21.2853 117.991 21.072C118.695 20.8587 119.441 20.752 120.231 20.752C121.447 20.752 122.471 20.976 123.303 21.424C124.156 21.872 124.807 22.544 125.255 23.44C125.703 24.336 125.927 25.4773 125.927 26.864V38H120.679V27.6C120.679 27.1307 120.615 26.736 120.487 26.416C120.38 26.0747 120.22 25.7867 120.007 25.552C119.793 25.3173 119.527 25.1467 119.207 25.04C118.887 24.9333 118.524 24.88 118.119 24.88C117.5 24.88 116.956 25.0293 116.487 25.328C116.017 25.6053 115.644 25.9893 115.367 26.48C115.089 26.9493 114.951 27.504 114.951 28.144V38H109.703ZM137.06 38.384C135.95 38.384 134.905 38.2667 133.924 38.032C132.964 37.7973 132.11 37.456 131.364 37.008C130.638 36.56 130.062 36.0053 129.636 35.344C129.23 34.6827 129.028 33.9147 129.028 33.04C129.028 32.9547 129.028 32.88 129.028 32.816C129.028 32.7307 129.038 32.656 129.06 32.592H134.02C134.02 32.6347 134.02 32.688 134.02 32.752C134.02 32.7947 134.02 32.8373 134.02 32.88C134.041 33.3493 134.19 33.744 134.468 34.064C134.766 34.3627 135.15 34.5867 135.62 34.736C136.089 34.864 136.601 34.928 137.156 34.928C137.561 34.928 137.988 34.8853 138.436 34.8C138.905 34.7147 139.3 34.5653 139.62 34.352C139.94 34.1387 140.1 33.8293 140.1 33.424C140.1 32.976 139.897 32.6347 139.492 32.4C139.108 32.1653 138.585 31.9733 137.924 31.824C137.284 31.6533 136.59 31.4933 135.844 31.344C135.097 31.1733 134.34 30.9813 133.572 30.768C132.825 30.5547 132.132 30.2667 131.492 29.904C130.873 29.52 130.372 29.0293 129.988 28.432C129.604 27.8347 129.412 27.0773 129.412 26.16C129.412 25.1787 129.614 24.3467 130.02 23.664C130.446 22.96 131.022 22.3947 131.748 21.968C132.473 21.5413 133.305 21.232 134.244 21.04C135.204 20.848 136.217 20.752 137.284 20.752C138.265 20.752 139.193 20.848 140.068 21.04C140.964 21.232 141.764 21.5307 142.468 21.936C143.193 22.32 143.758 22.8213 144.164 23.44C144.569 24.0373 144.772 24.7413 144.772 25.552C144.772 25.6587 144.761 25.776 144.74 25.904C144.74 26.0107 144.74 26.0853 144.74 26.128H139.812V25.872C139.812 25.5093 139.694 25.2107 139.46 24.976C139.225 24.7413 138.905 24.56 138.5 24.432C138.094 24.2827 137.646 24.208 137.156 24.208C136.836 24.208 136.516 24.24 136.196 24.304C135.897 24.3467 135.62 24.4213 135.364 24.528C135.108 24.6133 134.894 24.7413 134.724 24.912C134.574 25.0827 134.5 25.296 134.5 25.552C134.5 25.872 134.638 26.1387 134.916 26.352C135.193 26.544 135.566 26.704 136.036 26.832C136.526 26.96 137.06 27.0987 137.636 27.248C138.425 27.4187 139.257 27.6 140.132 27.792C141.006 27.9627 141.828 28.2187 142.596 28.56C143.385 28.88 144.014 29.3707 144.484 30.032C144.974 30.672 145.22 31.5573 145.22 32.688C145.22 33.7547 145.006 34.6613 144.58 35.408C144.153 36.1333 143.566 36.72 142.82 37.168C142.073 37.5947 141.209 37.904 140.228 38.096C139.246 38.288 138.19 38.384 137.06 38.384ZM156.519 38.384C154.642 38.384 153.031 38.064 151.687 37.424C150.364 36.784 149.34 35.8133 148.615 34.512C147.911 33.1893 147.559 31.536 147.559 29.552C147.559 27.568 147.911 25.9253 148.615 24.624C149.34 23.3227 150.364 22.352 151.687 21.712C153.031 21.072 154.642 20.752 156.519 20.752C158.418 20.752 160.028 21.072 161.351 21.712C162.695 22.352 163.719 23.3227 164.423 24.624C165.148 25.9253 165.511 27.568 165.511 29.552C165.511 31.536 165.148 33.1893 164.423 34.512C163.719 35.8133 162.695 36.784 161.351 37.424C160.028 38.064 158.418 38.384 156.519 38.384ZM156.519 34.576C157.394 34.576 158.098 34.4053 158.631 34.064C159.186 33.7227 159.58 33.232 159.815 32.592C160.071 31.9307 160.199 31.12 160.199 30.16V28.976C160.199 28.016 160.071 27.2053 159.815 26.544C159.58 25.8827 159.186 25.392 158.631 25.072C158.098 24.7307 157.394 24.56 156.519 24.56C155.666 24.56 154.962 24.7307 154.407 25.072C153.874 25.392 153.479 25.8827 153.223 26.544C152.988 27.2053 152.871 28.016 152.871 28.976V30.16C152.871 31.12 152.988 31.9307 153.223 32.592C153.479 33.232 153.874 33.7227 154.407 34.064C154.962 34.4053 155.666 34.576 156.519 34.576ZM168.672 38V21.136H172.992L173.376 23.728H173.6C173.856 23.152 174.165 22.64 174.528 22.192C174.912 21.7227 175.37 21.36 175.904 21.104C176.458 20.848 177.066 20.72 177.728 20.72C178.112 20.72 178.464 20.7627 178.784 20.848C179.104 20.912 179.338 20.9867 179.488 21.072V25.648H177.824C177.162 25.648 176.576 25.744 176.064 25.936C175.573 26.1067 175.168 26.384 174.848 26.768C174.528 27.1307 174.293 27.5787 174.144 28.112C173.994 28.6453 173.92 29.264 173.92 29.968V38H168.672Z" fill="white"/>
</svg>
