<svg width="533" height="162" viewBox="0 0 533 162" fill="none" xmlns="http://www.w3.org/2000/svg">
<rect x="1.5" y="1.5" width="530" height="159" rx="6.5" stroke="black" stroke-width="3"/>
<mask id="path-2-inside-1_56_58" fill="white">
<path d="M0 0L428 0V58H0L0 0Z"/>
</mask>
<path d="M428 55H0L0 61H428V55Z" fill="black" mask="url(#path-2-inside-1_56_58)"/>
<path d="M30.08 38.336C28.8667 38.336 27.728 38.224 26.664 38C25.6 37.7947 24.6573 37.4493 23.836 36.964C23.0333 36.4787 22.3987 35.844 21.932 35.06C21.4653 34.2573 21.232 33.2773 21.232 32.12C21.232 32.0453 21.232 31.9613 21.232 31.868C21.232 31.7747 21.2413 31.7 21.26 31.644H26.104C26.104 31.7 26.0947 31.7747 26.076 31.868C26.076 31.9427 26.076 32.008 26.076 32.064C26.076 32.6613 26.2253 33.1467 26.524 33.52C26.8413 33.8747 27.28 34.136 27.84 34.304C28.4 34.4533 29.0533 34.528 29.8 34.528C30.2107 34.528 30.5933 34.5093 30.948 34.472C31.3027 34.4347 31.62 34.3693 31.9 34.276C32.18 34.1827 32.4227 34.0707 32.628 33.94C32.852 33.7907 33.0107 33.6227 33.104 33.436C33.216 33.2307 33.272 32.9973 33.272 32.736C33.272 32.3067 33.104 31.952 32.768 31.672C32.4507 31.392 32.012 31.1587 31.452 30.972C30.9107 30.7853 30.2947 30.608 29.604 30.44C28.9133 30.272 28.1947 30.0947 27.448 29.908C26.7013 29.7213 25.9827 29.488 25.292 29.208C24.6013 28.928 23.976 28.5733 23.416 28.144C22.8747 27.7147 22.436 27.1827 22.1 26.548C21.7827 25.8947 21.624 25.1107 21.624 24.196C21.624 23.188 21.8387 22.32 22.268 21.592C22.6973 20.8453 23.2853 20.2387 24.032 19.772C24.7973 19.3053 25.6747 18.9693 26.664 18.764C27.6533 18.54 28.708 18.428 29.828 18.428C30.9293 18.428 31.956 18.54 32.908 18.764C33.8787 18.988 34.7373 19.3427 35.484 19.828C36.2307 20.2947 36.8093 20.892 37.22 21.62C37.6493 22.3293 37.8733 23.188 37.892 24.196V24.532H33.076V24.336C33.076 23.9067 32.9547 23.5333 32.712 23.216C32.488 22.88 32.1427 22.6187 31.676 22.432C31.2093 22.2267 30.6307 22.124 29.94 22.124C29.2493 22.124 28.6613 22.1893 28.176 22.32C27.7093 22.4507 27.3453 22.6373 27.084 22.88C26.8413 23.1227 26.72 23.412 26.72 23.748C26.72 24.1587 26.8787 24.4947 27.196 24.756C27.532 25.0173 27.98 25.2413 28.54 25.428C29.1 25.6147 29.7253 25.792 30.416 25.96C31.1067 26.1093 31.816 26.2773 32.544 26.464C33.2907 26.632 34.0093 26.856 34.7 27.136C35.3907 27.3973 36.016 27.7427 36.576 28.172C37.136 28.5827 37.5747 29.096 37.892 29.712C38.228 30.328 38.396 31.0747 38.396 31.952C38.396 33.4827 38.032 34.7147 37.304 35.648C36.5947 36.5813 35.6053 37.2627 34.336 37.692C33.0853 38.1213 31.6667 38.336 30.08 38.336ZM48.4834 38.336C46.8034 38.336 45.3754 38.0653 44.1994 37.524C43.0234 36.964 42.1181 36.1147 41.4834 34.976C40.8674 33.8373 40.5594 32.3813 40.5594 30.608C40.5594 28.872 40.8674 27.4347 41.4834 26.296C42.0994 25.1573 42.9861 24.308 44.1434 23.748C45.3008 23.188 46.6914 22.908 48.3154 22.908C49.9208 22.908 51.2741 23.1787 52.3754 23.72C53.4954 24.2613 54.3448 25.092 54.9234 26.212C55.5021 27.332 55.7914 28.7787 55.7914 30.552V31.532H45.2074C45.2074 32.316 45.3194 32.9787 45.5434 33.52C45.7674 34.0613 46.1128 34.472 46.5794 34.752C47.0461 35.032 47.6714 35.172 48.4554 35.172C48.9221 35.172 49.3328 35.116 49.6874 35.004C50.0421 34.892 50.3408 34.7333 50.5834 34.528C50.8261 34.304 51.0128 34.0427 51.1434 33.744C51.2741 33.4453 51.3394 33.1093 51.3394 32.736H55.7914C55.7914 33.632 55.6234 34.4347 55.2874 35.144C54.9701 35.8347 54.4941 36.4227 53.8594 36.908C53.2248 37.3747 52.4501 37.7293 51.5354 37.972C50.6394 38.2147 49.6221 38.336 48.4834 38.336ZM45.2354 28.984H51.1154C51.1154 28.4987 51.0501 28.0787 50.9194 27.724C50.8074 27.3507 50.6301 27.0427 50.3874 26.8C50.1634 26.5573 49.8834 26.38 49.5474 26.268C49.2301 26.1373 48.8568 26.072 48.4274 26.072C47.7554 26.072 47.1954 26.184 46.7474 26.408C46.2994 26.632 45.9541 26.9587 45.7114 27.388C45.4688 27.8173 45.3101 28.3493 45.2354 28.984ZM65.8194 38.336C64.1394 38.336 62.7114 38.0653 61.5354 37.524C60.3594 36.964 59.454 36.1147 58.8194 34.976C58.2034 33.8373 57.8954 32.3813 57.8954 30.608C57.8954 28.872 58.2034 27.4347 58.8194 26.296C59.4354 25.1573 60.322 24.308 61.4794 23.748C62.6367 23.188 64.0274 22.908 65.6514 22.908C67.2567 22.908 68.61 23.1787 69.7114 23.72C70.8314 24.2613 71.6807 25.092 72.2594 26.212C72.838 27.332 73.1274 28.7787 73.1274 30.552V31.532H62.5434C62.5434 32.316 62.6554 32.9787 62.8794 33.52C63.1034 34.0613 63.4487 34.472 63.9154 34.752C64.382 35.032 65.0074 35.172 65.7914 35.172C66.258 35.172 66.6687 35.116 67.0234 35.004C67.378 34.892 67.6767 34.7333 67.9194 34.528C68.162 34.304 68.3487 34.0427 68.4794 33.744C68.61 33.4453 68.6754 33.1093 68.6754 32.736H73.1274C73.1274 33.632 72.9594 34.4347 72.6234 35.144C72.306 35.8347 71.83 36.4227 71.1954 36.908C70.5607 37.3747 69.786 37.7293 68.8714 37.972C67.9754 38.2147 66.958 38.336 65.8194 38.336ZM62.5714 28.984H68.4514C68.4514 28.4987 68.386 28.0787 68.2554 27.724C68.1434 27.3507 67.966 27.0427 67.7234 26.8C67.4994 26.5573 67.2194 26.38 66.8834 26.268C66.566 26.1373 66.1927 26.072 65.7634 26.072C65.0914 26.072 64.5314 26.184 64.0834 26.408C63.6354 26.632 63.29 26.9587 63.0474 27.388C62.8047 27.8173 62.646 28.3493 62.5714 28.984ZM84.8073 38.336C83.8553 38.336 82.978 38.14 82.1753 37.748C81.3726 37.356 80.7286 36.7587 80.2433 35.956H80.0473L79.7113 38H75.9593V17.728H80.5513V24.756H80.7193C81.018 24.364 81.3726 24.028 81.7833 23.748C82.2126 23.468 82.6886 23.2627 83.2113 23.132C83.734 22.9827 84.294 22.908 84.8913 22.908C86.1046 22.908 87.1593 23.188 88.0553 23.748C88.9513 24.308 89.642 25.1573 90.1273 26.296C90.6126 27.416 90.8553 28.844 90.8553 30.58C90.8553 32.3533 90.6126 33.8093 90.1273 34.948C89.642 36.0867 88.942 36.936 88.0273 37.496C87.1313 38.056 86.058 38.336 84.8073 38.336ZM83.3793 34.752C84.07 34.752 84.6206 34.6213 85.0313 34.36C85.4606 34.08 85.7686 33.6693 85.9553 33.128C86.142 32.5867 86.2353 31.924 86.2353 31.14V30.16C86.2353 29.3573 86.142 28.6853 85.9553 28.144C85.7686 27.6027 85.4606 27.192 85.0313 26.912C84.6206 26.632 84.07 26.492 83.3793 26.492C82.8753 26.492 82.4366 26.5853 82.0633 26.772C81.7086 26.9587 81.41 27.22 81.1673 27.556C80.9433 27.892 80.7753 28.2933 80.6633 28.76C80.57 29.2267 80.5233 29.74 80.5233 30.3V30.972C80.5233 31.7373 80.6166 32.4093 80.8033 32.988C81.0086 33.548 81.3166 33.9867 81.7273 34.304C82.1566 34.6027 82.7073 34.752 83.3793 34.752ZM98.5501 38.336C96.9634 38.336 95.7314 37.8973 94.8541 37.02C93.9954 36.1427 93.5661 34.7987 93.5661 32.988V23.244H98.1581V32.344C98.1581 32.736 98.2047 33.0813 98.2981 33.38C98.4101 33.6787 98.5594 33.9307 98.7461 34.136C98.9327 34.3413 99.1661 34.4907 99.4461 34.584C99.7447 34.6773 100.062 34.724 100.398 34.724C100.939 34.724 101.415 34.6027 101.826 34.36C102.237 34.0987 102.563 33.7533 102.806 33.324C103.049 32.876 103.17 32.3907 103.17 31.868V23.244H107.762V38H103.982L103.702 35.9H103.506C103.17 36.3853 102.741 36.8147 102.218 37.188C101.714 37.5613 101.145 37.8413 100.51 38.028C99.8941 38.2333 99.2407 38.336 98.5501 38.336ZM111.623 38V18.764H118.931L121.255 27.332C121.349 27.6307 121.461 28.0413 121.591 28.564C121.722 29.068 121.853 29.6 121.983 30.16C122.114 30.72 122.226 31.224 122.319 31.672H122.543C122.618 31.3173 122.711 30.8973 122.823 30.412C122.935 29.908 123.057 29.3853 123.187 28.844C123.318 28.284 123.439 27.7707 123.551 27.304L125.903 18.764H133.015V38H128.143V29.796C128.143 28.9933 128.143 28.1813 128.143 27.36C128.162 26.5387 128.181 25.792 128.199 25.12C128.218 24.448 128.227 23.9627 128.227 23.664H128.003C127.947 23.944 127.854 24.3547 127.723 24.896C127.611 25.4187 127.481 25.9693 127.331 26.548C127.201 27.108 127.079 27.5933 126.967 28.004L124.167 38H120.135L117.307 28.004C117.214 27.6307 117.102 27.1827 116.971 26.66C116.841 26.1373 116.71 25.6053 116.579 25.064C116.467 24.5227 116.365 24.0653 116.271 23.692H116.047C116.066 24.1773 116.085 24.7747 116.103 25.484C116.122 26.1747 116.141 26.9027 116.159 27.668C116.178 28.4147 116.187 29.124 116.187 29.796V38H111.623Z" fill="black"/>
<mask id="path-5-inside-2_56_58" fill="white">
<path d="M0 58H428V106H0L0 58Z"/>
</mask>
<path d="M428 103H0L0 109H428V103Z" fill="black" mask="url(#path-5-inside-2_56_58)"/>
<path d="M21.368 88V75.652H27.794C28.682 75.652 29.42 75.82 30.008 76.156C30.608 76.48 31.058 76.942 31.358 77.542C31.67 78.13 31.826 78.832 31.826 79.648C31.826 80.464 31.664 81.178 31.34 81.79C31.028 82.39 30.566 82.858 29.954 83.194C29.342 83.53 28.592 83.698 27.704 83.698H24.05V88H21.368ZM24.05 81.502H27.344C27.908 81.502 28.34 81.34 28.64 81.016C28.952 80.692 29.108 80.242 29.108 79.666C29.108 79.27 29.042 78.94 28.91 78.676C28.778 78.412 28.58 78.208 28.316 78.064C28.064 77.92 27.74 77.848 27.344 77.848H24.05V81.502ZM37.495 88.216C36.451 88.216 35.575 88.042 34.867 87.694C34.159 87.334 33.625 86.788 33.265 86.056C32.905 85.324 32.725 84.394 32.725 83.266C32.725 82.126 32.905 81.196 33.265 80.476C33.625 79.744 34.153 79.204 34.849 78.856C35.557 78.496 36.421 78.316 37.441 78.316C38.401 78.316 39.211 78.49 39.871 78.838C40.531 79.174 41.029 79.702 41.365 80.422C41.701 81.13 41.869 82.048 41.869 83.176V83.824H35.263C35.287 84.376 35.371 84.844 35.515 85.228C35.671 85.612 35.905 85.9 36.217 86.092C36.541 86.272 36.967 86.362 37.495 86.362C37.783 86.362 38.041 86.326 38.269 86.254C38.509 86.182 38.713 86.074 38.881 85.93C39.049 85.786 39.181 85.606 39.277 85.39C39.373 85.174 39.421 84.928 39.421 84.652H41.869C41.869 85.252 41.761 85.774 41.545 86.218C41.329 86.662 41.029 87.034 40.645 87.334C40.261 87.622 39.799 87.844 39.259 88C38.731 88.144 38.143 88.216 37.495 88.216ZM35.299 82.24H39.295C39.295 81.88 39.247 81.568 39.151 81.304C39.067 81.04 38.947 80.824 38.791 80.656C38.635 80.488 38.443 80.368 38.215 80.296C37.999 80.212 37.753 80.17 37.477 80.17C37.021 80.17 36.637 80.248 36.325 80.404C36.025 80.548 35.791 80.776 35.623 81.088C35.467 81.388 35.359 81.772 35.299 82.24ZM47.0527 88.216C46.2727 88.216 45.5947 88.042 45.0187 87.694C44.4547 87.334 44.0167 86.788 43.7047 86.056C43.3927 85.324 43.2367 84.388 43.2367 83.248C43.2367 82.108 43.3927 81.178 43.7047 80.458C44.0287 79.726 44.4667 79.186 45.0187 78.838C45.5827 78.49 46.2307 78.316 46.9627 78.316C47.3707 78.316 47.7487 78.364 48.0967 78.46C48.4567 78.544 48.7687 78.682 49.0327 78.874C49.3087 79.066 49.5427 79.3 49.7347 79.576H49.8427V74.986H52.3447V88H50.2927L50.0947 86.722H49.9687C49.6567 87.226 49.2487 87.604 48.7447 87.856C48.2407 88.096 47.6767 88.216 47.0527 88.216ZM47.8447 86.164C48.3127 86.164 48.6907 86.056 48.9787 85.84C49.2787 85.624 49.5007 85.312 49.6447 84.904C49.7887 84.496 49.8607 84.01 49.8607 83.446V83.122C49.8607 82.702 49.8187 82.318 49.7347 81.97C49.6627 81.622 49.5427 81.334 49.3747 81.106C49.2067 80.866 48.9967 80.686 48.7447 80.566C48.4927 80.434 48.1927 80.368 47.8447 80.368C47.3407 80.368 46.9387 80.47 46.6387 80.674C46.3387 80.866 46.1227 81.166 45.9907 81.574C45.8587 81.97 45.7927 82.468 45.7927 83.068V83.482C45.7927 84.082 45.8587 84.58 45.9907 84.976C46.1227 85.372 46.3387 85.672 46.6387 85.876C46.9387 86.068 47.3407 86.164 47.8447 86.164ZM54.6559 88V78.532H56.7259L56.9239 80.008H57.0499C57.1699 79.696 57.3259 79.414 57.5179 79.162C57.7099 78.898 57.9499 78.688 58.2379 78.532C58.5259 78.376 58.8619 78.298 59.2459 78.298C59.4499 78.298 59.6359 78.322 59.8039 78.37C59.9719 78.406 60.0979 78.442 60.1819 78.478V80.746H59.4079C59.0359 80.746 58.7059 80.8 58.4179 80.908C58.1419 81.004 57.9079 81.16 57.7159 81.376C57.5239 81.592 57.3799 81.856 57.2839 82.168C57.1999 82.48 57.1579 82.846 57.1579 83.266V88H54.6559ZM65.674 88.216C64.642 88.216 63.766 88.042 63.046 87.694C62.326 87.334 61.78 86.788 61.408 86.056C61.036 85.312 60.85 84.382 60.85 83.266C60.85 82.126 61.036 81.196 61.408 80.476C61.78 79.744 62.326 79.204 63.046 78.856C63.766 78.496 64.642 78.316 65.674 78.316C66.73 78.316 67.612 78.496 68.32 78.856C69.04 79.204 69.586 79.744 69.958 80.476C70.33 81.196 70.516 82.126 70.516 83.266C70.516 84.382 70.33 85.312 69.958 86.056C69.586 86.788 69.04 87.334 68.32 87.694C67.612 88.042 66.73 88.216 65.674 88.216ZM65.674 86.272C66.226 86.272 66.664 86.17 66.988 85.966C67.324 85.762 67.57 85.45 67.726 85.03C67.882 84.61 67.96 84.094 67.96 83.482V83.05C67.96 82.438 67.882 81.922 67.726 81.502C67.57 81.082 67.324 80.77 66.988 80.566C66.664 80.35 66.226 80.242 65.674 80.242C65.134 80.242 64.696 80.35 64.36 80.566C64.036 80.77 63.796 81.082 63.64 81.502C63.484 81.922 63.406 82.438 63.406 83.05V83.482C63.406 84.094 63.484 84.61 63.64 85.03C63.796 85.45 64.036 85.762 64.36 85.966C64.696 86.17 65.134 86.272 65.674 86.272ZM76.1063 88V75.652H78.7883V80.548H84.2603V75.652H86.9423V88H84.2603V82.816H78.7883V88H76.1063ZM93.7626 88.216C92.7186 88.216 91.8426 88.042 91.1346 87.694C90.4266 87.334 89.8926 86.788 89.5326 86.056C89.1726 85.324 88.9926 84.394 88.9926 83.266C88.9926 82.126 89.1726 81.196 89.5326 80.476C89.8926 79.744 90.4206 79.204 91.1166 78.856C91.8246 78.496 92.6886 78.316 93.7086 78.316C94.6686 78.316 95.4786 78.49 96.1386 78.838C96.7986 79.174 97.2966 79.702 97.6326 80.422C97.9686 81.13 98.1366 82.048 98.1366 83.176V83.824H91.5306C91.5546 84.376 91.6386 84.844 91.7826 85.228C91.9386 85.612 92.1726 85.9 92.4846 86.092C92.8086 86.272 93.2346 86.362 93.7626 86.362C94.0506 86.362 94.3086 86.326 94.5366 86.254C94.7766 86.182 94.9806 86.074 95.1486 85.93C95.3166 85.786 95.4486 85.606 95.5446 85.39C95.6406 85.174 95.6886 84.928 95.6886 84.652H98.1366C98.1366 85.252 98.0286 85.774 97.8126 86.218C97.5966 86.662 97.2966 87.034 96.9126 87.334C96.5286 87.622 96.0666 87.844 95.5266 88C94.9986 88.144 94.4106 88.216 93.7626 88.216ZM91.5666 82.24H95.5626C95.5626 81.88 95.5146 81.568 95.4186 81.304C95.3346 81.04 95.2146 80.824 95.0586 80.656C94.9026 80.488 94.7106 80.368 94.4826 80.296C94.2666 80.212 94.0206 80.17 93.7446 80.17C93.2886 80.17 92.9046 80.248 92.5926 80.404C92.2926 80.548 92.0586 80.776 91.8906 81.088C91.7346 81.388 91.6266 81.772 91.5666 82.24ZM99.9723 88V78.532H102.042L102.24 79.828H102.366C102.582 79.516 102.84 79.246 103.14 79.018C103.452 78.79 103.8 78.616 104.184 78.496C104.568 78.376 104.988 78.316 105.444 78.316C106.068 78.316 106.614 78.43 107.082 78.658C107.55 78.886 107.91 79.246 108.162 79.738C108.426 80.23 108.558 80.872 108.558 81.664V88H106.056V82.06C106.056 81.76 106.02 81.508 105.948 81.304C105.876 81.088 105.768 80.914 105.624 80.782C105.492 80.638 105.324 80.536 105.12 80.476C104.916 80.416 104.688 80.386 104.436 80.386C104.064 80.386 103.728 80.476 103.428 80.656C103.128 80.836 102.894 81.082 102.726 81.394C102.558 81.706 102.474 82.066 102.474 82.474V88H99.9723ZM110.8 88V78.532H112.87L113.068 80.008H113.194C113.314 79.696 113.47 79.414 113.662 79.162C113.854 78.898 114.094 78.688 114.382 78.532C114.67 78.376 115.006 78.298 115.39 78.298C115.594 78.298 115.78 78.322 115.948 78.37C116.116 78.406 116.242 78.442 116.326 78.478V80.746H115.552C115.18 80.746 114.85 80.8 114.562 80.908C114.286 81.004 114.052 81.16 113.86 81.376C113.668 81.592 113.524 81.856 113.428 82.168C113.344 82.48 113.302 82.846 113.302 83.266V88H110.8ZM117.638 77.146V74.986H120.14V77.146H117.638ZM117.638 88V78.532H120.14V88H117.638ZM128.575 91.204V86.956H128.467C128.275 87.232 128.041 87.466 127.765 87.658C127.489 87.838 127.177 87.976 126.829 88.072C126.481 88.168 126.103 88.216 125.695 88.216C124.963 88.216 124.315 88.042 123.751 87.694C123.199 87.334 122.761 86.788 122.437 86.056C122.125 85.324 121.969 84.4 121.969 83.284C121.969 82.132 122.125 81.19 122.437 80.458C122.749 79.726 123.187 79.186 123.751 78.838C124.327 78.49 125.005 78.316 125.785 78.316C126.397 78.316 126.955 78.442 127.459 78.694C127.975 78.934 128.383 79.306 128.683 79.81H128.809L129.025 78.532H131.077V91.204H128.575ZM126.577 86.164C126.937 86.164 127.243 86.104 127.495 85.984C127.747 85.852 127.951 85.666 128.107 85.426C128.275 85.186 128.395 84.898 128.467 84.562C128.551 84.214 128.593 83.83 128.593 83.41V83.104C128.593 82.528 128.521 82.036 128.377 81.628C128.233 81.22 128.011 80.908 127.711 80.692C127.423 80.476 127.045 80.368 126.577 80.368C126.073 80.368 125.671 80.47 125.371 80.674C125.071 80.866 124.855 81.166 124.723 81.574C124.591 81.97 124.525 82.468 124.525 83.068V83.482C124.525 84.07 124.591 84.568 124.723 84.976C124.855 85.372 125.071 85.672 125.371 85.876C125.671 86.068 126.073 86.164 126.577 86.164ZM136.448 88.216C135.488 88.216 134.726 87.952 134.162 87.424C133.598 86.896 133.316 86.044 133.316 84.868V78.532H135.818V84.454C135.818 84.766 135.854 85.03 135.926 85.246C135.998 85.45 136.1 85.618 136.232 85.75C136.376 85.882 136.55 85.978 136.754 86.038C136.958 86.098 137.186 86.128 137.438 86.128C137.81 86.128 138.146 86.038 138.446 85.858C138.746 85.678 138.98 85.432 139.148 85.12C139.316 84.796 139.4 84.436 139.4 84.04V78.532H141.902V88H139.85L139.67 86.704H139.544C139.316 87.004 139.046 87.268 138.734 87.496C138.434 87.724 138.092 87.898 137.708 88.018C137.324 88.15 136.904 88.216 136.448 88.216ZM148.501 88.216C147.457 88.216 146.581 88.042 145.873 87.694C145.165 87.334 144.631 86.788 144.271 86.056C143.911 85.324 143.731 84.394 143.731 83.266C143.731 82.126 143.911 81.196 144.271 80.476C144.631 79.744 145.159 79.204 145.855 78.856C146.563 78.496 147.427 78.316 148.447 78.316C149.407 78.316 150.217 78.49 150.877 78.838C151.537 79.174 152.035 79.702 152.371 80.422C152.707 81.13 152.875 82.048 152.875 83.176V83.824H146.269C146.293 84.376 146.377 84.844 146.521 85.228C146.677 85.612 146.911 85.9 147.223 86.092C147.547 86.272 147.973 86.362 148.501 86.362C148.789 86.362 149.047 86.326 149.275 86.254C149.515 86.182 149.719 86.074 149.887 85.93C150.055 85.786 150.187 85.606 150.283 85.39C150.379 85.174 150.427 84.928 150.427 84.652H152.875C152.875 85.252 152.767 85.774 152.551 86.218C152.335 86.662 152.035 87.034 151.651 87.334C151.267 87.622 150.805 87.844 150.265 88C149.737 88.144 149.149 88.216 148.501 88.216ZM146.305 82.24H150.301C150.301 81.88 150.253 81.568 150.157 81.304C150.073 81.04 149.953 80.824 149.797 80.656C149.641 80.488 149.449 80.368 149.221 80.296C149.005 80.212 148.759 80.17 148.483 80.17C148.027 80.17 147.643 80.248 147.331 80.404C147.031 80.548 146.797 80.776 146.629 81.088C146.473 81.388 146.365 81.772 146.305 82.24ZM164.076 88.216C162.132 88.216 160.632 87.7 159.576 86.668C158.532 85.624 158.01 84.01 158.01 81.826C158.01 80.374 158.262 79.18 158.766 78.244C159.27 77.296 160.002 76.594 160.962 76.138C161.922 75.67 163.074 75.436 164.418 75.436C165.222 75.436 165.978 75.526 166.686 75.706C167.394 75.886 168.018 76.162 168.558 76.534C169.11 76.906 169.536 77.374 169.836 77.938C170.148 78.49 170.304 79.15 170.304 79.918H167.586C167.586 79.546 167.502 79.216 167.334 78.928C167.178 78.64 166.956 78.4 166.668 78.208C166.38 78.016 166.05 77.872 165.678 77.776C165.306 77.68 164.916 77.632 164.508 77.632C163.884 77.632 163.338 77.716 162.87 77.884C162.402 78.04 162.012 78.286 161.7 78.622C161.4 78.946 161.172 79.354 161.016 79.846C160.86 80.338 160.782 80.908 160.782 81.556V82.096C160.782 82.996 160.914 83.734 161.178 84.31C161.442 84.886 161.838 85.318 162.366 85.606C162.894 85.882 163.548 86.02 164.328 86.02C164.976 86.02 165.546 85.924 166.038 85.732C166.542 85.528 166.932 85.24 167.208 84.868C167.496 84.496 167.64 84.04 167.64 83.5V83.374H163.95V81.322H170.304V88H168.54L168.306 86.668C167.946 87.016 167.556 87.304 167.136 87.532C166.728 87.76 166.272 87.928 165.768 88.036C165.264 88.156 164.7 88.216 164.076 88.216ZM176.977 88.216C175.933 88.216 175.057 88.042 174.349 87.694C173.641 87.334 173.107 86.788 172.747 86.056C172.387 85.324 172.207 84.394 172.207 83.266C172.207 82.126 172.387 81.196 172.747 80.476C173.107 79.744 173.635 79.204 174.331 78.856C175.039 78.496 175.903 78.316 176.923 78.316C177.883 78.316 178.693 78.49 179.353 78.838C180.013 79.174 180.511 79.702 180.847 80.422C181.183 81.13 181.351 82.048 181.351 83.176V83.824H174.745C174.769 84.376 174.853 84.844 174.997 85.228C175.153 85.612 175.387 85.9 175.699 86.092C176.023 86.272 176.449 86.362 176.977 86.362C177.265 86.362 177.523 86.326 177.751 86.254C177.991 86.182 178.195 86.074 178.363 85.93C178.531 85.786 178.663 85.606 178.759 85.39C178.855 85.174 178.903 84.928 178.903 84.652H181.351C181.351 85.252 181.243 85.774 181.027 86.218C180.811 86.662 180.511 87.034 180.127 87.334C179.743 87.622 179.281 87.844 178.741 88C178.213 88.144 177.625 88.216 176.977 88.216ZM174.781 82.24H178.777C178.777 81.88 178.729 81.568 178.633 81.304C178.549 81.04 178.429 80.824 178.273 80.656C178.117 80.488 177.925 80.368 177.697 80.296C177.481 80.212 177.235 80.17 176.959 80.17C176.503 80.17 176.119 80.248 175.807 80.404C175.507 80.548 175.273 80.776 175.105 81.088C174.949 81.388 174.841 81.772 174.781 82.24ZM183.187 88V78.532H185.257L185.455 80.008H185.581C185.701 79.696 185.857 79.414 186.049 79.162C186.241 78.898 186.481 78.688 186.769 78.532C187.057 78.376 187.393 78.298 187.777 78.298C187.981 78.298 188.167 78.322 188.335 78.37C188.503 78.406 188.629 78.442 188.713 78.478V80.746H187.939C187.567 80.746 187.237 80.8 186.949 80.908C186.673 81.004 186.439 81.16 186.247 81.376C186.055 81.592 185.911 81.856 185.815 82.168C185.731 82.48 185.689 82.846 185.689 83.266V88H183.187ZM190.025 88V78.532H192.095L192.293 79.828H192.419C192.623 79.516 192.863 79.246 193.139 79.018C193.427 78.79 193.745 78.616 194.093 78.496C194.453 78.376 194.837 78.316 195.245 78.316C195.845 78.316 196.361 78.436 196.793 78.676C197.237 78.916 197.579 79.3 197.819 79.828H197.945C198.149 79.516 198.395 79.246 198.683 79.018C198.971 78.79 199.301 78.616 199.673 78.496C200.045 78.376 200.441 78.316 200.861 78.316C201.461 78.316 201.977 78.424 202.409 78.64C202.853 78.856 203.201 79.21 203.453 79.702C203.705 80.182 203.831 80.806 203.831 81.574V88H201.329V82.024C201.329 81.724 201.293 81.472 201.221 81.268C201.161 81.052 201.071 80.884 200.951 80.764C200.831 80.632 200.681 80.536 200.501 80.476C200.321 80.416 200.129 80.386 199.925 80.386C199.589 80.386 199.289 80.476 199.025 80.656C198.761 80.836 198.551 81.082 198.395 81.394C198.251 81.706 198.179 82.066 198.179 82.474V88H195.677V82.024C195.677 81.724 195.641 81.472 195.569 81.268C195.509 81.052 195.419 80.884 195.299 80.764C195.179 80.632 195.029 80.536 194.849 80.476C194.681 80.416 194.489 80.386 194.273 80.386C193.949 80.386 193.649 80.476 193.373 80.656C193.109 80.836 192.899 81.082 192.743 81.394C192.599 81.706 192.527 82.066 192.527 82.474V88H190.025ZM208.558 88.216C208.246 88.216 207.91 88.18 207.55 88.108C207.202 88.036 206.872 87.91 206.56 87.73C206.248 87.538 205.99 87.268 205.786 86.92C205.594 86.56 205.498 86.104 205.498 85.552C205.498 84.892 205.642 84.346 205.93 83.914C206.218 83.482 206.626 83.146 207.154 82.906C207.694 82.654 208.336 82.48 209.08 82.384C209.824 82.288 210.646 82.24 211.546 82.24V81.538C211.546 81.262 211.498 81.022 211.402 80.818C211.318 80.614 211.162 80.452 210.934 80.332C210.718 80.212 210.412 80.152 210.016 80.152C209.62 80.152 209.296 80.2 209.044 80.296C208.804 80.392 208.63 80.518 208.522 80.674C208.426 80.818 208.378 80.98 208.378 81.16V81.376H205.948C205.936 81.316 205.93 81.262 205.93 81.214C205.93 81.154 205.93 81.082 205.93 80.998C205.93 80.446 206.098 79.972 206.434 79.576C206.77 79.168 207.244 78.856 207.856 78.64C208.468 78.424 209.182 78.316 209.998 78.316C210.874 78.316 211.606 78.43 212.194 78.658C212.794 78.886 213.25 79.222 213.562 79.666C213.886 80.11 214.048 80.668 214.048 81.34V85.642C214.048 85.858 214.108 86.02 214.228 86.128C214.36 86.224 214.504 86.272 214.66 86.272H215.254V87.91C215.134 87.97 214.948 88.03 214.696 88.09C214.444 88.162 214.138 88.198 213.778 88.198C213.43 88.198 213.118 88.144 212.842 88.036C212.578 87.94 212.356 87.802 212.176 87.622C211.996 87.43 211.87 87.202 211.798 86.938H211.672C211.468 87.19 211.216 87.412 210.916 87.604C210.628 87.796 210.286 87.946 209.89 88.054C209.506 88.162 209.062 88.216 208.558 88.216ZM209.404 86.326C209.74 86.326 210.04 86.278 210.304 86.182C210.568 86.074 210.79 85.936 210.97 85.768C211.15 85.588 211.288 85.372 211.384 85.12C211.492 84.868 211.546 84.598 211.546 84.31V83.788C210.874 83.788 210.274 83.836 209.746 83.932C209.218 84.016 208.798 84.166 208.486 84.382C208.186 84.598 208.036 84.898 208.036 85.282C208.036 85.498 208.09 85.684 208.198 85.84C208.306 85.996 208.462 86.116 208.666 86.2C208.87 86.284 209.116 86.326 209.404 86.326ZM216.498 88V78.532H218.568L218.766 79.828H218.892C219.108 79.516 219.366 79.246 219.666 79.018C219.978 78.79 220.326 78.616 220.71 78.496C221.094 78.376 221.514 78.316 221.97 78.316C222.594 78.316 223.14 78.43 223.608 78.658C224.076 78.886 224.436 79.246 224.688 79.738C224.952 80.23 225.084 80.872 225.084 81.664V88H222.582V82.06C222.582 81.76 222.546 81.508 222.474 81.304C222.402 81.088 222.294 80.914 222.15 80.782C222.018 80.638 221.85 80.536 221.646 80.476C221.442 80.416 221.214 80.386 220.962 80.386C220.59 80.386 220.254 80.476 219.954 80.656C219.654 80.836 219.42 81.082 219.252 81.394C219.084 81.706 219 82.066 219 82.474V88H216.498ZM231.682 88.216C230.65 88.216 229.774 88.042 229.054 87.694C228.334 87.334 227.788 86.788 227.416 86.056C227.044 85.312 226.858 84.382 226.858 83.266C226.858 82.126 227.044 81.196 227.416 80.476C227.788 79.744 228.334 79.204 229.054 78.856C229.774 78.496 230.65 78.316 231.682 78.316C232.738 78.316 233.62 78.496 234.328 78.856C235.048 79.204 235.594 79.744 235.966 80.476C236.338 81.196 236.524 82.126 236.524 83.266C236.524 84.382 236.338 85.312 235.966 86.056C235.594 86.788 235.048 87.334 234.328 87.694C233.62 88.042 232.738 88.216 231.682 88.216ZM231.682 86.272C232.234 86.272 232.672 86.17 232.996 85.966C233.332 85.762 233.578 85.45 233.734 85.03C233.89 84.61 233.968 84.094 233.968 83.482V83.05C233.968 82.438 233.89 81.922 233.734 81.502C233.578 81.082 233.332 80.77 232.996 80.566C232.672 80.35 232.234 80.242 231.682 80.242C231.142 80.242 230.704 80.35 230.368 80.566C230.044 80.77 229.804 81.082 229.648 81.502C229.492 81.922 229.414 82.438 229.414 83.05V83.482C229.414 84.094 229.492 84.61 229.648 85.03C229.804 85.45 230.044 85.762 230.368 85.966C230.704 86.17 231.142 86.272 231.682 86.272ZM246.92 88.216C246.2 88.216 245.516 88.144 244.868 88C244.22 87.856 243.644 87.628 243.14 87.316C242.648 86.992 242.258 86.59 241.97 86.11C241.694 85.618 241.556 85.024 241.556 84.328C241.556 84.268 241.556 84.208 241.556 84.148C241.556 84.076 241.562 84.022 241.574 83.986H244.238C244.226 84.022 244.22 84.07 244.22 84.13C244.22 84.19 244.22 84.244 244.22 84.292C244.22 84.676 244.322 85 244.526 85.264C244.742 85.528 245.054 85.726 245.462 85.858C245.87 85.99 246.344 86.056 246.884 86.056C247.232 86.056 247.538 86.038 247.802 86.002C248.078 85.954 248.318 85.894 248.522 85.822C248.738 85.738 248.912 85.642 249.044 85.534C249.188 85.426 249.29 85.3 249.35 85.156C249.422 85.012 249.458 84.85 249.458 84.67C249.458 84.346 249.35 84.082 249.134 83.878C248.93 83.674 248.642 83.5 248.27 83.356C247.91 83.212 247.502 83.08 247.046 82.96C246.59 82.84 246.122 82.72 245.642 82.6C245.162 82.468 244.694 82.312 244.238 82.132C243.782 81.94 243.374 81.712 243.014 81.448C242.654 81.184 242.366 80.848 242.15 80.44C241.934 80.032 241.826 79.54 241.826 78.964C241.826 78.352 241.952 77.824 242.204 77.38C242.468 76.936 242.834 76.57 243.302 76.282C243.77 75.994 244.31 75.784 244.922 75.652C245.534 75.508 246.2 75.436 246.92 75.436C247.592 75.436 248.228 75.508 248.828 75.652C249.428 75.784 249.956 76 250.412 76.3C250.868 76.6 251.222 76.978 251.474 77.434C251.738 77.89 251.87 78.43 251.87 79.054V79.27H249.26V79.126C249.26 78.802 249.164 78.526 248.972 78.298C248.78 78.07 248.51 77.89 248.162 77.758C247.814 77.626 247.406 77.56 246.938 77.56C246.434 77.56 246.002 77.608 245.642 77.704C245.294 77.8 245.024 77.944 244.832 78.136C244.652 78.316 244.562 78.532 244.562 78.784C244.562 79.072 244.664 79.312 244.868 79.504C245.084 79.684 245.372 79.846 245.732 79.99C246.104 80.122 246.518 80.242 246.974 80.35C247.43 80.458 247.898 80.578 248.378 80.71C248.858 80.842 249.326 80.998 249.782 81.178C250.238 81.358 250.646 81.586 251.006 81.862C251.366 82.126 251.654 82.456 251.87 82.852C252.086 83.248 252.194 83.722 252.194 84.274C252.194 85.222 251.966 85.984 251.51 86.56C251.054 87.136 250.43 87.556 249.638 87.82C248.846 88.084 247.94 88.216 246.92 88.216ZM254.115 77.146V74.986H256.617V77.146H254.115ZM254.115 88V78.532H256.617V88H254.115ZM258.914 88V74.986H261.416V88H258.914ZM266.161 88L262.633 78.532H265.279L266.665 82.528C266.737 82.732 266.821 83.002 266.917 83.338C267.025 83.674 267.133 84.028 267.241 84.4C267.349 84.772 267.439 85.108 267.511 85.408H267.601C267.685 85.132 267.775 84.814 267.871 84.454C267.967 84.082 268.063 83.728 268.159 83.392C268.267 83.044 268.357 82.756 268.429 82.528L269.815 78.532H272.335L268.789 88H266.161ZM275.97 88.216C275.658 88.216 275.322 88.18 274.962 88.108C274.614 88.036 274.284 87.91 273.972 87.73C273.66 87.538 273.402 87.268 273.198 86.92C273.006 86.56 272.91 86.104 272.91 85.552C272.91 84.892 273.054 84.346 273.342 83.914C273.63 83.482 274.038 83.146 274.566 82.906C275.106 82.654 275.748 82.48 276.492 82.384C277.236 82.288 278.058 82.24 278.958 82.24V81.538C278.958 81.262 278.91 81.022 278.814 80.818C278.73 80.614 278.574 80.452 278.346 80.332C278.13 80.212 277.824 80.152 277.428 80.152C277.032 80.152 276.708 80.2 276.456 80.296C276.216 80.392 276.042 80.518 275.934 80.674C275.838 80.818 275.79 80.98 275.79 81.16V81.376H273.36C273.348 81.316 273.342 81.262 273.342 81.214C273.342 81.154 273.342 81.082 273.342 80.998C273.342 80.446 273.51 79.972 273.846 79.576C274.182 79.168 274.656 78.856 275.268 78.64C275.88 78.424 276.594 78.316 277.41 78.316C278.286 78.316 279.018 78.43 279.606 78.658C280.206 78.886 280.662 79.222 280.974 79.666C281.298 80.11 281.46 80.668 281.46 81.34V85.642C281.46 85.858 281.52 86.02 281.64 86.128C281.772 86.224 281.916 86.272 282.072 86.272H282.666V87.91C282.546 87.97 282.36 88.03 282.108 88.09C281.856 88.162 281.55 88.198 281.19 88.198C280.842 88.198 280.53 88.144 280.254 88.036C279.99 87.94 279.768 87.802 279.588 87.622C279.408 87.43 279.282 87.202 279.21 86.938H279.084C278.88 87.19 278.628 87.412 278.328 87.604C278.04 87.796 277.698 87.946 277.302 88.054C276.918 88.162 276.474 88.216 275.97 88.216ZM276.816 86.326C277.152 86.326 277.452 86.278 277.716 86.182C277.98 86.074 278.202 85.936 278.382 85.768C278.562 85.588 278.7 85.372 278.796 85.12C278.904 84.868 278.958 84.598 278.958 84.31V83.788C278.286 83.788 277.686 83.836 277.158 83.932C276.63 84.016 276.21 84.166 275.898 84.382C275.598 84.598 275.448 84.898 275.448 85.282C275.448 85.498 275.502 85.684 275.61 85.84C275.718 85.996 275.874 86.116 276.078 86.2C276.282 86.284 276.528 86.326 276.816 86.326Z" fill="black"/>
<path d="M22.928 129V122.112H20.3V120.768H27.128V122.112H24.488V129H22.928ZM27.3659 129V122.688H28.5899L28.7099 123.684H28.7939C28.8739 123.484 28.9699 123.3 29.0819 123.132C29.2019 122.956 29.3539 122.816 29.5379 122.712C29.7219 122.6 29.9459 122.544 30.2099 122.544C30.3379 122.544 30.4539 122.556 30.5579 122.58C30.6699 122.604 30.7539 122.628 30.8099 122.652V124.032H30.3659C30.1179 124.032 29.8979 124.068 29.7059 124.14C29.5139 124.204 29.3499 124.308 29.2139 124.452C29.0859 124.596 28.9899 124.776 28.9259 124.992C28.8619 125.208 28.8299 125.46 28.8299 125.748V129H27.3659ZM33.2164 129.144C33.0404 129.144 32.8364 129.12 32.6044 129.072C32.3804 129.032 32.1604 128.952 31.9444 128.832C31.7364 128.712 31.5644 128.536 31.4284 128.304C31.2924 128.064 31.2244 127.752 31.2244 127.368C31.2244 126.936 31.3204 126.58 31.5124 126.3C31.7044 126.012 31.9724 125.788 32.3164 125.628C32.6684 125.46 33.0844 125.344 33.5644 125.28C34.0524 125.208 34.5844 125.172 35.1604 125.172V124.656C35.1604 124.472 35.1324 124.308 35.0764 124.164C35.0204 124.02 34.9164 123.908 34.7644 123.828C34.6204 123.74 34.4004 123.696 34.1044 123.696C33.8084 123.696 33.5764 123.732 33.4084 123.804C33.2404 123.876 33.1244 123.964 33.0604 124.068C32.9964 124.172 32.9644 124.28 32.9644 124.392V124.56H31.5484C31.5404 124.52 31.5364 124.48 31.5364 124.44C31.5364 124.4 31.5364 124.352 31.5364 124.296C31.5364 123.936 31.6444 123.624 31.8604 123.36C32.0764 123.096 32.3764 122.896 32.7604 122.76C33.1444 122.616 33.5884 122.544 34.0924 122.544C34.6684 122.544 35.1404 122.624 35.5084 122.784C35.8844 122.944 36.1644 123.172 36.3484 123.468C36.5324 123.764 36.6244 124.124 36.6244 124.548V127.524C36.6244 127.676 36.6684 127.784 36.7564 127.848C36.8444 127.912 36.9404 127.944 37.0444 127.944H37.4284V128.952C37.3484 128.984 37.2324 129.02 37.0804 129.06C36.9284 129.108 36.7404 129.132 36.5164 129.132C36.3084 129.132 36.1204 129.096 35.9524 129.024C35.7924 128.96 35.6564 128.864 35.5444 128.736C35.4324 128.608 35.3524 128.456 35.3044 128.28H35.2324C35.0964 128.448 34.9324 128.6 34.7404 128.736C34.5564 128.864 34.3364 128.964 34.0804 129.036C33.8324 129.108 33.5444 129.144 33.2164 129.144ZM33.6604 127.944C33.9004 127.944 34.1124 127.908 34.2964 127.836C34.4884 127.764 34.6444 127.664 34.7644 127.536C34.8924 127.408 34.9884 127.252 35.0524 127.068C35.1244 126.884 35.1604 126.684 35.1604 126.468V126.18C34.7204 126.18 34.3124 126.208 33.9364 126.264C33.5684 126.32 33.2724 126.424 33.0484 126.576C32.8324 126.728 32.7244 126.944 32.7244 127.224C32.7244 127.368 32.7564 127.496 32.8204 127.608C32.8924 127.712 32.9964 127.796 33.1324 127.86C33.2764 127.916 33.4524 127.944 33.6604 127.944ZM41.6124 129.144C41.2044 129.144 40.8324 129.064 40.4964 128.904C40.1604 128.736 39.8884 128.488 39.6804 128.16H39.5964L39.4764 129H38.2644V120.324H39.7284V123.42H39.8004C39.9284 123.228 40.0844 123.068 40.2684 122.94C40.4524 122.804 40.6644 122.704 40.9044 122.64C41.1444 122.576 41.4084 122.544 41.6964 122.544C42.1684 122.544 42.5844 122.66 42.9444 122.892C43.3124 123.124 43.6004 123.484 43.8084 123.972C44.0164 124.452 44.1204 125.072 44.1204 125.832C44.1204 126.6 44.0164 127.228 43.8084 127.716C43.6084 128.204 43.3204 128.564 42.9444 128.796C42.5764 129.028 42.1324 129.144 41.6124 129.144ZM41.1564 127.884C41.5164 127.884 41.8004 127.816 42.0084 127.68C42.2244 127.536 42.3764 127.32 42.4644 127.032C42.5604 126.744 42.6084 126.38 42.6084 125.94V125.772C42.6084 125.324 42.5604 124.956 42.4644 124.668C42.3764 124.372 42.2244 124.156 42.0084 124.02C41.8004 123.876 41.5164 123.804 41.1564 123.804C40.9084 123.804 40.6924 123.848 40.5084 123.936C40.3324 124.024 40.1844 124.152 40.0644 124.32C39.9524 124.488 39.8684 124.696 39.8124 124.944C39.7564 125.192 39.7284 125.472 39.7284 125.784V125.94C39.7284 126.356 39.7764 126.708 39.8724 126.996C39.9764 127.284 40.1324 127.504 40.3404 127.656C40.5564 127.808 40.8284 127.884 41.1564 127.884ZM46.9859 129.144C46.8099 129.144 46.6059 129.12 46.3739 129.072C46.1499 129.032 45.9299 128.952 45.7139 128.832C45.5059 128.712 45.3339 128.536 45.1979 128.304C45.0619 128.064 44.9939 127.752 44.9939 127.368C44.9939 126.936 45.0899 126.58 45.2819 126.3C45.4739 126.012 45.7419 125.788 46.0859 125.628C46.4379 125.46 46.8539 125.344 47.3339 125.28C47.8219 125.208 48.3539 125.172 48.9299 125.172V124.656C48.9299 124.472 48.9019 124.308 48.8459 124.164C48.7899 124.02 48.6859 123.908 48.5339 123.828C48.3899 123.74 48.1699 123.696 47.8739 123.696C47.5779 123.696 47.3459 123.732 47.1779 123.804C47.0099 123.876 46.8939 123.964 46.8299 124.068C46.7659 124.172 46.7339 124.28 46.7339 124.392V124.56H45.3179C45.3099 124.52 45.3059 124.48 45.3059 124.44C45.3059 124.4 45.3059 124.352 45.3059 124.296C45.3059 123.936 45.4139 123.624 45.6299 123.36C45.8459 123.096 46.1459 122.896 46.5299 122.76C46.9139 122.616 47.3579 122.544 47.8619 122.544C48.4379 122.544 48.9099 122.624 49.2779 122.784C49.6539 122.944 49.9339 123.172 50.1179 123.468C50.3019 123.764 50.3939 124.124 50.3939 124.548V127.524C50.3939 127.676 50.4379 127.784 50.5259 127.848C50.6139 127.912 50.7099 127.944 50.8139 127.944H51.1979V128.952C51.1179 128.984 51.0019 129.02 50.8499 129.06C50.6979 129.108 50.5099 129.132 50.2859 129.132C50.0779 129.132 49.8899 129.096 49.7219 129.024C49.5619 128.96 49.4259 128.864 49.3139 128.736C49.2019 128.608 49.1219 128.456 49.0739 128.28H49.0019C48.8659 128.448 48.7019 128.6 48.5099 128.736C48.3259 128.864 48.1059 128.964 47.8499 129.036C47.6019 129.108 47.3139 129.144 46.9859 129.144ZM47.4299 127.944C47.6699 127.944 47.8819 127.908 48.0659 127.836C48.2579 127.764 48.4139 127.664 48.5339 127.536C48.6619 127.408 48.7579 127.252 48.8219 127.068C48.8939 126.884 48.9299 126.684 48.9299 126.468V126.18C48.4899 126.18 48.0819 126.208 47.7059 126.264C47.3379 126.32 47.0419 126.424 46.8179 126.576C46.6019 126.728 46.4939 126.944 46.4939 127.224C46.4939 127.368 46.5259 127.496 46.5899 127.608C46.6619 127.712 46.7659 127.796 46.9019 127.86C47.0459 127.916 47.2219 127.944 47.4299 127.944ZM52.0339 129V120.324H53.4979V129H52.0339ZM55.0573 129V120.324H56.5213V123.408H56.6053C56.7413 123.24 56.9013 123.092 57.0853 122.964C57.2693 122.836 57.4773 122.736 57.7093 122.664C57.9493 122.584 58.2133 122.544 58.5013 122.544C58.9013 122.544 59.2533 122.616 59.5573 122.76C59.8693 122.904 60.1133 123.136 60.2893 123.456C60.4653 123.776 60.5533 124.204 60.5533 124.74V129H59.0773V125.004C59.0773 124.78 59.0493 124.596 58.9933 124.452C58.9453 124.3 58.8693 124.18 58.7653 124.092C58.6693 123.996 58.5493 123.928 58.4053 123.888C58.2613 123.848 58.1013 123.828 57.9253 123.828C57.6613 123.828 57.4213 123.892 57.2053 124.02C56.9973 124.148 56.8293 124.324 56.7013 124.548C56.5813 124.772 56.5213 125.032 56.5213 125.328V129H55.0573ZM64.8732 129.144C64.1852 129.144 63.6092 129.028 63.1452 128.796C62.6812 128.556 62.3332 128.192 62.1012 127.704C61.8692 127.216 61.7532 126.596 61.7532 125.844C61.7532 125.084 61.8692 124.464 62.1012 123.984C62.3332 123.496 62.6812 123.136 63.1452 122.904C63.6092 122.664 64.1852 122.544 64.8732 122.544C65.5692 122.544 66.1452 122.664 66.6012 122.904C67.0652 123.136 67.4132 123.496 67.6452 123.984C67.8772 124.464 67.9932 125.084 67.9932 125.844C67.9932 126.596 67.8772 127.216 67.6452 127.704C67.4132 128.192 67.0652 128.556 66.6012 128.796C66.1452 129.028 65.5692 129.144 64.8732 129.144ZM64.8732 127.944C65.2572 127.944 65.5652 127.872 65.7972 127.728C66.0372 127.576 66.2092 127.352 66.3132 127.056C66.4252 126.752 66.4812 126.376 66.4812 125.928V125.76C66.4812 125.312 66.4252 124.94 66.3132 124.644C66.2092 124.34 66.0372 124.116 65.7972 123.972C65.5652 123.82 65.2572 123.744 64.8732 123.744C64.4892 123.744 64.1772 123.82 63.9372 123.972C63.7052 124.116 63.5332 124.34 63.4212 124.644C63.3172 124.94 63.2652 125.312 63.2652 125.76V125.928C63.2652 126.376 63.3172 126.752 63.4212 127.056C63.5332 127.352 63.7052 127.576 63.9372 127.728C64.1772 127.872 64.4892 127.944 64.8732 127.944ZM73.8354 129.144C73.3234 129.144 72.8794 129.028 72.5034 128.796C72.1274 128.564 71.8354 128.204 71.6274 127.716C71.4274 127.228 71.3274 126.6 71.3274 125.832C71.3274 125.072 71.4314 124.452 71.6394 123.972C71.8474 123.484 72.1354 123.124 72.5034 122.892C72.8714 122.66 73.2874 122.544 73.7514 122.544C74.0394 122.544 74.3034 122.576 74.5434 122.64C74.7834 122.704 74.9954 122.804 75.1794 122.94C75.3634 123.068 75.5194 123.228 75.6474 123.42H75.7194V120.324H77.1834V129H75.9714L75.8514 128.16H75.7674C75.5674 128.488 75.2954 128.736 74.9514 128.904C74.6154 129.064 74.2434 129.144 73.8354 129.144ZM74.2914 127.884C74.6274 127.884 74.8994 127.808 75.1074 127.656C75.3154 127.504 75.4674 127.284 75.5634 126.996C75.6674 126.708 75.7194 126.356 75.7194 125.94V125.784C75.7194 125.472 75.6914 125.192 75.6354 124.944C75.5794 124.696 75.4914 124.488 75.3714 124.32C75.2594 124.152 75.1114 124.024 74.9274 123.936C74.7514 123.848 74.5394 123.804 74.2914 123.804C73.9314 123.804 73.6434 123.876 73.4274 124.02C73.2194 124.156 73.0674 124.372 72.9714 124.668C72.8834 124.956 72.8394 125.324 72.8394 125.772V125.94C72.8394 126.38 72.8834 126.744 72.9714 127.032C73.0674 127.32 73.2194 127.536 73.4274 127.68C73.6434 127.816 73.9314 127.884 74.2914 127.884ZM81.4529 129.144C80.7809 129.144 80.2209 129.028 79.7729 128.796C79.3249 128.556 78.9889 128.192 78.7649 127.704C78.5409 127.216 78.4289 126.596 78.4289 125.844C78.4289 125.084 78.5409 124.464 78.7649 123.984C78.9889 123.496 79.3249 123.136 79.7729 122.904C80.2209 122.664 80.7809 122.544 81.4529 122.544C82.0609 122.544 82.5689 122.66 82.9769 122.892C83.3929 123.116 83.7049 123.464 83.9129 123.936C84.1209 124.408 84.2249 125.02 84.2249 125.772V126.204H79.9289C79.9449 126.596 80.0049 126.928 80.1089 127.2C80.2129 127.464 80.3729 127.664 80.5889 127.8C80.8129 127.928 81.1049 127.992 81.4649 127.992C81.6489 127.992 81.8209 127.968 81.9809 127.92C82.1409 127.872 82.2809 127.8 82.4009 127.704C82.5209 127.6 82.6129 127.472 82.6769 127.32C82.7489 127.168 82.7849 126.992 82.7849 126.792H84.2249C84.2249 127.192 84.1529 127.54 84.0089 127.836C83.8729 128.132 83.6769 128.376 83.4209 128.568C83.1729 128.76 82.8809 128.904 82.5449 129C82.2089 129.096 81.8449 129.144 81.4529 129.144ZM79.9529 125.172H82.7009C82.7009 124.908 82.6689 124.684 82.6049 124.5C82.5489 124.316 82.4649 124.164 82.3529 124.044C82.2489 123.924 82.1209 123.84 81.9689 123.792C81.8169 123.736 81.6449 123.708 81.4529 123.708C81.1409 123.708 80.8769 123.76 80.6609 123.864C80.4529 123.968 80.2929 124.128 80.1809 124.344C80.0689 124.56 79.9929 124.836 79.9529 125.172ZM91.6258 129.144C90.7858 129.144 90.0658 128.996 89.4658 128.7C88.8738 128.404 88.4178 127.944 88.0978 127.32C87.7858 126.688 87.6298 125.876 87.6298 124.884C87.6298 123.436 87.9818 122.364 88.6858 121.668C89.3898 120.972 90.3698 120.624 91.6258 120.624C92.3058 120.624 92.9178 120.74 93.4618 120.972C94.0138 121.204 94.4498 121.556 94.7698 122.028C95.0978 122.492 95.2618 123.084 95.2618 123.804H93.6658C93.6658 123.404 93.5778 123.068 93.4018 122.796C93.2338 122.516 92.9978 122.304 92.6938 122.16C92.3898 122.016 92.0418 121.944 91.6498 121.944C91.1058 121.944 90.6538 122.052 90.2938 122.268C89.9338 122.476 89.6658 122.788 89.4898 123.204C89.3218 123.62 89.2378 124.136 89.2378 124.752V125.016C89.2378 125.64 89.3218 126.16 89.4898 126.576C89.6658 126.992 89.9298 127.304 90.2818 127.512C90.6418 127.72 91.0978 127.824 91.6498 127.824C92.0658 127.824 92.4298 127.756 92.7418 127.62C93.0538 127.476 93.2938 127.268 93.4618 126.996C93.6378 126.716 93.7258 126.376 93.7258 125.976H95.2618C95.2618 126.696 95.1018 127.292 94.7818 127.764C94.4618 128.228 94.0258 128.576 93.4738 128.808C92.9298 129.032 92.3138 129.144 91.6258 129.144ZM99.3263 129.144C98.6383 129.144 98.0623 129.028 97.5983 128.796C97.1343 128.556 96.7863 128.192 96.5543 127.704C96.3223 127.216 96.2063 126.596 96.2063 125.844C96.2063 125.084 96.3223 124.464 96.5543 123.984C96.7863 123.496 97.1343 123.136 97.5983 122.904C98.0623 122.664 98.6383 122.544 99.3263 122.544C100.022 122.544 100.598 122.664 101.054 122.904C101.518 123.136 101.866 123.496 102.098 123.984C102.33 124.464 102.446 125.084 102.446 125.844C102.446 126.596 102.33 127.216 102.098 127.704C101.866 128.192 101.518 128.556 101.054 128.796C100.598 129.028 100.022 129.144 99.3263 129.144ZM99.3263 127.944C99.7103 127.944 100.018 127.872 100.25 127.728C100.49 127.576 100.662 127.352 100.766 127.056C100.878 126.752 100.934 126.376 100.934 125.928V125.76C100.934 125.312 100.878 124.94 100.766 124.644C100.662 124.34 100.49 124.116 100.25 123.972C100.018 123.82 99.7103 123.744 99.3263 123.744C98.9423 123.744 98.6303 123.82 98.3903 123.972C98.1583 124.116 97.9863 124.34 97.8743 124.644C97.7703 124.94 97.7183 125.312 97.7183 125.76V125.928C97.7183 126.376 97.7703 126.752 97.8743 127.056C97.9863 127.352 98.1583 127.576 98.3903 127.728C98.6303 127.872 98.9423 127.944 99.3263 127.944ZM103.69 129V122.688H104.914L105.034 123.528H105.118C105.262 123.336 105.43 123.168 105.622 123.024C105.822 122.872 106.046 122.756 106.294 122.676C106.55 122.588 106.83 122.544 107.134 122.544C107.534 122.544 107.886 122.616 108.19 122.76C108.502 122.904 108.746 123.136 108.922 123.456C109.098 123.776 109.186 124.204 109.186 124.74V129H107.71V125.004C107.71 124.78 107.682 124.596 107.626 124.452C107.578 124.3 107.502 124.18 107.398 124.092C107.302 123.996 107.182 123.928 107.038 123.888C106.894 123.848 106.734 123.828 106.558 123.828C106.294 123.828 106.054 123.892 105.838 124.02C105.63 124.148 105.462 124.324 105.334 124.548C105.214 124.772 105.154 125.032 105.154 125.328V129H103.69ZM113.326 129.144C112.67 129.144 112.122 129.028 111.682 128.796C111.25 128.556 110.926 128.192 110.71 127.704C110.494 127.216 110.386 126.596 110.386 125.844C110.386 125.084 110.494 124.464 110.71 123.984C110.934 123.496 111.262 123.136 111.694 122.904C112.134 122.664 112.678 122.544 113.326 122.544C113.75 122.544 114.126 122.596 114.454 122.7C114.782 122.804 115.062 122.964 115.294 123.18C115.534 123.388 115.714 123.648 115.834 123.96C115.954 124.272 116.014 124.636 116.014 125.052H114.526C114.526 124.756 114.482 124.512 114.394 124.32C114.306 124.128 114.17 123.984 113.986 123.888C113.81 123.784 113.582 123.732 113.302 123.732C112.974 123.732 112.706 123.808 112.498 123.96C112.29 124.112 112.134 124.34 112.03 124.644C111.934 124.94 111.886 125.316 111.886 125.772V125.928C111.886 126.376 111.934 126.752 112.03 127.056C112.134 127.36 112.294 127.588 112.51 127.74C112.726 127.884 113.01 127.956 113.362 127.956C113.634 127.956 113.858 127.908 114.034 127.812C114.218 127.708 114.358 127.556 114.454 127.356C114.55 127.156 114.598 126.916 114.598 126.636H116.014C116.014 127.028 115.954 127.38 115.834 127.692C115.714 128.004 115.538 128.268 115.306 128.484C115.074 128.7 114.79 128.864 114.454 128.976C114.126 129.088 113.75 129.144 113.326 129.144ZM117.26 129V120.324H118.724V129H117.26ZM122.288 129.144C121.68 129.144 121.184 128.98 120.8 128.652C120.424 128.316 120.236 127.748 120.236 126.948V122.688H121.7V126.684C121.7 126.908 121.724 127.096 121.772 127.248C121.828 127.392 121.904 127.512 122 127.608C122.104 127.696 122.228 127.76 122.372 127.8C122.516 127.84 122.676 127.86 122.852 127.86C123.116 127.86 123.352 127.796 123.56 127.668C123.776 127.54 123.944 127.364 124.064 127.14C124.192 126.908 124.256 126.648 124.256 126.36V122.688H125.72V129H124.508L124.388 128.16H124.304C124.16 128.352 123.988 128.524 123.788 128.676C123.596 128.82 123.372 128.932 123.116 129.012C122.868 129.1 122.592 129.144 122.288 129.144ZM129.74 129.144C129.284 129.144 128.884 129.096 128.54 129C128.196 128.896 127.908 128.756 127.676 128.58C127.444 128.404 127.268 128.2 127.148 127.968C127.036 127.728 126.98 127.468 126.98 127.188C126.98 127.148 126.98 127.112 126.98 127.08C126.988 127.048 126.992 127.024 126.992 127.008H128.432C128.432 127.024 128.432 127.04 128.432 127.056C128.432 127.072 128.432 127.088 128.432 127.104C128.44 127.32 128.508 127.496 128.636 127.632C128.764 127.76 128.932 127.852 129.14 127.908C129.348 127.964 129.568 127.992 129.8 127.992C130.008 127.992 130.204 127.972 130.388 127.932C130.58 127.884 130.736 127.812 130.856 127.716C130.984 127.612 131.048 127.48 131.048 127.32C131.048 127.112 130.968 126.952 130.808 126.84C130.648 126.728 130.436 126.636 130.172 126.564C129.916 126.492 129.64 126.416 129.344 126.336C129.08 126.264 128.816 126.184 128.552 126.096C128.288 126.008 128.048 125.896 127.832 125.76C127.624 125.624 127.452 125.448 127.316 125.232C127.188 125.016 127.124 124.748 127.124 124.428C127.124 124.116 127.192 123.844 127.328 123.612C127.464 123.38 127.652 123.188 127.892 123.036C128.132 122.876 128.416 122.756 128.744 122.676C129.072 122.596 129.428 122.556 129.812 122.556C130.188 122.556 130.528 122.596 130.832 122.676C131.144 122.756 131.412 122.872 131.636 123.024C131.868 123.168 132.044 123.348 132.164 123.564C132.292 123.772 132.356 124.004 132.356 124.26C132.356 124.316 132.352 124.372 132.344 124.428C132.344 124.484 132.344 124.516 132.344 124.524H130.916V124.44C130.916 124.288 130.868 124.16 130.772 124.056C130.684 123.944 130.552 123.856 130.376 123.792C130.208 123.728 129.996 123.696 129.74 123.696C129.548 123.696 129.38 123.712 129.236 123.744C129.092 123.776 128.972 123.82 128.876 123.876C128.788 123.932 128.72 123.996 128.672 124.068C128.624 124.14 128.6 124.22 128.6 124.308C128.6 124.46 128.66 124.58 128.78 124.668C128.9 124.756 129.06 124.832 129.26 124.896C129.468 124.96 129.692 125.028 129.932 125.1C130.22 125.18 130.516 125.264 130.82 125.352C131.124 125.432 131.404 125.536 131.66 125.664C131.924 125.792 132.136 125.972 132.296 126.204C132.456 126.436 132.536 126.744 132.536 127.128C132.536 127.496 132.464 127.812 132.32 128.076C132.184 128.332 131.988 128.54 131.732 128.7C131.484 128.852 131.188 128.964 130.844 129.036C130.508 129.108 130.14 129.144 129.74 129.144ZM135.392 129.144C135.216 129.144 135.012 129.12 134.78 129.072C134.556 129.032 134.336 128.952 134.12 128.832C133.912 128.712 133.74 128.536 133.604 128.304C133.468 128.064 133.4 127.752 133.4 127.368C133.4 126.936 133.496 126.58 133.688 126.3C133.88 126.012 134.148 125.788 134.492 125.628C134.844 125.46 135.26 125.344 135.74 125.28C136.228 125.208 136.76 125.172 137.336 125.172V124.656C137.336 124.472 137.308 124.308 137.252 124.164C137.196 124.02 137.092 123.908 136.94 123.828C136.796 123.74 136.576 123.696 136.28 123.696C135.984 123.696 135.752 123.732 135.584 123.804C135.416 123.876 135.3 123.964 135.236 124.068C135.172 124.172 135.14 124.28 135.14 124.392V124.56H133.724C133.716 124.52 133.712 124.48 133.712 124.44C133.712 124.4 133.712 124.352 133.712 124.296C133.712 123.936 133.82 123.624 134.036 123.36C134.252 123.096 134.552 122.896 134.936 122.76C135.32 122.616 135.764 122.544 136.268 122.544C136.844 122.544 137.316 122.624 137.684 122.784C138.06 122.944 138.34 123.172 138.524 123.468C138.708 123.764 138.8 124.124 138.8 124.548V127.524C138.8 127.676 138.844 127.784 138.932 127.848C139.02 127.912 139.116 127.944 139.22 127.944H139.604V128.952C139.524 128.984 139.408 129.02 139.256 129.06C139.104 129.108 138.916 129.132 138.692 129.132C138.484 129.132 138.296 129.096 138.128 129.024C137.968 128.96 137.832 128.864 137.72 128.736C137.608 128.608 137.528 128.456 137.48 128.28H137.408C137.272 128.448 137.108 128.6 136.916 128.736C136.732 128.864 136.512 128.964 136.256 129.036C136.008 129.108 135.72 129.144 135.392 129.144ZM135.836 127.944C136.076 127.944 136.288 127.908 136.472 127.836C136.664 127.764 136.82 127.664 136.94 127.536C137.068 127.408 137.164 127.252 137.228 127.068C137.3 126.884 137.336 126.684 137.336 126.468V126.18C136.896 126.18 136.488 126.208 136.112 126.264C135.744 126.32 135.448 126.424 135.224 126.576C135.008 126.728 134.9 126.944 134.9 127.224C134.9 127.368 134.932 127.496 134.996 127.608C135.068 127.712 135.172 127.796 135.308 127.86C135.452 127.916 135.628 127.944 135.836 127.944ZM134.264 121.728C134.264 121.472 134.3 121.24 134.372 121.032C134.452 120.816 134.576 120.644 134.744 120.516C134.912 120.388 135.128 120.324 135.392 120.324C135.6 120.324 135.792 120.36 135.968 120.432C136.152 120.496 136.332 120.564 136.508 120.636C136.684 120.708 136.864 120.744 137.048 120.744C137.16 120.744 137.248 120.716 137.312 120.66C137.384 120.596 137.428 120.484 137.444 120.324H138.26C138.26 120.572 138.22 120.804 138.14 121.02C138.068 121.228 137.948 121.4 137.78 121.536C137.62 121.664 137.404 121.728 137.132 121.728C136.932 121.728 136.74 121.692 136.556 121.62C136.372 121.548 136.192 121.476 136.016 121.404C135.848 121.332 135.672 121.296 135.488 121.296C135.384 121.296 135.296 121.328 135.224 121.392C135.152 121.456 135.108 121.568 135.092 121.728H134.264ZM143.248 129.144C142.56 129.144 141.984 129.028 141.52 128.796C141.056 128.556 140.708 128.192 140.476 127.704C140.244 127.216 140.128 126.596 140.128 125.844C140.128 125.084 140.244 124.464 140.476 123.984C140.708 123.496 141.056 123.136 141.52 122.904C141.984 122.664 142.56 122.544 143.248 122.544C143.944 122.544 144.52 122.664 144.976 122.904C145.44 123.136 145.788 123.496 146.02 123.984C146.252 124.464 146.368 125.084 146.368 125.844C146.368 126.596 146.252 127.216 146.02 127.704C145.788 128.192 145.44 128.556 144.976 128.796C144.52 129.028 143.944 129.144 143.248 129.144ZM143.248 127.944C143.632 127.944 143.94 127.872 144.172 127.728C144.412 127.576 144.584 127.352 144.688 127.056C144.8 126.752 144.856 126.376 144.856 125.928V125.76C144.856 125.312 144.8 124.94 144.688 124.644C144.584 124.34 144.412 124.116 144.172 123.972C143.94 123.82 143.632 123.744 143.248 123.744C142.864 123.744 142.552 123.82 142.312 123.972C142.08 124.116 141.908 124.34 141.796 124.644C141.692 124.94 141.64 125.312 141.64 125.76V125.928C141.64 126.376 141.692 126.752 141.796 127.056C141.908 127.352 142.08 127.576 142.312 127.728C142.552 127.872 142.864 127.944 143.248 127.944ZM152.21 129.144C151.698 129.144 151.254 129.028 150.878 128.796C150.502 128.564 150.21 128.204 150.002 127.716C149.802 127.228 149.702 126.6 149.702 125.832C149.702 125.072 149.806 124.452 150.014 123.972C150.222 123.484 150.51 123.124 150.878 122.892C151.246 122.66 151.662 122.544 152.126 122.544C152.414 122.544 152.678 122.576 152.918 122.64C153.158 122.704 153.37 122.804 153.554 122.94C153.738 123.068 153.894 123.228 154.022 123.42H154.094V120.324H155.558V129H154.346L154.226 128.16H154.142C153.942 128.488 153.67 128.736 153.326 128.904C152.99 129.064 152.618 129.144 152.21 129.144ZM152.666 127.884C153.002 127.884 153.274 127.808 153.482 127.656C153.69 127.504 153.842 127.284 153.938 126.996C154.042 126.708 154.094 126.356 154.094 125.94V125.784C154.094 125.472 154.066 125.192 154.01 124.944C153.954 124.696 153.866 124.488 153.746 124.32C153.634 124.152 153.486 124.024 153.302 123.936C153.126 123.848 152.914 123.804 152.666 123.804C152.306 123.804 152.018 123.876 151.802 124.02C151.594 124.156 151.442 124.372 151.346 124.668C151.258 124.956 151.214 125.324 151.214 125.772V125.94C151.214 126.38 151.258 126.744 151.346 127.032C151.442 127.32 151.594 127.536 151.802 127.68C152.018 127.816 152.306 127.884 152.666 127.884ZM159.828 129.144C159.156 129.144 158.596 129.028 158.148 128.796C157.7 128.556 157.364 128.192 157.14 127.704C156.916 127.216 156.804 126.596 156.804 125.844C156.804 125.084 156.916 124.464 157.14 123.984C157.364 123.496 157.7 123.136 158.148 122.904C158.596 122.664 159.156 122.544 159.828 122.544C160.436 122.544 160.944 122.66 161.352 122.892C161.768 123.116 162.08 123.464 162.288 123.936C162.496 124.408 162.6 125.02 162.6 125.772V126.204H158.304C158.32 126.596 158.38 126.928 158.484 127.2C158.588 127.464 158.748 127.664 158.964 127.8C159.188 127.928 159.48 127.992 159.84 127.992C160.024 127.992 160.196 127.968 160.356 127.92C160.516 127.872 160.656 127.8 160.776 127.704C160.896 127.6 160.988 127.472 161.052 127.32C161.124 127.168 161.16 126.992 161.16 126.792H162.6C162.6 127.192 162.528 127.54 162.384 127.836C162.248 128.132 162.052 128.376 161.796 128.568C161.548 128.76 161.256 128.904 160.92 129C160.584 129.096 160.22 129.144 159.828 129.144ZM158.328 125.172H161.076C161.076 124.908 161.044 124.684 160.98 124.5C160.924 124.316 160.84 124.164 160.728 124.044C160.624 123.924 160.496 123.84 160.344 123.792C160.192 123.736 160.02 123.708 159.828 123.708C159.516 123.708 159.252 123.76 159.036 123.864C158.828 123.968 158.668 124.128 158.556 124.344C158.444 124.56 158.368 124.836 158.328 125.172ZM170.001 129.144C169.161 129.144 168.441 128.996 167.841 128.7C167.249 128.404 166.793 127.944 166.473 127.32C166.161 126.688 166.005 125.876 166.005 124.884C166.005 123.436 166.357 122.364 167.061 121.668C167.765 120.972 168.745 120.624 170.001 120.624C170.681 120.624 171.293 120.74 171.837 120.972C172.389 121.204 172.825 121.556 173.145 122.028C173.473 122.492 173.637 123.084 173.637 123.804H172.041C172.041 123.404 171.953 123.068 171.777 122.796C171.609 122.516 171.373 122.304 171.069 122.16C170.765 122.016 170.417 121.944 170.025 121.944C169.481 121.944 169.029 122.052 168.669 122.268C168.309 122.476 168.041 122.788 167.865 123.204C167.697 123.62 167.613 124.136 167.613 124.752V125.016C167.613 125.64 167.697 126.16 167.865 126.576C168.041 126.992 168.305 127.304 168.657 127.512C169.017 127.72 169.473 127.824 170.025 127.824C170.441 127.824 170.805 127.756 171.117 127.62C171.429 127.476 171.669 127.268 171.837 126.996C172.013 126.716 172.101 126.376 172.101 125.976H173.637C173.637 126.696 173.477 127.292 173.157 127.764C172.837 128.228 172.401 128.576 171.849 128.808C171.305 129.032 170.689 129.144 170.001 129.144ZM176.897 129.144C176.289 129.144 175.793 128.98 175.409 128.652C175.033 128.316 174.845 127.748 174.845 126.948V122.688H176.309V126.684C176.309 126.908 176.333 127.096 176.381 127.248C176.437 127.392 176.513 127.512 176.609 127.608C176.713 127.696 176.837 127.76 176.981 127.8C177.125 127.84 177.285 127.86 177.461 127.86C177.725 127.86 177.961 127.796 178.169 127.668C178.385 127.54 178.553 127.364 178.673 127.14C178.801 126.908 178.865 126.648 178.865 126.36V122.688H180.329V129H179.117L178.997 128.16H178.913C178.769 128.352 178.597 128.524 178.397 128.676C178.205 128.82 177.981 128.932 177.725 129.012C177.477 129.1 177.201 129.144 176.897 129.144ZM181.889 129V122.688H183.113L183.233 123.684H183.317C183.397 123.484 183.493 123.3 183.605 123.132C183.725 122.956 183.877 122.816 184.061 122.712C184.245 122.6 184.469 122.544 184.733 122.544C184.861 122.544 184.977 122.556 185.081 122.58C185.193 122.604 185.277 122.628 185.333 122.652V124.032H184.889C184.641 124.032 184.421 124.068 184.229 124.14C184.037 124.204 183.873 124.308 183.737 124.452C183.609 124.596 183.513 124.776 183.449 124.992C183.385 125.208 183.353 125.46 183.353 125.748V129H181.889ZM188.697 129.144C188.241 129.144 187.841 129.096 187.497 129C187.153 128.896 186.865 128.756 186.633 128.58C186.401 128.404 186.225 128.2 186.105 127.968C185.993 127.728 185.937 127.468 185.937 127.188C185.937 127.148 185.937 127.112 185.937 127.08C185.945 127.048 185.949 127.024 185.949 127.008H187.389C187.389 127.024 187.389 127.04 187.389 127.056C187.389 127.072 187.389 127.088 187.389 127.104C187.397 127.32 187.465 127.496 187.593 127.632C187.721 127.76 187.889 127.852 188.097 127.908C188.305 127.964 188.525 127.992 188.757 127.992C188.965 127.992 189.161 127.972 189.345 127.932C189.537 127.884 189.693 127.812 189.813 127.716C189.941 127.612 190.005 127.48 190.005 127.32C190.005 127.112 189.925 126.952 189.765 126.84C189.605 126.728 189.393 126.636 189.129 126.564C188.873 126.492 188.597 126.416 188.301 126.336C188.037 126.264 187.773 126.184 187.509 126.096C187.245 126.008 187.005 125.896 186.789 125.76C186.581 125.624 186.409 125.448 186.273 125.232C186.145 125.016 186.081 124.748 186.081 124.428C186.081 124.116 186.149 123.844 186.285 123.612C186.421 123.38 186.609 123.188 186.849 123.036C187.089 122.876 187.373 122.756 187.701 122.676C188.029 122.596 188.385 122.556 188.769 122.556C189.145 122.556 189.485 122.596 189.789 122.676C190.101 122.756 190.369 122.872 190.593 123.024C190.825 123.168 191.001 123.348 191.121 123.564C191.249 123.772 191.313 124.004 191.313 124.26C191.313 124.316 191.309 124.372 191.301 124.428C191.301 124.484 191.301 124.516 191.301 124.524H189.873V124.44C189.873 124.288 189.825 124.16 189.729 124.056C189.641 123.944 189.509 123.856 189.333 123.792C189.165 123.728 188.953 123.696 188.697 123.696C188.505 123.696 188.337 123.712 188.193 123.744C188.049 123.776 187.929 123.82 187.833 123.876C187.745 123.932 187.677 123.996 187.629 124.068C187.581 124.14 187.557 124.22 187.557 124.308C187.557 124.46 187.617 124.58 187.737 124.668C187.857 124.756 188.017 124.832 188.217 124.896C188.425 124.96 188.649 125.028 188.889 125.1C189.177 125.18 189.473 125.264 189.777 125.352C190.081 125.432 190.361 125.536 190.617 125.664C190.881 125.792 191.093 125.972 191.253 126.204C191.413 126.436 191.493 126.744 191.493 127.128C191.493 127.496 191.421 127.812 191.277 128.076C191.141 128.332 190.945 128.54 190.689 128.7C190.441 128.852 190.145 128.964 189.801 129.036C189.465 129.108 189.097 129.144 188.697 129.144ZM195.537 129.144C194.849 129.144 194.273 129.028 193.809 128.796C193.345 128.556 192.997 128.192 192.765 127.704C192.533 127.216 192.417 126.596 192.417 125.844C192.417 125.084 192.533 124.464 192.765 123.984C192.997 123.496 193.345 123.136 193.809 122.904C194.273 122.664 194.849 122.544 195.537 122.544C196.233 122.544 196.809 122.664 197.265 122.904C197.729 123.136 198.077 123.496 198.309 123.984C198.541 124.464 198.657 125.084 198.657 125.844C198.657 126.596 198.541 127.216 198.309 127.704C198.077 128.192 197.729 128.556 197.265 128.796C196.809 129.028 196.233 129.144 195.537 129.144ZM195.537 127.944C195.921 127.944 196.229 127.872 196.461 127.728C196.701 127.576 196.873 127.352 196.977 127.056C197.089 126.752 197.145 126.376 197.145 125.928V125.76C197.145 125.312 197.089 124.94 196.977 124.644C196.873 124.34 196.701 124.116 196.461 123.972C196.229 123.82 195.921 123.744 195.537 123.744C195.153 123.744 194.841 123.82 194.601 123.972C194.369 124.116 194.197 124.34 194.085 124.644C193.981 124.94 193.929 125.312 193.929 125.76V125.928C193.929 126.376 193.981 126.752 194.085 127.056C194.197 127.352 194.369 127.576 194.601 127.728C194.841 127.872 195.153 127.944 195.537 127.944Z" fill="black"/>
<path d="M24.332 148.144C23.612 148.144 22.992 148.028 22.472 147.796C21.952 147.564 21.552 147.212 21.272 146.74C21 146.26 20.864 145.664 20.864 144.952V139.768H22.424V144.904C22.424 145.536 22.588 146.016 22.916 146.344C23.252 146.664 23.724 146.824 24.332 146.824C24.94 146.824 25.412 146.664 25.748 146.344C26.092 146.016 26.264 145.536 26.264 144.904V139.768H27.824V144.952C27.824 145.664 27.684 146.26 27.404 146.74C27.124 147.212 26.724 147.564 26.204 147.796C25.684 148.028 25.06 148.144 24.332 148.144ZM31.6116 148V141.112H28.9836V139.768H35.8116V141.112H33.1716V148H31.6116ZM37.0253 148V139.768H42.9413V141.1H38.5853V143.308H42.5093V144.64H38.5853V148H37.0253ZM44.3378 148V139.768H48.4658C49.0738 139.768 49.5738 139.876 49.9658 140.092C50.3658 140.308 50.6658 140.612 50.8658 141.004C51.0658 141.396 51.1658 141.864 51.1658 142.408C51.1658 142.944 51.0618 143.412 50.8538 143.812C50.6458 144.212 50.3338 144.524 49.9178 144.748C49.5098 144.964 48.9978 145.072 48.3818 145.072H45.8978V148H44.3378ZM45.8978 143.74H48.3338C48.7338 143.74 49.0418 143.624 49.2578 143.392C49.4818 143.152 49.5938 142.824 49.5938 142.408C49.5938 142.128 49.5458 141.892 49.4498 141.7C49.3538 141.508 49.2138 141.36 49.0298 141.256C48.8458 141.152 48.6138 141.1 48.3338 141.1H45.8978V143.74ZM52.3768 148V139.768H56.7088C57.3168 139.768 57.8208 139.872 58.2208 140.08C58.6208 140.288 58.9208 140.584 59.1208 140.968C59.3208 141.352 59.4208 141.804 59.4208 142.324C59.4208 142.86 59.3008 143.336 59.0608 143.752C58.8208 144.16 58.4688 144.468 58.0048 144.676L59.7088 148H58.0048L56.4928 144.94H53.9368V148H52.3768ZM53.9368 143.632H56.5888C56.9888 143.632 57.2968 143.516 57.5128 143.284C57.7288 143.052 57.8368 142.732 57.8368 142.324C57.8368 142.06 57.7888 141.84 57.6928 141.664C57.5968 141.48 57.4568 141.34 57.2728 141.244C57.0888 141.148 56.8608 141.1 56.5888 141.1H53.9368V143.632Z" fill="black"/>
<path d="M246.536 129.144C245.696 129.144 244.976 128.996 244.376 128.7C243.784 128.404 243.328 127.944 243.008 127.32C242.696 126.688 242.54 125.876 242.54 124.884C242.54 123.436 242.892 122.364 243.596 121.668C244.3 120.972 245.28 120.624 246.536 120.624C247.216 120.624 247.828 120.74 248.372 120.972C248.924 121.204 249.36 121.556 249.68 122.028C250.008 122.492 250.172 123.084 250.172 123.804H248.576C248.576 123.404 248.488 123.068 248.312 122.796C248.144 122.516 247.908 122.304 247.604 122.16C247.3 122.016 246.952 121.944 246.56 121.944C246.016 121.944 245.564 122.052 245.204 122.268C244.844 122.476 244.576 122.788 244.4 123.204C244.232 123.62 244.148 124.136 244.148 124.752V125.016C244.148 125.64 244.232 126.16 244.4 126.576C244.576 126.992 244.84 127.304 245.192 127.512C245.552 127.72 246.008 127.824 246.56 127.824C246.976 127.824 247.34 127.756 247.652 127.62C247.964 127.476 248.204 127.268 248.372 126.996C248.548 126.716 248.636 126.376 248.636 125.976H250.172C250.172 126.696 250.012 127.292 249.692 127.764C249.372 128.228 248.936 128.576 248.384 128.808C247.84 129.032 247.224 129.144 246.536 129.144ZM253.432 129.144C252.824 129.144 252.328 128.98 251.944 128.652C251.568 128.316 251.38 127.748 251.38 126.948V122.688H252.844V126.684C252.844 126.908 252.868 127.096 252.916 127.248C252.972 127.392 253.048 127.512 253.144 127.608C253.248 127.696 253.372 127.76 253.516 127.8C253.66 127.84 253.82 127.86 253.996 127.86C254.26 127.86 254.496 127.796 254.704 127.668C254.92 127.54 255.088 127.364 255.208 127.14C255.336 126.908 255.4 126.648 255.4 126.36V122.688H256.864V129H255.652L255.532 128.16H255.448C255.304 128.352 255.132 128.524 254.932 128.676C254.74 128.82 254.516 128.932 254.26 129.012C254.012 129.1 253.736 129.144 253.432 129.144ZM258.425 129V122.688H259.649L259.769 123.684H259.853C259.933 123.484 260.029 123.3 260.141 123.132C260.261 122.956 260.413 122.816 260.597 122.712C260.781 122.6 261.005 122.544 261.269 122.544C261.397 122.544 261.513 122.556 261.617 122.58C261.729 122.604 261.813 122.628 261.869 122.652V124.032H261.425C261.177 124.032 260.957 124.068 260.765 124.14C260.573 124.204 260.409 124.308 260.273 124.452C260.145 124.596 260.049 124.776 259.985 124.992C259.921 125.208 259.889 125.46 259.889 125.748V129H258.425ZM262.772 121.716V120.324H264.236V121.716H262.772ZM262.772 129V122.688H264.236V129H262.772ZM267.464 129.144C267.072 129.144 266.764 129.068 266.54 128.916C266.316 128.756 266.156 128.556 266.06 128.316C265.972 128.068 265.928 127.816 265.928 127.56V123.888H265.172V122.688H265.964L266.228 120.924H267.392V122.688H268.484V123.888H267.392V127.416C267.392 127.584 267.436 127.716 267.524 127.812C267.612 127.9 267.744 127.944 267.92 127.944H268.484V128.952C268.404 128.984 268.304 129.012 268.184 129.036C268.072 129.068 267.952 129.092 267.824 129.108C267.696 129.132 267.576 129.144 267.464 129.144ZM269.569 121.716V120.324H271.033V121.716H269.569ZM269.569 129V122.688H271.033V129H269.569ZM275.941 129.144C275.533 129.144 275.161 129.064 274.825 128.904C274.489 128.736 274.217 128.488 274.009 128.16H273.925L273.805 129H272.593V120.324H274.057V123.42H274.129C274.257 123.228 274.413 123.068 274.597 122.94C274.781 122.804 274.993 122.704 275.233 122.64C275.473 122.576 275.737 122.544 276.025 122.544C276.497 122.544 276.913 122.66 277.273 122.892C277.641 123.124 277.929 123.484 278.137 123.972C278.345 124.452 278.449 125.072 278.449 125.832C278.449 126.6 278.345 127.228 278.137 127.716C277.937 128.204 277.649 128.564 277.273 128.796C276.905 129.028 276.461 129.144 275.941 129.144ZM275.485 127.884C275.845 127.884 276.129 127.816 276.337 127.68C276.553 127.536 276.705 127.32 276.793 127.032C276.889 126.744 276.937 126.38 276.937 125.94V125.772C276.937 125.324 276.889 124.956 276.793 124.668C276.705 124.372 276.553 124.156 276.337 124.02C276.129 123.876 275.845 123.804 275.485 123.804C275.237 123.804 275.021 123.848 274.837 123.936C274.661 124.024 274.513 124.152 274.393 124.32C274.281 124.488 274.197 124.696 274.141 124.944C274.085 125.192 274.057 125.472 274.057 125.784V125.94C274.057 126.356 274.105 126.708 274.201 126.996C274.305 127.284 274.461 127.504 274.669 127.656C274.885 127.808 275.157 127.884 275.485 127.884ZM281.314 129.144C281.138 129.144 280.934 129.12 280.702 129.072C280.478 129.032 280.258 128.952 280.042 128.832C279.834 128.712 279.662 128.536 279.526 128.304C279.39 128.064 279.322 127.752 279.322 127.368C279.322 126.936 279.418 126.58 279.61 126.3C279.802 126.012 280.07 125.788 280.414 125.628C280.766 125.46 281.182 125.344 281.662 125.28C282.15 125.208 282.682 125.172 283.258 125.172V124.656C283.258 124.472 283.23 124.308 283.174 124.164C283.118 124.02 283.014 123.908 282.862 123.828C282.718 123.74 282.498 123.696 282.202 123.696C281.906 123.696 281.674 123.732 281.506 123.804C281.338 123.876 281.222 123.964 281.158 124.068C281.094 124.172 281.062 124.28 281.062 124.392V124.56H279.646C279.638 124.52 279.634 124.48 279.634 124.44C279.634 124.4 279.634 124.352 279.634 124.296C279.634 123.936 279.742 123.624 279.958 123.36C280.174 123.096 280.474 122.896 280.858 122.76C281.242 122.616 281.686 122.544 282.19 122.544C282.766 122.544 283.238 122.624 283.606 122.784C283.982 122.944 284.262 123.172 284.446 123.468C284.63 123.764 284.722 124.124 284.722 124.548V127.524C284.722 127.676 284.766 127.784 284.854 127.848C284.942 127.912 285.038 127.944 285.142 127.944H285.526V128.952C285.446 128.984 285.33 129.02 285.178 129.06C285.026 129.108 284.838 129.132 284.614 129.132C284.406 129.132 284.218 129.096 284.05 129.024C283.89 128.96 283.754 128.864 283.642 128.736C283.53 128.608 283.45 128.456 283.402 128.28H283.33C283.194 128.448 283.03 128.6 282.838 128.736C282.654 128.864 282.434 128.964 282.178 129.036C281.93 129.108 281.642 129.144 281.314 129.144ZM281.758 127.944C281.998 127.944 282.21 127.908 282.394 127.836C282.586 127.764 282.742 127.664 282.862 127.536C282.99 127.408 283.086 127.252 283.15 127.068C283.222 126.884 283.258 126.684 283.258 126.468V126.18C282.818 126.18 282.41 126.208 282.034 126.264C281.666 126.32 281.37 126.424 281.146 126.576C280.93 126.728 280.822 126.944 280.822 127.224C280.822 127.368 280.854 127.496 280.918 127.608C280.99 127.712 281.094 127.796 281.23 127.86C281.374 127.916 281.55 127.944 281.758 127.944ZM286.53 130.956V130.344C286.73 130.312 286.89 130.232 287.01 130.104C287.13 129.976 287.218 129.816 287.274 129.624C287.338 129.432 287.37 129.224 287.37 129H286.626V127.464H288.138V128.868C288.138 129.332 288.062 129.708 287.91 129.996C287.766 130.284 287.57 130.5 287.322 130.644C287.082 130.796 286.818 130.9 286.53 130.956ZM292.494 129V120.768H296.622C297.23 120.768 297.73 120.876 298.122 121.092C298.522 121.308 298.822 121.612 299.022 122.004C299.222 122.396 299.322 122.864 299.322 123.408C299.322 123.944 299.218 124.412 299.01 124.812C298.802 125.212 298.49 125.524 298.074 125.748C297.666 125.964 297.154 126.072 296.538 126.072H294.054V129H292.494ZM294.054 124.74H296.49C296.89 124.74 297.198 124.624 297.414 124.392C297.638 124.152 297.75 123.824 297.75 123.408C297.75 123.128 297.702 122.892 297.606 122.7C297.51 122.508 297.37 122.36 297.186 122.256C297.002 122.152 296.77 122.1 296.49 122.1H294.054V124.74ZM300.533 129V120.768H304.865C305.473 120.768 305.977 120.872 306.377 121.08C306.777 121.288 307.077 121.584 307.277 121.968C307.477 122.352 307.577 122.804 307.577 123.324C307.577 123.86 307.457 124.336 307.217 124.752C306.977 125.16 306.625 125.468 306.161 125.676L307.865 129H306.161L304.649 125.94H302.093V129H300.533ZM302.093 124.632H304.745C305.145 124.632 305.453 124.516 305.669 124.284C305.885 124.052 305.993 123.732 305.993 123.324C305.993 123.06 305.945 122.84 305.849 122.664C305.753 122.48 305.613 122.34 305.429 122.244C305.245 122.148 305.017 122.1 304.745 122.1H302.093V124.632Z" fill="black"/>
<path d="M242.912 148V139.768H247.4C247.84 139.768 248.232 139.852 248.576 140.02C248.928 140.188 249.204 140.424 249.404 140.728C249.604 141.032 249.704 141.388 249.704 141.796C249.704 142.108 249.644 142.392 249.524 142.648C249.404 142.904 249.24 143.12 249.032 143.296C248.832 143.464 248.604 143.592 248.348 143.68V143.728C248.652 143.792 248.924 143.916 249.164 144.1C249.404 144.276 249.592 144.504 249.728 144.784C249.864 145.056 249.932 145.372 249.932 145.732C249.932 146.244 249.816 146.668 249.584 147.004C249.36 147.34 249.056 147.592 248.672 147.76C248.296 147.92 247.872 148 247.4 148H242.912ZM244.472 146.668H247.196C247.524 146.668 247.792 146.58 248 146.404C248.216 146.22 248.324 145.936 248.324 145.552C248.324 145.328 248.28 145.132 248.192 144.964C248.104 144.796 247.968 144.668 247.784 144.58C247.608 144.484 247.38 144.436 247.1 144.436H244.472V146.668ZM244.472 143.128H246.992C247.232 143.128 247.432 143.084 247.592 142.996C247.76 142.908 247.884 142.788 247.964 142.636C248.052 142.484 248.096 142.316 248.096 142.132C248.096 141.78 248 141.52 247.808 141.352C247.624 141.184 247.38 141.1 247.076 141.1H244.472V143.128ZM251.253 148V141.688H252.477L252.597 142.684H252.681C252.761 142.484 252.857 142.3 252.969 142.132C253.089 141.956 253.241 141.816 253.425 141.712C253.609 141.6 253.833 141.544 254.097 141.544C254.225 141.544 254.341 141.556 254.445 141.58C254.557 141.604 254.641 141.628 254.697 141.652V143.032H254.253C254.005 143.032 253.785 143.068 253.593 143.14C253.401 143.204 253.237 143.308 253.101 143.452C252.973 143.596 252.877 143.776 252.813 143.992C252.749 144.208 252.717 144.46 252.717 144.748V148H251.253ZM257.103 148.144C256.927 148.144 256.723 148.12 256.491 148.072C256.267 148.032 256.047 147.952 255.831 147.832C255.623 147.712 255.451 147.536 255.315 147.304C255.179 147.064 255.111 146.752 255.111 146.368C255.111 145.936 255.207 145.58 255.399 145.3C255.591 145.012 255.859 144.788 256.203 144.628C256.555 144.46 256.971 144.344 257.451 144.28C257.939 144.208 258.471 144.172 259.047 144.172V143.656C259.047 143.472 259.019 143.308 258.963 143.164C258.907 143.02 258.803 142.908 258.651 142.828C258.507 142.74 258.287 142.696 257.991 142.696C257.695 142.696 257.463 142.732 257.295 142.804C257.127 142.876 257.011 142.964 256.947 143.068C256.883 143.172 256.851 143.28 256.851 143.392V143.56H255.435C255.427 143.52 255.423 143.48 255.423 143.44C255.423 143.4 255.423 143.352 255.423 143.296C255.423 142.936 255.531 142.624 255.747 142.36C255.963 142.096 256.263 141.896 256.647 141.76C257.031 141.616 257.475 141.544 257.979 141.544C258.555 141.544 259.027 141.624 259.395 141.784C259.771 141.944 260.051 142.172 260.235 142.468C260.419 142.764 260.511 143.124 260.511 143.548V146.524C260.511 146.676 260.555 146.784 260.643 146.848C260.731 146.912 260.827 146.944 260.931 146.944H261.315V147.952C261.235 147.984 261.119 148.02 260.967 148.06C260.815 148.108 260.627 148.132 260.403 148.132C260.195 148.132 260.007 148.096 259.839 148.024C259.679 147.96 259.543 147.864 259.431 147.736C259.319 147.608 259.239 147.456 259.191 147.28H259.119C258.983 147.448 258.819 147.6 258.627 147.736C258.443 147.864 258.223 147.964 257.967 148.036C257.719 148.108 257.431 148.144 257.103 148.144ZM257.547 146.944C257.787 146.944 257.999 146.908 258.183 146.836C258.375 146.764 258.531 146.664 258.651 146.536C258.779 146.408 258.875 146.252 258.939 146.068C259.011 145.884 259.047 145.684 259.047 145.468V145.18C258.607 145.18 258.199 145.208 257.823 145.264C257.455 145.32 257.159 145.424 256.935 145.576C256.719 145.728 256.611 145.944 256.611 146.224C256.611 146.368 256.643 146.496 256.707 146.608C256.779 146.712 256.883 146.796 257.019 146.86C257.163 146.916 257.339 146.944 257.547 146.944ZM264.611 148.144C264.155 148.144 263.755 148.096 263.411 148C263.067 147.896 262.779 147.756 262.547 147.58C262.315 147.404 262.139 147.2 262.019 146.968C261.907 146.728 261.851 146.468 261.851 146.188C261.851 146.148 261.851 146.112 261.851 146.08C261.859 146.048 261.863 146.024 261.863 146.008H263.303C263.303 146.024 263.303 146.04 263.303 146.056C263.303 146.072 263.303 146.088 263.303 146.104C263.311 146.32 263.379 146.496 263.507 146.632C263.635 146.76 263.803 146.852 264.011 146.908C264.219 146.964 264.439 146.992 264.671 146.992C264.879 146.992 265.075 146.972 265.259 146.932C265.451 146.884 265.607 146.812 265.727 146.716C265.855 146.612 265.919 146.48 265.919 146.32C265.919 146.112 265.839 145.952 265.679 145.84C265.519 145.728 265.307 145.636 265.043 145.564C264.787 145.492 264.511 145.416 264.215 145.336C263.951 145.264 263.687 145.184 263.423 145.096C263.159 145.008 262.919 144.896 262.703 144.76C262.495 144.624 262.323 144.448 262.187 144.232C262.059 144.016 261.995 143.748 261.995 143.428C261.995 143.116 262.063 142.844 262.199 142.612C262.335 142.38 262.523 142.188 262.763 142.036C263.003 141.876 263.287 141.756 263.615 141.676C263.943 141.596 264.299 141.556 264.683 141.556C265.059 141.556 265.399 141.596 265.703 141.676C266.015 141.756 266.283 141.872 266.507 142.024C266.739 142.168 266.915 142.348 267.035 142.564C267.163 142.772 267.227 143.004 267.227 143.26C267.227 143.316 267.223 143.372 267.215 143.428C267.215 143.484 267.215 143.516 267.215 143.524H265.787V143.44C265.787 143.288 265.739 143.16 265.643 143.056C265.555 142.944 265.423 142.856 265.247 142.792C265.079 142.728 264.867 142.696 264.611 142.696C264.419 142.696 264.251 142.712 264.107 142.744C263.963 142.776 263.843 142.82 263.747 142.876C263.659 142.932 263.591 142.996 263.543 143.068C263.495 143.14 263.471 143.22 263.471 143.308C263.471 143.46 263.531 143.58 263.651 143.668C263.771 143.756 263.931 143.832 264.131 143.896C264.339 143.96 264.563 144.028 264.803 144.1C265.091 144.18 265.387 144.264 265.691 144.352C265.995 144.432 266.275 144.536 266.531 144.664C266.795 144.792 267.007 144.972 267.167 145.204C267.327 145.436 267.407 145.744 267.407 146.128C267.407 146.496 267.335 146.812 267.191 147.076C267.055 147.332 266.859 147.54 266.603 147.7C266.355 147.852 266.059 147.964 265.715 148.036C265.379 148.108 265.011 148.144 264.611 148.144ZM268.643 140.716V139.324H270.107V140.716H268.643ZM268.643 148V141.688H270.107V148H268.643ZM271.667 148V139.324H273.131V148H271.667Z" fill="black"/>
<path d="M351.06 148L354.264 139.768H356.232L359.448 148H357.756L357.096 146.248H353.328L352.668 148H351.06ZM353.82 144.928H356.592L355.764 142.696C355.732 142.616 355.692 142.516 355.644 142.396C355.604 142.268 355.56 142.132 355.512 141.988C355.464 141.836 355.416 141.684 355.368 141.532C355.32 141.38 355.276 141.244 355.236 141.124H355.176C355.128 141.284 355.068 141.468 354.996 141.676C354.932 141.884 354.868 142.08 354.804 142.264C354.74 142.448 354.688 142.592 354.648 142.696L353.82 144.928ZM363.636 148.144C363.228 148.144 362.856 148.064 362.52 147.904C362.184 147.736 361.912 147.488 361.704 147.16H361.62L361.5 148H360.288V139.324H361.752V142.42H361.824C361.952 142.228 362.108 142.068 362.292 141.94C362.476 141.804 362.688 141.704 362.928 141.64C363.168 141.576 363.432 141.544 363.72 141.544C364.192 141.544 364.608 141.66 364.968 141.892C365.336 142.124 365.624 142.484 365.832 142.972C366.04 143.452 366.144 144.072 366.144 144.832C366.144 145.6 366.04 146.228 365.832 146.716C365.632 147.204 365.344 147.564 364.968 147.796C364.6 148.028 364.156 148.144 363.636 148.144ZM363.18 146.884C363.54 146.884 363.824 146.816 364.032 146.68C364.248 146.536 364.4 146.32 364.488 146.032C364.584 145.744 364.632 145.38 364.632 144.94V144.772C364.632 144.324 364.584 143.956 364.488 143.668C364.4 143.372 364.248 143.156 364.032 143.02C363.824 142.876 363.54 142.804 363.18 142.804C362.932 142.804 362.716 142.848 362.532 142.936C362.356 143.024 362.208 143.152 362.088 143.32C361.976 143.488 361.892 143.696 361.836 143.944C361.78 144.192 361.752 144.472 361.752 144.784V144.94C361.752 145.356 361.8 145.708 361.896 145.996C362 146.284 362.156 146.504 362.364 146.656C362.58 146.808 362.852 146.884 363.18 146.884ZM367.389 148V141.688H368.613L368.733 142.684H368.817C368.897 142.484 368.993 142.3 369.105 142.132C369.225 141.956 369.377 141.816 369.561 141.712C369.745 141.6 369.969 141.544 370.233 141.544C370.361 141.544 370.477 141.556 370.581 141.58C370.693 141.604 370.777 141.628 370.833 141.652V143.032H370.389C370.141 143.032 369.921 143.068 369.729 143.14C369.537 143.204 369.373 143.308 369.237 143.452C369.109 143.596 369.013 143.776 368.949 143.992C368.885 144.208 368.853 144.46 368.853 144.748V148H367.389ZM371.737 140.716V139.324H373.201V140.716H371.737ZM371.737 148V141.688H373.201V148H371.737ZM374.76 148V139.324H376.224V148H374.76ZM380.018 148V147.604C380.018 147.244 380.082 146.916 380.21 146.62C380.338 146.324 380.51 146.056 380.726 145.816C380.942 145.568 381.182 145.336 381.446 145.12C381.718 144.896 381.99 144.684 382.262 144.484C382.598 144.236 382.914 143.988 383.21 143.74C383.506 143.484 383.746 143.212 383.93 142.924C384.114 142.628 384.206 142.3 384.206 141.94C384.206 141.772 384.166 141.604 384.086 141.436C384.006 141.268 383.874 141.128 383.69 141.016C383.514 140.904 383.274 140.848 382.97 140.848C382.666 140.848 382.414 140.9 382.214 141.004C382.014 141.1 381.862 141.24 381.758 141.424C381.662 141.608 381.614 141.836 381.614 142.108V142.6H380.15C380.142 142.56 380.134 142.5 380.126 142.42C380.118 142.34 380.114 142.24 380.114 142.12C380.114 141.528 380.246 141.052 380.51 140.692C380.782 140.324 381.138 140.056 381.578 139.888C382.026 139.712 382.51 139.624 383.03 139.624C383.574 139.624 384.018 139.704 384.362 139.864C384.714 140.024 384.986 140.228 385.178 140.476C385.378 140.724 385.514 140.988 385.586 141.268C385.666 141.548 385.706 141.804 385.706 142.036C385.706 142.42 385.638 142.772 385.502 143.092C385.374 143.404 385.194 143.7 384.962 143.98C384.73 144.252 384.454 144.516 384.134 144.772C383.822 145.02 383.486 145.272 383.126 145.528C382.942 145.656 382.762 145.784 382.586 145.912C382.41 146.04 382.254 146.168 382.118 146.296C381.99 146.424 381.89 146.552 381.818 146.68H385.754V148H380.018ZM389.776 148.144C389.328 148.144 388.928 148.08 388.576 147.952C388.224 147.816 387.924 147.588 387.676 147.268C387.428 146.948 387.24 146.516 387.112 145.972C386.984 145.42 386.92 144.724 386.92 143.884C386.92 143.044 386.984 142.352 387.112 141.808C387.24 141.256 387.428 140.82 387.676 140.5C387.924 140.18 388.224 139.956 388.576 139.828C388.928 139.692 389.328 139.624 389.776 139.624C390.224 139.624 390.62 139.692 390.964 139.828C391.316 139.956 391.616 140.18 391.864 140.5C392.112 140.82 392.3 141.256 392.428 141.808C392.556 142.352 392.62 143.044 392.62 143.884C392.62 144.724 392.556 145.42 392.428 145.972C392.3 146.516 392.112 146.948 391.864 147.268C391.616 147.588 391.316 147.816 390.964 147.952C390.62 148.08 390.224 148.144 389.776 148.144ZM389.776 146.944C390.152 146.944 390.432 146.844 390.616 146.644C390.808 146.436 390.936 146.132 391 145.732C391.072 145.324 391.108 144.82 391.108 144.22V143.596C391.108 142.98 391.072 142.468 391 142.06C390.936 141.644 390.808 141.336 390.616 141.136C390.432 140.928 390.152 140.824 389.776 140.824C389.408 140.824 389.124 140.928 388.924 141.136C388.732 141.336 388.6 141.64 388.528 142.048C388.464 142.448 388.432 142.952 388.432 143.56V144.184C388.432 144.792 388.464 145.304 388.528 145.72C388.6 146.128 388.732 146.436 388.924 146.644C389.124 146.844 389.408 146.944 389.776 146.944ZM393.835 148V147.604C393.835 147.244 393.899 146.916 394.027 146.62C394.155 146.324 394.327 146.056 394.543 145.816C394.759 145.568 394.999 145.336 395.263 145.12C395.535 144.896 395.807 144.684 396.079 144.484C396.415 144.236 396.731 143.988 397.027 143.74C397.323 143.484 397.563 143.212 397.747 142.924C397.931 142.628 398.023 142.3 398.023 141.94C398.023 141.772 397.983 141.604 397.903 141.436C397.823 141.268 397.691 141.128 397.507 141.016C397.331 140.904 397.091 140.848 396.787 140.848C396.483 140.848 396.231 140.9 396.031 141.004C395.831 141.1 395.679 141.24 395.575 141.424C395.479 141.608 395.431 141.836 395.431 142.108V142.6H393.967C393.959 142.56 393.951 142.5 393.943 142.42C393.935 142.34 393.931 142.24 393.931 142.12C393.931 141.528 394.063 141.052 394.327 140.692C394.599 140.324 394.955 140.056 395.395 139.888C395.843 139.712 396.327 139.624 396.847 139.624C397.391 139.624 397.835 139.704 398.179 139.864C398.531 140.024 398.803 140.228 398.995 140.476C399.195 140.724 399.331 140.988 399.403 141.268C399.483 141.548 399.523 141.804 399.523 142.036C399.523 142.42 399.455 142.772 399.319 143.092C399.191 143.404 399.011 143.7 398.779 143.98C398.547 144.252 398.271 144.516 397.951 144.772C397.639 145.02 397.303 145.272 396.943 145.528C396.759 145.656 396.579 145.784 396.403 145.912C396.227 146.04 396.071 146.168 395.935 146.296C395.807 146.424 395.707 146.552 395.635 146.68H399.571V148H393.835ZM404.133 148V146.164H400.509V144.964C400.829 144.436 401.125 143.892 401.397 143.332C401.669 142.772 401.917 142.184 402.141 141.568C402.365 140.952 402.557 140.304 402.717 139.624H404.253C404.149 140.048 404.017 140.484 403.857 140.932C403.697 141.38 403.521 141.816 403.329 142.24C403.137 142.664 402.945 143.06 402.753 143.428C402.561 143.788 402.381 144.104 402.213 144.376C402.053 144.64 401.925 144.836 401.829 144.964H404.133V142.888C404.205 142.736 404.277 142.576 404.349 142.408C404.421 142.232 404.489 142.056 404.553 141.88C404.625 141.696 404.689 141.52 404.745 141.352C404.801 141.176 404.853 141.008 404.901 140.848H405.597V144.964H406.617V146.164H405.597V148H404.133Z" fill="black"/>
<mask id="path-13-inside-3_56_58" fill="white">
<path d="M428 0L533 0V106H428V0Z"/>
</mask>
<path d="M428 106H425V109H428V106ZM533 103H428V109H533V103ZM431 106V0L425 0V106H431Z" fill="black" mask="url(#path-13-inside-3_56_58)"/>
<g clip-path="url(#clip0_56_58)">
<path d="M490.23 64.027V73.1081H484.392V88.6757H513.581V73.1081H507.743V57.8649C506.251 59.5514 504.5 60.9784 502.554 62.0811V78.2973H508.392V83.4865H489.581V78.2973H495.419V64.027H490.23Z" fill="black"/>
<path d="M453.257 47.1622V31.5946H447.419V17.3243H474.662V31.5946H468.954L468.824 41.973H488.932C489.711 42.0379 490.424 41.7135 490.943 41.1297C491.332 40.6108 491.592 40.027 491.527 39.3784V31.5946H479.851V17.3243H507.873L507.743 41.3243C507.808 44.5676 506.9 47.746 505.149 50.4703C500.219 57.7351 491.008 57.5406 490.23 57.5406H458.446V78.2973H452.608V83.4865H469.473V78.2973H463.635V64.027H468.824V73.1081H474.662V88.6757H447.419V72.4595H453.257V52.3514H490.23C490.619 52.3514 497.689 52.546 500.997 47.227C502.1 45.4757 502.619 43.4 502.554 41.3243V22.5135H485.041V27.7027H496.716V39.3784C496.781 41.3243 496.068 43.2054 494.77 44.6973C493.278 46.3189 491.138 47.227 488.932 47.1622H463.635V26.4054H469.473V21.2162H452.608V26.4054H458.446V47.1622H453.257Z" fill="black"/>
</g>
<mask id="path-17-inside-4_56_58" fill="white">
<path d="M428 106H533V162H428V106Z"/>
</mask>
<path d="M431 162V106H425V162H431Z" fill="black" mask="url(#path-17-inside-4_56_58)"/>
<path d="M462.698 140L458.306 127.616H462.554L464.264 133.34C464.312 133.496 464.378 133.724 464.462 134.024C464.546 134.324 464.636 134.642 464.732 134.978C464.84 135.314 464.93 135.62 465.002 135.896H465.146C465.218 135.644 465.302 135.356 465.398 135.032C465.494 134.708 465.584 134.396 465.668 134.096C465.764 133.784 465.836 133.532 465.884 133.34L467.612 127.616H471.68L467.306 140H462.698ZM478.04 140.216C476.84 140.216 475.85 140.054 475.07 139.73C474.29 139.406 473.708 138.974 473.324 138.434C472.952 137.894 472.766 137.3 472.766 136.652V136.274H475.934V136.616C475.934 136.928 476.084 137.198 476.384 137.426C476.696 137.642 477.17 137.75 477.806 137.75C478.502 137.75 478.988 137.594 479.264 137.282C479.54 136.97 479.678 136.574 479.678 136.094C479.678 135.794 479.618 135.554 479.498 135.374C479.39 135.182 479.24 135.038 479.048 134.942C478.868 134.846 478.658 134.798 478.418 134.798H477.104V132.584H478.13C478.37 132.584 478.58 132.536 478.76 132.44C478.952 132.344 479.102 132.2 479.21 132.008C479.33 131.816 479.39 131.576 479.39 131.288C479.39 131.036 479.33 130.802 479.21 130.586C479.09 130.37 478.91 130.196 478.67 130.064C478.442 129.932 478.154 129.866 477.806 129.866C477.506 129.866 477.23 129.926 476.978 130.046C476.726 130.154 476.528 130.298 476.384 130.478C476.24 130.658 476.168 130.85 476.168 131.054V131.234H473.162V130.784C473.162 130.16 473.354 129.596 473.738 129.092C474.122 128.576 474.68 128.168 475.412 127.868C476.156 127.556 477.056 127.4 478.112 127.4C479.132 127.4 479.996 127.556 480.704 127.868C481.424 128.168 481.97 128.576 482.342 129.092C482.714 129.596 482.9 130.154 482.9 130.766C482.9 131.174 482.822 131.564 482.666 131.936C482.522 132.308 482.312 132.632 482.036 132.908C481.772 133.172 481.46 133.37 481.1 133.502V133.574C481.784 133.79 482.312 134.168 482.684 134.708C483.068 135.236 483.26 135.878 483.26 136.634C483.236 137.294 483.032 137.894 482.648 138.434C482.276 138.974 481.712 139.406 480.956 139.73C480.2 140.054 479.228 140.216 478.04 140.216ZM485.114 140V136.418H488.93V140H485.114ZM496.022 140.216C495.002 140.216 494.15 140.066 493.466 139.766C492.782 139.454 492.242 139.016 491.846 138.452C491.45 137.888 491.168 137.216 491 136.436C490.832 135.644 490.748 134.768 490.748 133.808C490.748 132.848 490.832 131.978 491 131.198C491.168 130.406 491.45 129.728 491.846 129.164C492.242 128.6 492.782 128.168 493.466 127.868C494.15 127.556 495.002 127.4 496.022 127.4C497.054 127.4 497.906 127.556 498.578 127.868C499.262 128.168 499.796 128.6 500.18 129.164C500.576 129.728 500.858 130.406 501.026 131.198C501.194 131.978 501.278 132.848 501.278 133.808C501.278 134.768 501.194 135.644 501.026 136.436C500.858 137.216 500.576 137.888 500.18 138.452C499.796 139.016 499.262 139.454 498.578 139.766C497.906 140.066 497.054 140.216 496.022 140.216ZM496.022 137.786C496.442 137.786 496.778 137.678 497.03 137.462C497.282 137.246 497.462 136.91 497.57 136.454C497.678 135.998 497.732 135.41 497.732 134.69V132.908C497.732 132.176 497.678 131.588 497.57 131.144C497.462 130.688 497.282 130.358 497.03 130.154C496.778 129.938 496.442 129.83 496.022 129.83C495.602 129.83 495.266 129.938 495.014 130.154C494.762 130.358 494.576 130.688 494.456 131.144C494.348 131.588 494.294 132.176 494.294 132.908V134.69C494.294 135.41 494.348 135.998 494.456 136.454C494.576 136.91 494.762 137.246 495.014 137.462C495.266 137.678 495.602 137.786 496.022 137.786Z" fill="black"/>
<defs>
<clipPath id="clip0_56_58">
<rect width="66.8108" height="72" fill="white" transform="translate(447.095 17)"/>
</clipPath>
</defs>
</svg>
