<svg width="117" height="55" viewBox="0 0 117 55" fill="none" xmlns="http://www.w3.org/2000/svg">
<rect width="117" height="55" rx="27.5" fill="black"/>
<path d="M27.4 38V16.016H33.128V33.296H44.296V38H27.4ZM47.4015 38V16.016H65.5455V20.496H53.1295V24.624H63.9775V29.008H53.1295V33.52H65.7695V38H47.4015ZM69.7125 38V16.016H78.8965C81.2858 16.016 83.3018 16.4107 84.9445 17.2C86.6085 17.9893 87.8672 19.1947 88.7205 20.816C89.5952 22.416 90.0325 24.4747 90.0325 26.992C90.0325 29.488 89.5952 31.5573 88.7205 33.2C87.8672 34.8213 86.6085 36.0267 84.9445 36.816C83.3018 37.6053 81.2858 38 78.8965 38H69.7125ZM75.4405 33.52H78.8325C79.7285 33.52 80.5072 33.392 81.1685 33.136C81.8298 32.88 82.3845 32.5067 82.8325 32.016C83.2805 31.5253 83.6112 30.9173 83.8245 30.192C84.0378 29.4667 84.1445 28.6347 84.1445 27.696V26.352C84.1445 25.392 84.0378 24.5493 83.8245 23.824C83.6112 23.0987 83.2805 22.4907 82.8325 22C82.3845 21.5093 81.8298 21.136 81.1685 20.88C80.5072 20.624 79.7285 20.496 78.8325 20.496H75.4405V33.52Z" fill="white"/>
</svg>
