<svg width="240" height="55" viewBox="0 0 240 55" fill="none" xmlns="http://www.w3.org/2000/svg">
<rect width="240" height="55" rx="27.5" fill="black"/>
<path d="M27.4 38V16.016H33.128V33.296H44.296V38H27.4ZM46.9215 18.864V14.832H52.1695V18.864H46.9215ZM46.9215 38V21.136H52.1695V38H46.9215ZM56.1403 38V21.136H60.4603L60.8443 23.536H61.0683C61.4949 22.96 61.9856 22.4587 62.5403 22.032C63.0949 21.6053 63.7243 21.2853 64.4283 21.072C65.1323 20.8587 65.8789 20.752 66.6683 20.752C67.8843 20.752 68.9083 20.976 69.7403 21.424C70.5936 21.872 71.2443 22.544 71.6923 23.44C72.1403 24.336 72.3643 25.4773 72.3643 26.864V38H67.1163V27.6C67.1163 27.1307 67.0523 26.736 66.9243 26.416C66.8176 26.0747 66.6576 25.7867 66.4443 25.552C66.2309 25.3173 65.9643 25.1467 65.6443 25.04C65.3243 24.9333 64.9616 24.88 64.5563 24.88C63.9376 24.88 63.3936 25.0293 62.9243 25.328C62.4549 25.6053 62.0816 25.9893 61.8043 26.48C61.5269 26.9493 61.3883 27.504 61.3883 28.144V38H56.1403ZM84.5213 38.384C82.6013 38.384 80.9693 38.0747 79.6253 37.456C78.2813 36.816 77.2466 35.8453 76.5213 34.544C75.8173 33.2427 75.4653 31.5787 75.4653 29.552C75.4653 27.568 75.8173 25.9253 76.5213 24.624C77.2253 23.3227 78.2386 22.352 79.5613 21.712C80.8839 21.072 82.4733 20.752 84.3293 20.752C86.1639 20.752 87.7106 21.0613 88.9693 21.68C90.2493 22.2987 91.2199 23.248 91.8813 24.528C92.5426 25.808 92.8733 27.4613 92.8733 29.488V30.608H80.7773C80.7773 31.504 80.9053 32.2613 81.1613 32.88C81.4173 33.4987 81.8119 33.968 82.3453 34.288C82.8786 34.608 83.5933 34.768 84.4893 34.768C85.0226 34.768 85.4919 34.704 85.8973 34.576C86.3026 34.448 86.6439 34.2667 86.9213 34.032C87.1986 33.776 87.4119 33.4773 87.5613 33.136C87.7106 32.7947 87.7853 32.4107 87.7853 31.984H92.8733C92.8733 33.008 92.6813 33.9253 92.2973 34.736C91.9346 35.5253 91.3906 36.1973 90.6653 36.752C89.9399 37.2853 89.0546 37.6907 88.0093 37.968C86.9853 38.2453 85.8226 38.384 84.5213 38.384ZM80.8093 27.696H87.5293C87.5293 27.1413 87.4546 26.6613 87.3053 26.256C87.1773 25.8293 86.9746 25.4773 86.6973 25.2C86.4413 24.9227 86.1213 24.72 85.7373 24.592C85.3746 24.4427 84.9479 24.368 84.4573 24.368C83.6893 24.368 83.0493 24.496 82.5373 24.752C82.0253 25.008 81.6306 25.3813 81.3533 25.872C81.0759 26.3627 80.8946 26.9707 80.8093 27.696ZM111.676 38.384C110.29 38.384 108.988 38.256 107.772 38C106.556 37.7653 105.479 37.3707 104.54 36.816C103.623 36.2613 102.898 35.536 102.364 34.64C101.831 33.7227 101.564 32.6027 101.564 31.28C101.564 31.1947 101.564 31.0987 101.564 30.992C101.564 30.8853 101.575 30.8 101.596 30.736H107.132C107.132 30.8 107.122 30.8853 107.1 30.992C107.1 31.0773 107.1 31.152 107.1 31.216C107.1 31.8987 107.271 32.4533 107.612 32.88C107.975 33.2853 108.476 33.584 109.116 33.776C109.756 33.9467 110.503 34.032 111.356 34.032C111.826 34.032 112.263 34.0107 112.668 33.968C113.074 33.9253 113.436 33.8507 113.756 33.744C114.076 33.6373 114.354 33.5093 114.588 33.36C114.844 33.1893 115.026 32.9973 115.132 32.784C115.26 32.5493 115.324 32.2827 115.324 31.984C115.324 31.4933 115.132 31.088 114.748 30.768C114.386 30.448 113.884 30.1813 113.244 29.968C112.626 29.7547 111.922 29.552 111.132 29.36C110.343 29.168 109.522 28.9653 108.668 28.752C107.815 28.5387 106.994 28.272 106.204 27.952C105.415 27.632 104.7 27.2267 104.06 26.736C103.442 26.2453 102.94 25.6373 102.556 24.912C102.194 24.1653 102.012 23.2693 102.012 22.224C102.012 21.072 102.258 20.08 102.748 19.248C103.239 18.3947 103.911 17.7013 104.764 17.168C105.639 16.6347 106.642 16.2507 107.772 16.016C108.903 15.76 110.108 15.632 111.388 15.632C112.647 15.632 113.82 15.76 114.908 16.016C116.018 16.272 116.999 16.6773 117.852 17.232C118.706 17.7653 119.367 18.448 119.836 19.28C120.327 20.0907 120.583 21.072 120.604 22.224V22.608H115.1V22.384C115.1 21.8933 114.962 21.4667 114.684 21.104C114.428 20.72 114.034 20.4213 113.5 20.208C112.967 19.9733 112.306 19.856 111.516 19.856C110.727 19.856 110.055 19.9307 109.5 20.08C108.967 20.2293 108.551 20.4427 108.252 20.72C107.975 20.9973 107.836 21.328 107.836 21.712C107.836 22.1813 108.018 22.5653 108.38 22.864C108.764 23.1627 109.276 23.4187 109.916 23.632C110.556 23.8453 111.271 24.048 112.06 24.24C112.85 24.4107 113.66 24.6027 114.492 24.816C115.346 25.008 116.167 25.264 116.956 25.584C117.746 25.8827 118.46 26.2773 119.1 26.768C119.74 27.2373 120.242 27.824 120.604 28.528C120.988 29.232 121.18 30.0853 121.18 31.088C121.18 32.8373 120.764 34.2453 119.932 35.312C119.122 36.3787 117.991 37.1573 116.54 37.648C115.111 38.1387 113.49 38.384 111.676 38.384ZM132.709 38.384C130.789 38.384 129.157 38.0747 127.813 37.456C126.469 36.816 125.434 35.8453 124.709 34.544C124.005 33.2427 123.653 31.5787 123.653 29.552C123.653 27.568 124.005 25.9253 124.709 24.624C125.413 23.3227 126.426 22.352 127.749 21.712C129.071 21.072 130.661 20.752 132.517 20.752C134.351 20.752 135.898 21.0613 137.157 21.68C138.437 22.2987 139.407 23.248 140.069 24.528C140.73 25.808 141.061 27.4613 141.061 29.488V30.608H128.965C128.965 31.504 129.093 32.2613 129.349 32.88C129.605 33.4987 129.999 33.968 130.533 34.288C131.066 34.608 131.781 34.768 132.677 34.768C133.21 34.768 133.679 34.704 134.085 34.576C134.49 34.448 134.831 34.2667 135.109 34.032C135.386 33.776 135.599 33.4773 135.749 33.136C135.898 32.7947 135.973 32.4107 135.973 31.984H141.061C141.061 33.008 140.869 33.9253 140.485 34.736C140.122 35.5253 139.578 36.1973 138.853 36.752C138.127 37.2853 137.242 37.6907 136.197 37.968C135.173 38.2453 134.01 38.384 132.709 38.384ZM128.997 27.696H135.717C135.717 27.1413 135.642 26.6613 135.493 26.256C135.365 25.8293 135.162 25.4773 134.885 25.2C134.629 24.9227 134.309 24.72 133.925 24.592C133.562 24.4427 133.135 24.368 132.645 24.368C131.877 24.368 131.237 24.496 130.725 24.752C130.213 25.008 129.818 25.3813 129.541 25.872C129.263 26.3627 129.082 26.9707 128.997 27.696ZM144.265 38V21.136H148.585L148.969 23.536H149.193C149.62 22.96 150.111 22.4587 150.665 22.032C151.22 21.6053 151.849 21.2853 152.553 21.072C153.257 20.8587 154.004 20.752 154.793 20.752C156.009 20.752 157.033 20.976 157.865 21.424C158.719 21.872 159.369 22.544 159.817 23.44C160.265 24.336 160.489 25.4773 160.489 26.864V38H155.241V27.6C155.241 27.1307 155.177 26.736 155.049 26.416C154.943 26.0747 154.783 25.7867 154.569 25.552C154.356 25.3173 154.089 25.1467 153.769 25.04C153.449 24.9333 153.087 24.88 152.681 24.88C152.063 24.88 151.519 25.0293 151.049 25.328C150.58 25.6053 150.207 25.9893 149.929 26.48C149.652 26.9493 149.513 27.504 149.513 28.144V38H144.265ZM171.622 38.384C170.513 38.384 169.468 38.2667 168.486 38.032C167.526 37.7973 166.673 37.456 165.926 37.008C165.201 36.56 164.625 36.0053 164.198 35.344C163.793 34.6827 163.59 33.9147 163.59 33.04C163.59 32.9547 163.59 32.88 163.59 32.816C163.59 32.7307 163.601 32.656 163.622 32.592H168.582C168.582 32.6347 168.582 32.688 168.582 32.752C168.582 32.7947 168.582 32.8373 168.582 32.88C168.604 33.3493 168.753 33.744 169.03 34.064C169.329 34.3627 169.713 34.5867 170.182 34.736C170.652 34.864 171.164 34.928 171.718 34.928C172.124 34.928 172.55 34.8853 172.998 34.8C173.468 34.7147 173.862 34.5653 174.182 34.352C174.502 34.1387 174.662 33.8293 174.662 33.424C174.662 32.976 174.46 32.6347 174.054 32.4C173.67 32.1653 173.148 31.9733 172.486 31.824C171.846 31.6533 171.153 31.4933 170.406 31.344C169.66 31.1733 168.902 30.9813 168.134 30.768C167.388 30.5547 166.694 30.2667 166.054 29.904C165.436 29.52 164.934 29.0293 164.55 28.432C164.166 27.8347 163.974 27.0773 163.974 26.16C163.974 25.1787 164.177 24.3467 164.582 23.664C165.009 22.96 165.585 22.3947 166.31 21.968C167.036 21.5413 167.868 21.232 168.806 21.04C169.766 20.848 170.78 20.752 171.846 20.752C172.828 20.752 173.756 20.848 174.63 21.04C175.526 21.232 176.326 21.5307 177.03 21.936C177.756 22.32 178.321 22.8213 178.726 23.44C179.132 24.0373 179.334 24.7413 179.334 25.552C179.334 25.6587 179.324 25.776 179.302 25.904C179.302 26.0107 179.302 26.0853 179.302 26.128H174.374V25.872C174.374 25.5093 174.257 25.2107 174.022 24.976C173.788 24.7413 173.468 24.56 173.062 24.432C172.657 24.2827 172.209 24.208 171.718 24.208C171.398 24.208 171.078 24.24 170.758 24.304C170.46 24.3467 170.182 24.4213 169.926 24.528C169.67 24.6133 169.457 24.7413 169.286 24.912C169.137 25.0827 169.062 25.296 169.062 25.552C169.062 25.872 169.201 26.1387 169.478 26.352C169.756 26.544 170.129 26.704 170.598 26.832C171.089 26.96 171.622 27.0987 172.198 27.248C172.988 27.4187 173.82 27.6 174.694 27.792C175.569 27.9627 176.39 28.2187 177.158 28.56C177.948 28.88 178.577 29.3707 179.046 30.032C179.537 30.672 179.782 31.5573 179.782 32.688C179.782 33.7547 179.569 34.6613 179.142 35.408C178.716 36.1333 178.129 36.72 177.382 37.168C176.636 37.5947 175.772 37.904 174.79 38.096C173.809 38.288 172.753 38.384 171.622 38.384ZM191.082 38.384C189.204 38.384 187.594 38.064 186.25 37.424C184.927 36.784 183.903 35.8133 183.178 34.512C182.474 33.1893 182.122 31.536 182.122 29.552C182.122 27.568 182.474 25.9253 183.178 24.624C183.903 23.3227 184.927 22.352 186.25 21.712C187.594 21.072 189.204 20.752 191.082 20.752C192.98 20.752 194.591 21.072 195.914 21.712C197.258 22.352 198.282 23.3227 198.986 24.624C199.711 25.9253 200.074 27.568 200.074 29.552C200.074 31.536 199.711 33.1893 198.986 34.512C198.282 35.8133 197.258 36.784 195.914 37.424C194.591 38.064 192.98 38.384 191.082 38.384ZM191.082 34.576C191.956 34.576 192.66 34.4053 193.194 34.064C193.748 33.7227 194.143 33.232 194.378 32.592C194.634 31.9307 194.762 31.12 194.762 30.16V28.976C194.762 28.016 194.634 27.2053 194.378 26.544C194.143 25.8827 193.748 25.392 193.194 25.072C192.66 24.7307 191.956 24.56 191.082 24.56C190.228 24.56 189.524 24.7307 188.97 25.072C188.436 25.392 188.042 25.8827 187.786 26.544C187.551 27.2053 187.434 28.016 187.434 28.976V30.16C187.434 31.12 187.551 31.9307 187.786 32.592C188.042 33.232 188.436 33.7227 188.97 34.064C189.524 34.4053 190.228 34.576 191.082 34.576ZM203.234 38V21.136H207.554L207.938 23.728H208.162C208.418 23.152 208.727 22.64 209.09 22.192C209.474 21.7227 209.933 21.36 210.466 21.104C211.021 20.848 211.629 20.72 212.29 20.72C212.674 20.72 213.026 20.7627 213.346 20.848C213.666 20.912 213.901 20.9867 214.05 21.072V25.648H212.386C211.725 25.648 211.138 25.744 210.626 25.936C210.135 26.1067 209.73 26.384 209.41 26.768C209.09 27.1307 208.855 27.5787 208.706 28.112C208.557 28.6453 208.482 29.264 208.482 29.968V38H203.234Z" fill="white"/>
</svg>
