<svg width="177" height="55" viewBox="0 0 177 55" fill="none" xmlns="http://www.w3.org/2000/svg">
<rect width="177" height="55" rx="27.5" fill="black"/>
<path d="M27.4 38V16.016H35.752L38.408 25.808C38.5147 26.1493 38.6427 26.6187 38.792 27.216C38.9413 27.792 39.0907 28.4 39.24 29.04C39.3893 29.68 39.5173 30.256 39.624 30.768H39.88C39.9653 30.3627 40.072 29.8827 40.2 29.328C40.328 28.752 40.4667 28.1547 40.616 27.536C40.7653 26.896 40.904 26.3093 41.032 25.776L43.72 16.016H51.848V38H46.28V28.624C46.28 27.7067 46.28 26.7787 46.28 25.84C46.3013 24.9013 46.3227 24.048 46.344 23.28C46.3653 22.512 46.376 21.9573 46.376 21.616H46.12C46.056 21.936 45.9493 22.4053 45.8 23.024C45.672 23.6213 45.5227 24.2507 45.352 24.912C45.2027 25.552 45.064 26.1067 44.936 26.576L41.736 38H37.128L33.896 26.576C33.7893 26.1493 33.6613 25.6373 33.512 25.04C33.3627 24.4427 33.2133 23.8347 33.064 23.216C32.936 22.5973 32.8187 22.0747 32.712 21.648H32.456C32.4773 22.2027 32.4987 22.8853 32.52 23.696C32.5413 24.4853 32.5627 25.3173 32.584 26.192C32.6053 27.0453 32.616 27.856 32.616 28.624V38H27.4ZM64.394 38.384C62.5167 38.384 60.906 38.064 59.562 37.424C58.2393 36.784 57.2153 35.8133 56.49 34.512C55.786 33.1893 55.434 31.536 55.434 29.552C55.434 27.568 55.786 25.9253 56.49 24.624C57.2153 23.3227 58.2393 22.352 59.562 21.712C60.906 21.072 62.5167 20.752 64.394 20.752C66.2927 20.752 67.9033 21.072 69.226 21.712C70.57 22.352 71.594 23.3227 72.298 24.624C73.0233 25.9253 73.386 27.568 73.386 29.552C73.386 31.536 73.0233 33.1893 72.298 34.512C71.594 35.8133 70.57 36.784 69.226 37.424C67.9033 38.064 66.2927 38.384 64.394 38.384ZM64.394 34.576C65.2687 34.576 65.9727 34.4053 66.506 34.064C67.0607 33.7227 67.4553 33.232 67.69 32.592C67.946 31.9307 68.074 31.12 68.074 30.16V28.976C68.074 28.016 67.946 27.2053 67.69 26.544C67.4553 25.8827 67.0607 25.392 66.506 25.072C65.9727 24.7307 65.2687 24.56 64.394 24.56C63.5407 24.56 62.8367 24.7307 62.282 25.072C61.7487 25.392 61.354 25.8827 61.098 26.544C60.8633 27.2053 60.746 28.016 60.746 28.976V30.16C60.746 31.12 60.8633 31.9307 61.098 32.592C61.354 33.232 61.7487 33.7227 62.282 34.064C62.8367 34.4053 63.5407 34.576 64.394 34.576ZM82.4665 38.384C81.3785 38.384 80.4505 38.224 79.6825 37.904C78.9358 37.5627 78.3705 37.0613 77.9865 36.4C77.6238 35.7387 77.4425 34.9387 77.4425 34V24.944H75.2345V21.136H77.6025L78.6905 16.208H82.6585V21.136H85.9545V24.944H82.6585V32.72C82.6585 33.3173 82.7758 33.776 83.0105 34.096C83.2452 34.416 83.6718 34.576 84.2905 34.576H85.9545V37.84C85.6772 37.9253 85.3252 38.0107 84.8985 38.096C84.4932 38.2027 84.0772 38.2773 83.6505 38.32C83.2238 38.3627 82.8292 38.384 82.4665 38.384ZM97.019 38.384C95.1417 38.384 93.531 38.064 92.187 37.424C90.8643 36.784 89.8403 35.8133 89.115 34.512C88.411 33.1893 88.059 31.536 88.059 29.552C88.059 27.568 88.411 25.9253 89.115 24.624C89.8403 23.3227 90.8643 22.352 92.187 21.712C93.531 21.072 95.1417 20.752 97.019 20.752C98.9177 20.752 100.528 21.072 101.851 21.712C103.195 22.352 104.219 23.3227 104.923 24.624C105.648 25.9253 106.011 27.568 106.011 29.552C106.011 31.536 105.648 33.1893 104.923 34.512C104.219 35.8133 103.195 36.784 101.851 37.424C100.528 38.064 98.9177 38.384 97.019 38.384ZM97.019 34.576C97.8937 34.576 98.5977 34.4053 99.131 34.064C99.6857 33.7227 100.08 33.232 100.315 32.592C100.571 31.9307 100.699 31.12 100.699 30.16V28.976C100.699 28.016 100.571 27.2053 100.315 26.544C100.08 25.8827 99.6857 25.392 99.131 25.072C98.5977 24.7307 97.8937 24.56 97.019 24.56C96.1657 24.56 95.4617 24.7307 94.907 25.072C94.3737 25.392 93.979 25.8827 93.723 26.544C93.4883 27.2053 93.371 28.016 93.371 28.976V30.16C93.371 31.12 93.4883 31.9307 93.723 32.592C93.979 33.232 94.3737 33.7227 94.907 34.064C95.4617 34.4053 96.1657 34.576 97.019 34.576ZM109.172 38V21.136H113.492L113.876 23.728H114.1C114.356 23.152 114.665 22.64 115.028 22.192C115.412 21.7227 115.87 21.36 116.404 21.104C116.958 20.848 117.566 20.72 118.228 20.72C118.612 20.72 118.964 20.7627 119.284 20.848C119.604 20.912 119.838 20.9867 119.988 21.072V25.648H118.324C117.662 25.648 117.076 25.744 116.564 25.936C116.073 26.1067 115.668 26.384 115.348 26.768C115.028 27.1307 114.793 27.5787 114.644 28.112C114.494 28.6453 114.42 29.264 114.42 29.968V38H109.172ZM133.319 38V36.688C133.319 35.7493 133.5 34.8853 133.863 34.096C134.225 33.3067 134.716 32.5707 135.335 31.888C135.953 31.2053 136.636 30.5547 137.383 29.936C138.151 29.296 138.919 28.688 139.687 28.112C140.561 27.472 141.383 26.8533 142.151 26.256C142.919 25.6587 143.537 25.0293 144.007 24.368C144.497 23.7067 144.743 22.9707 144.743 22.16C144.743 21.7333 144.636 21.328 144.423 20.944C144.231 20.5387 143.911 20.208 143.463 19.952C143.036 19.696 142.46 19.568 141.735 19.568C141.009 19.568 140.401 19.7067 139.911 19.984C139.42 20.24 139.047 20.6027 138.791 21.072C138.535 21.5413 138.407 22.096 138.407 22.736V23.696H133.543C133.521 23.568 133.5 23.4293 133.479 23.28C133.479 23.1093 133.479 22.9173 133.479 22.704C133.479 21.168 133.831 19.8773 134.535 18.832C135.239 17.7867 136.231 16.9973 137.511 16.464C138.812 15.9093 140.359 15.632 142.151 15.632C143.516 15.632 144.689 15.8133 145.671 16.176C146.673 16.5387 147.495 17.0293 148.135 17.648C148.775 18.2667 149.244 18.9707 149.543 19.76C149.863 20.528 150.023 21.328 150.023 22.16C150.023 23.1627 149.841 24.0693 149.479 24.88C149.116 25.6907 148.615 26.4587 147.975 27.184C147.335 27.888 146.588 28.5707 145.735 29.232C144.881 29.872 143.964 30.5227 142.983 31.184C142.492 31.5253 142.044 31.8453 141.639 32.144C141.255 32.4213 140.945 32.6667 140.711 32.88C140.476 33.0933 140.305 33.2853 140.199 33.456H150.215V38H133.319Z" fill="white"/>
</svg>
