<svg width="144" height="55" viewBox="0 0 144 55" fill="none" xmlns="http://www.w3.org/2000/svg">
<rect width="144" height="55" rx="27.5" fill="black"/>
<path d="M27.4 38V16.016H40.168C41.7893 16.016 43.144 16.3253 44.232 16.944C45.32 17.5413 46.1307 18.3733 46.664 19.44C47.2187 20.4853 47.496 21.6587 47.496 22.96C47.496 24.368 47.1653 25.6267 46.504 26.736C45.864 27.824 44.9573 28.6773 43.784 29.296L48.2 38H41.8L38.152 30.256H33.128V38H27.4ZM33.128 26H39.048C39.8373 26 40.4667 25.744 40.936 25.232C41.4267 24.6987 41.672 23.9947 41.672 23.12C41.672 22.544 41.5653 22.0533 41.352 21.648C41.1387 21.2427 40.84 20.9333 40.456 20.72C40.072 20.4853 39.6027 20.368 39.048 20.368H33.128V26ZM58.74 38.384C56.82 38.384 55.188 38.0747 53.844 37.456C52.5 36.816 51.4653 35.8453 50.74 34.544C50.036 33.2427 49.684 31.5787 49.684 29.552C49.684 27.568 50.036 25.9253 50.74 24.624C51.444 23.3227 52.4573 22.352 53.78 21.712C55.1027 21.072 56.692 20.752 58.548 20.752C60.3827 20.752 61.9293 21.0613 63.188 21.68C64.468 22.2987 65.4387 23.248 66.1 24.528C66.7613 25.808 67.092 27.4613 67.092 29.488V30.608H54.996C54.996 31.504 55.124 32.2613 55.38 32.88C55.636 33.4987 56.0307 33.968 56.564 34.288C57.0973 34.608 57.812 34.768 58.708 34.768C59.2413 34.768 59.7107 34.704 60.116 34.576C60.5213 34.448 60.8627 34.2667 61.14 34.032C61.4173 33.776 61.6307 33.4773 61.78 33.136C61.9293 32.7947 62.004 32.4107 62.004 31.984H67.092C67.092 33.008 66.9 33.9253 66.516 34.736C66.1533 35.5253 65.6093 36.1973 64.884 36.752C64.1587 37.2853 63.2733 37.6907 62.228 37.968C61.204 38.2453 60.0413 38.384 58.74 38.384ZM55.028 27.696H61.748C61.748 27.1413 61.6733 26.6613 61.524 26.256C61.396 25.8293 61.1933 25.4773 60.916 25.2C60.66 24.9227 60.34 24.72 59.956 24.592C59.5933 24.4427 59.1667 24.368 58.676 24.368C57.908 24.368 57.268 24.496 56.756 24.752C56.244 25.008 55.8493 25.3813 55.572 25.872C55.2947 26.3627 55.1133 26.9707 55.028 27.696ZM77.5285 38.384C76.4192 38.384 75.3738 38.2667 74.3925 38.032C73.4325 37.7973 72.5792 37.456 71.8325 37.008C71.1072 36.56 70.5312 36.0053 70.1045 35.344C69.6992 34.6827 69.4965 33.9147 69.4965 33.04C69.4965 32.9547 69.4965 32.88 69.4965 32.816C69.4965 32.7307 69.5072 32.656 69.5285 32.592H74.4885C74.4885 32.6347 74.4885 32.688 74.4885 32.752C74.4885 32.7947 74.4885 32.8373 74.4885 32.88C74.5098 33.3493 74.6592 33.744 74.9365 34.064C75.2352 34.3627 75.6192 34.5867 76.0885 34.736C76.5578 34.864 77.0698 34.928 77.6245 34.928C78.0298 34.928 78.4565 34.8853 78.9045 34.8C79.3738 34.7147 79.7685 34.5653 80.0885 34.352C80.4085 34.1387 80.5685 33.8293 80.5685 33.424C80.5685 32.976 80.3658 32.6347 79.9605 32.4C79.5765 32.1653 79.0538 31.9733 78.3925 31.824C77.7525 31.6533 77.0592 31.4933 76.3125 31.344C75.5658 31.1733 74.8085 30.9813 74.0405 30.768C73.2938 30.5547 72.6005 30.2667 71.9605 29.904C71.3418 29.52 70.8405 29.0293 70.4565 28.432C70.0725 27.8347 69.8805 27.0773 69.8805 26.16C69.8805 25.1787 70.0832 24.3467 70.4885 23.664C70.9152 22.96 71.4912 22.3947 72.2165 21.968C72.9418 21.5413 73.7738 21.232 74.7125 21.04C75.6725 20.848 76.6858 20.752 77.7525 20.752C78.7338 20.752 79.6618 20.848 80.5365 21.04C81.4325 21.232 82.2325 21.5307 82.9365 21.936C83.6618 22.32 84.2272 22.8213 84.6325 23.44C85.0378 24.0373 85.2405 24.7413 85.2405 25.552C85.2405 25.6587 85.2298 25.776 85.2085 25.904C85.2085 26.0107 85.2085 26.0853 85.2085 26.128H80.2805V25.872C80.2805 25.5093 80.1632 25.2107 79.9285 24.976C79.6938 24.7413 79.3738 24.56 78.9685 24.432C78.5632 24.2827 78.1152 24.208 77.6245 24.208C77.3045 24.208 76.9845 24.24 76.6645 24.304C76.3658 24.3467 76.0885 24.4213 75.8325 24.528C75.5765 24.6133 75.3632 24.7413 75.1925 24.912C75.0432 25.0827 74.9685 25.296 74.9685 25.552C74.9685 25.872 75.1072 26.1387 75.3845 26.352C75.6618 26.544 76.0352 26.704 76.5045 26.832C76.9952 26.96 77.5285 27.0987 78.1045 27.248C78.8938 27.4187 79.7258 27.6 80.6005 27.792C81.4752 27.9627 82.2965 28.2187 83.0645 28.56C83.8538 28.88 84.4832 29.3707 84.9525 30.032C85.4432 30.672 85.6885 31.5573 85.6885 32.688C85.6885 33.7547 85.4752 34.6613 85.0485 35.408C84.6218 36.1333 84.0352 36.72 83.2885 37.168C82.5418 37.5947 81.6778 37.904 80.6965 38.096C79.7152 38.288 78.6592 38.384 77.5285 38.384ZM97.0838 38.384C95.1638 38.384 93.5318 38.0747 92.1878 37.456C90.8438 36.816 89.8091 35.8453 89.0838 34.544C88.3798 33.2427 88.0278 31.5787 88.0278 29.552C88.0278 27.568 88.3798 25.9253 89.0838 24.624C89.7878 23.3227 90.8011 22.352 92.1238 21.712C93.4464 21.072 95.0358 20.752 96.8918 20.752C98.7264 20.752 100.273 21.0613 101.532 21.68C102.812 22.2987 103.782 23.248 104.444 24.528C105.105 25.808 105.436 27.4613 105.436 29.488V30.608H93.3398C93.3398 31.504 93.4678 32.2613 93.7238 32.88C93.9798 33.4987 94.3744 33.968 94.9078 34.288C95.4411 34.608 96.1558 34.768 97.0518 34.768C97.5851 34.768 98.0544 34.704 98.4598 34.576C98.8651 34.448 99.2064 34.2667 99.4838 34.032C99.7611 33.776 99.9744 33.4773 100.124 33.136C100.273 32.7947 100.348 32.4107 100.348 31.984H105.436C105.436 33.008 105.244 33.9253 104.86 34.736C104.497 35.5253 103.953 36.1973 103.228 36.752C102.502 37.2853 101.617 37.6907 100.572 37.968C99.5478 38.2453 98.3851 38.384 97.0838 38.384ZM93.3718 27.696H100.092C100.092 27.1413 100.017 26.6613 99.8678 26.256C99.7398 25.8293 99.5371 25.4773 99.2598 25.2C99.0038 24.9227 98.6838 24.72 98.2998 24.592C97.9371 24.4427 97.5104 24.368 97.0198 24.368C96.2518 24.368 95.6118 24.496 95.0998 24.752C94.5878 25.008 94.1931 25.3813 93.9158 25.872C93.6384 26.3627 93.4571 26.9707 93.3718 27.696ZM114.56 38.384C113.472 38.384 112.544 38.224 111.776 37.904C111.03 37.5627 110.464 37.0613 110.08 36.4C109.718 35.7387 109.536 34.9387 109.536 34V24.944H107.328V21.136H109.696L110.784 16.208H114.752V21.136H118.048V24.944H114.752V32.72C114.752 33.3173 114.87 33.776 115.104 34.096C115.339 34.416 115.766 34.576 116.384 34.576H118.048V37.84C117.771 37.9253 117.419 38.0107 116.992 38.096C116.587 38.2027 116.171 38.2773 115.744 38.32C115.318 38.3627 114.923 38.384 114.56 38.384Z" fill="white"/>
</svg>
