<svg width="122" height="55" viewBox="0 0 122 55" fill="none" xmlns="http://www.w3.org/2000/svg">
<rect width="122" height="55" rx="27.5" fill="black"/>
<path d="M27.4 38V16.016H40.168C41.7893 16.016 43.144 16.3253 44.232 16.944C45.32 17.5413 46.1307 18.3733 46.664 19.44C47.2187 20.4853 47.496 21.6587 47.496 22.96C47.496 24.368 47.1653 25.6267 46.504 26.736C45.864 27.824 44.9573 28.6773 43.784 29.296L48.2 38H41.8L38.152 30.256H33.128V38H27.4ZM33.128 26H39.048C39.8373 26 40.4667 25.744 40.936 25.232C41.4267 24.6987 41.672 23.9947 41.672 23.12C41.672 22.544 41.5653 22.0533 41.352 21.648C41.1387 21.2427 40.84 20.9333 40.456 20.72C40.072 20.4853 39.6027 20.368 39.048 20.368H33.128V26ZM48.599 38L56.503 26.416L49.367 16.016H56.311L60.343 22.416H60.503L64.535 16.016H71.031L63.863 26.416L71.767 38H64.791L60.023 30.416H59.863L55.095 38H48.599ZM74.3375 38V16.016H83.5215C85.9108 16.016 87.9268 16.4107 89.5695 17.2C91.2335 17.9893 92.4922 19.1947 93.3455 20.816C94.2202 22.416 94.6575 24.4747 94.6575 26.992C94.6575 29.488 94.2202 31.5573 93.3455 33.2C92.4922 34.8213 91.2335 36.0267 89.5695 36.816C87.9268 37.6053 85.9108 38 83.5215 38H74.3375ZM80.0655 33.52H83.4575C84.3535 33.52 85.1322 33.392 85.7935 33.136C86.4548 32.88 87.0095 32.5067 87.4575 32.016C87.9055 31.5253 88.2362 30.9173 88.4495 30.192C88.6628 29.4667 88.7695 28.6347 88.7695 27.696V26.352C88.7695 25.392 88.6628 24.5493 88.4495 23.824C88.2362 23.0987 87.9055 22.4907 87.4575 22C87.0095 21.5093 86.4548 21.136 85.7935 20.88C85.1322 20.624 84.3535 20.496 83.4575 20.496H80.0655V33.52Z" fill="white"/>
</svg>
