<svg width="119" height="55" viewBox="0 0 119 55" fill="none" xmlns="http://www.w3.org/2000/svg">
<rect width="119" height="55" rx="27.5" fill="black"/>
<path d="M32.904 38V20.72H25.768V16.016H45.768V20.72H38.632V38H32.904ZM46.1928 38L54.0968 26.416L46.9608 16.016H53.9048L57.9368 22.416H58.0968L62.1287 16.016H68.6248L61.4568 26.416L69.3608 38H62.3848L57.6168 30.416H57.4568L52.6888 38H46.1928ZM71.9313 38V16.016H81.1153C83.5046 16.016 85.5206 16.4107 87.1632 17.2C88.8273 17.9893 90.0859 19.1947 90.9393 20.816C91.8139 22.416 92.2513 24.4747 92.2513 26.992C92.2513 29.488 91.8139 31.5573 90.9393 33.2C90.0859 34.8213 88.8273 36.0267 87.1632 36.816C85.5206 37.6053 83.5046 38 81.1153 38H71.9313ZM77.6593 33.52H81.0513C81.9473 33.52 82.7259 33.392 83.3873 33.136C84.0486 32.88 84.6033 32.5067 85.0513 32.016C85.4993 31.5253 85.8299 30.9173 86.0433 30.192C86.2566 29.4667 86.3633 28.6347 86.3633 27.696V26.352C86.3633 25.392 86.2566 24.5493 86.0433 23.824C85.8299 23.0987 85.4993 22.4907 85.0513 22C84.6033 21.5093 84.0486 21.136 83.3873 20.88C82.7259 20.624 81.9473 20.496 81.0513 20.496H77.6593V33.52Z" fill="white"/>
</svg>
