<?xml version="1.0" encoding="UTF-8"?>
<!DOCTYPE svg PUBLIC "-//W3C//DTD SVG 1.1//EN" "http://www.w3.org/Graphics/SVG/1.1/DTD/svg11.dtd">

<svg xmlns="http://www.w3.org/2000/svg" xmlns:xlink="http://www.w3.org/1999/xlink" width="255.0px" height="204.2px" viewbox="0 0 255.0 204.2" version="1.1">
  <title>TPS54X27_28_TPS56X28_BUCK_DDA_A_bottom: null</title>
  <desc>TPS54X27_28_TPS56X28_BUCK_DDA_A WebTHERM&amp;reg; Board Layout file</desc>
  <g id="board" fill-opacity="1" transform="scale(0.1016,-0.1016) translate(0,-2010.1)">
    <rect x="0" y="0" width="2510" height="2010" stroke="#006600" stroke-width="0" fill="#006600" type="Fill" layer="PCB" />
    <polygon net="0" points="565,805 145,805 145,1195 354,1195 354,1193 356,1189 360,1187 364,1186 374,1186 378,1187 381,1189 383,1193 383,1195 565,1195" stroke-width="0.0" stroke="#ff9900" fill="#ff9900" stroke-linecap="round" stroke-linejoin="round" opacity="1.0" layer="BOTTOM" />
    <polygon net="0" points="2454,33 54,33 54,778 604,778 604,1046 608,1048 1104,553 1779,553 1779,653 1104,653 654,1103 654,1223 649,1223 648,1224 647,1233 643,1241 638,1249 630,1254 622,1258 613,1259 603,1258 595,1254 588,1249 582,1241 579,1233 577,1224 576,1223 54,1223 54,1983 2454,1983" stroke-width="0.0" stroke="#ff9900" fill="#ff9900" stroke-linecap="round" stroke-linejoin="round" opacity="1.0" layer="BOTTOM" />
    <polygon net="0" points="1425,1909 1411,1907 1398,1901 1386,1893 1378,1882 1372,1869 1371,1855 1372,1841 1378,1828 1386,1816 1398,1808 1411,1802 1425,1801 1439,1802 1452,1808 1463,1816 1471,1828 1477,1841 1479,1855 1477,1869 1471,1882 1463,1893 1452,1901 1439,1907" stroke-width="0.0" stroke="#006600" fill="#006600" stroke-linecap="round" stroke-linejoin="round" opacity="1.0" layer="BOTTOM" />
    <polygon net="0" points="1315,1457 1306,1455 1299,1450 1295,1444 1290,1444 1285,1450 1278,1455 1270,1457 1261,1455 1254,1450 1249,1443 1247,1435 1249,1426 1254,1419 1260,1415 1260,1410 1254,1405 1249,1398 1247,1390 1249,1381 1254,1374 1261,1369 1270,1367 1278,1369 1285,1374 1290,1380 1295,1380 1299,1374 1306,1369 1315,1367 1323,1369 1330,1374 1335,1381 1337,1390 1335,1398 1330,1405 1324,1410 1324,1415 1330,1419 1335,1426 1337,1435 1335,1443 1330,1450 1323,1455" stroke-width="0.0" stroke="#006600" fill="#006600" stroke-linecap="round" stroke-linejoin="round" opacity="1.0" layer="BOTTOM" />
    <polygon net="0" points="1315,1362 1306,1360 1299,1355 1295,1349 1290,1349 1285,1355 1278,1360 1270,1362 1261,1360 1254,1355 1249,1348 1247,1340 1249,1331 1254,1324 1260,1320 1260,1315 1254,1310 1249,1303 1247,1295 1249,1286 1254,1279 1261,1274 1270,1272 1278,1274 1285,1279 1290,1285 1295,1285 1299,1279 1306,1274 1315,1272 1323,1274 1330,1279 1335,1286 1337,1295 1335,1303 1330,1310 1324,1315 1324,1320 1330,1324 1335,1331 1337,1340 1335,1348 1330,1355 1323,1360" stroke-width="0.0" stroke="#006600" fill="#006600" stroke-linecap="round" stroke-linejoin="round" opacity="1.0" layer="BOTTOM" />
    <polygon net="0" points="2355,759 2341,757 2328,751 2316,743 2308,732 2302,719 2301,705 2302,691 2308,678 2316,666 2328,658 2341,652 2355,651 2369,652 2382,658 2393,666 2401,678 2407,691 2409,705 2407,719 2401,732 2393,743 2382,751 2369,757" stroke-width="0.0" stroke="#006600" fill="#006600" stroke-linecap="round" stroke-linejoin="round" opacity="1.0" layer="BOTTOM" />
    <polygon net="0" points="374,1197 374,1209 364,1209 364,1197" stroke-width="0.0" stroke="#ff9900" fill="#ff9900" stroke-linecap="round" stroke-linejoin="round" opacity="1.0" layer="BOTTOM" />
    <polygon net="0" points="364,1188 364,1198 374,1198 374,1188" stroke-width="0.0" stroke="#ff9900" fill="#ff9900" stroke-linecap="round" stroke-linejoin="round" opacity="1.0" layer="BOTTOM" />
    <polygon net="0" points="364,1208 364,1218 374,1218 374,1208" stroke-width="0.0" stroke="#ff9900" fill="#ff9900" stroke-linecap="round" stroke-linejoin="round" opacity="1.0" layer="BOTTOM" />
    <line net="0" x1="501" y1="1855" x2="875" y2="1855" stroke-width="6" stroke="#ff9900" stroke-linecap="round" stroke-linejoin="round" opacity="1.0" layer="BOTTOM" />
    <line net="0" x1="369" y1="1723" x2="501" y2="1855" stroke-width="6" stroke="#ff9900" stroke-linecap="round" stroke-linejoin="round" opacity="1.0" layer="BOTTOM" />
    <line net="0" x1="369" y1="1213" x2="369" y2="1723" stroke-width="6" stroke="#ff9900" stroke-linecap="round" stroke-linejoin="round" opacity="1.0" layer="BOTTOM" />
    <line net="0" x1="432" y1="1050" x2="435" y2="1050" stroke-width="6" stroke="#ff9900" stroke-linecap="round" stroke-linejoin="round" opacity="1.0" layer="BOTTOM" />
    <line net="0" x1="369" y1="1113" x2="432" y2="1050" stroke-width="6" stroke="#ff9900" stroke-linecap="round" stroke-linejoin="round" opacity="1.0" layer="BOTTOM" />
    <line net="0" x1="369" y1="1113" x2="369" y2="1193" stroke-width="6" stroke="#ff9900" stroke-linecap="round" stroke-linejoin="round" opacity="1.0" layer="BOTTOM" />
    <line net="2" x1="600" y1="1110" x2="1107" y2="603" stroke-width="13" stroke="#ff9900" stroke-linecap="round" stroke-linejoin="round" opacity="1.0" layer="BOTTOM" />
    <line net="2" x1="600" y1="1110" x2="600" y2="1143" stroke-width="13" stroke="#ff9900" stroke-linecap="round" stroke-linejoin="round" opacity="1.0" layer="BOTTOM" />
    <line net="2" x1="1107" y1="603" x2="1734" y2="603" stroke-width="13" stroke="#ff9900" stroke-linecap="round" stroke-linejoin="round" opacity="1.0" layer="BOTTOM" />
    <line net="2" x1="2352" y1="708" x2="2355" y2="705" stroke-width="10" stroke="#ff9900" stroke-linecap="round" stroke-linejoin="round" opacity="1.0" layer="BOTTOM" />
    <line net="0" x1="435" y1="862" x2="435" y2="1050" stroke-width="10" stroke="#ff9900" stroke-linecap="round" stroke-linejoin="round" opacity="1.0" layer="BOTTOM" />
    <line net="0" x1="435" y1="862" x2="462" y2="835" stroke-width="10" stroke="#ff9900" stroke-linecap="round" stroke-linejoin="round" opacity="1.0" layer="BOTTOM" />
    <line net="0" x1="462" y1="835" x2="512" y2="835" stroke-width="10" stroke="#ff9900" stroke-linecap="round" stroke-linejoin="round" opacity="1.0" layer="BOTTOM" />
    <rect comp="10" net="0" pin="1" x="349" y="1217.6" width="38" height="26" stroke-width="0" stroke="#ff9900" fill="#ff9900" opacity="1.0" layer="BOTTOM" />
    <rect comp="10" net="0" pin="2" x="349" y="1162.6" width="38" height="26" stroke-width="0" stroke="#ff9900" fill="#ff9900" opacity="1.0" layer="BOTTOM" />
    <circle net="0" cx="995" cy="665" r="9" r1="12" r2="6" stroke-width="6" stroke="#ff9900" fill="#ffffff" opacity="1" layer="MULTILAYER" />
    <circle net="0" cx="1088" cy="1087" r="8" r1="12" r2="5" stroke-width="7" stroke="#ff9900" fill="#ffffff" opacity="1" layer="MULTILAYER" />
    <circle net="2" cx="1734" cy="603" r="9" r1="12" r2="6" stroke-width="6" stroke="#ff9900" fill="#ffffff" opacity="1" layer="MULTILAYER" />
    <circle net="0" cx="512" cy="835" r="9" r1="12" r2="6" stroke-width="6" stroke="#ff9900" fill="#ffffff" opacity="1" layer="MULTILAYER" />
    <circle net="0" cx="995" cy="851" r="9" r1="12" r2="6" stroke-width="6" stroke="#ff9900" fill="#ffffff" opacity="1" layer="MULTILAYER" />
    <circle net="0" cx="995" cy="895" r="9" r1="12" r2="6" stroke-width="6" stroke="#ff9900" fill="#ffffff" opacity="1" layer="MULTILAYER" />
    <circle net="0" cx="825" cy="1565" r="9" r1="12" r2="6" stroke-width="6" stroke="#ff9900" fill="#ffffff" opacity="1" layer="MULTILAYER" />
    <circle net="0" cx="825" cy="1365" r="9" r1="12" r2="6" stroke-width="6" stroke="#ff9900" fill="#ffffff" opacity="1" layer="MULTILAYER" />
    <circle net="0" cx="975" cy="1365" r="9" r1="12" r2="6" stroke-width="6" stroke="#ff9900" fill="#ffffff" opacity="1" layer="MULTILAYER" />
    <circle net="0" cx="925" cy="1365" r="9" r1="12" r2="6" stroke-width="6" stroke="#ff9900" fill="#ffffff" opacity="1" layer="MULTILAYER" />
    <circle net="0" cx="875" cy="1415" r="9" r1="12" r2="6" stroke-width="6" stroke="#ff9900" fill="#ffffff" opacity="1" layer="MULTILAYER" />
    <circle net="0" cx="925" cy="1265" r="9" r1="12" r2="6" stroke-width="6" stroke="#ff9900" fill="#ffffff" opacity="1" layer="MULTILAYER" />
    <circle net="0" cx="925" cy="1315" r="9" r1="12" r2="6" stroke-width="6" stroke="#ff9900" fill="#ffffff" opacity="1" layer="MULTILAYER" />
    <circle net="0" cx="975" cy="1315" r="9" r1="12" r2="6" stroke-width="6" stroke="#ff9900" fill="#ffffff" opacity="1" layer="MULTILAYER" />
    <circle net="0" cx="875" cy="1315" r="9" r1="12" r2="6" stroke-width="6" stroke="#ff9900" fill="#ffffff" opacity="1" layer="MULTILAYER" />
    <circle net="0" cx="975" cy="1265" r="9" r1="12" r2="6" stroke-width="6" stroke="#ff9900" fill="#ffffff" opacity="1" layer="MULTILAYER" />
    <circle net="0" cx="875" cy="1365" r="9" r1="12" r2="6" stroke-width="6" stroke="#ff9900" fill="#ffffff" opacity="1" layer="MULTILAYER" />
    <circle net="0" cx="975" cy="1515" r="9" r1="12" r2="6" stroke-width="6" stroke="#ff9900" fill="#ffffff" opacity="1" layer="MULTILAYER" />
    <circle net="0" cx="925" cy="1465" r="9" r1="12" r2="6" stroke-width="6" stroke="#ff9900" fill="#ffffff" opacity="1" layer="MULTILAYER" />
    <circle net="0" cx="925" cy="1515" r="9" r1="12" r2="6" stroke-width="6" stroke="#ff9900" fill="#ffffff" opacity="1" layer="MULTILAYER" />
    <circle net="0" cx="825" cy="1415" r="9" r1="12" r2="6" stroke-width="6" stroke="#ff9900" fill="#ffffff" opacity="1" layer="MULTILAYER" />
    <circle net="0" cx="975" cy="1415" r="9" r1="12" r2="6" stroke-width="6" stroke="#ff9900" fill="#ffffff" opacity="1" layer="MULTILAYER" />
    <circle net="0" cx="925" cy="1415" r="9" r1="12" r2="6" stroke-width="6" stroke="#ff9900" fill="#ffffff" opacity="1" layer="MULTILAYER" />
    <circle net="0" cx="875" cy="1515" r="9" r1="12" r2="6" stroke-width="6" stroke="#ff9900" fill="#ffffff" opacity="1" layer="MULTILAYER" />
    <circle net="0" cx="975" cy="1465" r="9" r1="12" r2="6" stroke-width="6" stroke="#ff9900" fill="#ffffff" opacity="1" layer="MULTILAYER" />
    <circle net="0" cx="875" cy="1465" r="9" r1="12" r2="6" stroke-width="6" stroke="#ff9900" fill="#ffffff" opacity="1" layer="MULTILAYER" />
    <circle net="0" cx="1975" cy="1245" r="9" r1="12" r2="6" stroke-width="6" stroke="#ff9900" fill="#ffffff" opacity="1" layer="MULTILAYER" />
    <circle net="0" cx="1925" cy="1245" r="9" r1="12" r2="6" stroke-width="6" stroke="#ff9900" fill="#ffffff" opacity="1" layer="MULTILAYER" />
    <circle net="0" cx="1975" cy="1195" r="9" r1="12" r2="6" stroke-width="6" stroke="#ff9900" fill="#ffffff" opacity="1" layer="MULTILAYER" />
    <circle net="0" cx="1875" cy="1245" r="9" r1="12" r2="6" stroke-width="6" stroke="#ff9900" fill="#ffffff" opacity="1" layer="MULTILAYER" />
    <circle net="0" cx="1925" cy="1195" r="9" r1="12" r2="6" stroke-width="6" stroke="#ff9900" fill="#ffffff" opacity="1" layer="MULTILAYER" />
    <circle net="0" cx="1875" cy="1195" r="9" r1="12" r2="6" stroke-width="6" stroke="#ff9900" fill="#ffffff" opacity="1" layer="MULTILAYER" />
    <circle net="0" cx="2125" cy="1245" r="9" r1="12" r2="6" stroke-width="6" stroke="#ff9900" fill="#ffffff" opacity="1" layer="MULTILAYER" />
    <circle net="0" cx="2075" cy="1245" r="9" r1="12" r2="6" stroke-width="6" stroke="#ff9900" fill="#ffffff" opacity="1" layer="MULTILAYER" />
    <circle net="0" cx="2125" cy="1195" r="9" r1="12" r2="6" stroke-width="6" stroke="#ff9900" fill="#ffffff" opacity="1" layer="MULTILAYER" />
    <circle net="0" cx="2025" cy="1245" r="9" r1="12" r2="6" stroke-width="6" stroke="#ff9900" fill="#ffffff" opacity="1" layer="MULTILAYER" />
    <circle net="0" cx="2075" cy="1195" r="9" r1="12" r2="6" stroke-width="6" stroke="#ff9900" fill="#ffffff" opacity="1" layer="MULTILAYER" />
    <circle net="0" cx="2025" cy="1195" r="9" r1="12" r2="6" stroke-width="6" stroke="#ff9900" fill="#ffffff" opacity="1" layer="MULTILAYER" />
    <circle net="0" cx="2175" cy="1295" r="9" r1="12" r2="6" stroke-width="6" stroke="#ff9900" fill="#ffffff" opacity="1" layer="MULTILAYER" />
    <circle net="0" cx="2175" cy="1245" r="9" r1="12" r2="6" stroke-width="6" stroke="#ff9900" fill="#ffffff" opacity="1" layer="MULTILAYER" />
    <circle net="0" cx="2225" cy="1195" r="9" r1="12" r2="6" stroke-width="6" stroke="#ff9900" fill="#ffffff" opacity="1" layer="MULTILAYER" />
    <circle net="0" cx="2075" cy="1295" r="9" r1="12" r2="6" stroke-width="6" stroke="#ff9900" fill="#ffffff" opacity="1" layer="MULTILAYER" />
    <circle net="0" cx="2175" cy="1195" r="9" r1="12" r2="6" stroke-width="6" stroke="#ff9900" fill="#ffffff" opacity="1" layer="MULTILAYER" />
    <circle net="0" cx="2125" cy="1295" r="9" r1="12" r2="6" stroke-width="6" stroke="#ff9900" fill="#ffffff" opacity="1" layer="MULTILAYER" />
    <circle net="0" cx="1875" cy="1295" r="9" r1="12" r2="6" stroke-width="6" stroke="#ff9900" fill="#ffffff" opacity="1" layer="MULTILAYER" />
    <circle net="0" cx="1925" cy="1295" r="9" r1="12" r2="6" stroke-width="6" stroke="#ff9900" fill="#ffffff" opacity="1" layer="MULTILAYER" />
    <circle net="0" cx="2225" cy="1295" r="9" r1="12" r2="6" stroke-width="6" stroke="#ff9900" fill="#ffffff" opacity="1" layer="MULTILAYER" />
    <circle net="0" cx="1975" cy="1295" r="9" r1="12" r2="6" stroke-width="6" stroke="#ff9900" fill="#ffffff" opacity="1" layer="MULTILAYER" />
    <circle net="0" cx="2225" cy="1245" r="9" r1="12" r2="6" stroke-width="6" stroke="#ff9900" fill="#ffffff" opacity="1" layer="MULTILAYER" />
    <circle net="0" cx="2025" cy="1295" r="9" r1="12" r2="6" stroke-width="6" stroke="#ff9900" fill="#ffffff" opacity="1" layer="MULTILAYER" />
    <circle net="0" cx="975" cy="1215" r="9" r1="12" r2="6" stroke-width="6" stroke="#ff9900" fill="#ffffff" opacity="1" layer="MULTILAYER" />
    <circle net="0" cx="825" cy="1515" r="9" r1="12" r2="6" stroke-width="6" stroke="#ff9900" fill="#ffffff" opacity="1" layer="MULTILAYER" />
    <circle net="0" cx="825" cy="1315" r="9" r1="12" r2="6" stroke-width="6" stroke="#ff9900" fill="#ffffff" opacity="1" layer="MULTILAYER" />
    <circle net="0" cx="975" cy="1565" r="9" r1="12" r2="6" stroke-width="6" stroke="#ff9900" fill="#ffffff" opacity="1" layer="MULTILAYER" />
    <circle net="0" cx="925" cy="1215" r="9" r1="12" r2="6" stroke-width="6" stroke="#ff9900" fill="#ffffff" opacity="1" layer="MULTILAYER" />
    <circle net="0" cx="975" cy="1615" r="9" r1="12" r2="6" stroke-width="6" stroke="#ff9900" fill="#ffffff" opacity="1" layer="MULTILAYER" />
    <circle net="0" cx="825" cy="1615" r="9" r1="12" r2="6" stroke-width="6" stroke="#ff9900" fill="#ffffff" opacity="1" layer="MULTILAYER" />
    <circle net="0" cx="925" cy="1615" r="9" r1="12" r2="6" stroke-width="6" stroke="#ff9900" fill="#ffffff" opacity="1" layer="MULTILAYER" />
    <circle net="0" cx="925" cy="1565" r="9" r1="12" r2="6" stroke-width="6" stroke="#ff9900" fill="#ffffff" opacity="1" layer="MULTILAYER" />
    <circle net="0" cx="875" cy="1565" r="9" r1="12" r2="6" stroke-width="6" stroke="#ff9900" fill="#ffffff" opacity="1" layer="MULTILAYER" />
    <circle net="0" cx="825" cy="1465" r="9" r1="12" r2="6" stroke-width="6" stroke="#ff9900" fill="#ffffff" opacity="1" layer="MULTILAYER" />
    <circle net="0" cx="875" cy="1615" r="9" r1="12" r2="6" stroke-width="6" stroke="#ff9900" fill="#ffffff" opacity="1" layer="MULTILAYER" />
    <circle net="1" cx="1270" cy="1295" r="9" r1="12" r2="6" stroke-width="6" stroke="#ff9900" fill="#ffffff" opacity="1" layer="MULTILAYER" />
    <circle net="1" cx="1270" cy="1340" r="9" r1="12" r2="6" stroke-width="6" stroke="#ff9900" fill="#ffffff" opacity="1" layer="MULTILAYER" />
    <circle net="1" cx="1270" cy="1390" r="9" r1="12" r2="6" stroke-width="6" stroke="#ff9900" fill="#ffffff" opacity="1" layer="MULTILAYER" />
    <circle net="1" cx="1270" cy="1435" r="9" r1="12" r2="6" stroke-width="6" stroke="#ff9900" fill="#ffffff" opacity="1" layer="MULTILAYER" />
    <circle net="1" cx="1315" cy="1435" r="9" r1="12" r2="6" stroke-width="6" stroke="#ff9900" fill="#ffffff" opacity="1" layer="MULTILAYER" />
    <circle net="1" cx="1315" cy="1390" r="9" r1="12" r2="6" stroke-width="6" stroke="#ff9900" fill="#ffffff" opacity="1" layer="MULTILAYER" />
    <circle net="1" cx="1315" cy="1340" r="9" r1="12" r2="6" stroke-width="6" stroke="#ff9900" fill="#ffffff" opacity="1" layer="MULTILAYER" />
    <circle net="1" cx="1315" cy="1295" r="9" r1="12" r2="6" stroke-width="6" stroke="#ff9900" fill="#ffffff" opacity="1" layer="MULTILAYER" />
    <circle net="0" cx="1115" cy="894" r="9" r1="12" r2="6" stroke-width="6" stroke="#ff9900" fill="#ffffff" opacity="1" layer="MULTILAYER" />
    <circle net="0" cx="1175" cy="894" r="9" r1="12" r2="6" stroke-width="6" stroke="#ff9900" fill="#ffffff" opacity="1" layer="MULTILAYER" />
    <circle net="0" cx="435" cy="1050" r="9" r1="12" r2="6" stroke-width="6" stroke="#ff9900" fill="#ffffff" opacity="1" layer="MULTILAYER" />
    <circle net="0" cx="1115" cy="855" r="9" r1="12" r2="6" stroke-width="6" stroke="#ff9900" fill="#ffffff" opacity="1" layer="MULTILAYER" />
    <circle net="0" cx="1175" cy="855" r="9" r1="12" r2="6" stroke-width="6" stroke="#ff9900" fill="#ffffff" opacity="1" layer="MULTILAYER" />
    <circle net="0" cx="995" cy="805" r="9" r1="12" r2="6" stroke-width="6" stroke="#ff9900" fill="#ffffff" opacity="1" layer="MULTILAYER" />
    <circle net="0" cx="1115" cy="805" r="9" r1="12" r2="6" stroke-width="6" stroke="#ff9900" fill="#ffffff" opacity="1" layer="MULTILAYER" />
    <circle net="0" cx="1175" cy="805" r="9" r1="12" r2="6" stroke-width="6" stroke="#ff9900" fill="#ffffff" opacity="1" layer="MULTILAYER" />
    <circle net="2" cx="600" cy="1143" r="9" r1="12" r2="6" stroke-width="6" stroke="#ff9900" fill="#ffffff" opacity="1" layer="MULTILAYER" />
    <circle net="1" cx="613" cy="1224" r="19" r1="25" r2="14" stroke-width="11" stroke="#ff9900" fill="#ffffff" opacity="1" layer="MULTILAYER" />
    <circle net="0" cx="1028" cy="1087" r="8" r1="12" r2="5" stroke-width="7" stroke="#ff9900" fill="#ffffff" opacity="1" layer="MULTILAYER" />
    <circle net="0" cx="1088" cy="1030" r="8" r1="12" r2="5" stroke-width="7" stroke="#ff9900" fill="#ffffff" opacity="1" layer="MULTILAYER" />
    <circle net="0" cx="1028" cy="969" r="8" r1="12" r2="5" stroke-width="7" stroke="#ff9900" fill="#ffffff" opacity="1" layer="MULTILAYER" />
    <circle net="0" cx="1028" cy="1030" r="8" r1="12" r2="5" stroke-width="7" stroke="#ff9900" fill="#ffffff" opacity="1" layer="MULTILAYER" />
    <circle net="0" cx="1088" cy="969" r="8" r1="12" r2="5" stroke-width="7" stroke="#ff9900" fill="#ffffff" opacity="1" layer="MULTILAYER" />
    <circle net="0" cx="1055" cy="895" r="9" r1="12" r2="6" stroke-width="6" stroke="#ff9900" fill="#ffffff" opacity="1" layer="MULTILAYER" />
    <circle net="0" cx="1055" cy="851" r="9" r1="12" r2="6" stroke-width="6" stroke="#ff9900" fill="#ffffff" opacity="1" layer="MULTILAYER" />
    <circle net="0" cx="1055" cy="805" r="9" r1="12" r2="6" stroke-width="6" stroke="#ff9900" fill="#ffffff" opacity="1" layer="MULTILAYER" />
    <circle net="2" cx="2355" cy="705" r="37" r1="43" r2="31" stroke-width="12" stroke="#ff9900" fill="#ffffff" opacity="1" layer="MULTILAYER" />
    <circle net="0" cx="875" cy="1855" r="37" r1="43" r2="31" stroke-width="12" stroke="#ff9900" fill="#ffffff" opacity="1" layer="MULTILAYER" />
    <circle net="1" cx="1425" cy="1855" r="37" r1="43" r2="31" stroke-width="12" stroke="#ff9900" fill="#ffffff" opacity="1" layer="MULTILAYER" />
    <circle net="0" cx="2355" cy="1265" r="37" r1="43" r2="31" stroke-width="12" stroke="#ff9900" fill="#ffffff" opacity="1" layer="MULTILAYER" />
  </g>
</svg>

