%TF.GenerationSoftware,KiCad,Pcbnew,8.0.1-8.0.1-0~ubuntu20.04.1*%
%TF.CreationDate,2024-04-20T12:51:40-03:00*%
%TF.ProjectId,seebum_esp32s3,73656562-756d-45f6-9573-70333273332e,rev?*%
%TF.SameCoordinates,Original*%
%TF.FileFunction,Copper,L3,Inr*%
%TF.FilePolarity,Positive*%
%FSLAX46Y46*%
G04 Gerber Fmt 4.6, Leading zero omitted, Abs format (unit mm)*
G04 Created by KiCad (PCBNEW 8.0.1-8.0.1-0~ubuntu20.04.1) date 2024-04-20 12:51:40*
%MOMM*%
%LPD*%
G01*
G04 APERTURE LIST*
%TA.AperFunction,ComponentPad*%
%ADD10C,0.800000*%
%TD*%
%TA.AperFunction,ComponentPad*%
%ADD11C,5.400000*%
%TD*%
%TA.AperFunction,ComponentPad*%
%ADD12R,1.700000X1.700000*%
%TD*%
%TA.AperFunction,ComponentPad*%
%ADD13O,1.700000X1.700000*%
%TD*%
%TA.AperFunction,ComponentPad*%
%ADD14O,1.800000X3.300000*%
%TD*%
%TA.AperFunction,ComponentPad*%
%ADD15O,1.000000X2.100000*%
%TD*%
%TA.AperFunction,ComponentPad*%
%ADD16O,1.000000X1.800000*%
%TD*%
%TA.AperFunction,ComponentPad*%
%ADD17C,0.600000*%
%TD*%
%TA.AperFunction,ComponentPad*%
%ADD18R,3.000000X3.000000*%
%TD*%
%TA.AperFunction,ComponentPad*%
%ADD19C,3.000000*%
%TD*%
%TA.AperFunction,ViaPad*%
%ADD20C,0.800000*%
%TD*%
%TA.AperFunction,ViaPad*%
%ADD21C,0.700000*%
%TD*%
%TA.AperFunction,ViaPad*%
%ADD22C,0.900000*%
%TD*%
%TA.AperFunction,Conductor*%
%ADD23C,0.300000*%
%TD*%
G04 APERTURE END LIST*
D10*
%TO.N,N/C*%
%TO.C,H102*%
X177487500Y-62115000D03*
X178057500Y-63595000D03*
X178067500Y-60645000D03*
X179547500Y-60055000D03*
D11*
X179547500Y-62125000D03*
D10*
X179547500Y-64175000D03*
X181017500Y-60645000D03*
X181017500Y-63595000D03*
X181607500Y-62115000D03*
%TD*%
D12*
%TO.N,unconnected-(J401-Pin_1-Pad1)*%
%TO.C,J401*%
X126467500Y-60785000D03*
D13*
%TO.N,/5V_RASP*%
X126467500Y-63325000D03*
%TO.N,/ESP32/GPIO10*%
X129007500Y-60785000D03*
%TO.N,/5V_RASP*%
X129007500Y-63325000D03*
%TO.N,/ESP32/GPIO9*%
X131547500Y-60785000D03*
%TO.N,GND*%
X131547500Y-63325000D03*
%TO.N,unconnected-(J401-Pin_7-Pad7)*%
X134087500Y-60785000D03*
%TO.N,/ESP32/GPIO18*%
X134087500Y-63325000D03*
%TO.N,GND*%
X136627500Y-60785000D03*
%TO.N,/ESP32/COMM*%
X136627500Y-63325000D03*
%TO.N,unconnected-(J401-Pin_11-Pad11)*%
X139167500Y-60785000D03*
%TO.N,unconnected-(J401-Pin_12-Pad12)*%
X139167500Y-63325000D03*
%TO.N,unconnected-(J401-Pin_13-Pad13)*%
X141707500Y-60785000D03*
%TO.N,GND*%
X141707500Y-63325000D03*
%TO.N,unconnected-(J401-Pin_15-Pad15)*%
X144247500Y-60785000D03*
%TO.N,unconnected-(J401-Pin_16-Pad16)*%
X144247500Y-63325000D03*
%TO.N,unconnected-(J401-Pin_17-Pad17)*%
X146787500Y-60785000D03*
%TO.N,unconnected-(J401-Pin_18-Pad18)*%
X146787500Y-63325000D03*
%TO.N,unconnected-(J401-Pin_19-Pad19)*%
X149327500Y-60785000D03*
%TO.N,GND*%
X149327500Y-63325000D03*
%TO.N,unconnected-(J401-Pin_21-Pad21)*%
X151867500Y-60785000D03*
%TO.N,unconnected-(J401-Pin_22-Pad22)*%
X151867500Y-63325000D03*
%TO.N,unconnected-(J401-Pin_23-Pad23)*%
X154407500Y-60785000D03*
%TO.N,unconnected-(J401-Pin_24-Pad24)*%
X154407500Y-63325000D03*
%TO.N,GND*%
X156947500Y-60785000D03*
%TO.N,unconnected-(J401-Pin_26-Pad26)*%
X156947500Y-63325000D03*
%TO.N,unconnected-(J401-Pin_27-Pad27)*%
X159487500Y-60785000D03*
%TO.N,unconnected-(J401-Pin_28-Pad28)*%
X159487500Y-63325000D03*
%TO.N,unconnected-(J401-Pin_29-Pad29)*%
X162027500Y-60785000D03*
%TO.N,GND*%
X162027500Y-63325000D03*
%TO.N,unconnected-(J401-Pin_31-Pad31)*%
X164567500Y-60785000D03*
%TO.N,unconnected-(J401-Pin_32-Pad32)*%
X164567500Y-63325000D03*
%TO.N,unconnected-(J401-Pin_33-Pad33)*%
X167107500Y-60785000D03*
%TO.N,GND*%
X167107500Y-63325000D03*
%TO.N,unconnected-(J401-Pin_35-Pad35)*%
X169647500Y-60785000D03*
%TO.N,unconnected-(J401-Pin_36-Pad36)*%
X169647500Y-63325000D03*
%TO.N,unconnected-(J401-Pin_37-Pad37)*%
X172187500Y-60785000D03*
%TO.N,unconnected-(J401-Pin_38-Pad38)*%
X172187500Y-63325000D03*
%TO.N,GND*%
X174727500Y-60785000D03*
%TO.N,unconnected-(J401-Pin_40-Pad40)*%
X174727500Y-63325000D03*
%TD*%
D10*
%TO.N,N/C*%
%TO.C,H103*%
X119487500Y-111115000D03*
X120057500Y-112595000D03*
X120067500Y-109645000D03*
X121547500Y-109055000D03*
D11*
X121547500Y-111125000D03*
D10*
X121547500Y-113175000D03*
X123017500Y-109645000D03*
X123017500Y-112595000D03*
X123607500Y-111115000D03*
%TD*%
%TO.N,N/C*%
%TO.C,H104*%
X177487500Y-111115000D03*
X178057500Y-112595000D03*
X178067500Y-109645000D03*
X179547500Y-109055000D03*
D11*
X179547500Y-111125000D03*
D10*
X179547500Y-113175000D03*
X181017500Y-109645000D03*
X181017500Y-112595000D03*
X181607500Y-111115000D03*
%TD*%
D14*
%TO.N,+BATT*%
%TO.C,SW101*%
X130147500Y-69625000D03*
%TO.N,Net-(Q101-S)*%
X125447500Y-69625000D03*
%TO.N,unconnected-(SW101A-C-Pad3)*%
X120747500Y-69625000D03*
%TD*%
D12*
%TO.N,unconnected-(J102-Pin_1-Pad1)*%
%TO.C,J102*%
X164407500Y-77392500D03*
D13*
%TO.N,/5V_PSU*%
X164407500Y-74852500D03*
%TO.N,/5V_ESP32*%
X166947500Y-77392500D03*
%TO.N,+5V*%
X166947500Y-74852500D03*
%TD*%
D15*
%TO.N,GND*%
%TO.C,J201*%
X125977500Y-107625000D03*
D16*
X125977500Y-111825000D03*
D15*
X134617500Y-107625000D03*
D16*
X134617500Y-111825000D03*
%TD*%
D17*
%TO.N,GND*%
%TO.C,U301*%
X145292500Y-72002500D03*
X146592500Y-72002500D03*
X147892500Y-72002500D03*
X149192500Y-72002500D03*
X145292500Y-70702500D03*
X146592500Y-70702500D03*
X147892500Y-70702500D03*
X149192500Y-70702500D03*
%TD*%
D18*
%TO.N,GND*%
%TO.C,J101*%
X121647500Y-76525000D03*
D19*
%TO.N,Net-(J101-Pin_2)*%
X126647500Y-76525000D03*
%TD*%
D10*
%TO.N,N/C*%
%TO.C,H101*%
X119487500Y-62115000D03*
X120057500Y-63595000D03*
X120067500Y-60645000D03*
X121547500Y-60055000D03*
D11*
X121547500Y-62125000D03*
D10*
X121547500Y-64175000D03*
X123017500Y-60645000D03*
X123017500Y-63595000D03*
X123607500Y-62115000D03*
%TD*%
D15*
%TO.N,GND*%
%TO.C,J202*%
X166427500Y-107625000D03*
D16*
X166427500Y-111825000D03*
D15*
X175067500Y-107625000D03*
D16*
X175067500Y-111825000D03*
%TD*%
D12*
%TO.N,/5V_RASP*%
%TO.C,J103*%
X164407500Y-67002500D03*
D13*
%TO.N,+5V*%
X166947500Y-67002500D03*
%TD*%
D12*
%TO.N,+BATT*%
%TO.C,J203*%
X122817500Y-83125000D03*
D13*
X120277500Y-83125000D03*
%TO.N,/ESP32/GPIO12*%
X122817500Y-85665000D03*
%TO.N,/ESP32/GPIO13*%
X120277500Y-85665000D03*
%TO.N,/ESP32/AIN1.1*%
X122817500Y-88205000D03*
%TO.N,/ESP32/AIN2.1*%
X120277500Y-88205000D03*
%TO.N,/ESP32/AIN1.2*%
X122817500Y-90745000D03*
%TO.N,/ESP32/AIN2.2*%
X120277500Y-90745000D03*
%TO.N,/ESP32/GPIO35*%
X122817500Y-93285000D03*
%TO.N,/ESP32/GPIO36*%
X120277500Y-93285000D03*
%TO.N,/ESP32/EIN1.1*%
X122817500Y-95825000D03*
%TO.N,/ESP32/EIN2.1*%
X120277500Y-95825000D03*
%TO.N,/ESP32/EIN1.2*%
X122817500Y-98365000D03*
%TO.N,/ESP32/EIN2.2*%
X120277500Y-98365000D03*
%TO.N,/ESP32/E1_Signal1*%
X122817500Y-100905000D03*
%TO.N,/ESP32/E2_Signal1*%
X120277500Y-100905000D03*
%TO.N,/ESP32/E1_Signal2*%
X122817500Y-103445000D03*
%TO.N,/ESP32/E2_Signal2*%
X120277500Y-103445000D03*
%TO.N,GND*%
X122817500Y-105985000D03*
X120277500Y-105985000D03*
%TD*%
D12*
%TO.N,+3V3*%
%TO.C,J204*%
X180817500Y-83125000D03*
D13*
%TO.N,+5V*%
X178277500Y-83125000D03*
%TO.N,+3V3*%
X180817500Y-85665000D03*
%TO.N,+5V*%
X178277500Y-85665000D03*
%TO.N,/ESP32/GPIO10*%
X180817500Y-88205000D03*
%TO.N,/ESP32/GPIO9*%
X178277500Y-88205000D03*
%TO.N,/ESP32/GPIO18*%
X180817500Y-90745000D03*
%TO.N,/ESP32/GPIO8*%
X178277500Y-90745000D03*
%TO.N,/ESP32/GPIO16*%
X180817500Y-93285000D03*
%TO.N,/ESP32/COMM*%
X178277500Y-93285000D03*
%TO.N,/ESP32/GPIO7*%
X180817500Y-95825000D03*
%TO.N,/ESP32/GPIO15*%
X178277500Y-95825000D03*
%TO.N,GND*%
X180817500Y-98365000D03*
%TO.N,/ESP32/GPIO6*%
X178277500Y-98365000D03*
%TO.N,GND*%
X180817500Y-100905000D03*
%TO.N,/ESP32/GPIO5*%
X178277500Y-100905000D03*
%TO.N,GND*%
X180817500Y-103445000D03*
%TO.N,/ESP32/GPIO4*%
X178277500Y-103445000D03*
%TO.N,GND*%
X180817500Y-105985000D03*
X178277500Y-105985000D03*
%TD*%
D20*
%TO.N,+3V3*%
X163047500Y-105752500D03*
D21*
X177847500Y-78752500D03*
X165647500Y-95852500D03*
X170997500Y-85602500D03*
%TO.N,GND*%
X150747500Y-70552500D03*
X142547500Y-74502500D03*
X142547500Y-73302500D03*
X138947500Y-73302500D03*
X121447500Y-81202500D03*
X152297500Y-70552500D03*
X170097500Y-97302500D03*
X150747500Y-72252500D03*
X137547500Y-71702500D03*
X152297500Y-72252500D03*
X124347500Y-81202500D03*
X137747500Y-70302500D03*
X137747500Y-73302500D03*
D20*
X138347500Y-89102500D03*
D21*
X119997500Y-80102500D03*
X121447500Y-80102500D03*
X119997500Y-78902500D03*
X150747500Y-68802500D03*
X152297500Y-74102500D03*
D20*
X139847500Y-87902500D03*
D21*
X124347500Y-80102500D03*
X140147500Y-70302500D03*
X122897500Y-78902500D03*
X141347500Y-73302500D03*
X138947500Y-70302500D03*
D20*
X140947500Y-89002500D03*
D21*
X141347500Y-70302500D03*
X136347500Y-71702500D03*
X142547500Y-70302500D03*
X130447500Y-96252500D03*
X153847500Y-70552500D03*
X152297500Y-68802500D03*
X150747500Y-74102500D03*
X135447500Y-91652500D03*
X122897500Y-80102500D03*
X121447500Y-78902500D03*
X140147500Y-73302500D03*
X153847500Y-72252500D03*
X122897500Y-81202500D03*
X119997500Y-81202500D03*
D20*
%TO.N,/ESP32/CHIP_PU*%
X162547500Y-111852500D03*
X161047500Y-103585000D03*
D21*
%TO.N,+BATT*%
X142747500Y-68615000D03*
X142947500Y-76252500D03*
%TO.N,/ESP32/U0RXD*%
X130847500Y-90252500D03*
%TO.N,/ESP32/U0TXD*%
X133247500Y-90352500D03*
%TO.N,/ESP32/D+*%
X129197500Y-100652500D03*
X130497500Y-100652500D03*
%TO.N,/5V_PSU*%
X144347500Y-78452500D03*
X156922500Y-76015000D03*
%TO.N,/5V_ESP32*%
X125747500Y-102952500D03*
X175497500Y-101352500D03*
%TO.N,Net-(J201-CC1)*%
X129544182Y-108592810D03*
%TO.N,Net-(J201-CC2)*%
X131647500Y-108552500D03*
%TO.N,Net-(J202-CC1)*%
X169447500Y-108552500D03*
%TO.N,Net-(J202-CC2)*%
X172047500Y-108652500D03*
D20*
%TO.N,/ESP32/ESP32_3V3*%
X160947500Y-105652500D03*
D21*
%TO.N,Net-(JP202-B)*%
X130847500Y-91552500D03*
%TO.N,Net-(JP203-B)*%
X132947500Y-91452500D03*
%TO.N,/ESP32/GPIO5*%
X156747500Y-101705000D03*
%TO.N,Net-(JP206-A)*%
X135403848Y-97921348D03*
%TO.N,Net-(JP207-A)*%
X132647500Y-97815000D03*
D22*
%TO.N,/ESP32/GPIO0*%
X138047500Y-112152500D03*
D21*
%TO.N,/ESP32/AIN1.2*%
X145652500Y-86952500D03*
%TO.N,/ESP32/EIN2.2*%
X143047500Y-97895000D03*
%TO.N,/ESP32/GPIO7*%
X156747500Y-99165000D03*
%TO.N,/ESP32/AIN1.1*%
X148192500Y-86952500D03*
%TO.N,/ESP32/EIN1.1*%
X143047500Y-94085000D03*
%TO.N,/ESP32/EIN1.2*%
X143047500Y-96625000D03*
%TO.N,/ESP32/GPIO12*%
X150732500Y-86952500D03*
%TO.N,/ESP32/GPIO18*%
X171547500Y-92085000D03*
X156747500Y-94052500D03*
%TO.N,/ESP32/COMM*%
X156747500Y-95352500D03*
%TO.N,/ESP32/GPIO6*%
X156747500Y-100435000D03*
%TO.N,/ESP32/AIN2.2*%
X144382500Y-86952500D03*
%TO.N,/ESP32/E1_Signal2*%
X143047500Y-104245000D03*
%TO.N,/ESP32/E2_Signal2*%
X143047500Y-105515000D03*
%TO.N,/ESP32/E2_Signal1*%
X143047500Y-100435000D03*
%TO.N,/ESP32/EIN2.1*%
X143047500Y-95355000D03*
%TO.N,/ESP32/AIN2.1*%
X146922500Y-86952500D03*
%TO.N,/ESP32/GPIO36*%
X143047500Y-92815000D03*
%TO.N,/ESP32/GPIO35*%
X143047500Y-91545000D03*
%TO.N,/ESP32/E1_Signal1*%
X143047500Y-99165000D03*
%TO.N,/ESP32/GPIO8*%
X172747500Y-90745000D03*
X156747500Y-92815000D03*
%TO.N,/ESP32/GPIO15*%
X156747500Y-97895000D03*
%TO.N,/ESP32/GPIO16*%
X156747500Y-96625000D03*
%TO.N,/ESP32/GPIO4*%
X156747500Y-102975000D03*
%TO.N,/ESP32/GPIO10*%
X153272500Y-86952500D03*
%TO.N,/ESP32/GPIO9*%
X154542500Y-86952500D03*
%TO.N,/ESP32/GPIO13*%
X149462500Y-86952500D03*
%TD*%
D23*
%TO.N,/ESP32/GPIO18*%
X143847500Y-90352500D02*
X134947500Y-81452500D01*
X134947500Y-66652500D02*
X134087500Y-65792500D01*
X153047500Y-90352500D02*
X143847500Y-90352500D01*
X134087500Y-65792500D02*
X134087500Y-63325000D01*
X134947500Y-81452500D02*
X134947500Y-66652500D01*
X156747500Y-94052500D02*
X153047500Y-90352500D01*
%TO.N,/ESP32/COMM*%
X135547500Y-81345394D02*
X135547500Y-66852500D01*
X143154606Y-88952500D02*
X135547500Y-81345394D01*
X157747500Y-94352500D02*
X157747500Y-92252500D01*
X136627500Y-65772500D02*
X136627500Y-63325000D01*
X157747500Y-92252500D02*
X154447500Y-88952500D01*
X154447500Y-88952500D02*
X143154606Y-88952500D01*
X135547500Y-66852500D02*
X136627500Y-65772500D01*
X156747500Y-95352500D02*
X157747500Y-94352500D01*
%TD*%
%TA.AperFunction,Conductor*%
%TO.N,GND*%
G36*
X179550743Y-58925669D02*
G01*
X179875452Y-58942687D01*
X179888360Y-58944044D01*
X180206294Y-58994400D01*
X180218978Y-58997095D01*
X180529929Y-59080414D01*
X180542270Y-59084425D01*
X180842782Y-59199780D01*
X180854638Y-59205058D01*
X181141476Y-59351210D01*
X181152692Y-59357686D01*
X181422665Y-59533008D01*
X181433166Y-59540637D01*
X181666289Y-59729417D01*
X181683336Y-59743221D01*
X181692981Y-59751906D01*
X181920593Y-59979518D01*
X181929278Y-59989163D01*
X182131862Y-60239333D01*
X182139491Y-60249834D01*
X182314810Y-60519802D01*
X182321292Y-60531029D01*
X182396233Y-60678107D01*
X182467440Y-60817859D01*
X182472719Y-60829717D01*
X182588074Y-61130229D01*
X182592085Y-61142572D01*
X182675402Y-61453515D01*
X182678100Y-61466211D01*
X182728455Y-61784139D01*
X182729812Y-61797047D01*
X182746829Y-62121737D01*
X182746999Y-62128227D01*
X182746999Y-62182584D01*
X182747000Y-62182597D01*
X182747000Y-111121753D01*
X182746830Y-111128243D01*
X182729812Y-111452952D01*
X182728455Y-111465860D01*
X182678100Y-111783788D01*
X182675402Y-111796484D01*
X182592085Y-112107427D01*
X182588074Y-112119770D01*
X182472719Y-112420282D01*
X182467440Y-112432140D01*
X182321296Y-112718964D01*
X182314806Y-112730204D01*
X182139491Y-113000165D01*
X182131862Y-113010666D01*
X181929278Y-113260836D01*
X181920593Y-113270481D01*
X181692981Y-113498093D01*
X181683336Y-113506778D01*
X181433166Y-113709362D01*
X181422665Y-113716991D01*
X181152704Y-113892306D01*
X181141464Y-113898796D01*
X180854640Y-114044940D01*
X180842782Y-114050219D01*
X180542270Y-114165574D01*
X180529927Y-114169585D01*
X180218984Y-114252902D01*
X180206288Y-114255600D01*
X179888360Y-114305955D01*
X179875452Y-114307312D01*
X179550744Y-114324330D01*
X179544254Y-114324500D01*
X159174000Y-114324500D01*
X159106961Y-114304815D01*
X159061206Y-114252011D01*
X159050000Y-114200500D01*
X159050000Y-111852501D01*
X161941818Y-111852501D01*
X161962455Y-112009260D01*
X161962456Y-112009262D01*
X162022964Y-112155341D01*
X162119218Y-112280782D01*
X162244659Y-112377036D01*
X162390738Y-112437544D01*
X162469119Y-112447863D01*
X162547499Y-112458182D01*
X162547500Y-112458182D01*
X162547501Y-112458182D01*
X162599754Y-112451302D01*
X162704262Y-112437544D01*
X162850341Y-112377036D01*
X162975782Y-112280782D01*
X163072036Y-112155341D01*
X163132544Y-112009262D01*
X163153182Y-111852500D01*
X163152586Y-111847976D01*
X163132544Y-111695739D01*
X163132544Y-111695738D01*
X163072036Y-111549659D01*
X162975782Y-111424218D01*
X162850341Y-111327964D01*
X162704262Y-111267456D01*
X162704260Y-111267455D01*
X162547501Y-111246818D01*
X162547499Y-111246818D01*
X162390739Y-111267455D01*
X162390737Y-111267456D01*
X162244660Y-111327963D01*
X162119218Y-111424218D01*
X162022963Y-111549660D01*
X161962456Y-111695737D01*
X161962455Y-111695739D01*
X161941818Y-111852498D01*
X161941818Y-111852501D01*
X159050000Y-111852501D01*
X159050000Y-111125003D01*
X176642084Y-111125003D01*
X176661729Y-111462298D01*
X176661730Y-111462309D01*
X176720396Y-111795017D01*
X176720399Y-111795031D01*
X176720400Y-111795035D01*
X176736250Y-111847977D01*
X176817301Y-112118710D01*
X176951121Y-112428939D01*
X176951127Y-112428952D01*
X177120060Y-112721553D01*
X177321818Y-112992561D01*
X177321823Y-112992567D01*
X177441569Y-113119489D01*
X177553683Y-113238323D01*
X177553689Y-113238328D01*
X177553691Y-113238330D01*
X177812501Y-113455499D01*
X177812506Y-113455502D01*
X178094792Y-113641164D01*
X178396724Y-113792800D01*
X178714217Y-113908358D01*
X179042980Y-113986276D01*
X179378565Y-114025500D01*
X179378572Y-114025500D01*
X179716428Y-114025500D01*
X179716435Y-114025500D01*
X180052020Y-113986276D01*
X180380783Y-113908358D01*
X180698276Y-113792800D01*
X181000208Y-113641164D01*
X181282494Y-113455502D01*
X181541317Y-113238323D01*
X181773178Y-112992565D01*
X181974940Y-112721552D01*
X182143875Y-112428948D01*
X182277698Y-112118711D01*
X182374600Y-111795035D01*
X182433271Y-111462298D01*
X182452916Y-111125000D01*
X182433271Y-110787702D01*
X182374600Y-110454965D01*
X182277698Y-110131289D01*
X182143875Y-109821052D01*
X181974940Y-109528448D01*
X181974939Y-109528446D01*
X181773181Y-109257438D01*
X181773176Y-109257432D01*
X181599805Y-109073671D01*
X181541317Y-109011677D01*
X181541310Y-109011671D01*
X181541308Y-109011669D01*
X181282498Y-108794500D01*
X181066596Y-108652500D01*
X181000208Y-108608836D01*
X180888032Y-108552499D01*
X180698283Y-108457203D01*
X180698277Y-108457200D01*
X180380784Y-108341642D01*
X180380781Y-108341641D01*
X180099078Y-108274877D01*
X180052020Y-108263724D01*
X179716435Y-108224500D01*
X179378565Y-108224500D01*
X179042980Y-108263724D01*
X178714218Y-108341641D01*
X178714215Y-108341642D01*
X178396722Y-108457200D01*
X178396716Y-108457203D01*
X178094795Y-108608834D01*
X177812501Y-108794500D01*
X177553691Y-109011669D01*
X177553681Y-109011679D01*
X177321823Y-109257432D01*
X177321818Y-109257438D01*
X177120060Y-109528446D01*
X176951127Y-109821047D01*
X176951121Y-109821060D01*
X176817301Y-110131289D01*
X176720399Y-110454968D01*
X176720396Y-110454982D01*
X176661730Y-110787690D01*
X176661729Y-110787701D01*
X176642084Y-111124996D01*
X176642084Y-111125003D01*
X159050000Y-111125003D01*
X159050000Y-108552500D01*
X168892250Y-108552500D01*
X168905415Y-108652500D01*
X168911170Y-108696208D01*
X168911171Y-108696212D01*
X168966637Y-108830122D01*
X168966638Y-108830124D01*
X168966639Y-108830125D01*
X169054879Y-108945121D01*
X169169875Y-109033361D01*
X169169876Y-109033361D01*
X169169877Y-109033362D01*
X169214513Y-109051850D01*
X169303791Y-109088830D01*
X169430780Y-109105548D01*
X169447499Y-109107750D01*
X169447500Y-109107750D01*
X169447501Y-109107750D01*
X169462477Y-109105778D01*
X169591209Y-109088830D01*
X169725125Y-109033361D01*
X169840121Y-108945121D01*
X169928361Y-108830125D01*
X169983830Y-108696209D01*
X169989585Y-108652500D01*
X171492250Y-108652500D01*
X171511170Y-108796208D01*
X171511171Y-108796212D01*
X171566637Y-108930122D01*
X171566638Y-108930124D01*
X171566639Y-108930125D01*
X171654879Y-109045121D01*
X171769875Y-109133361D01*
X171903791Y-109188830D01*
X172030780Y-109205548D01*
X172047499Y-109207750D01*
X172047500Y-109207750D01*
X172047501Y-109207750D01*
X172062477Y-109205778D01*
X172191209Y-109188830D01*
X172325125Y-109133361D01*
X172440121Y-109045121D01*
X172528361Y-108930125D01*
X172583830Y-108796209D01*
X172602750Y-108652500D01*
X172583830Y-108508791D01*
X172528361Y-108374875D01*
X172440121Y-108259879D01*
X172325125Y-108171639D01*
X172325124Y-108171638D01*
X172325122Y-108171637D01*
X172191212Y-108116171D01*
X172191210Y-108116170D01*
X172191209Y-108116170D01*
X172119354Y-108106710D01*
X172047501Y-108097250D01*
X172047499Y-108097250D01*
X171903791Y-108116170D01*
X171903787Y-108116171D01*
X171769877Y-108171637D01*
X171654879Y-108259879D01*
X171566637Y-108374877D01*
X171511171Y-108508787D01*
X171511170Y-108508791D01*
X171492250Y-108652499D01*
X171492250Y-108652500D01*
X169989585Y-108652500D01*
X170002750Y-108552500D01*
X169983830Y-108408791D01*
X169928361Y-108274875D01*
X169840121Y-108159879D01*
X169725125Y-108071639D01*
X169725124Y-108071638D01*
X169725122Y-108071637D01*
X169591212Y-108016171D01*
X169591210Y-108016170D01*
X169591209Y-108016170D01*
X169519354Y-108006710D01*
X169447501Y-107997250D01*
X169447499Y-107997250D01*
X169303791Y-108016170D01*
X169303787Y-108016171D01*
X169169877Y-108071637D01*
X169054879Y-108159879D01*
X168966637Y-108274877D01*
X168911171Y-108408787D01*
X168911170Y-108408791D01*
X168898005Y-108508791D01*
X168892250Y-108552500D01*
X159050000Y-108552500D01*
X159050000Y-108272500D01*
X141050000Y-108272500D01*
X141050000Y-114200500D01*
X141030315Y-114267539D01*
X140977511Y-114313294D01*
X140926000Y-114324500D01*
X121550746Y-114324500D01*
X121544256Y-114324330D01*
X121219547Y-114307312D01*
X121206639Y-114305955D01*
X120888711Y-114255600D01*
X120876015Y-114252902D01*
X120565072Y-114169585D01*
X120552729Y-114165574D01*
X120252217Y-114050219D01*
X120240359Y-114044940D01*
X120043001Y-113944381D01*
X119953529Y-113898792D01*
X119942302Y-113892310D01*
X119672334Y-113716991D01*
X119661833Y-113709362D01*
X119411663Y-113506778D01*
X119402018Y-113498093D01*
X119174406Y-113270481D01*
X119165721Y-113260836D01*
X118963137Y-113010666D01*
X118955508Y-113000165D01*
X118950574Y-112992567D01*
X118780186Y-112730192D01*
X118773710Y-112718976D01*
X118627558Y-112432138D01*
X118622280Y-112420282D01*
X118506925Y-112119770D01*
X118502914Y-112107427D01*
X118434607Y-111852501D01*
X118419595Y-111796478D01*
X118416899Y-111783788D01*
X118406474Y-111717970D01*
X118366544Y-111465860D01*
X118365187Y-111452952D01*
X118348170Y-111128243D01*
X118348085Y-111125003D01*
X118642084Y-111125003D01*
X118661729Y-111462298D01*
X118661730Y-111462309D01*
X118720396Y-111795017D01*
X118720399Y-111795031D01*
X118720400Y-111795035D01*
X118736250Y-111847977D01*
X118817301Y-112118710D01*
X118951121Y-112428939D01*
X118951127Y-112428952D01*
X119120060Y-112721553D01*
X119321818Y-112992561D01*
X119321823Y-112992567D01*
X119441569Y-113119489D01*
X119553683Y-113238323D01*
X119553689Y-113238328D01*
X119553691Y-113238330D01*
X119812501Y-113455499D01*
X119812506Y-113455502D01*
X120094792Y-113641164D01*
X120396724Y-113792800D01*
X120714217Y-113908358D01*
X121042980Y-113986276D01*
X121378565Y-114025500D01*
X121378572Y-114025500D01*
X121716428Y-114025500D01*
X121716435Y-114025500D01*
X122052020Y-113986276D01*
X122380783Y-113908358D01*
X122698276Y-113792800D01*
X123000208Y-113641164D01*
X123282494Y-113455502D01*
X123541317Y-113238323D01*
X123773178Y-112992565D01*
X123974940Y-112721552D01*
X124143875Y-112428948D01*
X124263123Y-112152500D01*
X137392222Y-112152500D01*
X137411262Y-112309318D01*
X137467280Y-112457023D01*
X137557017Y-112587030D01*
X137675260Y-112691783D01*
X137675262Y-112691784D01*
X137815134Y-112765196D01*
X137968514Y-112803000D01*
X137968515Y-112803000D01*
X138126485Y-112803000D01*
X138279865Y-112765196D01*
X138305230Y-112751883D01*
X138419740Y-112691783D01*
X138537983Y-112587030D01*
X138627720Y-112457023D01*
X138683737Y-112309318D01*
X138702778Y-112152500D01*
X138683737Y-111995682D01*
X138627720Y-111847977D01*
X138537983Y-111717970D01*
X138419740Y-111613217D01*
X138419738Y-111613216D01*
X138419737Y-111613215D01*
X138279865Y-111539803D01*
X138126486Y-111502000D01*
X138126485Y-111502000D01*
X137968515Y-111502000D01*
X137968514Y-111502000D01*
X137815134Y-111539803D01*
X137675262Y-111613215D01*
X137557016Y-111717971D01*
X137467281Y-111847975D01*
X137467280Y-111847976D01*
X137411262Y-111995681D01*
X137392222Y-112152499D01*
X137392222Y-112152500D01*
X124263123Y-112152500D01*
X124277698Y-112118711D01*
X124374600Y-111795035D01*
X124433271Y-111462298D01*
X124452916Y-111125000D01*
X124433271Y-110787702D01*
X124374600Y-110454965D01*
X124277698Y-110131289D01*
X124143875Y-109821052D01*
X123974940Y-109528448D01*
X123974939Y-109528446D01*
X123773181Y-109257438D01*
X123773176Y-109257432D01*
X123599805Y-109073671D01*
X123541317Y-109011677D01*
X123541310Y-109011671D01*
X123541308Y-109011669D01*
X123282498Y-108794500D01*
X123066596Y-108652500D01*
X123000208Y-108608836D01*
X122968298Y-108592810D01*
X128988932Y-108592810D01*
X128996790Y-108652500D01*
X129007852Y-108736518D01*
X129007853Y-108736522D01*
X129063319Y-108870432D01*
X129063320Y-108870434D01*
X129063321Y-108870435D01*
X129151561Y-108985431D01*
X129266557Y-109073671D01*
X129400473Y-109129140D01*
X129527462Y-109145858D01*
X129544181Y-109148060D01*
X129544182Y-109148060D01*
X129544183Y-109148060D01*
X129559159Y-109146088D01*
X129687891Y-109129140D01*
X129821807Y-109073671D01*
X129936803Y-108985431D01*
X130025043Y-108870435D01*
X130080512Y-108736519D01*
X130099432Y-108592810D01*
X130094125Y-108552500D01*
X131092250Y-108552500D01*
X131105415Y-108652500D01*
X131111170Y-108696208D01*
X131111171Y-108696212D01*
X131166637Y-108830122D01*
X131166638Y-108830124D01*
X131166639Y-108830125D01*
X131254879Y-108945121D01*
X131369875Y-109033361D01*
X131369876Y-109033361D01*
X131369877Y-109033362D01*
X131414513Y-109051850D01*
X131503791Y-109088830D01*
X131630780Y-109105548D01*
X131647499Y-109107750D01*
X131647500Y-109107750D01*
X131647501Y-109107750D01*
X131662477Y-109105778D01*
X131791209Y-109088830D01*
X131925125Y-109033361D01*
X132040121Y-108945121D01*
X132128361Y-108830125D01*
X132183830Y-108696209D01*
X132202750Y-108552500D01*
X132183830Y-108408791D01*
X132128361Y-108274875D01*
X132040121Y-108159879D01*
X131925125Y-108071639D01*
X131925124Y-108071638D01*
X131925122Y-108071637D01*
X131791212Y-108016171D01*
X131791210Y-108016170D01*
X131791209Y-108016170D01*
X131719354Y-108006710D01*
X131647501Y-107997250D01*
X131647499Y-107997250D01*
X131503791Y-108016170D01*
X131503787Y-108016171D01*
X131369877Y-108071637D01*
X131254879Y-108159879D01*
X131166637Y-108274877D01*
X131111171Y-108408787D01*
X131111170Y-108408791D01*
X131098005Y-108508791D01*
X131092250Y-108552500D01*
X130094125Y-108552500D01*
X130080512Y-108449101D01*
X130025043Y-108315185D01*
X129936803Y-108200189D01*
X129821807Y-108111949D01*
X129821806Y-108111948D01*
X129821804Y-108111947D01*
X129687894Y-108056481D01*
X129687892Y-108056480D01*
X129687891Y-108056480D01*
X129616036Y-108047020D01*
X129544183Y-108037560D01*
X129544181Y-108037560D01*
X129400473Y-108056480D01*
X129400469Y-108056481D01*
X129266559Y-108111947D01*
X129151561Y-108200189D01*
X129063319Y-108315187D01*
X129007853Y-108449097D01*
X129007852Y-108449101D01*
X128999994Y-108508791D01*
X128988932Y-108592810D01*
X122968298Y-108592810D01*
X122888032Y-108552499D01*
X122698283Y-108457203D01*
X122698277Y-108457200D01*
X122380784Y-108341642D01*
X122380781Y-108341641D01*
X122099078Y-108274877D01*
X122052020Y-108263724D01*
X121716435Y-108224500D01*
X121378565Y-108224500D01*
X121042980Y-108263724D01*
X120714218Y-108341641D01*
X120714215Y-108341642D01*
X120396722Y-108457200D01*
X120396716Y-108457203D01*
X120094795Y-108608834D01*
X119812501Y-108794500D01*
X119553691Y-109011669D01*
X119553681Y-109011679D01*
X119321823Y-109257432D01*
X119321818Y-109257438D01*
X119120060Y-109528446D01*
X118951127Y-109821047D01*
X118951121Y-109821060D01*
X118817301Y-110131289D01*
X118720399Y-110454968D01*
X118720396Y-110454982D01*
X118661730Y-110787690D01*
X118661729Y-110787701D01*
X118642084Y-111124996D01*
X118642084Y-111125003D01*
X118348085Y-111125003D01*
X118348000Y-111121753D01*
X118348000Y-105515000D01*
X142492250Y-105515000D01*
X142511170Y-105658708D01*
X142511171Y-105658712D01*
X142566637Y-105792622D01*
X142566638Y-105792624D01*
X142566639Y-105792625D01*
X142654879Y-105907621D01*
X142769875Y-105995861D01*
X142903791Y-106051330D01*
X143030780Y-106068048D01*
X143047499Y-106070250D01*
X143047500Y-106070250D01*
X143047501Y-106070250D01*
X143062477Y-106068278D01*
X143191209Y-106051330D01*
X143325125Y-105995861D01*
X143440121Y-105907621D01*
X143528361Y-105792625D01*
X143583830Y-105658709D01*
X143584647Y-105652501D01*
X160341818Y-105652501D01*
X160362455Y-105809260D01*
X160362456Y-105809262D01*
X160403876Y-105909260D01*
X160422964Y-105955341D01*
X160519218Y-106080782D01*
X160644659Y-106177036D01*
X160790738Y-106237544D01*
X160869119Y-106247863D01*
X160947499Y-106258182D01*
X160947500Y-106258182D01*
X160947501Y-106258182D01*
X160999754Y-106251302D01*
X161104262Y-106237544D01*
X161250341Y-106177036D01*
X161375782Y-106080782D01*
X161472036Y-105955341D01*
X161532544Y-105809262D01*
X161540017Y-105752501D01*
X162441818Y-105752501D01*
X162462455Y-105909260D01*
X162462456Y-105909262D01*
X162521302Y-106051330D01*
X162522964Y-106055341D01*
X162619218Y-106180782D01*
X162744659Y-106277036D01*
X162890738Y-106337544D01*
X162969119Y-106347863D01*
X163047499Y-106358182D01*
X163047500Y-106358182D01*
X163047501Y-106358182D01*
X163099754Y-106351302D01*
X163204262Y-106337544D01*
X163350341Y-106277036D01*
X163475782Y-106180782D01*
X163572036Y-106055341D01*
X163632544Y-105909262D01*
X163646302Y-105804754D01*
X163653182Y-105752501D01*
X163653182Y-105752498D01*
X163632544Y-105595739D01*
X163632544Y-105595738D01*
X163572036Y-105449659D01*
X163475782Y-105324218D01*
X163350341Y-105227964D01*
X163341297Y-105224218D01*
X163204262Y-105167456D01*
X163204260Y-105167455D01*
X163047501Y-105146818D01*
X163047499Y-105146818D01*
X162890739Y-105167455D01*
X162890737Y-105167456D01*
X162744660Y-105227963D01*
X162619218Y-105324218D01*
X162522963Y-105449660D01*
X162462456Y-105595737D01*
X162462455Y-105595739D01*
X162441818Y-105752498D01*
X162441818Y-105752501D01*
X161540017Y-105752501D01*
X161553182Y-105652500D01*
X161532544Y-105495738D01*
X161472036Y-105349659D01*
X161375782Y-105224218D01*
X161250341Y-105127964D01*
X161104262Y-105067456D01*
X161104260Y-105067455D01*
X160947501Y-105046818D01*
X160947499Y-105046818D01*
X160790739Y-105067455D01*
X160790737Y-105067456D01*
X160644660Y-105127963D01*
X160519218Y-105224218D01*
X160422963Y-105349660D01*
X160362456Y-105495737D01*
X160362455Y-105495739D01*
X160341818Y-105652498D01*
X160341818Y-105652501D01*
X143584647Y-105652501D01*
X143602750Y-105515000D01*
X143583830Y-105371291D01*
X143528361Y-105237375D01*
X143440121Y-105122379D01*
X143325125Y-105034139D01*
X143325124Y-105034138D01*
X143325122Y-105034137D01*
X143229574Y-104994561D01*
X143175170Y-104950721D01*
X143153105Y-104884427D01*
X143170384Y-104816727D01*
X143221521Y-104769116D01*
X143229574Y-104765439D01*
X143250352Y-104756832D01*
X143325125Y-104725861D01*
X143440121Y-104637621D01*
X143528361Y-104522625D01*
X143583830Y-104388709D01*
X143602750Y-104245000D01*
X143583830Y-104101291D01*
X143528361Y-103967375D01*
X143440121Y-103852379D01*
X143325125Y-103764139D01*
X143325124Y-103764138D01*
X143325122Y-103764137D01*
X143191212Y-103708671D01*
X143191210Y-103708670D01*
X143191209Y-103708670D01*
X143119354Y-103699210D01*
X143047501Y-103689750D01*
X143047499Y-103689750D01*
X142903791Y-103708670D01*
X142903787Y-103708671D01*
X142769877Y-103764137D01*
X142654879Y-103852379D01*
X142566637Y-103967377D01*
X142511171Y-104101287D01*
X142511170Y-104101291D01*
X142492250Y-104244999D01*
X142492250Y-104245000D01*
X142511170Y-104388708D01*
X142511171Y-104388712D01*
X142566637Y-104522622D01*
X142566638Y-104522624D01*
X142566639Y-104522625D01*
X142654879Y-104637621D01*
X142769875Y-104725861D01*
X142801885Y-104739120D01*
X142865425Y-104765439D01*
X142919829Y-104809280D01*
X142941894Y-104875574D01*
X142924615Y-104943273D01*
X142873478Y-104990884D01*
X142865425Y-104994561D01*
X142769878Y-105034137D01*
X142769875Y-105034138D01*
X142769875Y-105034139D01*
X142726457Y-105067455D01*
X142654879Y-105122379D01*
X142566637Y-105237377D01*
X142511171Y-105371287D01*
X142511170Y-105371291D01*
X142492250Y-105514999D01*
X142492250Y-105515000D01*
X118348000Y-105515000D01*
X118348000Y-103445000D01*
X119221917Y-103445000D01*
X119242199Y-103650932D01*
X119259714Y-103708670D01*
X119302268Y-103848954D01*
X119399815Y-104031450D01*
X119399817Y-104031452D01*
X119531089Y-104191410D01*
X119596390Y-104245000D01*
X119691050Y-104322685D01*
X119873546Y-104420232D01*
X120071566Y-104480300D01*
X120071565Y-104480300D01*
X120090029Y-104482118D01*
X120277500Y-104500583D01*
X120483434Y-104480300D01*
X120681454Y-104420232D01*
X120863950Y-104322685D01*
X121023910Y-104191410D01*
X121155185Y-104031450D01*
X121252732Y-103848954D01*
X121312800Y-103650934D01*
X121333083Y-103445000D01*
X121761917Y-103445000D01*
X121782199Y-103650932D01*
X121799714Y-103708670D01*
X121842268Y-103848954D01*
X121939815Y-104031450D01*
X121939817Y-104031452D01*
X122071089Y-104191410D01*
X122136390Y-104245000D01*
X122231050Y-104322685D01*
X122413546Y-104420232D01*
X122611566Y-104480300D01*
X122611565Y-104480300D01*
X122630029Y-104482118D01*
X122817500Y-104500583D01*
X123023434Y-104480300D01*
X123221454Y-104420232D01*
X123403950Y-104322685D01*
X123563910Y-104191410D01*
X123695185Y-104031450D01*
X123792732Y-103848954D01*
X123852800Y-103650934D01*
X123859294Y-103585001D01*
X160441818Y-103585001D01*
X160462455Y-103741760D01*
X160462456Y-103741762D01*
X160522964Y-103887841D01*
X160619218Y-104013282D01*
X160744659Y-104109536D01*
X160890738Y-104170044D01*
X160969119Y-104180363D01*
X161047499Y-104190682D01*
X161047500Y-104190682D01*
X161047501Y-104190682D01*
X161099754Y-104183802D01*
X161204262Y-104170044D01*
X161350341Y-104109536D01*
X161475782Y-104013282D01*
X161572036Y-103887841D01*
X161632544Y-103741762D01*
X161653182Y-103585000D01*
X161634751Y-103445000D01*
X177221917Y-103445000D01*
X177242199Y-103650932D01*
X177259714Y-103708670D01*
X177302268Y-103848954D01*
X177399815Y-104031450D01*
X177399817Y-104031452D01*
X177531089Y-104191410D01*
X177596390Y-104245000D01*
X177691050Y-104322685D01*
X177873546Y-104420232D01*
X178071566Y-104480300D01*
X178071565Y-104480300D01*
X178090029Y-104482118D01*
X178277500Y-104500583D01*
X178483434Y-104480300D01*
X178681454Y-104420232D01*
X178863950Y-104322685D01*
X179023910Y-104191410D01*
X179155185Y-104031450D01*
X179252732Y-103848954D01*
X179312800Y-103650934D01*
X179333083Y-103445000D01*
X179312800Y-103239066D01*
X179252732Y-103041046D01*
X179155185Y-102858550D01*
X179103202Y-102795209D01*
X179023910Y-102698589D01*
X178906177Y-102601969D01*
X178863950Y-102567315D01*
X178681454Y-102469768D01*
X178483434Y-102409700D01*
X178483432Y-102409699D01*
X178483434Y-102409699D01*
X178277500Y-102389417D01*
X178071567Y-102409699D01*
X177873543Y-102469769D01*
X177827955Y-102494137D01*
X177691050Y-102567315D01*
X177691048Y-102567316D01*
X177691047Y-102567317D01*
X177531089Y-102698589D01*
X177399817Y-102858547D01*
X177302269Y-103041043D01*
X177242199Y-103239067D01*
X177221917Y-103445000D01*
X161634751Y-103445000D01*
X161632544Y-103428238D01*
X161572036Y-103282159D01*
X161475782Y-103156718D01*
X161350341Y-103060464D01*
X161204262Y-102999956D01*
X161204260Y-102999955D01*
X161047501Y-102979318D01*
X161047499Y-102979318D01*
X160890739Y-102999955D01*
X160890737Y-102999956D01*
X160744660Y-103060463D01*
X160619218Y-103156718D01*
X160522963Y-103282160D01*
X160462456Y-103428237D01*
X160462455Y-103428239D01*
X160441818Y-103584998D01*
X160441818Y-103585001D01*
X123859294Y-103585001D01*
X123873083Y-103445000D01*
X123852800Y-103239066D01*
X123792732Y-103041046D01*
X123745403Y-102952500D01*
X125192250Y-102952500D01*
X125211170Y-103096208D01*
X125211171Y-103096212D01*
X125266637Y-103230122D01*
X125266638Y-103230124D01*
X125266639Y-103230125D01*
X125354879Y-103345121D01*
X125469875Y-103433361D01*
X125603791Y-103488830D01*
X125730780Y-103505548D01*
X125747499Y-103507750D01*
X125747500Y-103507750D01*
X125747501Y-103507750D01*
X125762477Y-103505778D01*
X125891209Y-103488830D01*
X126025125Y-103433361D01*
X126140121Y-103345121D01*
X126228361Y-103230125D01*
X126283830Y-103096209D01*
X126302750Y-102952500D01*
X126283830Y-102808791D01*
X126238184Y-102698589D01*
X126228362Y-102674877D01*
X126228361Y-102674876D01*
X126228361Y-102674875D01*
X126140121Y-102559879D01*
X126025125Y-102471639D01*
X126025124Y-102471638D01*
X126025122Y-102471637D01*
X125891212Y-102416171D01*
X125891210Y-102416170D01*
X125891209Y-102416170D01*
X125819354Y-102406710D01*
X125747501Y-102397250D01*
X125747499Y-102397250D01*
X125603791Y-102416170D01*
X125603787Y-102416171D01*
X125469877Y-102471637D01*
X125354879Y-102559879D01*
X125266637Y-102674877D01*
X125211171Y-102808787D01*
X125211170Y-102808791D01*
X125192250Y-102952499D01*
X125192250Y-102952500D01*
X123745403Y-102952500D01*
X123695185Y-102858550D01*
X123643202Y-102795209D01*
X123563910Y-102698589D01*
X123446177Y-102601969D01*
X123403950Y-102567315D01*
X123221454Y-102469768D01*
X123023434Y-102409700D01*
X123023432Y-102409699D01*
X123023434Y-102409699D01*
X122817500Y-102389417D01*
X122611567Y-102409699D01*
X122413543Y-102469769D01*
X122367955Y-102494137D01*
X122231050Y-102567315D01*
X122231048Y-102567316D01*
X122231047Y-102567317D01*
X122071089Y-102698589D01*
X121939817Y-102858547D01*
X121842269Y-103041043D01*
X121782199Y-103239067D01*
X121761917Y-103445000D01*
X121333083Y-103445000D01*
X121312800Y-103239066D01*
X121252732Y-103041046D01*
X121155185Y-102858550D01*
X121103202Y-102795209D01*
X121023910Y-102698589D01*
X120906177Y-102601969D01*
X120863950Y-102567315D01*
X120681454Y-102469768D01*
X120483434Y-102409700D01*
X120483432Y-102409699D01*
X120483434Y-102409699D01*
X120277500Y-102389417D01*
X120071567Y-102409699D01*
X119873543Y-102469769D01*
X119827955Y-102494137D01*
X119691050Y-102567315D01*
X119691048Y-102567316D01*
X119691047Y-102567317D01*
X119531089Y-102698589D01*
X119399817Y-102858547D01*
X119302269Y-103041043D01*
X119242199Y-103239067D01*
X119221917Y-103445000D01*
X118348000Y-103445000D01*
X118348000Y-100905000D01*
X119221917Y-100905000D01*
X119242199Y-101110932D01*
X119259714Y-101168670D01*
X119302268Y-101308954D01*
X119399815Y-101491450D01*
X119399817Y-101491452D01*
X119531089Y-101651410D01*
X119596390Y-101705000D01*
X119691050Y-101782685D01*
X119873546Y-101880232D01*
X120071566Y-101940300D01*
X120071565Y-101940300D01*
X120090029Y-101942118D01*
X120277500Y-101960583D01*
X120483434Y-101940300D01*
X120681454Y-101880232D01*
X120863950Y-101782685D01*
X121023910Y-101651410D01*
X121155185Y-101491450D01*
X121252732Y-101308954D01*
X121312800Y-101110934D01*
X121333083Y-100905000D01*
X121761917Y-100905000D01*
X121782199Y-101110932D01*
X121799714Y-101168670D01*
X121842268Y-101308954D01*
X121939815Y-101491450D01*
X121939817Y-101491452D01*
X122071089Y-101651410D01*
X122136390Y-101705000D01*
X122231050Y-101782685D01*
X122413546Y-101880232D01*
X122611566Y-101940300D01*
X122611565Y-101940300D01*
X122630029Y-101942118D01*
X122817500Y-101960583D01*
X123023434Y-101940300D01*
X123221454Y-101880232D01*
X123403950Y-101782685D01*
X123563910Y-101651410D01*
X123695185Y-101491450D01*
X123792732Y-101308954D01*
X123852800Y-101110934D01*
X123873083Y-100905000D01*
X123852800Y-100699066D01*
X123838675Y-100652500D01*
X128642250Y-100652500D01*
X128661170Y-100796208D01*
X128661171Y-100796212D01*
X128716637Y-100930122D01*
X128716638Y-100930124D01*
X128716639Y-100930125D01*
X128804879Y-101045121D01*
X128919875Y-101133361D01*
X129053791Y-101188830D01*
X129180780Y-101205548D01*
X129197499Y-101207750D01*
X129197500Y-101207750D01*
X129197501Y-101207750D01*
X129212477Y-101205778D01*
X129341209Y-101188830D01*
X129475125Y-101133361D01*
X129590121Y-101045121D01*
X129678361Y-100930125D01*
X129732939Y-100798359D01*
X129776779Y-100743956D01*
X129843073Y-100721891D01*
X129910773Y-100739170D01*
X129958384Y-100790307D01*
X129962061Y-100798360D01*
X130016637Y-100930122D01*
X130016638Y-100930124D01*
X130016639Y-100930125D01*
X130104879Y-101045121D01*
X130219875Y-101133361D01*
X130353791Y-101188830D01*
X130480780Y-101205548D01*
X130497499Y-101207750D01*
X130497500Y-101207750D01*
X130497501Y-101207750D01*
X130512477Y-101205778D01*
X130641209Y-101188830D01*
X130775125Y-101133361D01*
X130890121Y-101045121D01*
X130978361Y-100930125D01*
X131033830Y-100796209D01*
X131052750Y-100652500D01*
X131033830Y-100508791D01*
X131003265Y-100435000D01*
X142492250Y-100435000D01*
X142511170Y-100578708D01*
X142511171Y-100578712D01*
X142566637Y-100712622D01*
X142566638Y-100712624D01*
X142566639Y-100712625D01*
X142654879Y-100827621D01*
X142769875Y-100915861D01*
X142903791Y-100971330D01*
X143030780Y-100988048D01*
X143047499Y-100990250D01*
X143047500Y-100990250D01*
X143047501Y-100990250D01*
X143062477Y-100988278D01*
X143191209Y-100971330D01*
X143325125Y-100915861D01*
X143440121Y-100827621D01*
X143528361Y-100712625D01*
X143583830Y-100578709D01*
X143602750Y-100435000D01*
X143583830Y-100291291D01*
X143534269Y-100171639D01*
X143528362Y-100157377D01*
X143528361Y-100157376D01*
X143528361Y-100157375D01*
X143440121Y-100042379D01*
X143325125Y-99954139D01*
X143325124Y-99954138D01*
X143325122Y-99954137D01*
X143229574Y-99914561D01*
X143175170Y-99870721D01*
X143153105Y-99804427D01*
X143170384Y-99736727D01*
X143221521Y-99689116D01*
X143229574Y-99685439D01*
X143250352Y-99676832D01*
X143325125Y-99645861D01*
X143440121Y-99557621D01*
X143528361Y-99442625D01*
X143583830Y-99308709D01*
X143602750Y-99165000D01*
X143583830Y-99021291D01*
X143528361Y-98887375D01*
X143440121Y-98772379D01*
X143325125Y-98684139D01*
X143325124Y-98684138D01*
X143325122Y-98684137D01*
X143229574Y-98644561D01*
X143175170Y-98600721D01*
X143153105Y-98534427D01*
X143170384Y-98466727D01*
X143221521Y-98419116D01*
X143229574Y-98415439D01*
X143261514Y-98402209D01*
X143325125Y-98375861D01*
X143440121Y-98287621D01*
X143528361Y-98172625D01*
X143583830Y-98038709D01*
X143602750Y-97895000D01*
X143583830Y-97751291D01*
X143528361Y-97617375D01*
X143440121Y-97502379D01*
X143325125Y-97414139D01*
X143325124Y-97414138D01*
X143325122Y-97414137D01*
X143229574Y-97374561D01*
X143175170Y-97330721D01*
X143153105Y-97264427D01*
X143170384Y-97196727D01*
X143221521Y-97149116D01*
X143229574Y-97145439D01*
X143250352Y-97136832D01*
X143325125Y-97105861D01*
X143440121Y-97017621D01*
X143528361Y-96902625D01*
X143583830Y-96768709D01*
X143602750Y-96625000D01*
X143583830Y-96481291D01*
X143528361Y-96347375D01*
X143440121Y-96232379D01*
X143325125Y-96144139D01*
X143325124Y-96144138D01*
X143325122Y-96144137D01*
X143229574Y-96104561D01*
X143175170Y-96060721D01*
X143153105Y-95994427D01*
X143170384Y-95926727D01*
X143221521Y-95879116D01*
X143229574Y-95875439D01*
X143284954Y-95852500D01*
X143325125Y-95835861D01*
X143440121Y-95747621D01*
X143528361Y-95632625D01*
X143583830Y-95498709D01*
X143602750Y-95355000D01*
X143583830Y-95211291D01*
X143528361Y-95077375D01*
X143440121Y-94962379D01*
X143325125Y-94874139D01*
X143325124Y-94874138D01*
X143325122Y-94874137D01*
X143229574Y-94834561D01*
X143175170Y-94790721D01*
X143153105Y-94724427D01*
X143170384Y-94656727D01*
X143221521Y-94609116D01*
X143229574Y-94605439D01*
X143271823Y-94587939D01*
X143325125Y-94565861D01*
X143440121Y-94477621D01*
X143528361Y-94362625D01*
X143583830Y-94228709D01*
X143602750Y-94085000D01*
X143583830Y-93941291D01*
X143528361Y-93807375D01*
X143440121Y-93692379D01*
X143325125Y-93604139D01*
X143325124Y-93604138D01*
X143325122Y-93604137D01*
X143229574Y-93564561D01*
X143175170Y-93520721D01*
X143153105Y-93454427D01*
X143170384Y-93386727D01*
X143221521Y-93339116D01*
X143229574Y-93335439D01*
X143296673Y-93307646D01*
X143325125Y-93295861D01*
X143440121Y-93207621D01*
X143528361Y-93092625D01*
X143583830Y-92958709D01*
X143602750Y-92815000D01*
X143583830Y-92671291D01*
X143528361Y-92537375D01*
X143440121Y-92422379D01*
X143325125Y-92334139D01*
X143325124Y-92334138D01*
X143325122Y-92334137D01*
X143229574Y-92294561D01*
X143175170Y-92250721D01*
X143153105Y-92184427D01*
X143170384Y-92116727D01*
X143221521Y-92069116D01*
X143229574Y-92065439D01*
X143297542Y-92037286D01*
X143325125Y-92025861D01*
X143440121Y-91937621D01*
X143528361Y-91822625D01*
X143583830Y-91688709D01*
X143602750Y-91545000D01*
X143583830Y-91401291D01*
X143534141Y-91281329D01*
X143528362Y-91267377D01*
X143528361Y-91267376D01*
X143528361Y-91267375D01*
X143440121Y-91152379D01*
X143325125Y-91064139D01*
X143325124Y-91064138D01*
X143325122Y-91064137D01*
X143191212Y-91008671D01*
X143191210Y-91008670D01*
X143191209Y-91008670D01*
X143104467Y-90997250D01*
X143047501Y-90989750D01*
X143047499Y-90989750D01*
X142903791Y-91008670D01*
X142903787Y-91008671D01*
X142769877Y-91064137D01*
X142654879Y-91152379D01*
X142566637Y-91267377D01*
X142511171Y-91401287D01*
X142511170Y-91401291D01*
X142492250Y-91544999D01*
X142492250Y-91545000D01*
X142511170Y-91688708D01*
X142511171Y-91688712D01*
X142566637Y-91822622D01*
X142566638Y-91822624D01*
X142566639Y-91822625D01*
X142654879Y-91937621D01*
X142769875Y-92025861D01*
X142797458Y-92037286D01*
X142865425Y-92065439D01*
X142919829Y-92109280D01*
X142941894Y-92175574D01*
X142924615Y-92243273D01*
X142873478Y-92290884D01*
X142865425Y-92294561D01*
X142769878Y-92334137D01*
X142769875Y-92334138D01*
X142769875Y-92334139D01*
X142732752Y-92362625D01*
X142654879Y-92422379D01*
X142566637Y-92537377D01*
X142511171Y-92671287D01*
X142511170Y-92671291D01*
X142492250Y-92814999D01*
X142492250Y-92815000D01*
X142511170Y-92958708D01*
X142511171Y-92958712D01*
X142566637Y-93092622D01*
X142566638Y-93092624D01*
X142566639Y-93092625D01*
X142654879Y-93207621D01*
X142769875Y-93295861D01*
X142798327Y-93307646D01*
X142865425Y-93335439D01*
X142919829Y-93379280D01*
X142941894Y-93445574D01*
X142924615Y-93513273D01*
X142873478Y-93560884D01*
X142865425Y-93564561D01*
X142769878Y-93604137D01*
X142654879Y-93692379D01*
X142566637Y-93807377D01*
X142511171Y-93941287D01*
X142511170Y-93941291D01*
X142492250Y-94084999D01*
X142492250Y-94085000D01*
X142511170Y-94228708D01*
X142511171Y-94228712D01*
X142566637Y-94362622D01*
X142566638Y-94362624D01*
X142566639Y-94362625D01*
X142654879Y-94477621D01*
X142769875Y-94565861D01*
X142801885Y-94579120D01*
X142865425Y-94605439D01*
X142919829Y-94649280D01*
X142941894Y-94715574D01*
X142924615Y-94783273D01*
X142873478Y-94830884D01*
X142865425Y-94834561D01*
X142769878Y-94874137D01*
X142654879Y-94962379D01*
X142566637Y-95077377D01*
X142511171Y-95211287D01*
X142511170Y-95211291D01*
X142492250Y-95354999D01*
X142492250Y-95355000D01*
X142511170Y-95498708D01*
X142511171Y-95498712D01*
X142566637Y-95632622D01*
X142566638Y-95632624D01*
X142566639Y-95632625D01*
X142654879Y-95747621D01*
X142769875Y-95835861D01*
X142801885Y-95849120D01*
X142865425Y-95875439D01*
X142919829Y-95919280D01*
X142941894Y-95985574D01*
X142924615Y-96053273D01*
X142873478Y-96100884D01*
X142865425Y-96104561D01*
X142769878Y-96144137D01*
X142654879Y-96232379D01*
X142566637Y-96347377D01*
X142511171Y-96481287D01*
X142511170Y-96481291D01*
X142492250Y-96624999D01*
X142492250Y-96625000D01*
X142511170Y-96768708D01*
X142511171Y-96768712D01*
X142566637Y-96902622D01*
X142566638Y-96902624D01*
X142566639Y-96902625D01*
X142654879Y-97017621D01*
X142769875Y-97105861D01*
X142801885Y-97119120D01*
X142865425Y-97145439D01*
X142919829Y-97189280D01*
X142941894Y-97255574D01*
X142924615Y-97323273D01*
X142873478Y-97370884D01*
X142865425Y-97374561D01*
X142769878Y-97414137D01*
X142769875Y-97414138D01*
X142769875Y-97414139D01*
X142735538Y-97440487D01*
X142654879Y-97502379D01*
X142566637Y-97617377D01*
X142511171Y-97751287D01*
X142511170Y-97751291D01*
X142502783Y-97814999D01*
X142492250Y-97895000D01*
X142500637Y-97958708D01*
X142511170Y-98038708D01*
X142511171Y-98038712D01*
X142566637Y-98172622D01*
X142566638Y-98172624D01*
X142566639Y-98172625D01*
X142654879Y-98287621D01*
X142769875Y-98375861D01*
X142801885Y-98389120D01*
X142865425Y-98415439D01*
X142919829Y-98459280D01*
X142941894Y-98525574D01*
X142924615Y-98593273D01*
X142873478Y-98640884D01*
X142865425Y-98644561D01*
X142769878Y-98684137D01*
X142654879Y-98772379D01*
X142566637Y-98887377D01*
X142511171Y-99021287D01*
X142511170Y-99021291D01*
X142492250Y-99164999D01*
X142492250Y-99165000D01*
X142511170Y-99308708D01*
X142511171Y-99308712D01*
X142566637Y-99442622D01*
X142566638Y-99442624D01*
X142566639Y-99442625D01*
X142654879Y-99557621D01*
X142769875Y-99645861D01*
X142801885Y-99659120D01*
X142865425Y-99685439D01*
X142919829Y-99729280D01*
X142941894Y-99795574D01*
X142924615Y-99863273D01*
X142873478Y-99910884D01*
X142865425Y-99914561D01*
X142769878Y-99954137D01*
X142654879Y-100042379D01*
X142566637Y-100157377D01*
X142511171Y-100291287D01*
X142511170Y-100291291D01*
X142492250Y-100434999D01*
X142492250Y-100435000D01*
X131003265Y-100435000D01*
X130978361Y-100374875D01*
X130890121Y-100259879D01*
X130775125Y-100171639D01*
X130775124Y-100171638D01*
X130775122Y-100171637D01*
X130641212Y-100116171D01*
X130641210Y-100116170D01*
X130641209Y-100116170D01*
X130569354Y-100106710D01*
X130497501Y-100097250D01*
X130497499Y-100097250D01*
X130353791Y-100116170D01*
X130353787Y-100116171D01*
X130219877Y-100171637D01*
X130104879Y-100259879D01*
X130016637Y-100374877D01*
X129962061Y-100506639D01*
X129918220Y-100561043D01*
X129851926Y-100583108D01*
X129784227Y-100565829D01*
X129736616Y-100514692D01*
X129732939Y-100506639D01*
X129678362Y-100374877D01*
X129678361Y-100374876D01*
X129678361Y-100374875D01*
X129590121Y-100259879D01*
X129475125Y-100171639D01*
X129475124Y-100171638D01*
X129475122Y-100171637D01*
X129341212Y-100116171D01*
X129341210Y-100116170D01*
X129341209Y-100116170D01*
X129269354Y-100106710D01*
X129197501Y-100097250D01*
X129197499Y-100097250D01*
X129053791Y-100116170D01*
X129053787Y-100116171D01*
X128919877Y-100171637D01*
X128804879Y-100259879D01*
X128716637Y-100374877D01*
X128661171Y-100508787D01*
X128661170Y-100508791D01*
X128642250Y-100652499D01*
X128642250Y-100652500D01*
X123838675Y-100652500D01*
X123792732Y-100501046D01*
X123695185Y-100318550D01*
X123643202Y-100255209D01*
X123563910Y-100158589D01*
X123446177Y-100061969D01*
X123403950Y-100027315D01*
X123221454Y-99929768D01*
X123023434Y-99869700D01*
X123023432Y-99869699D01*
X123023434Y-99869699D01*
X122817500Y-99849417D01*
X122611567Y-99869699D01*
X122413543Y-99929769D01*
X122367955Y-99954137D01*
X122231050Y-100027315D01*
X122231048Y-100027316D01*
X122231047Y-100027317D01*
X122071089Y-100158589D01*
X121939817Y-100318547D01*
X121842269Y-100501043D01*
X121782199Y-100699067D01*
X121761917Y-100905000D01*
X121333083Y-100905000D01*
X121312800Y-100699066D01*
X121252732Y-100501046D01*
X121155185Y-100318550D01*
X121103202Y-100255209D01*
X121023910Y-100158589D01*
X120906177Y-100061969D01*
X120863950Y-100027315D01*
X120681454Y-99929768D01*
X120483434Y-99869700D01*
X120483432Y-99869699D01*
X120483434Y-99869699D01*
X120277500Y-99849417D01*
X120071567Y-99869699D01*
X119873543Y-99929769D01*
X119827955Y-99954137D01*
X119691050Y-100027315D01*
X119691048Y-100027316D01*
X119691047Y-100027317D01*
X119531089Y-100158589D01*
X119399817Y-100318547D01*
X119302269Y-100501043D01*
X119242199Y-100699067D01*
X119221917Y-100905000D01*
X118348000Y-100905000D01*
X118348000Y-98365000D01*
X119221917Y-98365000D01*
X119242199Y-98570932D01*
X119259714Y-98628670D01*
X119302268Y-98768954D01*
X119399815Y-98951450D01*
X119399817Y-98951452D01*
X119531089Y-99111410D01*
X119596390Y-99165000D01*
X119691050Y-99242685D01*
X119873546Y-99340232D01*
X120071566Y-99400300D01*
X120071565Y-99400300D01*
X120090029Y-99402118D01*
X120277500Y-99420583D01*
X120483434Y-99400300D01*
X120681454Y-99340232D01*
X120863950Y-99242685D01*
X121023910Y-99111410D01*
X121155185Y-98951450D01*
X121252732Y-98768954D01*
X121312800Y-98570934D01*
X121333083Y-98365000D01*
X121761917Y-98365000D01*
X121782199Y-98570932D01*
X121799714Y-98628670D01*
X121842268Y-98768954D01*
X121939815Y-98951450D01*
X121939817Y-98951452D01*
X122071089Y-99111410D01*
X122136390Y-99165000D01*
X122231050Y-99242685D01*
X122413546Y-99340232D01*
X122611566Y-99400300D01*
X122611565Y-99400300D01*
X122630029Y-99402118D01*
X122817500Y-99420583D01*
X123023434Y-99400300D01*
X123221454Y-99340232D01*
X123403950Y-99242685D01*
X123563910Y-99111410D01*
X123695185Y-98951450D01*
X123792732Y-98768954D01*
X123852800Y-98570934D01*
X123873083Y-98365000D01*
X123852800Y-98159066D01*
X123792732Y-97961046D01*
X123714668Y-97815000D01*
X132092250Y-97815000D01*
X132111170Y-97958708D01*
X132111171Y-97958712D01*
X132166637Y-98092622D01*
X132166638Y-98092624D01*
X132166639Y-98092625D01*
X132254879Y-98207621D01*
X132369875Y-98295861D01*
X132503791Y-98351330D01*
X132630780Y-98368048D01*
X132647499Y-98370250D01*
X132647500Y-98370250D01*
X132647501Y-98370250D01*
X132662477Y-98368278D01*
X132791209Y-98351330D01*
X132925125Y-98295861D01*
X133040121Y-98207621D01*
X133128361Y-98092625D01*
X133183830Y-97958709D01*
X133188749Y-97921348D01*
X134848598Y-97921348D01*
X134867518Y-98065056D01*
X134867519Y-98065060D01*
X134922985Y-98198970D01*
X134922986Y-98198972D01*
X134922987Y-98198973D01*
X135011227Y-98313969D01*
X135126223Y-98402209D01*
X135126224Y-98402209D01*
X135126225Y-98402210D01*
X135167041Y-98419116D01*
X135260139Y-98457678D01*
X135387128Y-98474396D01*
X135403847Y-98476598D01*
X135403848Y-98476598D01*
X135403849Y-98476598D01*
X135418825Y-98474626D01*
X135547557Y-98457678D01*
X135681473Y-98402209D01*
X135796469Y-98313969D01*
X135884709Y-98198973D01*
X135940178Y-98065057D01*
X135959098Y-97921348D01*
X135940178Y-97777639D01*
X135884709Y-97643723D01*
X135796469Y-97528727D01*
X135681473Y-97440487D01*
X135681472Y-97440486D01*
X135681470Y-97440485D01*
X135547560Y-97385019D01*
X135547558Y-97385018D01*
X135547557Y-97385018D01*
X135440201Y-97370884D01*
X135403849Y-97366098D01*
X135403847Y-97366098D01*
X135260139Y-97385018D01*
X135260135Y-97385019D01*
X135126225Y-97440485D01*
X135011227Y-97528727D01*
X134922985Y-97643725D01*
X134867519Y-97777635D01*
X134867518Y-97777639D01*
X134848598Y-97921347D01*
X134848598Y-97921348D01*
X133188749Y-97921348D01*
X133202750Y-97815000D01*
X133183830Y-97671291D01*
X133128361Y-97537375D01*
X133040121Y-97422379D01*
X132925125Y-97334139D01*
X132925124Y-97334138D01*
X132925122Y-97334137D01*
X132791212Y-97278671D01*
X132791210Y-97278670D01*
X132791209Y-97278670D01*
X132683025Y-97264427D01*
X132647501Y-97259750D01*
X132647499Y-97259750D01*
X132503791Y-97278670D01*
X132503787Y-97278671D01*
X132369877Y-97334137D01*
X132254879Y-97422379D01*
X132166637Y-97537377D01*
X132111171Y-97671287D01*
X132111170Y-97671291D01*
X132092250Y-97814999D01*
X132092250Y-97815000D01*
X123714668Y-97815000D01*
X123695185Y-97778550D01*
X123643202Y-97715209D01*
X123563910Y-97618589D01*
X123446177Y-97521969D01*
X123403950Y-97487315D01*
X123221454Y-97389768D01*
X123023434Y-97329700D01*
X123023432Y-97329699D01*
X123023434Y-97329699D01*
X122817500Y-97309417D01*
X122611567Y-97329699D01*
X122413543Y-97389769D01*
X122318662Y-97440485D01*
X122231050Y-97487315D01*
X122231048Y-97487316D01*
X122231047Y-97487317D01*
X122071089Y-97618589D01*
X121939817Y-97778547D01*
X121939815Y-97778550D01*
X121920332Y-97815000D01*
X121842269Y-97961043D01*
X121782199Y-98159067D01*
X121761917Y-98365000D01*
X121333083Y-98365000D01*
X121312800Y-98159066D01*
X121252732Y-97961046D01*
X121155185Y-97778550D01*
X121103202Y-97715209D01*
X121023910Y-97618589D01*
X120906177Y-97521969D01*
X120863950Y-97487315D01*
X120681454Y-97389768D01*
X120483434Y-97329700D01*
X120483432Y-97329699D01*
X120483434Y-97329699D01*
X120277500Y-97309417D01*
X120071567Y-97329699D01*
X119873543Y-97389769D01*
X119778662Y-97440485D01*
X119691050Y-97487315D01*
X119691048Y-97487316D01*
X119691047Y-97487317D01*
X119531089Y-97618589D01*
X119399817Y-97778547D01*
X119399815Y-97778550D01*
X119380332Y-97815000D01*
X119302269Y-97961043D01*
X119242199Y-98159067D01*
X119221917Y-98365000D01*
X118348000Y-98365000D01*
X118348000Y-95825000D01*
X119221917Y-95825000D01*
X119242199Y-96030932D01*
X119259714Y-96088670D01*
X119302268Y-96228954D01*
X119399815Y-96411450D01*
X119399817Y-96411452D01*
X119531089Y-96571410D01*
X119596390Y-96625000D01*
X119691050Y-96702685D01*
X119873546Y-96800232D01*
X120071566Y-96860300D01*
X120071565Y-96860300D01*
X120090029Y-96862118D01*
X120277500Y-96880583D01*
X120483434Y-96860300D01*
X120681454Y-96800232D01*
X120863950Y-96702685D01*
X121023910Y-96571410D01*
X121155185Y-96411450D01*
X121252732Y-96228954D01*
X121312800Y-96030934D01*
X121333083Y-95825000D01*
X121761917Y-95825000D01*
X121782199Y-96030932D01*
X121799714Y-96088670D01*
X121842268Y-96228954D01*
X121939815Y-96411450D01*
X121939817Y-96411452D01*
X122071089Y-96571410D01*
X122136390Y-96625000D01*
X122231050Y-96702685D01*
X122413546Y-96800232D01*
X122611566Y-96860300D01*
X122611565Y-96860300D01*
X122630029Y-96862118D01*
X122817500Y-96880583D01*
X123023434Y-96860300D01*
X123221454Y-96800232D01*
X123403950Y-96702685D01*
X123563910Y-96571410D01*
X123695185Y-96411450D01*
X123792732Y-96228954D01*
X123852800Y-96030934D01*
X123873083Y-95825000D01*
X123852800Y-95619066D01*
X123792732Y-95421046D01*
X123695185Y-95238550D01*
X123643202Y-95175209D01*
X123563910Y-95078589D01*
X123446177Y-94981969D01*
X123403950Y-94947315D01*
X123221454Y-94849768D01*
X123023434Y-94789700D01*
X123023432Y-94789699D01*
X123023434Y-94789699D01*
X122817500Y-94769417D01*
X122611567Y-94789699D01*
X122413543Y-94849769D01*
X122367955Y-94874137D01*
X122231050Y-94947315D01*
X122231048Y-94947316D01*
X122231047Y-94947317D01*
X122071089Y-95078589D01*
X121939817Y-95238547D01*
X121939815Y-95238550D01*
X121908439Y-95297250D01*
X121842269Y-95421043D01*
X121782199Y-95619067D01*
X121761917Y-95825000D01*
X121333083Y-95825000D01*
X121312800Y-95619066D01*
X121252732Y-95421046D01*
X121155185Y-95238550D01*
X121103202Y-95175209D01*
X121023910Y-95078589D01*
X120906177Y-94981969D01*
X120863950Y-94947315D01*
X120681454Y-94849768D01*
X120483434Y-94789700D01*
X120483432Y-94789699D01*
X120483434Y-94789699D01*
X120277500Y-94769417D01*
X120071567Y-94789699D01*
X119873543Y-94849769D01*
X119827955Y-94874137D01*
X119691050Y-94947315D01*
X119691048Y-94947316D01*
X119691047Y-94947317D01*
X119531089Y-95078589D01*
X119399817Y-95238547D01*
X119399815Y-95238550D01*
X119368439Y-95297250D01*
X119302269Y-95421043D01*
X119242199Y-95619067D01*
X119221917Y-95825000D01*
X118348000Y-95825000D01*
X118348000Y-93285000D01*
X119221917Y-93285000D01*
X119242199Y-93490932D01*
X119259605Y-93548312D01*
X119302268Y-93688954D01*
X119399815Y-93871450D01*
X119399817Y-93871452D01*
X119531089Y-94031410D01*
X119596390Y-94085000D01*
X119691050Y-94162685D01*
X119873546Y-94260232D01*
X120071566Y-94320300D01*
X120071565Y-94320300D01*
X120090029Y-94322118D01*
X120277500Y-94340583D01*
X120483434Y-94320300D01*
X120681454Y-94260232D01*
X120863950Y-94162685D01*
X121023910Y-94031410D01*
X121155185Y-93871450D01*
X121252732Y-93688954D01*
X121312800Y-93490934D01*
X121333083Y-93285000D01*
X121761917Y-93285000D01*
X121782199Y-93490932D01*
X121799605Y-93548312D01*
X121842268Y-93688954D01*
X121939815Y-93871450D01*
X121939817Y-93871452D01*
X122071089Y-94031410D01*
X122136390Y-94085000D01*
X122231050Y-94162685D01*
X122413546Y-94260232D01*
X122611566Y-94320300D01*
X122611565Y-94320300D01*
X122630029Y-94322118D01*
X122817500Y-94340583D01*
X123023434Y-94320300D01*
X123221454Y-94260232D01*
X123403950Y-94162685D01*
X123563910Y-94031410D01*
X123695185Y-93871450D01*
X123792732Y-93688954D01*
X123852800Y-93490934D01*
X123873083Y-93285000D01*
X123852800Y-93079066D01*
X123792732Y-92881046D01*
X123695185Y-92698550D01*
X123631811Y-92621328D01*
X123563910Y-92538589D01*
X123446177Y-92441969D01*
X123403950Y-92407315D01*
X123221454Y-92309768D01*
X123023434Y-92249700D01*
X123023432Y-92249699D01*
X123023434Y-92249699D01*
X122817500Y-92229417D01*
X122611567Y-92249699D01*
X122413543Y-92309769D01*
X122367955Y-92334137D01*
X122231050Y-92407315D01*
X122231048Y-92407316D01*
X122231047Y-92407317D01*
X122071089Y-92538589D01*
X121939817Y-92698547D01*
X121842269Y-92881043D01*
X121782199Y-93079067D01*
X121761917Y-93285000D01*
X121333083Y-93285000D01*
X121312800Y-93079066D01*
X121252732Y-92881046D01*
X121155185Y-92698550D01*
X121091811Y-92621328D01*
X121023910Y-92538589D01*
X120906177Y-92441969D01*
X120863950Y-92407315D01*
X120681454Y-92309768D01*
X120483434Y-92249700D01*
X120483432Y-92249699D01*
X120483434Y-92249699D01*
X120277500Y-92229417D01*
X120071567Y-92249699D01*
X119873543Y-92309769D01*
X119827955Y-92334137D01*
X119691050Y-92407315D01*
X119691048Y-92407316D01*
X119691047Y-92407317D01*
X119531089Y-92538589D01*
X119399817Y-92698547D01*
X119302269Y-92881043D01*
X119242199Y-93079067D01*
X119221917Y-93285000D01*
X118348000Y-93285000D01*
X118348000Y-90745000D01*
X119221917Y-90745000D01*
X119242199Y-90950932D01*
X119259714Y-91008670D01*
X119302268Y-91148954D01*
X119399815Y-91331450D01*
X119399817Y-91331452D01*
X119531089Y-91491410D01*
X119605529Y-91552500D01*
X119691050Y-91622685D01*
X119873546Y-91720232D01*
X120071566Y-91780300D01*
X120071565Y-91780300D01*
X120090029Y-91782118D01*
X120277500Y-91800583D01*
X120483434Y-91780300D01*
X120681454Y-91720232D01*
X120863950Y-91622685D01*
X121023910Y-91491410D01*
X121155185Y-91331450D01*
X121252732Y-91148954D01*
X121312800Y-90950934D01*
X121333083Y-90745000D01*
X121761917Y-90745000D01*
X121782199Y-90950932D01*
X121799714Y-91008670D01*
X121842268Y-91148954D01*
X121939815Y-91331450D01*
X121939817Y-91331452D01*
X122071089Y-91491410D01*
X122145529Y-91552500D01*
X122231050Y-91622685D01*
X122413546Y-91720232D01*
X122611566Y-91780300D01*
X122611565Y-91780300D01*
X122630029Y-91782118D01*
X122817500Y-91800583D01*
X123023434Y-91780300D01*
X123221454Y-91720232D01*
X123403950Y-91622685D01*
X123489471Y-91552500D01*
X130292250Y-91552500D01*
X130310182Y-91688708D01*
X130311170Y-91696208D01*
X130311171Y-91696212D01*
X130366637Y-91830122D01*
X130366638Y-91830124D01*
X130366639Y-91830125D01*
X130454879Y-91945121D01*
X130569875Y-92033361D01*
X130569876Y-92033361D01*
X130569877Y-92033362D01*
X130579370Y-92037294D01*
X130703791Y-92088830D01*
X130830780Y-92105548D01*
X130847499Y-92107750D01*
X130847500Y-92107750D01*
X130847501Y-92107750D01*
X130862477Y-92105778D01*
X130991209Y-92088830D01*
X131125125Y-92033361D01*
X131240121Y-91945121D01*
X131328361Y-91830125D01*
X131383830Y-91696209D01*
X131402750Y-91552500D01*
X131401762Y-91544999D01*
X131394707Y-91491410D01*
X131389584Y-91452500D01*
X132392250Y-91452500D01*
X132405415Y-91552500D01*
X132411170Y-91596208D01*
X132411171Y-91596212D01*
X132466637Y-91730122D01*
X132466638Y-91730124D01*
X132466639Y-91730125D01*
X132554879Y-91845121D01*
X132669875Y-91933361D01*
X132669876Y-91933361D01*
X132669877Y-91933362D01*
X132714513Y-91951850D01*
X132803791Y-91988830D01*
X132930780Y-92005548D01*
X132947499Y-92007750D01*
X132947500Y-92007750D01*
X132947501Y-92007750D01*
X132962477Y-92005778D01*
X133091209Y-91988830D01*
X133225125Y-91933361D01*
X133340121Y-91845121D01*
X133428361Y-91730125D01*
X133483830Y-91596209D01*
X133502750Y-91452500D01*
X133483830Y-91308791D01*
X133428361Y-91174875D01*
X133351221Y-91074345D01*
X133326028Y-91009178D01*
X133340066Y-90940733D01*
X133388880Y-90890743D01*
X133402127Y-90884307D01*
X133525125Y-90833361D01*
X133640121Y-90745121D01*
X133728361Y-90630125D01*
X133783830Y-90496209D01*
X133802750Y-90352500D01*
X133783830Y-90208791D01*
X133728361Y-90074875D01*
X133640121Y-89959879D01*
X133525125Y-89871639D01*
X133525124Y-89871638D01*
X133525122Y-89871637D01*
X133391212Y-89816171D01*
X133391210Y-89816170D01*
X133391209Y-89816170D01*
X133319354Y-89806710D01*
X133247501Y-89797250D01*
X133247499Y-89797250D01*
X133103791Y-89816170D01*
X133103787Y-89816171D01*
X132969877Y-89871637D01*
X132854879Y-89959879D01*
X132766637Y-90074877D01*
X132711171Y-90208787D01*
X132711170Y-90208791D01*
X132692250Y-90352499D01*
X132692250Y-90352500D01*
X132711170Y-90496208D01*
X132711171Y-90496212D01*
X132766637Y-90630122D01*
X132766638Y-90630124D01*
X132766639Y-90630125D01*
X132843777Y-90730653D01*
X132868971Y-90795822D01*
X132854933Y-90864266D01*
X132806119Y-90914256D01*
X132792853Y-90920700D01*
X132669878Y-90971637D01*
X132669875Y-90971638D01*
X132669875Y-90971639D01*
X132610680Y-91017061D01*
X132554879Y-91059879D01*
X132466637Y-91174877D01*
X132411171Y-91308787D01*
X132411170Y-91308791D01*
X132398005Y-91408791D01*
X132392250Y-91452500D01*
X131389584Y-91452500D01*
X131383830Y-91408791D01*
X131328361Y-91274875D01*
X131240121Y-91159879D01*
X131125125Y-91071639D01*
X131125124Y-91071638D01*
X131125122Y-91071637D01*
X130993360Y-91017061D01*
X130938956Y-90973221D01*
X130916891Y-90906927D01*
X130934170Y-90839227D01*
X130985307Y-90791616D01*
X130993360Y-90787939D01*
X131096733Y-90745121D01*
X131125125Y-90733361D01*
X131240121Y-90645121D01*
X131328361Y-90530125D01*
X131383830Y-90396209D01*
X131402750Y-90252500D01*
X131383830Y-90108791D01*
X131328361Y-89974875D01*
X131240121Y-89859879D01*
X131125125Y-89771639D01*
X131125124Y-89771638D01*
X131125122Y-89771637D01*
X130991212Y-89716171D01*
X130991210Y-89716170D01*
X130991209Y-89716170D01*
X130919354Y-89706710D01*
X130847501Y-89697250D01*
X130847499Y-89697250D01*
X130703791Y-89716170D01*
X130703787Y-89716171D01*
X130569877Y-89771637D01*
X130454879Y-89859879D01*
X130366637Y-89974877D01*
X130311171Y-90108787D01*
X130311170Y-90108791D01*
X130298005Y-90208791D01*
X130292250Y-90252500D01*
X130305415Y-90352500D01*
X130311170Y-90396208D01*
X130311171Y-90396212D01*
X130366637Y-90530122D01*
X130366638Y-90530124D01*
X130366639Y-90530125D01*
X130454879Y-90645121D01*
X130569875Y-90733361D01*
X130569876Y-90733361D01*
X130569877Y-90733362D01*
X130701639Y-90787939D01*
X130756043Y-90831780D01*
X130778108Y-90898074D01*
X130760829Y-90965773D01*
X130709692Y-91013384D01*
X130701639Y-91017061D01*
X130569877Y-91071637D01*
X130454879Y-91159879D01*
X130366637Y-91274877D01*
X130311171Y-91408787D01*
X130311170Y-91408791D01*
X130293238Y-91544999D01*
X130292250Y-91552500D01*
X123489471Y-91552500D01*
X123563910Y-91491410D01*
X123695185Y-91331450D01*
X123792732Y-91148954D01*
X123852800Y-90950934D01*
X123873083Y-90745000D01*
X123852800Y-90539066D01*
X123792732Y-90341046D01*
X123695185Y-90158550D01*
X123624178Y-90072027D01*
X123563910Y-89998589D01*
X123446177Y-89901969D01*
X123403950Y-89867315D01*
X123221454Y-89769768D01*
X123023434Y-89709700D01*
X123023432Y-89709699D01*
X123023434Y-89709699D01*
X122817500Y-89689417D01*
X122611567Y-89709699D01*
X122413543Y-89769769D01*
X122326733Y-89816171D01*
X122231050Y-89867315D01*
X122231048Y-89867316D01*
X122231047Y-89867317D01*
X122071089Y-89998589D01*
X121939817Y-90158547D01*
X121939815Y-90158550D01*
X121901143Y-90230898D01*
X121842269Y-90341043D01*
X121782199Y-90539067D01*
X121761917Y-90745000D01*
X121333083Y-90745000D01*
X121312800Y-90539066D01*
X121252732Y-90341046D01*
X121155185Y-90158550D01*
X121084178Y-90072027D01*
X121023910Y-89998589D01*
X120906177Y-89901969D01*
X120863950Y-89867315D01*
X120681454Y-89769768D01*
X120483434Y-89709700D01*
X120483432Y-89709699D01*
X120483434Y-89709699D01*
X120277500Y-89689417D01*
X120071567Y-89709699D01*
X119873543Y-89769769D01*
X119786733Y-89816171D01*
X119691050Y-89867315D01*
X119691048Y-89867316D01*
X119691047Y-89867317D01*
X119531089Y-89998589D01*
X119399817Y-90158547D01*
X119399815Y-90158550D01*
X119361143Y-90230898D01*
X119302269Y-90341043D01*
X119242199Y-90539067D01*
X119221917Y-90745000D01*
X118348000Y-90745000D01*
X118348000Y-88205000D01*
X119221917Y-88205000D01*
X119242199Y-88410932D01*
X119242200Y-88410934D01*
X119302268Y-88608954D01*
X119399815Y-88791450D01*
X119399817Y-88791452D01*
X119531089Y-88951410D01*
X119627709Y-89030702D01*
X119691050Y-89082685D01*
X119873546Y-89180232D01*
X120071566Y-89240300D01*
X120071565Y-89240300D01*
X120090029Y-89242118D01*
X120277500Y-89260583D01*
X120483434Y-89240300D01*
X120681454Y-89180232D01*
X120863950Y-89082685D01*
X121023910Y-88951410D01*
X121155185Y-88791450D01*
X121252732Y-88608954D01*
X121312800Y-88410934D01*
X121333083Y-88205000D01*
X121761917Y-88205000D01*
X121782199Y-88410932D01*
X121782200Y-88410934D01*
X121842268Y-88608954D01*
X121939815Y-88791450D01*
X121939817Y-88791452D01*
X122071089Y-88951410D01*
X122167709Y-89030702D01*
X122231050Y-89082685D01*
X122413546Y-89180232D01*
X122611566Y-89240300D01*
X122611565Y-89240300D01*
X122630029Y-89242118D01*
X122817500Y-89260583D01*
X123023434Y-89240300D01*
X123221454Y-89180232D01*
X123403950Y-89082685D01*
X123563910Y-88951410D01*
X123695185Y-88791450D01*
X123792732Y-88608954D01*
X123852800Y-88410934D01*
X123873083Y-88205000D01*
X123852800Y-87999066D01*
X123792732Y-87801046D01*
X123695185Y-87618550D01*
X123643202Y-87555209D01*
X123563910Y-87458589D01*
X123425647Y-87345121D01*
X123403950Y-87327315D01*
X123221454Y-87229768D01*
X123023434Y-87169700D01*
X123023432Y-87169699D01*
X123023434Y-87169699D01*
X122817500Y-87149417D01*
X122611567Y-87169699D01*
X122413543Y-87229769D01*
X122303398Y-87288643D01*
X122231050Y-87327315D01*
X122231048Y-87327316D01*
X122231047Y-87327317D01*
X122071089Y-87458589D01*
X121939817Y-87618547D01*
X121842269Y-87801043D01*
X121782199Y-87999067D01*
X121761917Y-88205000D01*
X121333083Y-88205000D01*
X121312800Y-87999066D01*
X121252732Y-87801046D01*
X121155185Y-87618550D01*
X121103202Y-87555209D01*
X121023910Y-87458589D01*
X120885647Y-87345121D01*
X120863950Y-87327315D01*
X120681454Y-87229768D01*
X120483434Y-87169700D01*
X120483432Y-87169699D01*
X120483434Y-87169699D01*
X120277500Y-87149417D01*
X120071567Y-87169699D01*
X119873543Y-87229769D01*
X119763398Y-87288643D01*
X119691050Y-87327315D01*
X119691048Y-87327316D01*
X119691047Y-87327317D01*
X119531089Y-87458589D01*
X119399817Y-87618547D01*
X119302269Y-87801043D01*
X119242199Y-87999067D01*
X119221917Y-88205000D01*
X118348000Y-88205000D01*
X118348000Y-85665000D01*
X119221917Y-85665000D01*
X119242199Y-85870932D01*
X119242200Y-85870934D01*
X119302268Y-86068954D01*
X119399815Y-86251450D01*
X119399817Y-86251452D01*
X119531089Y-86411410D01*
X119627709Y-86490702D01*
X119691050Y-86542685D01*
X119873546Y-86640232D01*
X120071566Y-86700300D01*
X120071565Y-86700300D01*
X120090029Y-86702118D01*
X120277500Y-86720583D01*
X120483434Y-86700300D01*
X120681454Y-86640232D01*
X120863950Y-86542685D01*
X121023910Y-86411410D01*
X121155185Y-86251450D01*
X121252732Y-86068954D01*
X121312800Y-85870934D01*
X121333083Y-85665000D01*
X121761917Y-85665000D01*
X121782199Y-85870932D01*
X121782200Y-85870934D01*
X121842268Y-86068954D01*
X121939815Y-86251450D01*
X121939817Y-86251452D01*
X122071089Y-86411410D01*
X122167709Y-86490702D01*
X122231050Y-86542685D01*
X122413546Y-86640232D01*
X122611566Y-86700300D01*
X122611565Y-86700300D01*
X122630029Y-86702118D01*
X122817500Y-86720583D01*
X123023434Y-86700300D01*
X123221454Y-86640232D01*
X123403950Y-86542685D01*
X123563910Y-86411410D01*
X123695185Y-86251450D01*
X123792732Y-86068954D01*
X123852800Y-85870934D01*
X123873083Y-85665000D01*
X123852800Y-85459066D01*
X123792732Y-85261046D01*
X123695185Y-85078550D01*
X123643202Y-85015209D01*
X123563910Y-84918589D01*
X123403952Y-84787317D01*
X123403953Y-84787317D01*
X123403950Y-84787315D01*
X123221454Y-84689768D01*
X123023434Y-84629700D01*
X123023432Y-84629699D01*
X123023434Y-84629699D01*
X122817500Y-84609417D01*
X122611567Y-84629699D01*
X122413543Y-84689769D01*
X122303398Y-84748643D01*
X122231050Y-84787315D01*
X122231048Y-84787316D01*
X122231047Y-84787317D01*
X122071089Y-84918589D01*
X121939817Y-85078547D01*
X121842269Y-85261043D01*
X121782199Y-85459067D01*
X121761917Y-85665000D01*
X121333083Y-85665000D01*
X121312800Y-85459066D01*
X121252732Y-85261046D01*
X121155185Y-85078550D01*
X121103202Y-85015209D01*
X121023910Y-84918589D01*
X120863952Y-84787317D01*
X120863953Y-84787317D01*
X120863950Y-84787315D01*
X120681454Y-84689768D01*
X120483434Y-84629700D01*
X120483432Y-84629699D01*
X120483434Y-84629699D01*
X120277500Y-84609417D01*
X120071567Y-84629699D01*
X119873543Y-84689769D01*
X119763398Y-84748643D01*
X119691050Y-84787315D01*
X119691048Y-84787316D01*
X119691047Y-84787317D01*
X119531089Y-84918589D01*
X119399817Y-85078547D01*
X119302269Y-85261043D01*
X119242199Y-85459067D01*
X119221917Y-85665000D01*
X118348000Y-85665000D01*
X118348000Y-83125000D01*
X119221917Y-83125000D01*
X119242199Y-83330932D01*
X119242200Y-83330934D01*
X119302268Y-83528954D01*
X119399815Y-83711450D01*
X119399817Y-83711452D01*
X119531089Y-83871410D01*
X119627709Y-83950702D01*
X119691050Y-84002685D01*
X119873546Y-84100232D01*
X120071566Y-84160300D01*
X120071565Y-84160300D01*
X120090029Y-84162118D01*
X120277500Y-84180583D01*
X120483434Y-84160300D01*
X120681454Y-84100232D01*
X120863950Y-84002685D01*
X120873616Y-83994752D01*
X121767000Y-83994752D01*
X121778631Y-84053229D01*
X121778632Y-84053230D01*
X121822947Y-84119552D01*
X121889269Y-84163867D01*
X121889270Y-84163868D01*
X121947747Y-84175499D01*
X121947750Y-84175500D01*
X121947752Y-84175500D01*
X123687250Y-84175500D01*
X123687251Y-84175499D01*
X123702068Y-84172552D01*
X123745729Y-84163868D01*
X123745729Y-84163867D01*
X123745731Y-84163867D01*
X123812052Y-84119552D01*
X123856367Y-84053231D01*
X123856367Y-84053229D01*
X123856368Y-84053229D01*
X123867999Y-83994752D01*
X123868000Y-83994750D01*
X123868000Y-82255249D01*
X123867999Y-82255247D01*
X123856368Y-82196770D01*
X123856367Y-82196769D01*
X123812052Y-82130447D01*
X123745730Y-82086132D01*
X123745729Y-82086131D01*
X123687252Y-82074500D01*
X123687248Y-82074500D01*
X121947752Y-82074500D01*
X121947747Y-82074500D01*
X121889270Y-82086131D01*
X121889269Y-82086132D01*
X121822947Y-82130447D01*
X121778632Y-82196769D01*
X121778631Y-82196770D01*
X121767000Y-82255247D01*
X121767000Y-83994752D01*
X120873616Y-83994752D01*
X121023910Y-83871410D01*
X121155185Y-83711450D01*
X121252732Y-83528954D01*
X121312800Y-83330934D01*
X121333083Y-83125000D01*
X121312800Y-82919066D01*
X121252732Y-82721046D01*
X121155185Y-82538550D01*
X121103202Y-82475209D01*
X121023910Y-82378589D01*
X120873621Y-82255252D01*
X120863950Y-82247315D01*
X120681454Y-82149768D01*
X120483434Y-82089700D01*
X120483432Y-82089699D01*
X120483434Y-82089699D01*
X120277500Y-82069417D01*
X120071567Y-82089699D01*
X119873543Y-82149769D01*
X119785614Y-82196769D01*
X119691050Y-82247315D01*
X119691048Y-82247316D01*
X119691047Y-82247317D01*
X119531089Y-82378589D01*
X119399817Y-82538547D01*
X119302269Y-82721043D01*
X119242199Y-82919067D01*
X119221917Y-83125000D01*
X118348000Y-83125000D01*
X118348000Y-76525004D01*
X124942232Y-76525004D01*
X124961277Y-76779154D01*
X125009069Y-76988546D01*
X125017992Y-77027637D01*
X125111107Y-77264888D01*
X125238541Y-77485612D01*
X125397450Y-77684877D01*
X125584283Y-77858232D01*
X125794866Y-78001805D01*
X125794871Y-78001807D01*
X125794872Y-78001808D01*
X125794873Y-78001809D01*
X125915458Y-78059879D01*
X126024492Y-78112387D01*
X126024493Y-78112387D01*
X126024496Y-78112389D01*
X126268042Y-78187513D01*
X126520065Y-78225500D01*
X126774935Y-78225500D01*
X127026958Y-78187513D01*
X127270504Y-78112389D01*
X127500134Y-78001805D01*
X127710717Y-77858232D01*
X127897550Y-77684877D01*
X128056459Y-77485612D01*
X128183893Y-77264888D01*
X128277008Y-77027637D01*
X128333722Y-76779157D01*
X128343766Y-76645121D01*
X128352768Y-76525004D01*
X128352768Y-76524995D01*
X128333722Y-76270845D01*
X128308128Y-76158712D01*
X128277008Y-76022363D01*
X128183893Y-75785112D01*
X128056459Y-75564388D01*
X127897550Y-75365123D01*
X127710717Y-75191768D01*
X127500134Y-75048195D01*
X127500130Y-75048193D01*
X127500127Y-75048191D01*
X127500126Y-75048190D01*
X127270506Y-74937612D01*
X127270508Y-74937612D01*
X127026966Y-74862489D01*
X127026962Y-74862488D01*
X127026958Y-74862487D01*
X126905731Y-74844214D01*
X126774940Y-74824500D01*
X126774935Y-74824500D01*
X126520065Y-74824500D01*
X126520059Y-74824500D01*
X126363109Y-74848157D01*
X126268042Y-74862487D01*
X126268039Y-74862488D01*
X126268033Y-74862489D01*
X126024492Y-74937612D01*
X125794873Y-75048190D01*
X125794872Y-75048191D01*
X125584282Y-75191768D01*
X125397452Y-75365121D01*
X125397450Y-75365123D01*
X125238541Y-75564388D01*
X125111108Y-75785109D01*
X125017992Y-76022362D01*
X125017990Y-76022369D01*
X124961277Y-76270845D01*
X124942232Y-76524995D01*
X124942232Y-76525004D01*
X118348000Y-76525004D01*
X118348000Y-70461611D01*
X119647000Y-70461611D01*
X119674098Y-70632701D01*
X119727627Y-70797445D01*
X119806268Y-70951788D01*
X119908086Y-71091928D01*
X120030572Y-71214414D01*
X120170712Y-71316232D01*
X120325055Y-71394873D01*
X120489799Y-71448402D01*
X120660889Y-71475500D01*
X120660890Y-71475500D01*
X120834110Y-71475500D01*
X120834111Y-71475500D01*
X121005201Y-71448402D01*
X121169945Y-71394873D01*
X121324288Y-71316232D01*
X121464428Y-71214414D01*
X121586914Y-71091928D01*
X121688732Y-70951788D01*
X121767373Y-70797445D01*
X121820902Y-70632701D01*
X121848000Y-70461611D01*
X124347000Y-70461611D01*
X124374098Y-70632701D01*
X124427627Y-70797445D01*
X124506268Y-70951788D01*
X124608086Y-71091928D01*
X124730572Y-71214414D01*
X124870712Y-71316232D01*
X125025055Y-71394873D01*
X125189799Y-71448402D01*
X125360889Y-71475500D01*
X125360890Y-71475500D01*
X125534110Y-71475500D01*
X125534111Y-71475500D01*
X125705201Y-71448402D01*
X125869945Y-71394873D01*
X126024288Y-71316232D01*
X126164428Y-71214414D01*
X126286914Y-71091928D01*
X126388732Y-70951788D01*
X126467373Y-70797445D01*
X126520902Y-70632701D01*
X126548000Y-70461611D01*
X129047000Y-70461611D01*
X129074098Y-70632701D01*
X129127627Y-70797445D01*
X129206268Y-70951788D01*
X129308086Y-71091928D01*
X129430572Y-71214414D01*
X129570712Y-71316232D01*
X129725055Y-71394873D01*
X129889799Y-71448402D01*
X130060889Y-71475500D01*
X130060890Y-71475500D01*
X130234110Y-71475500D01*
X130234111Y-71475500D01*
X130405201Y-71448402D01*
X130569945Y-71394873D01*
X130724288Y-71316232D01*
X130864428Y-71214414D01*
X130986914Y-71091928D01*
X131088732Y-70951788D01*
X131167373Y-70797445D01*
X131220902Y-70632701D01*
X131248000Y-70461611D01*
X131248000Y-68788389D01*
X131220902Y-68617299D01*
X131167373Y-68452555D01*
X131088732Y-68298212D01*
X130986914Y-68158072D01*
X130864428Y-68035586D01*
X130724288Y-67933768D01*
X130569947Y-67855128D01*
X130569946Y-67855127D01*
X130569945Y-67855127D01*
X130405201Y-67801598D01*
X130405199Y-67801597D01*
X130405198Y-67801597D01*
X130273771Y-67780781D01*
X130234111Y-67774500D01*
X130060889Y-67774500D01*
X130021228Y-67780781D01*
X129889802Y-67801597D01*
X129725052Y-67855128D01*
X129570711Y-67933768D01*
X129510201Y-67977732D01*
X129430572Y-68035586D01*
X129430570Y-68035588D01*
X129430569Y-68035588D01*
X129308088Y-68158069D01*
X129308088Y-68158070D01*
X129308086Y-68158072D01*
X129264359Y-68218256D01*
X129206268Y-68298211D01*
X129127628Y-68452552D01*
X129074097Y-68617302D01*
X129051701Y-68758708D01*
X129047000Y-68788389D01*
X129047000Y-70461611D01*
X126548000Y-70461611D01*
X126548000Y-68788389D01*
X126520902Y-68617299D01*
X126467373Y-68452555D01*
X126388732Y-68298212D01*
X126286914Y-68158072D01*
X126164428Y-68035586D01*
X126024288Y-67933768D01*
X125869947Y-67855128D01*
X125869946Y-67855127D01*
X125869945Y-67855127D01*
X125705201Y-67801598D01*
X125705199Y-67801597D01*
X125705198Y-67801597D01*
X125573771Y-67780781D01*
X125534111Y-67774500D01*
X125360889Y-67774500D01*
X125321228Y-67780781D01*
X125189802Y-67801597D01*
X125025052Y-67855128D01*
X124870711Y-67933768D01*
X124810201Y-67977732D01*
X124730572Y-68035586D01*
X124730570Y-68035588D01*
X124730569Y-68035588D01*
X124608088Y-68158069D01*
X124608088Y-68158070D01*
X124608086Y-68158072D01*
X124564359Y-68218256D01*
X124506268Y-68298211D01*
X124427628Y-68452552D01*
X124374097Y-68617302D01*
X124351701Y-68758708D01*
X124347000Y-68788389D01*
X124347000Y-70461611D01*
X121848000Y-70461611D01*
X121848000Y-68788389D01*
X121820902Y-68617299D01*
X121767373Y-68452555D01*
X121688732Y-68298212D01*
X121586914Y-68158072D01*
X121464428Y-68035586D01*
X121324288Y-67933768D01*
X121169947Y-67855128D01*
X121169946Y-67855127D01*
X121169945Y-67855127D01*
X121005201Y-67801598D01*
X121005199Y-67801597D01*
X121005198Y-67801597D01*
X120873771Y-67780781D01*
X120834111Y-67774500D01*
X120660889Y-67774500D01*
X120621228Y-67780781D01*
X120489802Y-67801597D01*
X120325052Y-67855128D01*
X120170711Y-67933768D01*
X120110201Y-67977732D01*
X120030572Y-68035586D01*
X120030570Y-68035588D01*
X120030569Y-68035588D01*
X119908088Y-68158069D01*
X119908088Y-68158070D01*
X119908086Y-68158072D01*
X119864359Y-68218256D01*
X119806268Y-68298211D01*
X119727628Y-68452552D01*
X119674097Y-68617302D01*
X119651701Y-68758708D01*
X119647000Y-68788389D01*
X119647000Y-70461611D01*
X118348000Y-70461611D01*
X118348000Y-62182597D01*
X118348001Y-62182584D01*
X118348001Y-62128246D01*
X118348086Y-62125003D01*
X118642084Y-62125003D01*
X118661729Y-62462298D01*
X118661730Y-62462309D01*
X118720396Y-62795017D01*
X118720399Y-62795031D01*
X118817301Y-63118710D01*
X118951121Y-63428939D01*
X118951127Y-63428952D01*
X119120060Y-63721553D01*
X119321818Y-63992561D01*
X119321823Y-63992567D01*
X119441569Y-64119489D01*
X119553683Y-64238323D01*
X119553689Y-64238328D01*
X119553691Y-64238330D01*
X119812501Y-64455499D01*
X119812506Y-64455502D01*
X120094792Y-64641164D01*
X120396724Y-64792800D01*
X120714217Y-64908358D01*
X121042980Y-64986276D01*
X121378565Y-65025500D01*
X121378572Y-65025500D01*
X121716428Y-65025500D01*
X121716435Y-65025500D01*
X122052020Y-64986276D01*
X122380783Y-64908358D01*
X122698276Y-64792800D01*
X123000208Y-64641164D01*
X123282494Y-64455502D01*
X123541317Y-64238323D01*
X123773178Y-63992565D01*
X123974940Y-63721552D01*
X124143875Y-63428948D01*
X124188714Y-63325000D01*
X125411917Y-63325000D01*
X125432199Y-63530932D01*
X125432200Y-63530934D01*
X125492268Y-63728954D01*
X125589815Y-63911450D01*
X125589817Y-63911452D01*
X125721089Y-64071410D01*
X125817709Y-64150702D01*
X125881050Y-64202685D01*
X126063546Y-64300232D01*
X126261566Y-64360300D01*
X126261565Y-64360300D01*
X126280029Y-64362118D01*
X126467500Y-64380583D01*
X126673434Y-64360300D01*
X126871454Y-64300232D01*
X127053950Y-64202685D01*
X127213910Y-64071410D01*
X127345185Y-63911450D01*
X127442732Y-63728954D01*
X127502800Y-63530934D01*
X127523083Y-63325000D01*
X127951917Y-63325000D01*
X127972199Y-63530932D01*
X127972200Y-63530934D01*
X128032268Y-63728954D01*
X128129815Y-63911450D01*
X128129817Y-63911452D01*
X128261089Y-64071410D01*
X128357709Y-64150702D01*
X128421050Y-64202685D01*
X128603546Y-64300232D01*
X128801566Y-64360300D01*
X128801565Y-64360300D01*
X128820029Y-64362118D01*
X129007500Y-64380583D01*
X129213434Y-64360300D01*
X129411454Y-64300232D01*
X129593950Y-64202685D01*
X129753910Y-64071410D01*
X129885185Y-63911450D01*
X129982732Y-63728954D01*
X130042800Y-63530934D01*
X130063083Y-63325000D01*
X133031917Y-63325000D01*
X133052199Y-63530932D01*
X133052200Y-63530934D01*
X133112268Y-63728954D01*
X133209815Y-63911450D01*
X133209817Y-63911452D01*
X133341089Y-64071410D01*
X133437709Y-64150702D01*
X133501050Y-64202685D01*
X133671455Y-64293769D01*
X133721298Y-64342731D01*
X133737000Y-64403126D01*
X133737000Y-65838645D01*
X133755526Y-65907786D01*
X133760885Y-65927785D01*
X133760887Y-65927790D01*
X133807027Y-66007708D01*
X133807031Y-66007713D01*
X134560681Y-66761363D01*
X134594166Y-66822686D01*
X134597000Y-66849044D01*
X134597000Y-81498644D01*
X134613603Y-81560607D01*
X134613603Y-81560608D01*
X134620884Y-81587784D01*
X134620885Y-81587786D01*
X134667027Y-81667708D01*
X134667029Y-81667711D01*
X134667030Y-81667712D01*
X143632288Y-90632970D01*
X143632290Y-90632971D01*
X143632294Y-90632974D01*
X143675622Y-90657989D01*
X143675624Y-90657990D01*
X143675628Y-90657992D01*
X143712212Y-90679114D01*
X143801356Y-90703000D01*
X143801357Y-90703000D01*
X143893644Y-90703000D01*
X152850956Y-90703000D01*
X152917995Y-90722685D01*
X152938637Y-90739319D01*
X156155940Y-93956622D01*
X156189425Y-94017945D01*
X156190567Y-94044373D01*
X156192250Y-94044373D01*
X156192250Y-94052500D01*
X156206756Y-94162685D01*
X156211170Y-94196208D01*
X156211171Y-94196212D01*
X156266637Y-94330122D01*
X156266638Y-94330124D01*
X156266639Y-94330125D01*
X156354879Y-94445121D01*
X156469875Y-94533361D01*
X156469876Y-94533361D01*
X156469877Y-94533362D01*
X156601639Y-94587939D01*
X156656043Y-94631780D01*
X156678108Y-94698074D01*
X156660829Y-94765773D01*
X156609692Y-94813384D01*
X156601639Y-94817061D01*
X156469877Y-94871637D01*
X156354879Y-94959879D01*
X156266637Y-95074877D01*
X156211171Y-95208787D01*
X156211170Y-95208791D01*
X156192250Y-95352499D01*
X156192250Y-95352500D01*
X156211170Y-95496208D01*
X156211171Y-95496212D01*
X156266637Y-95630122D01*
X156266638Y-95630124D01*
X156266639Y-95630125D01*
X156354879Y-95745121D01*
X156469875Y-95833361D01*
X156469876Y-95833361D01*
X156469877Y-95833362D01*
X156568443Y-95874189D01*
X156622847Y-95918030D01*
X156644912Y-95984324D01*
X156627633Y-96052023D01*
X156576496Y-96099634D01*
X156568443Y-96103311D01*
X156469877Y-96144137D01*
X156354879Y-96232379D01*
X156266637Y-96347377D01*
X156211171Y-96481287D01*
X156211170Y-96481291D01*
X156192250Y-96624999D01*
X156192250Y-96625000D01*
X156211170Y-96768708D01*
X156211171Y-96768712D01*
X156266637Y-96902622D01*
X156266638Y-96902624D01*
X156266639Y-96902625D01*
X156354879Y-97017621D01*
X156469875Y-97105861D01*
X156501885Y-97119120D01*
X156565425Y-97145439D01*
X156619829Y-97189280D01*
X156641894Y-97255574D01*
X156624615Y-97323273D01*
X156573478Y-97370884D01*
X156565425Y-97374561D01*
X156469878Y-97414137D01*
X156469875Y-97414138D01*
X156469875Y-97414139D01*
X156435538Y-97440487D01*
X156354879Y-97502379D01*
X156266637Y-97617377D01*
X156211171Y-97751287D01*
X156211170Y-97751291D01*
X156202783Y-97814999D01*
X156192250Y-97895000D01*
X156200637Y-97958708D01*
X156211170Y-98038708D01*
X156211171Y-98038712D01*
X156266637Y-98172622D01*
X156266638Y-98172624D01*
X156266639Y-98172625D01*
X156354879Y-98287621D01*
X156469875Y-98375861D01*
X156501885Y-98389120D01*
X156565425Y-98415439D01*
X156619829Y-98459280D01*
X156641894Y-98525574D01*
X156624615Y-98593273D01*
X156573478Y-98640884D01*
X156565425Y-98644561D01*
X156469878Y-98684137D01*
X156354879Y-98772379D01*
X156266637Y-98887377D01*
X156211171Y-99021287D01*
X156211170Y-99021291D01*
X156192250Y-99164999D01*
X156192250Y-99165000D01*
X156211170Y-99308708D01*
X156211171Y-99308712D01*
X156266637Y-99442622D01*
X156266638Y-99442624D01*
X156266639Y-99442625D01*
X156354879Y-99557621D01*
X156469875Y-99645861D01*
X156501885Y-99659120D01*
X156565425Y-99685439D01*
X156619829Y-99729280D01*
X156641894Y-99795574D01*
X156624615Y-99863273D01*
X156573478Y-99910884D01*
X156565425Y-99914561D01*
X156469878Y-99954137D01*
X156354879Y-100042379D01*
X156266637Y-100157377D01*
X156211171Y-100291287D01*
X156211170Y-100291291D01*
X156192250Y-100434999D01*
X156192250Y-100435000D01*
X156211170Y-100578708D01*
X156211171Y-100578712D01*
X156266637Y-100712622D01*
X156266638Y-100712624D01*
X156266639Y-100712625D01*
X156354879Y-100827621D01*
X156469875Y-100915861D01*
X156501885Y-100929120D01*
X156565425Y-100955439D01*
X156619829Y-100999280D01*
X156641894Y-101065574D01*
X156624615Y-101133273D01*
X156573478Y-101180884D01*
X156565425Y-101184561D01*
X156469878Y-101224137D01*
X156354879Y-101312379D01*
X156266637Y-101427377D01*
X156211171Y-101561287D01*
X156211170Y-101561291D01*
X156192250Y-101705000D01*
X156209149Y-101833362D01*
X156211170Y-101848708D01*
X156211171Y-101848712D01*
X156266637Y-101982622D01*
X156266638Y-101982624D01*
X156266639Y-101982625D01*
X156354879Y-102097621D01*
X156469875Y-102185861D01*
X156501885Y-102199120D01*
X156565425Y-102225439D01*
X156619829Y-102269280D01*
X156641894Y-102335574D01*
X156624615Y-102403273D01*
X156573478Y-102450884D01*
X156565425Y-102454561D01*
X156469878Y-102494137D01*
X156469875Y-102494138D01*
X156469875Y-102494139D01*
X156374511Y-102567315D01*
X156354879Y-102582379D01*
X156266637Y-102697377D01*
X156211171Y-102831287D01*
X156211170Y-102831291D01*
X156192250Y-102974999D01*
X156192250Y-102975000D01*
X156211170Y-103118708D01*
X156211171Y-103118712D01*
X156266637Y-103252622D01*
X156266638Y-103252624D01*
X156266639Y-103252625D01*
X156354879Y-103367621D01*
X156469875Y-103455861D01*
X156603791Y-103511330D01*
X156730780Y-103528048D01*
X156747499Y-103530250D01*
X156747500Y-103530250D01*
X156747501Y-103530250D01*
X156762477Y-103528278D01*
X156891209Y-103511330D01*
X157025125Y-103455861D01*
X157140121Y-103367621D01*
X157228361Y-103252625D01*
X157283830Y-103118709D01*
X157302750Y-102975000D01*
X157283830Y-102831291D01*
X157228361Y-102697375D01*
X157140121Y-102582379D01*
X157025125Y-102494139D01*
X157025124Y-102494138D01*
X157025122Y-102494137D01*
X156929574Y-102454561D01*
X156875170Y-102410721D01*
X156853105Y-102344427D01*
X156870384Y-102276727D01*
X156921521Y-102229116D01*
X156929574Y-102225439D01*
X156950352Y-102216832D01*
X157025125Y-102185861D01*
X157140121Y-102097621D01*
X157228361Y-101982625D01*
X157283830Y-101848709D01*
X157302750Y-101705000D01*
X157283830Y-101561291D01*
X157228361Y-101427375D01*
X157170907Y-101352500D01*
X174942250Y-101352500D01*
X174960543Y-101491450D01*
X174961170Y-101496208D01*
X174961171Y-101496212D01*
X175016637Y-101630122D01*
X175016638Y-101630124D01*
X175016639Y-101630125D01*
X175104879Y-101745121D01*
X175219875Y-101833361D01*
X175353791Y-101888830D01*
X175480780Y-101905548D01*
X175497499Y-101907750D01*
X175497500Y-101907750D01*
X175497501Y-101907750D01*
X175512477Y-101905778D01*
X175641209Y-101888830D01*
X175775125Y-101833361D01*
X175890121Y-101745121D01*
X175978361Y-101630125D01*
X176033830Y-101496209D01*
X176052750Y-101352500D01*
X176033830Y-101208791D01*
X175978361Y-101074875D01*
X175890121Y-100959879D01*
X175818602Y-100905000D01*
X177221917Y-100905000D01*
X177242199Y-101110932D01*
X177259714Y-101168670D01*
X177302268Y-101308954D01*
X177399815Y-101491450D01*
X177399817Y-101491452D01*
X177531089Y-101651410D01*
X177596390Y-101705000D01*
X177691050Y-101782685D01*
X177873546Y-101880232D01*
X178071566Y-101940300D01*
X178071565Y-101940300D01*
X178090029Y-101942118D01*
X178277500Y-101960583D01*
X178483434Y-101940300D01*
X178681454Y-101880232D01*
X178863950Y-101782685D01*
X179023910Y-101651410D01*
X179155185Y-101491450D01*
X179252732Y-101308954D01*
X179312800Y-101110934D01*
X179333083Y-100905000D01*
X179312800Y-100699066D01*
X179252732Y-100501046D01*
X179155185Y-100318550D01*
X179103202Y-100255209D01*
X179023910Y-100158589D01*
X178906177Y-100061969D01*
X178863950Y-100027315D01*
X178681454Y-99929768D01*
X178483434Y-99869700D01*
X178483432Y-99869699D01*
X178483434Y-99869699D01*
X178277500Y-99849417D01*
X178071567Y-99869699D01*
X177873543Y-99929769D01*
X177827955Y-99954137D01*
X177691050Y-100027315D01*
X177691048Y-100027316D01*
X177691047Y-100027317D01*
X177531089Y-100158589D01*
X177399817Y-100318547D01*
X177302269Y-100501043D01*
X177242199Y-100699067D01*
X177221917Y-100905000D01*
X175818602Y-100905000D01*
X175775125Y-100871639D01*
X175775124Y-100871638D01*
X175775122Y-100871637D01*
X175641212Y-100816171D01*
X175641210Y-100816170D01*
X175641209Y-100816170D01*
X175569354Y-100806710D01*
X175497501Y-100797250D01*
X175497499Y-100797250D01*
X175353791Y-100816170D01*
X175353787Y-100816171D01*
X175219877Y-100871637D01*
X175104879Y-100959879D01*
X175016637Y-101074877D01*
X174961171Y-101208787D01*
X174961170Y-101208791D01*
X174942250Y-101352500D01*
X157170907Y-101352500D01*
X157140121Y-101312379D01*
X157025125Y-101224139D01*
X157025124Y-101224138D01*
X157025122Y-101224137D01*
X156929574Y-101184561D01*
X156875170Y-101140721D01*
X156853105Y-101074427D01*
X156870384Y-101006727D01*
X156921521Y-100959116D01*
X156929574Y-100955439D01*
X156990695Y-100930122D01*
X157025125Y-100915861D01*
X157140121Y-100827621D01*
X157228361Y-100712625D01*
X157283830Y-100578709D01*
X157302750Y-100435000D01*
X157283830Y-100291291D01*
X157234269Y-100171639D01*
X157228362Y-100157377D01*
X157228361Y-100157376D01*
X157228361Y-100157375D01*
X157140121Y-100042379D01*
X157025125Y-99954139D01*
X157025124Y-99954138D01*
X157025122Y-99954137D01*
X156929574Y-99914561D01*
X156875170Y-99870721D01*
X156853105Y-99804427D01*
X156870384Y-99736727D01*
X156921521Y-99689116D01*
X156929574Y-99685439D01*
X156950352Y-99676832D01*
X157025125Y-99645861D01*
X157140121Y-99557621D01*
X157228361Y-99442625D01*
X157283830Y-99308709D01*
X157302750Y-99165000D01*
X157283830Y-99021291D01*
X157228361Y-98887375D01*
X157140121Y-98772379D01*
X157025125Y-98684139D01*
X157025124Y-98684138D01*
X157025122Y-98684137D01*
X156929574Y-98644561D01*
X156875170Y-98600721D01*
X156853105Y-98534427D01*
X156870384Y-98466727D01*
X156921521Y-98419116D01*
X156929574Y-98415439D01*
X156961514Y-98402209D01*
X157025125Y-98375861D01*
X157039279Y-98365000D01*
X177221917Y-98365000D01*
X177242199Y-98570932D01*
X177259714Y-98628670D01*
X177302268Y-98768954D01*
X177399815Y-98951450D01*
X177399817Y-98951452D01*
X177531089Y-99111410D01*
X177596390Y-99165000D01*
X177691050Y-99242685D01*
X177873546Y-99340232D01*
X178071566Y-99400300D01*
X178071565Y-99400300D01*
X178090029Y-99402118D01*
X178277500Y-99420583D01*
X178483434Y-99400300D01*
X178681454Y-99340232D01*
X178863950Y-99242685D01*
X179023910Y-99111410D01*
X179155185Y-98951450D01*
X179252732Y-98768954D01*
X179312800Y-98570934D01*
X179333083Y-98365000D01*
X179312800Y-98159066D01*
X179252732Y-97961046D01*
X179155185Y-97778550D01*
X179103202Y-97715209D01*
X179023910Y-97618589D01*
X178906177Y-97521969D01*
X178863950Y-97487315D01*
X178681454Y-97389768D01*
X178483434Y-97329700D01*
X178483432Y-97329699D01*
X178483434Y-97329699D01*
X178277500Y-97309417D01*
X178071567Y-97329699D01*
X177873543Y-97389769D01*
X177778662Y-97440485D01*
X177691050Y-97487315D01*
X177691048Y-97487316D01*
X177691047Y-97487317D01*
X177531089Y-97618589D01*
X177399817Y-97778547D01*
X177399815Y-97778550D01*
X177380332Y-97815000D01*
X177302269Y-97961043D01*
X177242199Y-98159067D01*
X177221917Y-98365000D01*
X157039279Y-98365000D01*
X157140121Y-98287621D01*
X157228361Y-98172625D01*
X157283830Y-98038709D01*
X157302750Y-97895000D01*
X157283830Y-97751291D01*
X157228361Y-97617375D01*
X157140121Y-97502379D01*
X157025125Y-97414139D01*
X157025124Y-97414138D01*
X157025122Y-97414137D01*
X156929574Y-97374561D01*
X156875170Y-97330721D01*
X156853105Y-97264427D01*
X156870384Y-97196727D01*
X156921521Y-97149116D01*
X156929574Y-97145439D01*
X156950352Y-97136832D01*
X157025125Y-97105861D01*
X157140121Y-97017621D01*
X157228361Y-96902625D01*
X157283830Y-96768709D01*
X157302750Y-96625000D01*
X157283830Y-96481291D01*
X157228361Y-96347375D01*
X157140121Y-96232379D01*
X157025125Y-96144139D01*
X157025124Y-96144138D01*
X157025122Y-96144137D01*
X156926556Y-96103311D01*
X156872152Y-96059471D01*
X156850087Y-95993177D01*
X156867366Y-95925477D01*
X156918503Y-95877866D01*
X156926556Y-95874189D01*
X156978919Y-95852500D01*
X165092250Y-95852500D01*
X165110935Y-95994427D01*
X165111170Y-95996208D01*
X165111171Y-95996212D01*
X165166637Y-96130122D01*
X165166638Y-96130124D01*
X165166639Y-96130125D01*
X165254879Y-96245121D01*
X165369875Y-96333361D01*
X165503791Y-96388830D01*
X165630780Y-96405548D01*
X165647499Y-96407750D01*
X165647500Y-96407750D01*
X165647501Y-96407750D01*
X165662477Y-96405778D01*
X165791209Y-96388830D01*
X165925125Y-96333361D01*
X166040121Y-96245121D01*
X166128361Y-96130125D01*
X166183830Y-95996209D01*
X166202750Y-95852500D01*
X166199129Y-95825000D01*
X177221917Y-95825000D01*
X177242199Y-96030932D01*
X177259714Y-96088670D01*
X177302268Y-96228954D01*
X177399815Y-96411450D01*
X177399817Y-96411452D01*
X177531089Y-96571410D01*
X177596390Y-96625000D01*
X177691050Y-96702685D01*
X177873546Y-96800232D01*
X178071566Y-96860300D01*
X178071565Y-96860300D01*
X178090029Y-96862118D01*
X178277500Y-96880583D01*
X178483434Y-96860300D01*
X178681454Y-96800232D01*
X178863950Y-96702685D01*
X179023910Y-96571410D01*
X179155185Y-96411450D01*
X179252732Y-96228954D01*
X179312800Y-96030934D01*
X179333083Y-95825000D01*
X179761917Y-95825000D01*
X179782199Y-96030932D01*
X179799714Y-96088670D01*
X179842268Y-96228954D01*
X179939815Y-96411450D01*
X179939817Y-96411452D01*
X180071089Y-96571410D01*
X180136390Y-96625000D01*
X180231050Y-96702685D01*
X180413546Y-96800232D01*
X180611566Y-96860300D01*
X180611565Y-96860300D01*
X180630029Y-96862118D01*
X180817500Y-96880583D01*
X181023434Y-96860300D01*
X181221454Y-96800232D01*
X181403950Y-96702685D01*
X181563910Y-96571410D01*
X181695185Y-96411450D01*
X181792732Y-96228954D01*
X181852800Y-96030934D01*
X181873083Y-95825000D01*
X181852800Y-95619066D01*
X181792732Y-95421046D01*
X181695185Y-95238550D01*
X181643202Y-95175209D01*
X181563910Y-95078589D01*
X181446177Y-94981969D01*
X181403950Y-94947315D01*
X181221454Y-94849768D01*
X181023434Y-94789700D01*
X181023432Y-94789699D01*
X181023434Y-94789699D01*
X180817500Y-94769417D01*
X180611567Y-94789699D01*
X180413543Y-94849769D01*
X180367955Y-94874137D01*
X180231050Y-94947315D01*
X180231048Y-94947316D01*
X180231047Y-94947317D01*
X180071089Y-95078589D01*
X179939817Y-95238547D01*
X179939815Y-95238550D01*
X179908439Y-95297250D01*
X179842269Y-95421043D01*
X179782199Y-95619067D01*
X179761917Y-95825000D01*
X179333083Y-95825000D01*
X179312800Y-95619066D01*
X179252732Y-95421046D01*
X179155185Y-95238550D01*
X179103202Y-95175209D01*
X179023910Y-95078589D01*
X178906177Y-94981969D01*
X178863950Y-94947315D01*
X178681454Y-94849768D01*
X178483434Y-94789700D01*
X178483432Y-94789699D01*
X178483434Y-94789699D01*
X178277500Y-94769417D01*
X178071567Y-94789699D01*
X177873543Y-94849769D01*
X177827955Y-94874137D01*
X177691050Y-94947315D01*
X177691048Y-94947316D01*
X177691047Y-94947317D01*
X177531089Y-95078589D01*
X177399817Y-95238547D01*
X177399815Y-95238550D01*
X177368439Y-95297250D01*
X177302269Y-95421043D01*
X177242199Y-95619067D01*
X177221917Y-95825000D01*
X166199129Y-95825000D01*
X166183830Y-95708791D01*
X166128361Y-95574875D01*
X166040121Y-95459879D01*
X165925125Y-95371639D01*
X165925124Y-95371638D01*
X165925122Y-95371637D01*
X165791212Y-95316171D01*
X165791210Y-95316170D01*
X165791209Y-95316170D01*
X165667340Y-95299862D01*
X165647501Y-95297250D01*
X165647499Y-95297250D01*
X165503791Y-95316170D01*
X165503787Y-95316171D01*
X165369877Y-95371637D01*
X165254879Y-95459879D01*
X165166637Y-95574877D01*
X165111171Y-95708787D01*
X165111170Y-95708791D01*
X165094441Y-95835861D01*
X165092250Y-95852500D01*
X156978919Y-95852500D01*
X157025125Y-95833361D01*
X157140121Y-95745121D01*
X157228361Y-95630125D01*
X157283830Y-95496209D01*
X157302750Y-95352500D01*
X157302750Y-95352499D01*
X157302750Y-95344371D01*
X157306549Y-95344371D01*
X157313888Y-95292918D01*
X157339056Y-95256624D01*
X158027970Y-94567712D01*
X158074114Y-94487788D01*
X158082098Y-94457992D01*
X158098000Y-94398644D01*
X158098000Y-93285000D01*
X177221917Y-93285000D01*
X177242199Y-93490932D01*
X177259605Y-93548312D01*
X177302268Y-93688954D01*
X177399815Y-93871450D01*
X177399817Y-93871452D01*
X177531089Y-94031410D01*
X177596390Y-94085000D01*
X177691050Y-94162685D01*
X177873546Y-94260232D01*
X178071566Y-94320300D01*
X178071565Y-94320300D01*
X178090029Y-94322118D01*
X178277500Y-94340583D01*
X178483434Y-94320300D01*
X178681454Y-94260232D01*
X178863950Y-94162685D01*
X179023910Y-94031410D01*
X179155185Y-93871450D01*
X179252732Y-93688954D01*
X179312800Y-93490934D01*
X179333083Y-93285000D01*
X179761917Y-93285000D01*
X179782199Y-93490932D01*
X179799605Y-93548312D01*
X179842268Y-93688954D01*
X179939815Y-93871450D01*
X179939817Y-93871452D01*
X180071089Y-94031410D01*
X180136390Y-94085000D01*
X180231050Y-94162685D01*
X180413546Y-94260232D01*
X180611566Y-94320300D01*
X180611565Y-94320300D01*
X180630029Y-94322118D01*
X180817500Y-94340583D01*
X181023434Y-94320300D01*
X181221454Y-94260232D01*
X181403950Y-94162685D01*
X181563910Y-94031410D01*
X181695185Y-93871450D01*
X181792732Y-93688954D01*
X181852800Y-93490934D01*
X181873083Y-93285000D01*
X181852800Y-93079066D01*
X181792732Y-92881046D01*
X181695185Y-92698550D01*
X181631811Y-92621328D01*
X181563910Y-92538589D01*
X181446177Y-92441969D01*
X181403950Y-92407315D01*
X181221454Y-92309768D01*
X181023434Y-92249700D01*
X181023432Y-92249699D01*
X181023434Y-92249699D01*
X180817500Y-92229417D01*
X180611567Y-92249699D01*
X180413543Y-92309769D01*
X180367955Y-92334137D01*
X180231050Y-92407315D01*
X180231048Y-92407316D01*
X180231047Y-92407317D01*
X180071089Y-92538589D01*
X179939817Y-92698547D01*
X179842269Y-92881043D01*
X179782199Y-93079067D01*
X179761917Y-93285000D01*
X179333083Y-93285000D01*
X179312800Y-93079066D01*
X179252732Y-92881046D01*
X179155185Y-92698550D01*
X179091811Y-92621328D01*
X179023910Y-92538589D01*
X178906177Y-92441969D01*
X178863950Y-92407315D01*
X178681454Y-92309768D01*
X178483434Y-92249700D01*
X178483432Y-92249699D01*
X178483434Y-92249699D01*
X178277500Y-92229417D01*
X178071567Y-92249699D01*
X177873543Y-92309769D01*
X177827955Y-92334137D01*
X177691050Y-92407315D01*
X177691048Y-92407316D01*
X177691047Y-92407317D01*
X177531089Y-92538589D01*
X177399817Y-92698547D01*
X177302269Y-92881043D01*
X177242199Y-93079067D01*
X177221917Y-93285000D01*
X158098000Y-93285000D01*
X158098000Y-92206356D01*
X158074114Y-92117212D01*
X158064321Y-92100250D01*
X158064321Y-92100249D01*
X158055517Y-92085000D01*
X170992250Y-92085000D01*
X170996490Y-92117209D01*
X171011170Y-92228708D01*
X171011171Y-92228712D01*
X171066637Y-92362622D01*
X171066638Y-92362624D01*
X171066639Y-92362625D01*
X171154879Y-92477621D01*
X171269875Y-92565861D01*
X171403791Y-92621330D01*
X171530780Y-92638048D01*
X171547499Y-92640250D01*
X171547500Y-92640250D01*
X171547501Y-92640250D01*
X171562477Y-92638278D01*
X171691209Y-92621330D01*
X171825125Y-92565861D01*
X171940121Y-92477621D01*
X172028361Y-92362625D01*
X172083830Y-92228709D01*
X172102750Y-92085000D01*
X172083830Y-91941291D01*
X172034678Y-91822625D01*
X172028362Y-91807377D01*
X172028361Y-91807376D01*
X172028361Y-91807375D01*
X171940121Y-91692379D01*
X171825125Y-91604139D01*
X171825124Y-91604138D01*
X171825122Y-91604137D01*
X171691212Y-91548671D01*
X171691210Y-91548670D01*
X171691209Y-91548670D01*
X171619354Y-91539210D01*
X171547501Y-91529750D01*
X171547499Y-91529750D01*
X171403791Y-91548670D01*
X171403787Y-91548671D01*
X171269877Y-91604137D01*
X171154879Y-91692379D01*
X171066637Y-91807377D01*
X171011171Y-91941287D01*
X171011170Y-91941291D01*
X170998532Y-92037288D01*
X170992250Y-92085000D01*
X158055517Y-92085000D01*
X158027974Y-92037294D01*
X158027968Y-92037286D01*
X156735682Y-90745000D01*
X172192250Y-90745000D01*
X172204655Y-90839227D01*
X172211170Y-90888708D01*
X172211171Y-90888712D01*
X172266637Y-91022622D01*
X172266638Y-91022624D01*
X172266639Y-91022625D01*
X172354879Y-91137621D01*
X172469875Y-91225861D01*
X172603791Y-91281330D01*
X172730780Y-91298048D01*
X172747499Y-91300250D01*
X172747500Y-91300250D01*
X172747501Y-91300250D01*
X172762477Y-91298278D01*
X172891209Y-91281330D01*
X173025125Y-91225861D01*
X173140121Y-91137621D01*
X173228361Y-91022625D01*
X173283830Y-90888709D01*
X173302750Y-90745000D01*
X177221917Y-90745000D01*
X177242199Y-90950932D01*
X177259714Y-91008670D01*
X177302268Y-91148954D01*
X177399815Y-91331450D01*
X177399817Y-91331452D01*
X177531089Y-91491410D01*
X177605529Y-91552500D01*
X177691050Y-91622685D01*
X177873546Y-91720232D01*
X178071566Y-91780300D01*
X178071565Y-91780300D01*
X178090029Y-91782118D01*
X178277500Y-91800583D01*
X178483434Y-91780300D01*
X178681454Y-91720232D01*
X178863950Y-91622685D01*
X179023910Y-91491410D01*
X179155185Y-91331450D01*
X179252732Y-91148954D01*
X179312800Y-90950934D01*
X179333083Y-90745000D01*
X179761917Y-90745000D01*
X179782199Y-90950932D01*
X179799714Y-91008670D01*
X179842268Y-91148954D01*
X179939815Y-91331450D01*
X179939817Y-91331452D01*
X180071089Y-91491410D01*
X180145529Y-91552500D01*
X180231050Y-91622685D01*
X180413546Y-91720232D01*
X180611566Y-91780300D01*
X180611565Y-91780300D01*
X180630029Y-91782118D01*
X180817500Y-91800583D01*
X181023434Y-91780300D01*
X181221454Y-91720232D01*
X181403950Y-91622685D01*
X181563910Y-91491410D01*
X181695185Y-91331450D01*
X181792732Y-91148954D01*
X181852800Y-90950934D01*
X181873083Y-90745000D01*
X181852800Y-90539066D01*
X181792732Y-90341046D01*
X181695185Y-90158550D01*
X181624178Y-90072027D01*
X181563910Y-89998589D01*
X181446177Y-89901969D01*
X181403950Y-89867315D01*
X181221454Y-89769768D01*
X181023434Y-89709700D01*
X181023432Y-89709699D01*
X181023434Y-89709699D01*
X180817500Y-89689417D01*
X180611567Y-89709699D01*
X180413543Y-89769769D01*
X180326733Y-89816171D01*
X180231050Y-89867315D01*
X180231048Y-89867316D01*
X180231047Y-89867317D01*
X180071089Y-89998589D01*
X179939817Y-90158547D01*
X179939815Y-90158550D01*
X179901143Y-90230898D01*
X179842269Y-90341043D01*
X179782199Y-90539067D01*
X179761917Y-90745000D01*
X179333083Y-90745000D01*
X179312800Y-90539066D01*
X179252732Y-90341046D01*
X179155185Y-90158550D01*
X179084178Y-90072027D01*
X179023910Y-89998589D01*
X178906177Y-89901969D01*
X178863950Y-89867315D01*
X178681454Y-89769768D01*
X178483434Y-89709700D01*
X178483432Y-89709699D01*
X178483434Y-89709699D01*
X178277500Y-89689417D01*
X178071567Y-89709699D01*
X177873543Y-89769769D01*
X177786733Y-89816171D01*
X177691050Y-89867315D01*
X177691048Y-89867316D01*
X177691047Y-89867317D01*
X177531089Y-89998589D01*
X177399817Y-90158547D01*
X177399815Y-90158550D01*
X177361143Y-90230898D01*
X177302269Y-90341043D01*
X177242199Y-90539067D01*
X177221917Y-90745000D01*
X173302750Y-90745000D01*
X173283830Y-90601291D01*
X173246850Y-90512013D01*
X173228362Y-90467377D01*
X173228361Y-90467376D01*
X173228361Y-90467375D01*
X173140121Y-90352379D01*
X173025125Y-90264139D01*
X173025124Y-90264138D01*
X173025122Y-90264137D01*
X172891212Y-90208671D01*
X172891210Y-90208670D01*
X172891209Y-90208670D01*
X172819354Y-90199210D01*
X172747501Y-90189750D01*
X172747499Y-90189750D01*
X172603791Y-90208670D01*
X172603787Y-90208671D01*
X172469877Y-90264137D01*
X172354879Y-90352379D01*
X172266637Y-90467377D01*
X172211171Y-90601287D01*
X172211170Y-90601291D01*
X172197780Y-90703000D01*
X172192250Y-90745000D01*
X156735682Y-90745000D01*
X154662713Y-88672031D01*
X154662708Y-88672027D01*
X154582790Y-88625887D01*
X154582789Y-88625886D01*
X154582788Y-88625886D01*
X154493644Y-88602000D01*
X154493643Y-88602000D01*
X143351150Y-88602000D01*
X143284111Y-88582315D01*
X143263469Y-88565681D01*
X142902788Y-88205000D01*
X177221917Y-88205000D01*
X177242199Y-88410932D01*
X177242200Y-88410934D01*
X177302268Y-88608954D01*
X177399815Y-88791450D01*
X177399817Y-88791452D01*
X177531089Y-88951410D01*
X177627709Y-89030702D01*
X177691050Y-89082685D01*
X177873546Y-89180232D01*
X178071566Y-89240300D01*
X178071565Y-89240300D01*
X178090029Y-89242118D01*
X178277500Y-89260583D01*
X178483434Y-89240300D01*
X178681454Y-89180232D01*
X178863950Y-89082685D01*
X179023910Y-88951410D01*
X179155185Y-88791450D01*
X179252732Y-88608954D01*
X179312800Y-88410934D01*
X179333083Y-88205000D01*
X179761917Y-88205000D01*
X179782199Y-88410932D01*
X179782200Y-88410934D01*
X179842268Y-88608954D01*
X179939815Y-88791450D01*
X179939817Y-88791452D01*
X180071089Y-88951410D01*
X180167709Y-89030702D01*
X180231050Y-89082685D01*
X180413546Y-89180232D01*
X180611566Y-89240300D01*
X180611565Y-89240300D01*
X180630029Y-89242118D01*
X180817500Y-89260583D01*
X181023434Y-89240300D01*
X181221454Y-89180232D01*
X181403950Y-89082685D01*
X181563910Y-88951410D01*
X181695185Y-88791450D01*
X181792732Y-88608954D01*
X181852800Y-88410934D01*
X181873083Y-88205000D01*
X181852800Y-87999066D01*
X181792732Y-87801046D01*
X181695185Y-87618550D01*
X181643202Y-87555209D01*
X181563910Y-87458589D01*
X181425647Y-87345121D01*
X181403950Y-87327315D01*
X181221454Y-87229768D01*
X181023434Y-87169700D01*
X181023432Y-87169699D01*
X181023434Y-87169699D01*
X180817500Y-87149417D01*
X180611567Y-87169699D01*
X180413543Y-87229769D01*
X180303398Y-87288643D01*
X180231050Y-87327315D01*
X180231048Y-87327316D01*
X180231047Y-87327317D01*
X180071089Y-87458589D01*
X179939817Y-87618547D01*
X179842269Y-87801043D01*
X179782199Y-87999067D01*
X179761917Y-88205000D01*
X179333083Y-88205000D01*
X179312800Y-87999066D01*
X179252732Y-87801046D01*
X179155185Y-87618550D01*
X179103202Y-87555209D01*
X179023910Y-87458589D01*
X178885647Y-87345121D01*
X178863950Y-87327315D01*
X178681454Y-87229768D01*
X178483434Y-87169700D01*
X178483432Y-87169699D01*
X178483434Y-87169699D01*
X178277500Y-87149417D01*
X178071567Y-87169699D01*
X177873543Y-87229769D01*
X177763398Y-87288643D01*
X177691050Y-87327315D01*
X177691048Y-87327316D01*
X177691047Y-87327317D01*
X177531089Y-87458589D01*
X177399817Y-87618547D01*
X177302269Y-87801043D01*
X177242199Y-87999067D01*
X177221917Y-88205000D01*
X142902788Y-88205000D01*
X141650288Y-86952500D01*
X143827250Y-86952500D01*
X143844058Y-87080170D01*
X143846170Y-87096208D01*
X143846171Y-87096212D01*
X143901637Y-87230122D01*
X143901638Y-87230124D01*
X143901639Y-87230125D01*
X143989879Y-87345121D01*
X144104875Y-87433361D01*
X144238791Y-87488830D01*
X144365780Y-87505548D01*
X144382499Y-87507750D01*
X144382500Y-87507750D01*
X144382501Y-87507750D01*
X144397477Y-87505778D01*
X144526209Y-87488830D01*
X144660125Y-87433361D01*
X144775121Y-87345121D01*
X144863361Y-87230125D01*
X144902939Y-87134574D01*
X144946779Y-87080170D01*
X145013073Y-87058105D01*
X145080773Y-87075384D01*
X145128384Y-87126521D01*
X145132061Y-87134574D01*
X145171637Y-87230122D01*
X145171638Y-87230124D01*
X145171639Y-87230125D01*
X145259879Y-87345121D01*
X145374875Y-87433361D01*
X145508791Y-87488830D01*
X145635780Y-87505548D01*
X145652499Y-87507750D01*
X145652500Y-87507750D01*
X145652501Y-87507750D01*
X145667477Y-87505778D01*
X145796209Y-87488830D01*
X145930125Y-87433361D01*
X146045121Y-87345121D01*
X146133361Y-87230125D01*
X146172939Y-87134574D01*
X146216779Y-87080170D01*
X146283073Y-87058105D01*
X146350773Y-87075384D01*
X146398384Y-87126521D01*
X146402061Y-87134574D01*
X146441637Y-87230122D01*
X146441638Y-87230124D01*
X146441639Y-87230125D01*
X146529879Y-87345121D01*
X146644875Y-87433361D01*
X146778791Y-87488830D01*
X146905780Y-87505548D01*
X146922499Y-87507750D01*
X146922500Y-87507750D01*
X146922501Y-87507750D01*
X146937477Y-87505778D01*
X147066209Y-87488830D01*
X147200125Y-87433361D01*
X147315121Y-87345121D01*
X147403361Y-87230125D01*
X147442939Y-87134574D01*
X147486779Y-87080170D01*
X147553073Y-87058105D01*
X147620773Y-87075384D01*
X147668384Y-87126521D01*
X147672061Y-87134574D01*
X147711637Y-87230122D01*
X147711638Y-87230124D01*
X147711639Y-87230125D01*
X147799879Y-87345121D01*
X147914875Y-87433361D01*
X148048791Y-87488830D01*
X148175780Y-87505548D01*
X148192499Y-87507750D01*
X148192500Y-87507750D01*
X148192501Y-87507750D01*
X148207477Y-87505778D01*
X148336209Y-87488830D01*
X148470125Y-87433361D01*
X148585121Y-87345121D01*
X148673361Y-87230125D01*
X148712939Y-87134574D01*
X148756779Y-87080170D01*
X148823073Y-87058105D01*
X148890773Y-87075384D01*
X148938384Y-87126521D01*
X148942061Y-87134574D01*
X148981637Y-87230122D01*
X148981638Y-87230124D01*
X148981639Y-87230125D01*
X149069879Y-87345121D01*
X149184875Y-87433361D01*
X149318791Y-87488830D01*
X149445780Y-87505548D01*
X149462499Y-87507750D01*
X149462500Y-87507750D01*
X149462501Y-87507750D01*
X149477477Y-87505778D01*
X149606209Y-87488830D01*
X149740125Y-87433361D01*
X149855121Y-87345121D01*
X149943361Y-87230125D01*
X149982939Y-87134574D01*
X150026779Y-87080170D01*
X150093073Y-87058105D01*
X150160773Y-87075384D01*
X150208384Y-87126521D01*
X150212061Y-87134574D01*
X150251637Y-87230122D01*
X150251638Y-87230124D01*
X150251639Y-87230125D01*
X150339879Y-87345121D01*
X150454875Y-87433361D01*
X150588791Y-87488830D01*
X150715780Y-87505548D01*
X150732499Y-87507750D01*
X150732500Y-87507750D01*
X150732501Y-87507750D01*
X150747477Y-87505778D01*
X150876209Y-87488830D01*
X151010125Y-87433361D01*
X151125121Y-87345121D01*
X151213361Y-87230125D01*
X151268830Y-87096209D01*
X151287750Y-86952500D01*
X152717250Y-86952500D01*
X152734058Y-87080170D01*
X152736170Y-87096208D01*
X152736171Y-87096212D01*
X152791637Y-87230122D01*
X152791638Y-87230124D01*
X152791639Y-87230125D01*
X152879879Y-87345121D01*
X152994875Y-87433361D01*
X153128791Y-87488830D01*
X153255780Y-87505548D01*
X153272499Y-87507750D01*
X153272500Y-87507750D01*
X153272501Y-87507750D01*
X153287477Y-87505778D01*
X153416209Y-87488830D01*
X153550125Y-87433361D01*
X153665121Y-87345121D01*
X153753361Y-87230125D01*
X153792939Y-87134574D01*
X153836779Y-87080170D01*
X153903073Y-87058105D01*
X153970773Y-87075384D01*
X154018384Y-87126521D01*
X154022061Y-87134574D01*
X154061637Y-87230122D01*
X154061638Y-87230124D01*
X154061639Y-87230125D01*
X154149879Y-87345121D01*
X154264875Y-87433361D01*
X154398791Y-87488830D01*
X154525780Y-87505548D01*
X154542499Y-87507750D01*
X154542500Y-87507750D01*
X154542501Y-87507750D01*
X154557477Y-87505778D01*
X154686209Y-87488830D01*
X154820125Y-87433361D01*
X154935121Y-87345121D01*
X155023361Y-87230125D01*
X155078830Y-87096209D01*
X155097750Y-86952500D01*
X155078830Y-86808791D01*
X155023361Y-86674875D01*
X154935121Y-86559879D01*
X154820125Y-86471639D01*
X154820124Y-86471638D01*
X154820122Y-86471637D01*
X154686212Y-86416171D01*
X154686210Y-86416170D01*
X154686209Y-86416170D01*
X154614354Y-86406710D01*
X154542501Y-86397250D01*
X154542499Y-86397250D01*
X154398791Y-86416170D01*
X154398787Y-86416171D01*
X154264877Y-86471637D01*
X154149879Y-86559879D01*
X154061637Y-86674878D01*
X154022061Y-86770425D01*
X153978220Y-86824829D01*
X153911926Y-86846894D01*
X153844227Y-86829615D01*
X153796616Y-86778478D01*
X153792939Y-86770425D01*
X153753362Y-86674878D01*
X153753361Y-86674875D01*
X153665121Y-86559879D01*
X153550125Y-86471639D01*
X153550124Y-86471638D01*
X153550122Y-86471637D01*
X153416212Y-86416171D01*
X153416210Y-86416170D01*
X153416209Y-86416170D01*
X153344354Y-86406710D01*
X153272501Y-86397250D01*
X153272499Y-86397250D01*
X153128791Y-86416170D01*
X153128787Y-86416171D01*
X152994877Y-86471637D01*
X152879879Y-86559879D01*
X152791637Y-86674877D01*
X152736171Y-86808787D01*
X152736170Y-86808791D01*
X152717250Y-86952500D01*
X151287750Y-86952500D01*
X151268830Y-86808791D01*
X151213361Y-86674875D01*
X151125121Y-86559879D01*
X151010125Y-86471639D01*
X151010124Y-86471638D01*
X151010122Y-86471637D01*
X150876212Y-86416171D01*
X150876210Y-86416170D01*
X150876209Y-86416170D01*
X150804354Y-86406710D01*
X150732501Y-86397250D01*
X150732499Y-86397250D01*
X150588791Y-86416170D01*
X150588787Y-86416171D01*
X150454877Y-86471637D01*
X150339879Y-86559879D01*
X150251637Y-86674878D01*
X150212061Y-86770425D01*
X150168220Y-86824829D01*
X150101926Y-86846894D01*
X150034227Y-86829615D01*
X149986616Y-86778478D01*
X149982939Y-86770425D01*
X149943362Y-86674878D01*
X149943361Y-86674875D01*
X149855121Y-86559879D01*
X149740125Y-86471639D01*
X149740124Y-86471638D01*
X149740122Y-86471637D01*
X149606212Y-86416171D01*
X149606210Y-86416170D01*
X149606209Y-86416170D01*
X149534354Y-86406710D01*
X149462501Y-86397250D01*
X149462499Y-86397250D01*
X149318791Y-86416170D01*
X149318787Y-86416171D01*
X149184877Y-86471637D01*
X149069879Y-86559879D01*
X148981637Y-86674878D01*
X148942061Y-86770425D01*
X148898220Y-86824829D01*
X148831926Y-86846894D01*
X148764227Y-86829615D01*
X148716616Y-86778478D01*
X148712939Y-86770425D01*
X148673362Y-86674878D01*
X148673361Y-86674875D01*
X148585121Y-86559879D01*
X148470125Y-86471639D01*
X148470124Y-86471638D01*
X148470122Y-86471637D01*
X148336212Y-86416171D01*
X148336210Y-86416170D01*
X148336209Y-86416170D01*
X148264354Y-86406710D01*
X148192501Y-86397250D01*
X148192499Y-86397250D01*
X148048791Y-86416170D01*
X148048787Y-86416171D01*
X147914877Y-86471637D01*
X147799879Y-86559879D01*
X147711637Y-86674878D01*
X147672061Y-86770425D01*
X147628220Y-86824829D01*
X147561926Y-86846894D01*
X147494227Y-86829615D01*
X147446616Y-86778478D01*
X147442939Y-86770425D01*
X147403362Y-86674878D01*
X147403361Y-86674875D01*
X147315121Y-86559879D01*
X147200125Y-86471639D01*
X147200124Y-86471638D01*
X147200122Y-86471637D01*
X147066212Y-86416171D01*
X147066210Y-86416170D01*
X147066209Y-86416170D01*
X146994354Y-86406710D01*
X146922501Y-86397250D01*
X146922499Y-86397250D01*
X146778791Y-86416170D01*
X146778787Y-86416171D01*
X146644877Y-86471637D01*
X146529879Y-86559879D01*
X146441637Y-86674878D01*
X146402061Y-86770425D01*
X146358220Y-86824829D01*
X146291926Y-86846894D01*
X146224227Y-86829615D01*
X146176616Y-86778478D01*
X146172939Y-86770425D01*
X146133362Y-86674878D01*
X146133361Y-86674875D01*
X146045121Y-86559879D01*
X145930125Y-86471639D01*
X145930124Y-86471638D01*
X145930122Y-86471637D01*
X145796212Y-86416171D01*
X145796210Y-86416170D01*
X145796209Y-86416170D01*
X145724354Y-86406710D01*
X145652501Y-86397250D01*
X145652499Y-86397250D01*
X145508791Y-86416170D01*
X145508787Y-86416171D01*
X145374877Y-86471637D01*
X145259879Y-86559879D01*
X145171637Y-86674878D01*
X145132061Y-86770425D01*
X145088220Y-86824829D01*
X145021926Y-86846894D01*
X144954227Y-86829615D01*
X144906616Y-86778478D01*
X144902939Y-86770425D01*
X144863362Y-86674878D01*
X144863361Y-86674875D01*
X144775121Y-86559879D01*
X144660125Y-86471639D01*
X144660124Y-86471638D01*
X144660122Y-86471637D01*
X144526212Y-86416171D01*
X144526210Y-86416170D01*
X144526209Y-86416170D01*
X144454354Y-86406710D01*
X144382501Y-86397250D01*
X144382499Y-86397250D01*
X144238791Y-86416170D01*
X144238787Y-86416171D01*
X144104877Y-86471637D01*
X143989879Y-86559879D01*
X143901637Y-86674877D01*
X143846171Y-86808787D01*
X143846170Y-86808791D01*
X143827250Y-86952500D01*
X141650288Y-86952500D01*
X140300288Y-85602500D01*
X170442250Y-85602500D01*
X170461170Y-85746208D01*
X170461171Y-85746212D01*
X170516637Y-85880122D01*
X170516638Y-85880124D01*
X170516639Y-85880125D01*
X170604879Y-85995121D01*
X170719875Y-86083361D01*
X170853791Y-86138830D01*
X170980780Y-86155548D01*
X170997499Y-86157750D01*
X170997500Y-86157750D01*
X170997501Y-86157750D01*
X171012477Y-86155778D01*
X171141209Y-86138830D01*
X171275125Y-86083361D01*
X171390121Y-85995121D01*
X171478361Y-85880125D01*
X171533830Y-85746209D01*
X171544522Y-85665000D01*
X177221917Y-85665000D01*
X177242199Y-85870932D01*
X177242200Y-85870934D01*
X177302268Y-86068954D01*
X177399815Y-86251450D01*
X177399817Y-86251452D01*
X177531089Y-86411410D01*
X177627709Y-86490702D01*
X177691050Y-86542685D01*
X177873546Y-86640232D01*
X178071566Y-86700300D01*
X178071565Y-86700300D01*
X178090029Y-86702118D01*
X178277500Y-86720583D01*
X178483434Y-86700300D01*
X178681454Y-86640232D01*
X178863950Y-86542685D01*
X179023910Y-86411410D01*
X179155185Y-86251450D01*
X179252732Y-86068954D01*
X179312800Y-85870934D01*
X179333083Y-85665000D01*
X179761917Y-85665000D01*
X179782199Y-85870932D01*
X179782200Y-85870934D01*
X179842268Y-86068954D01*
X179939815Y-86251450D01*
X179939817Y-86251452D01*
X180071089Y-86411410D01*
X180167709Y-86490702D01*
X180231050Y-86542685D01*
X180413546Y-86640232D01*
X180611566Y-86700300D01*
X180611565Y-86700300D01*
X180630029Y-86702118D01*
X180817500Y-86720583D01*
X181023434Y-86700300D01*
X181221454Y-86640232D01*
X181403950Y-86542685D01*
X181563910Y-86411410D01*
X181695185Y-86251450D01*
X181792732Y-86068954D01*
X181852800Y-85870934D01*
X181873083Y-85665000D01*
X181852800Y-85459066D01*
X181792732Y-85261046D01*
X181695185Y-85078550D01*
X181643202Y-85015209D01*
X181563910Y-84918589D01*
X181403952Y-84787317D01*
X181403953Y-84787317D01*
X181403950Y-84787315D01*
X181221454Y-84689768D01*
X181023434Y-84629700D01*
X181023432Y-84629699D01*
X181023434Y-84629699D01*
X180817500Y-84609417D01*
X180611567Y-84629699D01*
X180413543Y-84689769D01*
X180303398Y-84748643D01*
X180231050Y-84787315D01*
X180231048Y-84787316D01*
X180231047Y-84787317D01*
X180071089Y-84918589D01*
X179939817Y-85078547D01*
X179842269Y-85261043D01*
X179782199Y-85459067D01*
X179761917Y-85665000D01*
X179333083Y-85665000D01*
X179312800Y-85459066D01*
X179252732Y-85261046D01*
X179155185Y-85078550D01*
X179103202Y-85015209D01*
X179023910Y-84918589D01*
X178863952Y-84787317D01*
X178863953Y-84787317D01*
X178863950Y-84787315D01*
X178681454Y-84689768D01*
X178483434Y-84629700D01*
X178483432Y-84629699D01*
X178483434Y-84629699D01*
X178277500Y-84609417D01*
X178071567Y-84629699D01*
X177873543Y-84689769D01*
X177763398Y-84748643D01*
X177691050Y-84787315D01*
X177691048Y-84787316D01*
X177691047Y-84787317D01*
X177531089Y-84918589D01*
X177399817Y-85078547D01*
X177302269Y-85261043D01*
X177242199Y-85459067D01*
X177221917Y-85665000D01*
X171544522Y-85665000D01*
X171552750Y-85602500D01*
X171533830Y-85458791D01*
X171478361Y-85324875D01*
X171390121Y-85209879D01*
X171275125Y-85121639D01*
X171275124Y-85121638D01*
X171275122Y-85121637D01*
X171141212Y-85066171D01*
X171141210Y-85066170D01*
X171141209Y-85066170D01*
X171069354Y-85056710D01*
X170997501Y-85047250D01*
X170997499Y-85047250D01*
X170853791Y-85066170D01*
X170853787Y-85066171D01*
X170719877Y-85121637D01*
X170604879Y-85209879D01*
X170516637Y-85324877D01*
X170461171Y-85458787D01*
X170461170Y-85458791D01*
X170442250Y-85602499D01*
X170442250Y-85602500D01*
X140300288Y-85602500D01*
X137822788Y-83125000D01*
X177221917Y-83125000D01*
X177242199Y-83330932D01*
X177242200Y-83330934D01*
X177302268Y-83528954D01*
X177399815Y-83711450D01*
X177399817Y-83711452D01*
X177531089Y-83871410D01*
X177627709Y-83950702D01*
X177691050Y-84002685D01*
X177873546Y-84100232D01*
X178071566Y-84160300D01*
X178071565Y-84160300D01*
X178090029Y-84162118D01*
X178277500Y-84180583D01*
X178483434Y-84160300D01*
X178681454Y-84100232D01*
X178863950Y-84002685D01*
X178873616Y-83994752D01*
X179767000Y-83994752D01*
X179778631Y-84053229D01*
X179778632Y-84053230D01*
X179822947Y-84119552D01*
X179889269Y-84163867D01*
X179889270Y-84163868D01*
X179947747Y-84175499D01*
X179947750Y-84175500D01*
X179947752Y-84175500D01*
X181687250Y-84175500D01*
X181687251Y-84175499D01*
X181702068Y-84172552D01*
X181745729Y-84163868D01*
X181745729Y-84163867D01*
X181745731Y-84163867D01*
X181812052Y-84119552D01*
X181856367Y-84053231D01*
X181856367Y-84053229D01*
X181856368Y-84053229D01*
X181867999Y-83994752D01*
X181868000Y-83994750D01*
X181868000Y-82255249D01*
X181867999Y-82255247D01*
X181856368Y-82196770D01*
X181856367Y-82196769D01*
X181812052Y-82130447D01*
X181745730Y-82086132D01*
X181745729Y-82086131D01*
X181687252Y-82074500D01*
X181687248Y-82074500D01*
X179947752Y-82074500D01*
X179947747Y-82074500D01*
X179889270Y-82086131D01*
X179889269Y-82086132D01*
X179822947Y-82130447D01*
X179778632Y-82196769D01*
X179778631Y-82196770D01*
X179767000Y-82255247D01*
X179767000Y-83994752D01*
X178873616Y-83994752D01*
X179023910Y-83871410D01*
X179155185Y-83711450D01*
X179252732Y-83528954D01*
X179312800Y-83330934D01*
X179333083Y-83125000D01*
X179312800Y-82919066D01*
X179252732Y-82721046D01*
X179155185Y-82538550D01*
X179103202Y-82475209D01*
X179023910Y-82378589D01*
X178873621Y-82255252D01*
X178863950Y-82247315D01*
X178681454Y-82149768D01*
X178483434Y-82089700D01*
X178483432Y-82089699D01*
X178483434Y-82089699D01*
X178277500Y-82069417D01*
X178071567Y-82089699D01*
X177873543Y-82149769D01*
X177785614Y-82196769D01*
X177691050Y-82247315D01*
X177691048Y-82247316D01*
X177691047Y-82247317D01*
X177531089Y-82378589D01*
X177399817Y-82538547D01*
X177302269Y-82721043D01*
X177242199Y-82919067D01*
X177221917Y-83125000D01*
X137822788Y-83125000D01*
X135934319Y-81236531D01*
X135900834Y-81175208D01*
X135898000Y-81148850D01*
X135898000Y-78452500D01*
X143792250Y-78452500D01*
X143811170Y-78596208D01*
X143811171Y-78596212D01*
X143866637Y-78730122D01*
X143866638Y-78730124D01*
X143866639Y-78730125D01*
X143954879Y-78845121D01*
X144069875Y-78933361D01*
X144203791Y-78988830D01*
X144330780Y-79005548D01*
X144347499Y-79007750D01*
X144347500Y-79007750D01*
X144347501Y-79007750D01*
X144362477Y-79005778D01*
X144491209Y-78988830D01*
X144625125Y-78933361D01*
X144740121Y-78845121D01*
X144811192Y-78752500D01*
X177292250Y-78752500D01*
X177311170Y-78896208D01*
X177311171Y-78896212D01*
X177366637Y-79030122D01*
X177366638Y-79030124D01*
X177366639Y-79030125D01*
X177454879Y-79145121D01*
X177569875Y-79233361D01*
X177703791Y-79288830D01*
X177830780Y-79305548D01*
X177847499Y-79307750D01*
X177847500Y-79307750D01*
X177847501Y-79307750D01*
X177862477Y-79305778D01*
X177991209Y-79288830D01*
X178125125Y-79233361D01*
X178240121Y-79145121D01*
X178328361Y-79030125D01*
X178383830Y-78896209D01*
X178402750Y-78752500D01*
X178383830Y-78608791D01*
X178328361Y-78474875D01*
X178240121Y-78359879D01*
X178125125Y-78271639D01*
X178125124Y-78271638D01*
X178125122Y-78271637D01*
X177991212Y-78216171D01*
X177991210Y-78216170D01*
X177991209Y-78216170D01*
X177919354Y-78206710D01*
X177847501Y-78197250D01*
X177847499Y-78197250D01*
X177703791Y-78216170D01*
X177703787Y-78216171D01*
X177569877Y-78271637D01*
X177454879Y-78359879D01*
X177366637Y-78474877D01*
X177311171Y-78608787D01*
X177311170Y-78608791D01*
X177292250Y-78752499D01*
X177292250Y-78752500D01*
X144811192Y-78752500D01*
X144828361Y-78730125D01*
X144883830Y-78596209D01*
X144902750Y-78452500D01*
X144902168Y-78448083D01*
X144894133Y-78387052D01*
X144883830Y-78308791D01*
X144864553Y-78262252D01*
X163357000Y-78262252D01*
X163368631Y-78320729D01*
X163368632Y-78320730D01*
X163412947Y-78387052D01*
X163479269Y-78431367D01*
X163479270Y-78431368D01*
X163537747Y-78442999D01*
X163537750Y-78443000D01*
X163537752Y-78443000D01*
X165277250Y-78443000D01*
X165277251Y-78442999D01*
X165292068Y-78440052D01*
X165335729Y-78431368D01*
X165335729Y-78431367D01*
X165335731Y-78431367D01*
X165402052Y-78387052D01*
X165446367Y-78320731D01*
X165446367Y-78320729D01*
X165446368Y-78320729D01*
X165457999Y-78262252D01*
X165458000Y-78262250D01*
X165458000Y-77392500D01*
X165891917Y-77392500D01*
X165912199Y-77598432D01*
X165912200Y-77598434D01*
X165972268Y-77796454D01*
X166069815Y-77978950D01*
X166069817Y-77978952D01*
X166201089Y-78138910D01*
X166260313Y-78187513D01*
X166361050Y-78270185D01*
X166543546Y-78367732D01*
X166741566Y-78427800D01*
X166741565Y-78427800D01*
X166760029Y-78429618D01*
X166947500Y-78448083D01*
X167153434Y-78427800D01*
X167351454Y-78367732D01*
X167533950Y-78270185D01*
X167693910Y-78138910D01*
X167825185Y-77978950D01*
X167922732Y-77796454D01*
X167982800Y-77598434D01*
X168003083Y-77392500D01*
X167982800Y-77186566D01*
X167922732Y-76988546D01*
X167825185Y-76806050D01*
X167765531Y-76733361D01*
X167693910Y-76646089D01*
X167546365Y-76525004D01*
X167533950Y-76514815D01*
X167351454Y-76417268D01*
X167153434Y-76357200D01*
X167153432Y-76357199D01*
X167153434Y-76357199D01*
X166947500Y-76336917D01*
X166741567Y-76357199D01*
X166543543Y-76417269D01*
X166455614Y-76464269D01*
X166361050Y-76514815D01*
X166361048Y-76514816D01*
X166361047Y-76514817D01*
X166201089Y-76646089D01*
X166069817Y-76806047D01*
X166069815Y-76806050D01*
X166031143Y-76878398D01*
X165972269Y-76988543D01*
X165912199Y-77186567D01*
X165891917Y-77392500D01*
X165458000Y-77392500D01*
X165458000Y-76522749D01*
X165457999Y-76522747D01*
X165446368Y-76464270D01*
X165446367Y-76464269D01*
X165402052Y-76397947D01*
X165335730Y-76353632D01*
X165335729Y-76353631D01*
X165277252Y-76342000D01*
X165277248Y-76342000D01*
X163537752Y-76342000D01*
X163537747Y-76342000D01*
X163479270Y-76353631D01*
X163479269Y-76353632D01*
X163412947Y-76397947D01*
X163368632Y-76464269D01*
X163368631Y-76464270D01*
X163357000Y-76522747D01*
X163357000Y-78262252D01*
X144864553Y-78262252D01*
X144828361Y-78174875D01*
X144740121Y-78059879D01*
X144625125Y-77971639D01*
X144625124Y-77971638D01*
X144625122Y-77971637D01*
X144491212Y-77916171D01*
X144491210Y-77916170D01*
X144491209Y-77916170D01*
X144419354Y-77906710D01*
X144347501Y-77897250D01*
X144347499Y-77897250D01*
X144203791Y-77916170D01*
X144203787Y-77916171D01*
X144069877Y-77971637D01*
X143954879Y-78059879D01*
X143866637Y-78174877D01*
X143811171Y-78308787D01*
X143811170Y-78308791D01*
X143792250Y-78452499D01*
X143792250Y-78452500D01*
X135898000Y-78452500D01*
X135898000Y-76252500D01*
X142392250Y-76252500D01*
X142411170Y-76396208D01*
X142411171Y-76396212D01*
X142466637Y-76530122D01*
X142466638Y-76530124D01*
X142466639Y-76530125D01*
X142554879Y-76645121D01*
X142669875Y-76733361D01*
X142803791Y-76788830D01*
X142930780Y-76805548D01*
X142947499Y-76807750D01*
X142947500Y-76807750D01*
X142947501Y-76807750D01*
X142962477Y-76805778D01*
X143091209Y-76788830D01*
X143225125Y-76733361D01*
X143340121Y-76645121D01*
X143428361Y-76530125D01*
X143483830Y-76396209D01*
X143502750Y-76252500D01*
X143483830Y-76108791D01*
X143444981Y-76015000D01*
X156367250Y-76015000D01*
X156386170Y-76158708D01*
X156386171Y-76158712D01*
X156441637Y-76292622D01*
X156441638Y-76292624D01*
X156441639Y-76292625D01*
X156529879Y-76407621D01*
X156644875Y-76495861D01*
X156778791Y-76551330D01*
X156905780Y-76568048D01*
X156922499Y-76570250D01*
X156922500Y-76570250D01*
X156922501Y-76570250D01*
X156937477Y-76568278D01*
X157066209Y-76551330D01*
X157200125Y-76495861D01*
X157315121Y-76407621D01*
X157403361Y-76292625D01*
X157458830Y-76158709D01*
X157477750Y-76015000D01*
X157458830Y-75871291D01*
X157403361Y-75737375D01*
X157315121Y-75622379D01*
X157200125Y-75534139D01*
X157200124Y-75534138D01*
X157200122Y-75534137D01*
X157066212Y-75478671D01*
X157066210Y-75478670D01*
X157066209Y-75478670D01*
X156994354Y-75469210D01*
X156922501Y-75459750D01*
X156922499Y-75459750D01*
X156778791Y-75478670D01*
X156778787Y-75478671D01*
X156644877Y-75534137D01*
X156529879Y-75622379D01*
X156441637Y-75737377D01*
X156386171Y-75871287D01*
X156386170Y-75871291D01*
X156367250Y-76014999D01*
X156367250Y-76015000D01*
X143444981Y-76015000D01*
X143428361Y-75974875D01*
X143340121Y-75859879D01*
X143225125Y-75771639D01*
X143225124Y-75771638D01*
X143225122Y-75771637D01*
X143091212Y-75716171D01*
X143091210Y-75716170D01*
X143091209Y-75716170D01*
X143019354Y-75706710D01*
X142947501Y-75697250D01*
X142947499Y-75697250D01*
X142803791Y-75716170D01*
X142803787Y-75716171D01*
X142669877Y-75771637D01*
X142554879Y-75859879D01*
X142466637Y-75974877D01*
X142411171Y-76108787D01*
X142411170Y-76108791D01*
X142392250Y-76252499D01*
X142392250Y-76252500D01*
X135898000Y-76252500D01*
X135898000Y-74852500D01*
X163351917Y-74852500D01*
X163372199Y-75058432D01*
X163372200Y-75058434D01*
X163432268Y-75256454D01*
X163529815Y-75438950D01*
X163529817Y-75438952D01*
X163661089Y-75598910D01*
X163689687Y-75622379D01*
X163821050Y-75730185D01*
X164003546Y-75827732D01*
X164201566Y-75887800D01*
X164201565Y-75887800D01*
X164220029Y-75889618D01*
X164407500Y-75908083D01*
X164613434Y-75887800D01*
X164811454Y-75827732D01*
X164993950Y-75730185D01*
X165153910Y-75598910D01*
X165285185Y-75438950D01*
X165382732Y-75256454D01*
X165442800Y-75058434D01*
X165463083Y-74852500D01*
X165891917Y-74852500D01*
X165912199Y-75058432D01*
X165912200Y-75058434D01*
X165972268Y-75256454D01*
X166069815Y-75438950D01*
X166069817Y-75438952D01*
X166201089Y-75598910D01*
X166229687Y-75622379D01*
X166361050Y-75730185D01*
X166543546Y-75827732D01*
X166741566Y-75887800D01*
X166741565Y-75887800D01*
X166760029Y-75889618D01*
X166947500Y-75908083D01*
X167153434Y-75887800D01*
X167351454Y-75827732D01*
X167533950Y-75730185D01*
X167693910Y-75598910D01*
X167825185Y-75438950D01*
X167922732Y-75256454D01*
X167982800Y-75058434D01*
X168003083Y-74852500D01*
X167982800Y-74646566D01*
X167922732Y-74448546D01*
X167825185Y-74266050D01*
X167773202Y-74202709D01*
X167693910Y-74106089D01*
X167533952Y-73974817D01*
X167533953Y-73974817D01*
X167533950Y-73974815D01*
X167351454Y-73877268D01*
X167153434Y-73817200D01*
X167153432Y-73817199D01*
X167153434Y-73817199D01*
X166947500Y-73796917D01*
X166741567Y-73817199D01*
X166543543Y-73877269D01*
X166433398Y-73936143D01*
X166361050Y-73974815D01*
X166361048Y-73974816D01*
X166361047Y-73974817D01*
X166201089Y-74106089D01*
X166069817Y-74266047D01*
X165972269Y-74448543D01*
X165912199Y-74646567D01*
X165891917Y-74852500D01*
X165463083Y-74852500D01*
X165442800Y-74646566D01*
X165382732Y-74448546D01*
X165285185Y-74266050D01*
X165233202Y-74202709D01*
X165153910Y-74106089D01*
X164993952Y-73974817D01*
X164993953Y-73974817D01*
X164993950Y-73974815D01*
X164811454Y-73877268D01*
X164613434Y-73817200D01*
X164613432Y-73817199D01*
X164613434Y-73817199D01*
X164407500Y-73796917D01*
X164201567Y-73817199D01*
X164003543Y-73877269D01*
X163893398Y-73936143D01*
X163821050Y-73974815D01*
X163821048Y-73974816D01*
X163821047Y-73974817D01*
X163661089Y-74106089D01*
X163529817Y-74266047D01*
X163432269Y-74448543D01*
X163372199Y-74646567D01*
X163351917Y-74852500D01*
X135898000Y-74852500D01*
X135898000Y-68615000D01*
X142192250Y-68615000D01*
X142211170Y-68758708D01*
X142211171Y-68758712D01*
X142266637Y-68892622D01*
X142266638Y-68892624D01*
X142266639Y-68892625D01*
X142354879Y-69007621D01*
X142469875Y-69095861D01*
X142603791Y-69151330D01*
X142730780Y-69168048D01*
X142747499Y-69170250D01*
X142747500Y-69170250D01*
X142747501Y-69170250D01*
X142762477Y-69168278D01*
X142891209Y-69151330D01*
X143025125Y-69095861D01*
X143140121Y-69007621D01*
X143228361Y-68892625D01*
X143283830Y-68758709D01*
X143302750Y-68615000D01*
X143283830Y-68471291D01*
X143228361Y-68337375D01*
X143140121Y-68222379D01*
X143025125Y-68134139D01*
X143025124Y-68134138D01*
X143025122Y-68134137D01*
X142891212Y-68078671D01*
X142891210Y-68078670D01*
X142891209Y-68078670D01*
X142819354Y-68069210D01*
X142747501Y-68059750D01*
X142747499Y-68059750D01*
X142603791Y-68078670D01*
X142603787Y-68078671D01*
X142469877Y-68134137D01*
X142354879Y-68222379D01*
X142266637Y-68337377D01*
X142211171Y-68471287D01*
X142211170Y-68471291D01*
X142192250Y-68614999D01*
X142192250Y-68615000D01*
X135898000Y-68615000D01*
X135898000Y-67872252D01*
X163357000Y-67872252D01*
X163368631Y-67930729D01*
X163368632Y-67930730D01*
X163412947Y-67997052D01*
X163479269Y-68041367D01*
X163479270Y-68041368D01*
X163537747Y-68052999D01*
X163537750Y-68053000D01*
X163537752Y-68053000D01*
X165277250Y-68053000D01*
X165277251Y-68052999D01*
X165292068Y-68050052D01*
X165335729Y-68041368D01*
X165335729Y-68041367D01*
X165335731Y-68041367D01*
X165402052Y-67997052D01*
X165446367Y-67930731D01*
X165446367Y-67930729D01*
X165446368Y-67930729D01*
X165457999Y-67872252D01*
X165458000Y-67872250D01*
X165458000Y-67002500D01*
X165891917Y-67002500D01*
X165912199Y-67208432D01*
X165912200Y-67208434D01*
X165972268Y-67406454D01*
X166069815Y-67588950D01*
X166069817Y-67588952D01*
X166201089Y-67748910D01*
X166265291Y-67801598D01*
X166361050Y-67880185D01*
X166543546Y-67977732D01*
X166741566Y-68037800D01*
X166741565Y-68037800D01*
X166760029Y-68039618D01*
X166947500Y-68058083D01*
X167153434Y-68037800D01*
X167351454Y-67977732D01*
X167533950Y-67880185D01*
X167693910Y-67748910D01*
X167825185Y-67588950D01*
X167922732Y-67406454D01*
X167982800Y-67208434D01*
X168003083Y-67002500D01*
X167982800Y-66796566D01*
X167922732Y-66598546D01*
X167825185Y-66416050D01*
X167773202Y-66352709D01*
X167693910Y-66256089D01*
X167543621Y-66132752D01*
X167533950Y-66124815D01*
X167351454Y-66027268D01*
X167153434Y-65967200D01*
X167153432Y-65967199D01*
X167153434Y-65967199D01*
X166947500Y-65946917D01*
X166741567Y-65967199D01*
X166543543Y-66027269D01*
X166455614Y-66074269D01*
X166361050Y-66124815D01*
X166361048Y-66124816D01*
X166361047Y-66124817D01*
X166201089Y-66256089D01*
X166069817Y-66416047D01*
X166069815Y-66416050D01*
X166045679Y-66461205D01*
X165972269Y-66598543D01*
X165912199Y-66796567D01*
X165891917Y-67002500D01*
X165458000Y-67002500D01*
X165458000Y-66132749D01*
X165457999Y-66132747D01*
X165446368Y-66074270D01*
X165446367Y-66074269D01*
X165402052Y-66007947D01*
X165335730Y-65963632D01*
X165335729Y-65963631D01*
X165277252Y-65952000D01*
X165277248Y-65952000D01*
X163537752Y-65952000D01*
X163537747Y-65952000D01*
X163479270Y-65963631D01*
X163479269Y-65963632D01*
X163412947Y-66007947D01*
X163368632Y-66074269D01*
X163368631Y-66074270D01*
X163357000Y-66132747D01*
X163357000Y-67872252D01*
X135898000Y-67872252D01*
X135898000Y-67049044D01*
X135917685Y-66982005D01*
X135934319Y-66961363D01*
X136421106Y-66474576D01*
X136907970Y-65987712D01*
X136954114Y-65907788D01*
X136978000Y-65818643D01*
X136978000Y-65726356D01*
X136978000Y-64403126D01*
X136997685Y-64336087D01*
X137043544Y-64293769D01*
X137213950Y-64202685D01*
X137373910Y-64071410D01*
X137505185Y-63911450D01*
X137602732Y-63728954D01*
X137662800Y-63530934D01*
X137683083Y-63325000D01*
X138111917Y-63325000D01*
X138132199Y-63530932D01*
X138132200Y-63530934D01*
X138192268Y-63728954D01*
X138289815Y-63911450D01*
X138289817Y-63911452D01*
X138421089Y-64071410D01*
X138517709Y-64150702D01*
X138581050Y-64202685D01*
X138763546Y-64300232D01*
X138961566Y-64360300D01*
X138961565Y-64360300D01*
X138980029Y-64362118D01*
X139167500Y-64380583D01*
X139373434Y-64360300D01*
X139571454Y-64300232D01*
X139753950Y-64202685D01*
X139913910Y-64071410D01*
X140045185Y-63911450D01*
X140142732Y-63728954D01*
X140202800Y-63530934D01*
X140223083Y-63325000D01*
X143191917Y-63325000D01*
X143212199Y-63530932D01*
X143212200Y-63530934D01*
X143272268Y-63728954D01*
X143369815Y-63911450D01*
X143369817Y-63911452D01*
X143501089Y-64071410D01*
X143597709Y-64150702D01*
X143661050Y-64202685D01*
X143843546Y-64300232D01*
X144041566Y-64360300D01*
X144041565Y-64360300D01*
X144060029Y-64362118D01*
X144247500Y-64380583D01*
X144453434Y-64360300D01*
X144651454Y-64300232D01*
X144833950Y-64202685D01*
X144993910Y-64071410D01*
X145125185Y-63911450D01*
X145222732Y-63728954D01*
X145282800Y-63530934D01*
X145303083Y-63325000D01*
X145731917Y-63325000D01*
X145752199Y-63530932D01*
X145752200Y-63530934D01*
X145812268Y-63728954D01*
X145909815Y-63911450D01*
X145909817Y-63911452D01*
X146041089Y-64071410D01*
X146137709Y-64150702D01*
X146201050Y-64202685D01*
X146383546Y-64300232D01*
X146581566Y-64360300D01*
X146581565Y-64360300D01*
X146600029Y-64362118D01*
X146787500Y-64380583D01*
X146993434Y-64360300D01*
X147191454Y-64300232D01*
X147373950Y-64202685D01*
X147533910Y-64071410D01*
X147665185Y-63911450D01*
X147762732Y-63728954D01*
X147822800Y-63530934D01*
X147843083Y-63325000D01*
X150811917Y-63325000D01*
X150832199Y-63530932D01*
X150832200Y-63530934D01*
X150892268Y-63728954D01*
X150989815Y-63911450D01*
X150989817Y-63911452D01*
X151121089Y-64071410D01*
X151217709Y-64150702D01*
X151281050Y-64202685D01*
X151463546Y-64300232D01*
X151661566Y-64360300D01*
X151661565Y-64360300D01*
X151680029Y-64362118D01*
X151867500Y-64380583D01*
X152073434Y-64360300D01*
X152271454Y-64300232D01*
X152453950Y-64202685D01*
X152613910Y-64071410D01*
X152745185Y-63911450D01*
X152842732Y-63728954D01*
X152902800Y-63530934D01*
X152923083Y-63325000D01*
X153351917Y-63325000D01*
X153372199Y-63530932D01*
X153372200Y-63530934D01*
X153432268Y-63728954D01*
X153529815Y-63911450D01*
X153529817Y-63911452D01*
X153661089Y-64071410D01*
X153757709Y-64150702D01*
X153821050Y-64202685D01*
X154003546Y-64300232D01*
X154201566Y-64360300D01*
X154201565Y-64360300D01*
X154220029Y-64362118D01*
X154407500Y-64380583D01*
X154613434Y-64360300D01*
X154811454Y-64300232D01*
X154993950Y-64202685D01*
X155153910Y-64071410D01*
X155285185Y-63911450D01*
X155382732Y-63728954D01*
X155442800Y-63530934D01*
X155463083Y-63325000D01*
X155891917Y-63325000D01*
X155912199Y-63530932D01*
X155912200Y-63530934D01*
X155972268Y-63728954D01*
X156069815Y-63911450D01*
X156069817Y-63911452D01*
X156201089Y-64071410D01*
X156297709Y-64150702D01*
X156361050Y-64202685D01*
X156543546Y-64300232D01*
X156741566Y-64360300D01*
X156741565Y-64360300D01*
X156760029Y-64362118D01*
X156947500Y-64380583D01*
X157153434Y-64360300D01*
X157351454Y-64300232D01*
X157533950Y-64202685D01*
X157693910Y-64071410D01*
X157825185Y-63911450D01*
X157922732Y-63728954D01*
X157982800Y-63530934D01*
X158003083Y-63325000D01*
X158431917Y-63325000D01*
X158452199Y-63530932D01*
X158452200Y-63530934D01*
X158512268Y-63728954D01*
X158609815Y-63911450D01*
X158609817Y-63911452D01*
X158741089Y-64071410D01*
X158837709Y-64150702D01*
X158901050Y-64202685D01*
X159083546Y-64300232D01*
X159281566Y-64360300D01*
X159281565Y-64360300D01*
X159300029Y-64362118D01*
X159487500Y-64380583D01*
X159693434Y-64360300D01*
X159891454Y-64300232D01*
X160073950Y-64202685D01*
X160233910Y-64071410D01*
X160365185Y-63911450D01*
X160462732Y-63728954D01*
X160522800Y-63530934D01*
X160543083Y-63325000D01*
X163511917Y-63325000D01*
X163532199Y-63530932D01*
X163532200Y-63530934D01*
X163592268Y-63728954D01*
X163689815Y-63911450D01*
X163689817Y-63911452D01*
X163821089Y-64071410D01*
X163917709Y-64150702D01*
X163981050Y-64202685D01*
X164163546Y-64300232D01*
X164361566Y-64360300D01*
X164361565Y-64360300D01*
X164380029Y-64362118D01*
X164567500Y-64380583D01*
X164773434Y-64360300D01*
X164971454Y-64300232D01*
X165153950Y-64202685D01*
X165313910Y-64071410D01*
X165445185Y-63911450D01*
X165542732Y-63728954D01*
X165602800Y-63530934D01*
X165623083Y-63325000D01*
X168591917Y-63325000D01*
X168612199Y-63530932D01*
X168612200Y-63530934D01*
X168672268Y-63728954D01*
X168769815Y-63911450D01*
X168769817Y-63911452D01*
X168901089Y-64071410D01*
X168997709Y-64150702D01*
X169061050Y-64202685D01*
X169243546Y-64300232D01*
X169441566Y-64360300D01*
X169441565Y-64360300D01*
X169460029Y-64362118D01*
X169647500Y-64380583D01*
X169853434Y-64360300D01*
X170051454Y-64300232D01*
X170233950Y-64202685D01*
X170393910Y-64071410D01*
X170525185Y-63911450D01*
X170622732Y-63728954D01*
X170682800Y-63530934D01*
X170703083Y-63325000D01*
X171131917Y-63325000D01*
X171152199Y-63530932D01*
X171152200Y-63530934D01*
X171212268Y-63728954D01*
X171309815Y-63911450D01*
X171309817Y-63911452D01*
X171441089Y-64071410D01*
X171537709Y-64150702D01*
X171601050Y-64202685D01*
X171783546Y-64300232D01*
X171981566Y-64360300D01*
X171981565Y-64360300D01*
X172000029Y-64362118D01*
X172187500Y-64380583D01*
X172393434Y-64360300D01*
X172591454Y-64300232D01*
X172773950Y-64202685D01*
X172933910Y-64071410D01*
X173065185Y-63911450D01*
X173162732Y-63728954D01*
X173222800Y-63530934D01*
X173243083Y-63325000D01*
X173671917Y-63325000D01*
X173692199Y-63530932D01*
X173692200Y-63530934D01*
X173752268Y-63728954D01*
X173849815Y-63911450D01*
X173849817Y-63911452D01*
X173981089Y-64071410D01*
X174077709Y-64150702D01*
X174141050Y-64202685D01*
X174323546Y-64300232D01*
X174521566Y-64360300D01*
X174521565Y-64360300D01*
X174540029Y-64362118D01*
X174727500Y-64380583D01*
X174933434Y-64360300D01*
X175131454Y-64300232D01*
X175313950Y-64202685D01*
X175473910Y-64071410D01*
X175605185Y-63911450D01*
X175702732Y-63728954D01*
X175762800Y-63530934D01*
X175783083Y-63325000D01*
X175762800Y-63119066D01*
X175702732Y-62921046D01*
X175605185Y-62738550D01*
X175553202Y-62675209D01*
X175473910Y-62578589D01*
X175313952Y-62447317D01*
X175313953Y-62447317D01*
X175313950Y-62447315D01*
X175131454Y-62349768D01*
X174933434Y-62289700D01*
X174933432Y-62289699D01*
X174933434Y-62289699D01*
X174727500Y-62269417D01*
X174521567Y-62289699D01*
X174323543Y-62349769D01*
X174213398Y-62408643D01*
X174141050Y-62447315D01*
X174141048Y-62447316D01*
X174141047Y-62447317D01*
X173981089Y-62578589D01*
X173849817Y-62738547D01*
X173849815Y-62738550D01*
X173819625Y-62795031D01*
X173752269Y-62921043D01*
X173692199Y-63119067D01*
X173671917Y-63325000D01*
X173243083Y-63325000D01*
X173222800Y-63119066D01*
X173162732Y-62921046D01*
X173065185Y-62738550D01*
X173013202Y-62675209D01*
X172933910Y-62578589D01*
X172773952Y-62447317D01*
X172773953Y-62447317D01*
X172773950Y-62447315D01*
X172591454Y-62349768D01*
X172393434Y-62289700D01*
X172393432Y-62289699D01*
X172393434Y-62289699D01*
X172187500Y-62269417D01*
X171981567Y-62289699D01*
X171783543Y-62349769D01*
X171673398Y-62408643D01*
X171601050Y-62447315D01*
X171601048Y-62447316D01*
X171601047Y-62447317D01*
X171441089Y-62578589D01*
X171309817Y-62738547D01*
X171309815Y-62738550D01*
X171279625Y-62795031D01*
X171212269Y-62921043D01*
X171152199Y-63119067D01*
X171131917Y-63325000D01*
X170703083Y-63325000D01*
X170682800Y-63119066D01*
X170622732Y-62921046D01*
X170525185Y-62738550D01*
X170473202Y-62675209D01*
X170393910Y-62578589D01*
X170233952Y-62447317D01*
X170233953Y-62447317D01*
X170233950Y-62447315D01*
X170051454Y-62349768D01*
X169853434Y-62289700D01*
X169853432Y-62289699D01*
X169853434Y-62289699D01*
X169647500Y-62269417D01*
X169441567Y-62289699D01*
X169243543Y-62349769D01*
X169133398Y-62408643D01*
X169061050Y-62447315D01*
X169061048Y-62447316D01*
X169061047Y-62447317D01*
X168901089Y-62578589D01*
X168769817Y-62738547D01*
X168769815Y-62738550D01*
X168739625Y-62795031D01*
X168672269Y-62921043D01*
X168612199Y-63119067D01*
X168591917Y-63325000D01*
X165623083Y-63325000D01*
X165602800Y-63119066D01*
X165542732Y-62921046D01*
X165445185Y-62738550D01*
X165393202Y-62675209D01*
X165313910Y-62578589D01*
X165153952Y-62447317D01*
X165153953Y-62447317D01*
X165153950Y-62447315D01*
X164971454Y-62349768D01*
X164773434Y-62289700D01*
X164773432Y-62289699D01*
X164773434Y-62289699D01*
X164567500Y-62269417D01*
X164361567Y-62289699D01*
X164163543Y-62349769D01*
X164053398Y-62408643D01*
X163981050Y-62447315D01*
X163981048Y-62447316D01*
X163981047Y-62447317D01*
X163821089Y-62578589D01*
X163689817Y-62738547D01*
X163689815Y-62738550D01*
X163659625Y-62795031D01*
X163592269Y-62921043D01*
X163532199Y-63119067D01*
X163511917Y-63325000D01*
X160543083Y-63325000D01*
X160522800Y-63119066D01*
X160462732Y-62921046D01*
X160365185Y-62738550D01*
X160313202Y-62675209D01*
X160233910Y-62578589D01*
X160073952Y-62447317D01*
X160073953Y-62447317D01*
X160073950Y-62447315D01*
X159891454Y-62349768D01*
X159693434Y-62289700D01*
X159693432Y-62289699D01*
X159693434Y-62289699D01*
X159487500Y-62269417D01*
X159281567Y-62289699D01*
X159083543Y-62349769D01*
X158973398Y-62408643D01*
X158901050Y-62447315D01*
X158901048Y-62447316D01*
X158901047Y-62447317D01*
X158741089Y-62578589D01*
X158609817Y-62738547D01*
X158609815Y-62738550D01*
X158579625Y-62795031D01*
X158512269Y-62921043D01*
X158452199Y-63119067D01*
X158431917Y-63325000D01*
X158003083Y-63325000D01*
X157982800Y-63119066D01*
X157922732Y-62921046D01*
X157825185Y-62738550D01*
X157773202Y-62675209D01*
X157693910Y-62578589D01*
X157533952Y-62447317D01*
X157533953Y-62447317D01*
X157533950Y-62447315D01*
X157351454Y-62349768D01*
X157153434Y-62289700D01*
X157153432Y-62289699D01*
X157153434Y-62289699D01*
X156947500Y-62269417D01*
X156741567Y-62289699D01*
X156543543Y-62349769D01*
X156433398Y-62408643D01*
X156361050Y-62447315D01*
X156361048Y-62447316D01*
X156361047Y-62447317D01*
X156201089Y-62578589D01*
X156069817Y-62738547D01*
X156069815Y-62738550D01*
X156039625Y-62795031D01*
X155972269Y-62921043D01*
X155912199Y-63119067D01*
X155891917Y-63325000D01*
X155463083Y-63325000D01*
X155442800Y-63119066D01*
X155382732Y-62921046D01*
X155285185Y-62738550D01*
X155233202Y-62675209D01*
X155153910Y-62578589D01*
X154993952Y-62447317D01*
X154993953Y-62447317D01*
X154993950Y-62447315D01*
X154811454Y-62349768D01*
X154613434Y-62289700D01*
X154613432Y-62289699D01*
X154613434Y-62289699D01*
X154407500Y-62269417D01*
X154201567Y-62289699D01*
X154003543Y-62349769D01*
X153893398Y-62408643D01*
X153821050Y-62447315D01*
X153821048Y-62447316D01*
X153821047Y-62447317D01*
X153661089Y-62578589D01*
X153529817Y-62738547D01*
X153529815Y-62738550D01*
X153499625Y-62795031D01*
X153432269Y-62921043D01*
X153372199Y-63119067D01*
X153351917Y-63325000D01*
X152923083Y-63325000D01*
X152902800Y-63119066D01*
X152842732Y-62921046D01*
X152745185Y-62738550D01*
X152693202Y-62675209D01*
X152613910Y-62578589D01*
X152453952Y-62447317D01*
X152453953Y-62447317D01*
X152453950Y-62447315D01*
X152271454Y-62349768D01*
X152073434Y-62289700D01*
X152073432Y-62289699D01*
X152073434Y-62289699D01*
X151867500Y-62269417D01*
X151661567Y-62289699D01*
X151463543Y-62349769D01*
X151353398Y-62408643D01*
X151281050Y-62447315D01*
X151281048Y-62447316D01*
X151281047Y-62447317D01*
X151121089Y-62578589D01*
X150989817Y-62738547D01*
X150989815Y-62738550D01*
X150959625Y-62795031D01*
X150892269Y-62921043D01*
X150832199Y-63119067D01*
X150811917Y-63325000D01*
X147843083Y-63325000D01*
X147822800Y-63119066D01*
X147762732Y-62921046D01*
X147665185Y-62738550D01*
X147613202Y-62675209D01*
X147533910Y-62578589D01*
X147373952Y-62447317D01*
X147373953Y-62447317D01*
X147373950Y-62447315D01*
X147191454Y-62349768D01*
X146993434Y-62289700D01*
X146993432Y-62289699D01*
X146993434Y-62289699D01*
X146787500Y-62269417D01*
X146581567Y-62289699D01*
X146383543Y-62349769D01*
X146273398Y-62408643D01*
X146201050Y-62447315D01*
X146201048Y-62447316D01*
X146201047Y-62447317D01*
X146041089Y-62578589D01*
X145909817Y-62738547D01*
X145909815Y-62738550D01*
X145879625Y-62795031D01*
X145812269Y-62921043D01*
X145752199Y-63119067D01*
X145731917Y-63325000D01*
X145303083Y-63325000D01*
X145282800Y-63119066D01*
X145222732Y-62921046D01*
X145125185Y-62738550D01*
X145073202Y-62675209D01*
X144993910Y-62578589D01*
X144833952Y-62447317D01*
X144833953Y-62447317D01*
X144833950Y-62447315D01*
X144651454Y-62349768D01*
X144453434Y-62289700D01*
X144453432Y-62289699D01*
X144453434Y-62289699D01*
X144247500Y-62269417D01*
X144041567Y-62289699D01*
X143843543Y-62349769D01*
X143733398Y-62408643D01*
X143661050Y-62447315D01*
X143661048Y-62447316D01*
X143661047Y-62447317D01*
X143501089Y-62578589D01*
X143369817Y-62738547D01*
X143369815Y-62738550D01*
X143339625Y-62795031D01*
X143272269Y-62921043D01*
X143212199Y-63119067D01*
X143191917Y-63325000D01*
X140223083Y-63325000D01*
X140202800Y-63119066D01*
X140142732Y-62921046D01*
X140045185Y-62738550D01*
X139993202Y-62675209D01*
X139913910Y-62578589D01*
X139753952Y-62447317D01*
X139753953Y-62447317D01*
X139753950Y-62447315D01*
X139571454Y-62349768D01*
X139373434Y-62289700D01*
X139373432Y-62289699D01*
X139373434Y-62289699D01*
X139167500Y-62269417D01*
X138961567Y-62289699D01*
X138763543Y-62349769D01*
X138653398Y-62408643D01*
X138581050Y-62447315D01*
X138581048Y-62447316D01*
X138581047Y-62447317D01*
X138421089Y-62578589D01*
X138289817Y-62738547D01*
X138289815Y-62738550D01*
X138259625Y-62795031D01*
X138192269Y-62921043D01*
X138132199Y-63119067D01*
X138111917Y-63325000D01*
X137683083Y-63325000D01*
X137662800Y-63119066D01*
X137602732Y-62921046D01*
X137505185Y-62738550D01*
X137453202Y-62675209D01*
X137373910Y-62578589D01*
X137213952Y-62447317D01*
X137213953Y-62447317D01*
X137213950Y-62447315D01*
X137031454Y-62349768D01*
X136833434Y-62289700D01*
X136833432Y-62289699D01*
X136833434Y-62289699D01*
X136627500Y-62269417D01*
X136421567Y-62289699D01*
X136223543Y-62349769D01*
X136113398Y-62408643D01*
X136041050Y-62447315D01*
X136041048Y-62447316D01*
X136041047Y-62447317D01*
X135881089Y-62578589D01*
X135749817Y-62738547D01*
X135749815Y-62738550D01*
X135719625Y-62795031D01*
X135652269Y-62921043D01*
X135592199Y-63119067D01*
X135571917Y-63325000D01*
X135592199Y-63530932D01*
X135592200Y-63530934D01*
X135652268Y-63728954D01*
X135749815Y-63911450D01*
X135749817Y-63911452D01*
X135881089Y-64071410D01*
X135977709Y-64150702D01*
X136041050Y-64202685D01*
X136211455Y-64293769D01*
X136261298Y-64342731D01*
X136277000Y-64403126D01*
X136277000Y-65575955D01*
X136257315Y-65642994D01*
X136240681Y-65663636D01*
X135429740Y-66474576D01*
X135368417Y-66508061D01*
X135298725Y-66503077D01*
X135242792Y-66461205D01*
X135234673Y-66448896D01*
X135227974Y-66437294D01*
X135227968Y-66437286D01*
X134474319Y-65683637D01*
X134440834Y-65622314D01*
X134438000Y-65595956D01*
X134438000Y-64403126D01*
X134457685Y-64336087D01*
X134503544Y-64293769D01*
X134673950Y-64202685D01*
X134833910Y-64071410D01*
X134965185Y-63911450D01*
X135062732Y-63728954D01*
X135122800Y-63530934D01*
X135143083Y-63325000D01*
X135122800Y-63119066D01*
X135062732Y-62921046D01*
X134965185Y-62738550D01*
X134913202Y-62675209D01*
X134833910Y-62578589D01*
X134673952Y-62447317D01*
X134673953Y-62447317D01*
X134673950Y-62447315D01*
X134491454Y-62349768D01*
X134293434Y-62289700D01*
X134293432Y-62289699D01*
X134293434Y-62289699D01*
X134087500Y-62269417D01*
X133881567Y-62289699D01*
X133683543Y-62349769D01*
X133573398Y-62408643D01*
X133501050Y-62447315D01*
X133501048Y-62447316D01*
X133501047Y-62447317D01*
X133341089Y-62578589D01*
X133209817Y-62738547D01*
X133209815Y-62738550D01*
X133179625Y-62795031D01*
X133112269Y-62921043D01*
X133052199Y-63119067D01*
X133031917Y-63325000D01*
X130063083Y-63325000D01*
X130042800Y-63119066D01*
X129982732Y-62921046D01*
X129885185Y-62738550D01*
X129833202Y-62675209D01*
X129753910Y-62578589D01*
X129593952Y-62447317D01*
X129593953Y-62447317D01*
X129593950Y-62447315D01*
X129411454Y-62349768D01*
X129213434Y-62289700D01*
X129213432Y-62289699D01*
X129213434Y-62289699D01*
X129007500Y-62269417D01*
X128801567Y-62289699D01*
X128603543Y-62349769D01*
X128493398Y-62408643D01*
X128421050Y-62447315D01*
X128421048Y-62447316D01*
X128421047Y-62447317D01*
X128261089Y-62578589D01*
X128129817Y-62738547D01*
X128129815Y-62738550D01*
X128099625Y-62795031D01*
X128032269Y-62921043D01*
X127972199Y-63119067D01*
X127951917Y-63325000D01*
X127523083Y-63325000D01*
X127502800Y-63119066D01*
X127442732Y-62921046D01*
X127345185Y-62738550D01*
X127293202Y-62675209D01*
X127213910Y-62578589D01*
X127053952Y-62447317D01*
X127053953Y-62447317D01*
X127053950Y-62447315D01*
X126871454Y-62349768D01*
X126673434Y-62289700D01*
X126673432Y-62289699D01*
X126673434Y-62289699D01*
X126467500Y-62269417D01*
X126261567Y-62289699D01*
X126063543Y-62349769D01*
X125953398Y-62408643D01*
X125881050Y-62447315D01*
X125881048Y-62447316D01*
X125881047Y-62447317D01*
X125721089Y-62578589D01*
X125589817Y-62738547D01*
X125589815Y-62738550D01*
X125559625Y-62795031D01*
X125492269Y-62921043D01*
X125432199Y-63119067D01*
X125411917Y-63325000D01*
X124188714Y-63325000D01*
X124277698Y-63118711D01*
X124374600Y-62795035D01*
X124433271Y-62462298D01*
X124452916Y-62125003D01*
X176642084Y-62125003D01*
X176661729Y-62462298D01*
X176661730Y-62462309D01*
X176720396Y-62795017D01*
X176720399Y-62795031D01*
X176817301Y-63118710D01*
X176951121Y-63428939D01*
X176951127Y-63428952D01*
X177120060Y-63721553D01*
X177321818Y-63992561D01*
X177321823Y-63992567D01*
X177441569Y-64119489D01*
X177553683Y-64238323D01*
X177553689Y-64238328D01*
X177553691Y-64238330D01*
X177812501Y-64455499D01*
X177812506Y-64455502D01*
X178094792Y-64641164D01*
X178396724Y-64792800D01*
X178714217Y-64908358D01*
X179042980Y-64986276D01*
X179378565Y-65025500D01*
X179378572Y-65025500D01*
X179716428Y-65025500D01*
X179716435Y-65025500D01*
X180052020Y-64986276D01*
X180380783Y-64908358D01*
X180698276Y-64792800D01*
X181000208Y-64641164D01*
X181282494Y-64455502D01*
X181541317Y-64238323D01*
X181773178Y-63992565D01*
X181974940Y-63721552D01*
X182143875Y-63428948D01*
X182277698Y-63118711D01*
X182374600Y-62795035D01*
X182433271Y-62462298D01*
X182452916Y-62125000D01*
X182433271Y-61787702D01*
X182420139Y-61713230D01*
X182374603Y-61454982D01*
X182374602Y-61454981D01*
X182374600Y-61454965D01*
X182277698Y-61131289D01*
X182143875Y-60821052D01*
X181974940Y-60528448D01*
X181972560Y-60525251D01*
X181773181Y-60257438D01*
X181773176Y-60257432D01*
X181661064Y-60138601D01*
X181541317Y-60011677D01*
X181541310Y-60011671D01*
X181541308Y-60011669D01*
X181282498Y-59794500D01*
X181141351Y-59701667D01*
X181000208Y-59608836D01*
X180856275Y-59536550D01*
X180698283Y-59457203D01*
X180698277Y-59457200D01*
X180380784Y-59341642D01*
X180380781Y-59341641D01*
X180154139Y-59287926D01*
X180052020Y-59263724D01*
X179716435Y-59224500D01*
X179378565Y-59224500D01*
X179042980Y-59263724D01*
X178714218Y-59341641D01*
X178714215Y-59341642D01*
X178396722Y-59457200D01*
X178396716Y-59457203D01*
X178094795Y-59608834D01*
X177812501Y-59794500D01*
X177553691Y-60011669D01*
X177553681Y-60011679D01*
X177321823Y-60257432D01*
X177321818Y-60257438D01*
X177120060Y-60528446D01*
X176951127Y-60821047D01*
X176951121Y-60821060D01*
X176817301Y-61131289D01*
X176720399Y-61454968D01*
X176720396Y-61454982D01*
X176661730Y-61787690D01*
X176661729Y-61787701D01*
X176642084Y-62124996D01*
X176642084Y-62125003D01*
X124452916Y-62125003D01*
X124452916Y-62125000D01*
X124433271Y-61787702D01*
X124420139Y-61713230D01*
X124409828Y-61654752D01*
X125417000Y-61654752D01*
X125428631Y-61713229D01*
X125428632Y-61713230D01*
X125472947Y-61779552D01*
X125539269Y-61823867D01*
X125539270Y-61823868D01*
X125597747Y-61835499D01*
X125597750Y-61835500D01*
X125597752Y-61835500D01*
X127337250Y-61835500D01*
X127337251Y-61835499D01*
X127352068Y-61832552D01*
X127395729Y-61823868D01*
X127395729Y-61823867D01*
X127395731Y-61823867D01*
X127462052Y-61779552D01*
X127506367Y-61713231D01*
X127506367Y-61713229D01*
X127506368Y-61713229D01*
X127517999Y-61654752D01*
X127518000Y-61654750D01*
X127518000Y-60785000D01*
X127951917Y-60785000D01*
X127972199Y-60990932D01*
X127972200Y-60990934D01*
X128032268Y-61188954D01*
X128129815Y-61371450D01*
X128129817Y-61371452D01*
X128261089Y-61531410D01*
X128357709Y-61610702D01*
X128421050Y-61662685D01*
X128603546Y-61760232D01*
X128801566Y-61820300D01*
X128801565Y-61820300D01*
X128820029Y-61822118D01*
X129007500Y-61840583D01*
X129213434Y-61820300D01*
X129411454Y-61760232D01*
X129593950Y-61662685D01*
X129753910Y-61531410D01*
X129885185Y-61371450D01*
X129982732Y-61188954D01*
X130042800Y-60990934D01*
X130063083Y-60785000D01*
X130491917Y-60785000D01*
X130512199Y-60990932D01*
X130512200Y-60990934D01*
X130572268Y-61188954D01*
X130669815Y-61371450D01*
X130669817Y-61371452D01*
X130801089Y-61531410D01*
X130897709Y-61610702D01*
X130961050Y-61662685D01*
X131143546Y-61760232D01*
X131341566Y-61820300D01*
X131341565Y-61820300D01*
X131360029Y-61822118D01*
X131547500Y-61840583D01*
X131753434Y-61820300D01*
X131951454Y-61760232D01*
X132133950Y-61662685D01*
X132293910Y-61531410D01*
X132425185Y-61371450D01*
X132522732Y-61188954D01*
X132582800Y-60990934D01*
X132603083Y-60785000D01*
X133031917Y-60785000D01*
X133052199Y-60990932D01*
X133052200Y-60990934D01*
X133112268Y-61188954D01*
X133209815Y-61371450D01*
X133209817Y-61371452D01*
X133341089Y-61531410D01*
X133437709Y-61610702D01*
X133501050Y-61662685D01*
X133683546Y-61760232D01*
X133881566Y-61820300D01*
X133881565Y-61820300D01*
X133900029Y-61822118D01*
X134087500Y-61840583D01*
X134293434Y-61820300D01*
X134491454Y-61760232D01*
X134673950Y-61662685D01*
X134833910Y-61531410D01*
X134965185Y-61371450D01*
X135062732Y-61188954D01*
X135122800Y-60990934D01*
X135143083Y-60785000D01*
X138111917Y-60785000D01*
X138132199Y-60990932D01*
X138132200Y-60990934D01*
X138192268Y-61188954D01*
X138289815Y-61371450D01*
X138289817Y-61371452D01*
X138421089Y-61531410D01*
X138517709Y-61610702D01*
X138581050Y-61662685D01*
X138763546Y-61760232D01*
X138961566Y-61820300D01*
X138961565Y-61820300D01*
X138980029Y-61822118D01*
X139167500Y-61840583D01*
X139373434Y-61820300D01*
X139571454Y-61760232D01*
X139753950Y-61662685D01*
X139913910Y-61531410D01*
X140045185Y-61371450D01*
X140142732Y-61188954D01*
X140202800Y-60990934D01*
X140223083Y-60785000D01*
X140651917Y-60785000D01*
X140672199Y-60990932D01*
X140672200Y-60990934D01*
X140732268Y-61188954D01*
X140829815Y-61371450D01*
X140829817Y-61371452D01*
X140961089Y-61531410D01*
X141057709Y-61610702D01*
X141121050Y-61662685D01*
X141303546Y-61760232D01*
X141501566Y-61820300D01*
X141501565Y-61820300D01*
X141520029Y-61822118D01*
X141707500Y-61840583D01*
X141913434Y-61820300D01*
X142111454Y-61760232D01*
X142293950Y-61662685D01*
X142453910Y-61531410D01*
X142585185Y-61371450D01*
X142682732Y-61188954D01*
X142742800Y-60990934D01*
X142763083Y-60785000D01*
X143191917Y-60785000D01*
X143212199Y-60990932D01*
X143212200Y-60990934D01*
X143272268Y-61188954D01*
X143369815Y-61371450D01*
X143369817Y-61371452D01*
X143501089Y-61531410D01*
X143597709Y-61610702D01*
X143661050Y-61662685D01*
X143843546Y-61760232D01*
X144041566Y-61820300D01*
X144041565Y-61820300D01*
X144060029Y-61822118D01*
X144247500Y-61840583D01*
X144453434Y-61820300D01*
X144651454Y-61760232D01*
X144833950Y-61662685D01*
X144993910Y-61531410D01*
X145125185Y-61371450D01*
X145222732Y-61188954D01*
X145282800Y-60990934D01*
X145303083Y-60785000D01*
X145731917Y-60785000D01*
X145752199Y-60990932D01*
X145752200Y-60990934D01*
X145812268Y-61188954D01*
X145909815Y-61371450D01*
X145909817Y-61371452D01*
X146041089Y-61531410D01*
X146137709Y-61610702D01*
X146201050Y-61662685D01*
X146383546Y-61760232D01*
X146581566Y-61820300D01*
X146581565Y-61820300D01*
X146600029Y-61822118D01*
X146787500Y-61840583D01*
X146993434Y-61820300D01*
X147191454Y-61760232D01*
X147373950Y-61662685D01*
X147533910Y-61531410D01*
X147665185Y-61371450D01*
X147762732Y-61188954D01*
X147822800Y-60990934D01*
X147843083Y-60785000D01*
X148271917Y-60785000D01*
X148292199Y-60990932D01*
X148292200Y-60990934D01*
X148352268Y-61188954D01*
X148449815Y-61371450D01*
X148449817Y-61371452D01*
X148581089Y-61531410D01*
X148677709Y-61610702D01*
X148741050Y-61662685D01*
X148923546Y-61760232D01*
X149121566Y-61820300D01*
X149121565Y-61820300D01*
X149140029Y-61822118D01*
X149327500Y-61840583D01*
X149533434Y-61820300D01*
X149731454Y-61760232D01*
X149913950Y-61662685D01*
X150073910Y-61531410D01*
X150205185Y-61371450D01*
X150302732Y-61188954D01*
X150362800Y-60990934D01*
X150383083Y-60785000D01*
X150811917Y-60785000D01*
X150832199Y-60990932D01*
X150832200Y-60990934D01*
X150892268Y-61188954D01*
X150989815Y-61371450D01*
X150989817Y-61371452D01*
X151121089Y-61531410D01*
X151217709Y-61610702D01*
X151281050Y-61662685D01*
X151463546Y-61760232D01*
X151661566Y-61820300D01*
X151661565Y-61820300D01*
X151680029Y-61822118D01*
X151867500Y-61840583D01*
X152073434Y-61820300D01*
X152271454Y-61760232D01*
X152453950Y-61662685D01*
X152613910Y-61531410D01*
X152745185Y-61371450D01*
X152842732Y-61188954D01*
X152902800Y-60990934D01*
X152923083Y-60785000D01*
X153351917Y-60785000D01*
X153372199Y-60990932D01*
X153372200Y-60990934D01*
X153432268Y-61188954D01*
X153529815Y-61371450D01*
X153529817Y-61371452D01*
X153661089Y-61531410D01*
X153757709Y-61610702D01*
X153821050Y-61662685D01*
X154003546Y-61760232D01*
X154201566Y-61820300D01*
X154201565Y-61820300D01*
X154220029Y-61822118D01*
X154407500Y-61840583D01*
X154613434Y-61820300D01*
X154811454Y-61760232D01*
X154993950Y-61662685D01*
X155153910Y-61531410D01*
X155285185Y-61371450D01*
X155382732Y-61188954D01*
X155442800Y-60990934D01*
X155463083Y-60785000D01*
X158431917Y-60785000D01*
X158452199Y-60990932D01*
X158452200Y-60990934D01*
X158512268Y-61188954D01*
X158609815Y-61371450D01*
X158609817Y-61371452D01*
X158741089Y-61531410D01*
X158837709Y-61610702D01*
X158901050Y-61662685D01*
X159083546Y-61760232D01*
X159281566Y-61820300D01*
X159281565Y-61820300D01*
X159300029Y-61822118D01*
X159487500Y-61840583D01*
X159693434Y-61820300D01*
X159891454Y-61760232D01*
X160073950Y-61662685D01*
X160233910Y-61531410D01*
X160365185Y-61371450D01*
X160462732Y-61188954D01*
X160522800Y-60990934D01*
X160543083Y-60785000D01*
X160971917Y-60785000D01*
X160992199Y-60990932D01*
X160992200Y-60990934D01*
X161052268Y-61188954D01*
X161149815Y-61371450D01*
X161149817Y-61371452D01*
X161281089Y-61531410D01*
X161377709Y-61610702D01*
X161441050Y-61662685D01*
X161623546Y-61760232D01*
X161821566Y-61820300D01*
X161821565Y-61820300D01*
X161840029Y-61822118D01*
X162027500Y-61840583D01*
X162233434Y-61820300D01*
X162431454Y-61760232D01*
X162613950Y-61662685D01*
X162773910Y-61531410D01*
X162905185Y-61371450D01*
X163002732Y-61188954D01*
X163062800Y-60990934D01*
X163083083Y-60785000D01*
X163511917Y-60785000D01*
X163532199Y-60990932D01*
X163532200Y-60990934D01*
X163592268Y-61188954D01*
X163689815Y-61371450D01*
X163689817Y-61371452D01*
X163821089Y-61531410D01*
X163917709Y-61610702D01*
X163981050Y-61662685D01*
X164163546Y-61760232D01*
X164361566Y-61820300D01*
X164361565Y-61820300D01*
X164380029Y-61822118D01*
X164567500Y-61840583D01*
X164773434Y-61820300D01*
X164971454Y-61760232D01*
X165153950Y-61662685D01*
X165313910Y-61531410D01*
X165445185Y-61371450D01*
X165542732Y-61188954D01*
X165602800Y-60990934D01*
X165623083Y-60785000D01*
X166051917Y-60785000D01*
X166072199Y-60990932D01*
X166072200Y-60990934D01*
X166132268Y-61188954D01*
X166229815Y-61371450D01*
X166229817Y-61371452D01*
X166361089Y-61531410D01*
X166457709Y-61610702D01*
X166521050Y-61662685D01*
X166703546Y-61760232D01*
X166901566Y-61820300D01*
X166901565Y-61820300D01*
X166920029Y-61822118D01*
X167107500Y-61840583D01*
X167313434Y-61820300D01*
X167511454Y-61760232D01*
X167693950Y-61662685D01*
X167853910Y-61531410D01*
X167985185Y-61371450D01*
X168082732Y-61188954D01*
X168142800Y-60990934D01*
X168163083Y-60785000D01*
X168591917Y-60785000D01*
X168612199Y-60990932D01*
X168612200Y-60990934D01*
X168672268Y-61188954D01*
X168769815Y-61371450D01*
X168769817Y-61371452D01*
X168901089Y-61531410D01*
X168997709Y-61610702D01*
X169061050Y-61662685D01*
X169243546Y-61760232D01*
X169441566Y-61820300D01*
X169441565Y-61820300D01*
X169460029Y-61822118D01*
X169647500Y-61840583D01*
X169853434Y-61820300D01*
X170051454Y-61760232D01*
X170233950Y-61662685D01*
X170393910Y-61531410D01*
X170525185Y-61371450D01*
X170622732Y-61188954D01*
X170682800Y-60990934D01*
X170703083Y-60785000D01*
X171131917Y-60785000D01*
X171152199Y-60990932D01*
X171152200Y-60990934D01*
X171212268Y-61188954D01*
X171309815Y-61371450D01*
X171309817Y-61371452D01*
X171441089Y-61531410D01*
X171537709Y-61610702D01*
X171601050Y-61662685D01*
X171783546Y-61760232D01*
X171981566Y-61820300D01*
X171981565Y-61820300D01*
X172000029Y-61822118D01*
X172187500Y-61840583D01*
X172393434Y-61820300D01*
X172591454Y-61760232D01*
X172773950Y-61662685D01*
X172933910Y-61531410D01*
X173065185Y-61371450D01*
X173162732Y-61188954D01*
X173222800Y-60990934D01*
X173243083Y-60785000D01*
X173222800Y-60579066D01*
X173162732Y-60381046D01*
X173065185Y-60198550D01*
X173013202Y-60135209D01*
X172933910Y-60038589D01*
X172783621Y-59915252D01*
X172773950Y-59907315D01*
X172591454Y-59809768D01*
X172393434Y-59749700D01*
X172393432Y-59749699D01*
X172393434Y-59749699D01*
X172187500Y-59729417D01*
X171981567Y-59749699D01*
X171783543Y-59809769D01*
X171695614Y-59856769D01*
X171601050Y-59907315D01*
X171601048Y-59907316D01*
X171601047Y-59907317D01*
X171441089Y-60038589D01*
X171309817Y-60198547D01*
X171309815Y-60198550D01*
X171271143Y-60270898D01*
X171212269Y-60381043D01*
X171152199Y-60579067D01*
X171131917Y-60785000D01*
X170703083Y-60785000D01*
X170682800Y-60579066D01*
X170622732Y-60381046D01*
X170525185Y-60198550D01*
X170473202Y-60135209D01*
X170393910Y-60038589D01*
X170243621Y-59915252D01*
X170233950Y-59907315D01*
X170051454Y-59809768D01*
X169853434Y-59749700D01*
X169853432Y-59749699D01*
X169853434Y-59749699D01*
X169647500Y-59729417D01*
X169441567Y-59749699D01*
X169243543Y-59809769D01*
X169155614Y-59856769D01*
X169061050Y-59907315D01*
X169061048Y-59907316D01*
X169061047Y-59907317D01*
X168901089Y-60038589D01*
X168769817Y-60198547D01*
X168769815Y-60198550D01*
X168731143Y-60270898D01*
X168672269Y-60381043D01*
X168612199Y-60579067D01*
X168591917Y-60785000D01*
X168163083Y-60785000D01*
X168142800Y-60579066D01*
X168082732Y-60381046D01*
X167985185Y-60198550D01*
X167933202Y-60135209D01*
X167853910Y-60038589D01*
X167703621Y-59915252D01*
X167693950Y-59907315D01*
X167511454Y-59809768D01*
X167313434Y-59749700D01*
X167313432Y-59749699D01*
X167313434Y-59749699D01*
X167107500Y-59729417D01*
X166901567Y-59749699D01*
X166703543Y-59809769D01*
X166615614Y-59856769D01*
X166521050Y-59907315D01*
X166521048Y-59907316D01*
X166521047Y-59907317D01*
X166361089Y-60038589D01*
X166229817Y-60198547D01*
X166229815Y-60198550D01*
X166191143Y-60270898D01*
X166132269Y-60381043D01*
X166072199Y-60579067D01*
X166051917Y-60785000D01*
X165623083Y-60785000D01*
X165602800Y-60579066D01*
X165542732Y-60381046D01*
X165445185Y-60198550D01*
X165393202Y-60135209D01*
X165313910Y-60038589D01*
X165163621Y-59915252D01*
X165153950Y-59907315D01*
X164971454Y-59809768D01*
X164773434Y-59749700D01*
X164773432Y-59749699D01*
X164773434Y-59749699D01*
X164567500Y-59729417D01*
X164361567Y-59749699D01*
X164163543Y-59809769D01*
X164075614Y-59856769D01*
X163981050Y-59907315D01*
X163981048Y-59907316D01*
X163981047Y-59907317D01*
X163821089Y-60038589D01*
X163689817Y-60198547D01*
X163689815Y-60198550D01*
X163651143Y-60270898D01*
X163592269Y-60381043D01*
X163532199Y-60579067D01*
X163511917Y-60785000D01*
X163083083Y-60785000D01*
X163062800Y-60579066D01*
X163002732Y-60381046D01*
X162905185Y-60198550D01*
X162853202Y-60135209D01*
X162773910Y-60038589D01*
X162623621Y-59915252D01*
X162613950Y-59907315D01*
X162431454Y-59809768D01*
X162233434Y-59749700D01*
X162233432Y-59749699D01*
X162233434Y-59749699D01*
X162027500Y-59729417D01*
X161821567Y-59749699D01*
X161623543Y-59809769D01*
X161535614Y-59856769D01*
X161441050Y-59907315D01*
X161441048Y-59907316D01*
X161441047Y-59907317D01*
X161281089Y-60038589D01*
X161149817Y-60198547D01*
X161149815Y-60198550D01*
X161111143Y-60270898D01*
X161052269Y-60381043D01*
X160992199Y-60579067D01*
X160971917Y-60785000D01*
X160543083Y-60785000D01*
X160522800Y-60579066D01*
X160462732Y-60381046D01*
X160365185Y-60198550D01*
X160313202Y-60135209D01*
X160233910Y-60038589D01*
X160083621Y-59915252D01*
X160073950Y-59907315D01*
X159891454Y-59809768D01*
X159693434Y-59749700D01*
X159693432Y-59749699D01*
X159693434Y-59749699D01*
X159487500Y-59729417D01*
X159281567Y-59749699D01*
X159083543Y-59809769D01*
X158995614Y-59856769D01*
X158901050Y-59907315D01*
X158901048Y-59907316D01*
X158901047Y-59907317D01*
X158741089Y-60038589D01*
X158609817Y-60198547D01*
X158609815Y-60198550D01*
X158571143Y-60270898D01*
X158512269Y-60381043D01*
X158452199Y-60579067D01*
X158431917Y-60785000D01*
X155463083Y-60785000D01*
X155442800Y-60579066D01*
X155382732Y-60381046D01*
X155285185Y-60198550D01*
X155233202Y-60135209D01*
X155153910Y-60038589D01*
X155003621Y-59915252D01*
X154993950Y-59907315D01*
X154811454Y-59809768D01*
X154613434Y-59749700D01*
X154613432Y-59749699D01*
X154613434Y-59749699D01*
X154407500Y-59729417D01*
X154201567Y-59749699D01*
X154003543Y-59809769D01*
X153915614Y-59856769D01*
X153821050Y-59907315D01*
X153821048Y-59907316D01*
X153821047Y-59907317D01*
X153661089Y-60038589D01*
X153529817Y-60198547D01*
X153529815Y-60198550D01*
X153491143Y-60270898D01*
X153432269Y-60381043D01*
X153372199Y-60579067D01*
X153351917Y-60785000D01*
X152923083Y-60785000D01*
X152902800Y-60579066D01*
X152842732Y-60381046D01*
X152745185Y-60198550D01*
X152693202Y-60135209D01*
X152613910Y-60038589D01*
X152463621Y-59915252D01*
X152453950Y-59907315D01*
X152271454Y-59809768D01*
X152073434Y-59749700D01*
X152073432Y-59749699D01*
X152073434Y-59749699D01*
X151867500Y-59729417D01*
X151661567Y-59749699D01*
X151463543Y-59809769D01*
X151375614Y-59856769D01*
X151281050Y-59907315D01*
X151281048Y-59907316D01*
X151281047Y-59907317D01*
X151121089Y-60038589D01*
X150989817Y-60198547D01*
X150989815Y-60198550D01*
X150951143Y-60270898D01*
X150892269Y-60381043D01*
X150832199Y-60579067D01*
X150811917Y-60785000D01*
X150383083Y-60785000D01*
X150362800Y-60579066D01*
X150302732Y-60381046D01*
X150205185Y-60198550D01*
X150153202Y-60135209D01*
X150073910Y-60038589D01*
X149923621Y-59915252D01*
X149913950Y-59907315D01*
X149731454Y-59809768D01*
X149533434Y-59749700D01*
X149533432Y-59749699D01*
X149533434Y-59749699D01*
X149327500Y-59729417D01*
X149121567Y-59749699D01*
X148923543Y-59809769D01*
X148835614Y-59856769D01*
X148741050Y-59907315D01*
X148741048Y-59907316D01*
X148741047Y-59907317D01*
X148581089Y-60038589D01*
X148449817Y-60198547D01*
X148449815Y-60198550D01*
X148411143Y-60270898D01*
X148352269Y-60381043D01*
X148292199Y-60579067D01*
X148271917Y-60785000D01*
X147843083Y-60785000D01*
X147822800Y-60579066D01*
X147762732Y-60381046D01*
X147665185Y-60198550D01*
X147613202Y-60135209D01*
X147533910Y-60038589D01*
X147383621Y-59915252D01*
X147373950Y-59907315D01*
X147191454Y-59809768D01*
X146993434Y-59749700D01*
X146993432Y-59749699D01*
X146993434Y-59749699D01*
X146787500Y-59729417D01*
X146581567Y-59749699D01*
X146383543Y-59809769D01*
X146295614Y-59856769D01*
X146201050Y-59907315D01*
X146201048Y-59907316D01*
X146201047Y-59907317D01*
X146041089Y-60038589D01*
X145909817Y-60198547D01*
X145909815Y-60198550D01*
X145871143Y-60270898D01*
X145812269Y-60381043D01*
X145752199Y-60579067D01*
X145731917Y-60785000D01*
X145303083Y-60785000D01*
X145282800Y-60579066D01*
X145222732Y-60381046D01*
X145125185Y-60198550D01*
X145073202Y-60135209D01*
X144993910Y-60038589D01*
X144843621Y-59915252D01*
X144833950Y-59907315D01*
X144651454Y-59809768D01*
X144453434Y-59749700D01*
X144453432Y-59749699D01*
X144453434Y-59749699D01*
X144247500Y-59729417D01*
X144041567Y-59749699D01*
X143843543Y-59809769D01*
X143755614Y-59856769D01*
X143661050Y-59907315D01*
X143661048Y-59907316D01*
X143661047Y-59907317D01*
X143501089Y-60038589D01*
X143369817Y-60198547D01*
X143369815Y-60198550D01*
X143331143Y-60270898D01*
X143272269Y-60381043D01*
X143212199Y-60579067D01*
X143191917Y-60785000D01*
X142763083Y-60785000D01*
X142742800Y-60579066D01*
X142682732Y-60381046D01*
X142585185Y-60198550D01*
X142533202Y-60135209D01*
X142453910Y-60038589D01*
X142303621Y-59915252D01*
X142293950Y-59907315D01*
X142111454Y-59809768D01*
X141913434Y-59749700D01*
X141913432Y-59749699D01*
X141913434Y-59749699D01*
X141707500Y-59729417D01*
X141501567Y-59749699D01*
X141303543Y-59809769D01*
X141215614Y-59856769D01*
X141121050Y-59907315D01*
X141121048Y-59907316D01*
X141121047Y-59907317D01*
X140961089Y-60038589D01*
X140829817Y-60198547D01*
X140829815Y-60198550D01*
X140791143Y-60270898D01*
X140732269Y-60381043D01*
X140672199Y-60579067D01*
X140651917Y-60785000D01*
X140223083Y-60785000D01*
X140202800Y-60579066D01*
X140142732Y-60381046D01*
X140045185Y-60198550D01*
X139993202Y-60135209D01*
X139913910Y-60038589D01*
X139763621Y-59915252D01*
X139753950Y-59907315D01*
X139571454Y-59809768D01*
X139373434Y-59749700D01*
X139373432Y-59749699D01*
X139373434Y-59749699D01*
X139167500Y-59729417D01*
X138961567Y-59749699D01*
X138763543Y-59809769D01*
X138675614Y-59856769D01*
X138581050Y-59907315D01*
X138581048Y-59907316D01*
X138581047Y-59907317D01*
X138421089Y-60038589D01*
X138289817Y-60198547D01*
X138289815Y-60198550D01*
X138251143Y-60270898D01*
X138192269Y-60381043D01*
X138132199Y-60579067D01*
X138111917Y-60785000D01*
X135143083Y-60785000D01*
X135122800Y-60579066D01*
X135062732Y-60381046D01*
X134965185Y-60198550D01*
X134913202Y-60135209D01*
X134833910Y-60038589D01*
X134683621Y-59915252D01*
X134673950Y-59907315D01*
X134491454Y-59809768D01*
X134293434Y-59749700D01*
X134293432Y-59749699D01*
X134293434Y-59749699D01*
X134087500Y-59729417D01*
X133881567Y-59749699D01*
X133683543Y-59809769D01*
X133595614Y-59856769D01*
X133501050Y-59907315D01*
X133501048Y-59907316D01*
X133501047Y-59907317D01*
X133341089Y-60038589D01*
X133209817Y-60198547D01*
X133209815Y-60198550D01*
X133171143Y-60270898D01*
X133112269Y-60381043D01*
X133052199Y-60579067D01*
X133031917Y-60785000D01*
X132603083Y-60785000D01*
X132582800Y-60579066D01*
X132522732Y-60381046D01*
X132425185Y-60198550D01*
X132373202Y-60135209D01*
X132293910Y-60038589D01*
X132143621Y-59915252D01*
X132133950Y-59907315D01*
X131951454Y-59809768D01*
X131753434Y-59749700D01*
X131753432Y-59749699D01*
X131753434Y-59749699D01*
X131547500Y-59729417D01*
X131341567Y-59749699D01*
X131143543Y-59809769D01*
X131055614Y-59856769D01*
X130961050Y-59907315D01*
X130961048Y-59907316D01*
X130961047Y-59907317D01*
X130801089Y-60038589D01*
X130669817Y-60198547D01*
X130669815Y-60198550D01*
X130631143Y-60270898D01*
X130572269Y-60381043D01*
X130512199Y-60579067D01*
X130491917Y-60785000D01*
X130063083Y-60785000D01*
X130042800Y-60579066D01*
X129982732Y-60381046D01*
X129885185Y-60198550D01*
X129833202Y-60135209D01*
X129753910Y-60038589D01*
X129603621Y-59915252D01*
X129593950Y-59907315D01*
X129411454Y-59809768D01*
X129213434Y-59749700D01*
X129213432Y-59749699D01*
X129213434Y-59749699D01*
X129007500Y-59729417D01*
X128801567Y-59749699D01*
X128603543Y-59809769D01*
X128515614Y-59856769D01*
X128421050Y-59907315D01*
X128421048Y-59907316D01*
X128421047Y-59907317D01*
X128261089Y-60038589D01*
X128129817Y-60198547D01*
X128129815Y-60198550D01*
X128091143Y-60270898D01*
X128032269Y-60381043D01*
X127972199Y-60579067D01*
X127951917Y-60785000D01*
X127518000Y-60785000D01*
X127518000Y-59915249D01*
X127517999Y-59915247D01*
X127506368Y-59856770D01*
X127506367Y-59856769D01*
X127462052Y-59790447D01*
X127395730Y-59746132D01*
X127395729Y-59746131D01*
X127337252Y-59734500D01*
X127337248Y-59734500D01*
X125597752Y-59734500D01*
X125597747Y-59734500D01*
X125539270Y-59746131D01*
X125539269Y-59746132D01*
X125472947Y-59790447D01*
X125428632Y-59856769D01*
X125428631Y-59856770D01*
X125417000Y-59915247D01*
X125417000Y-61654752D01*
X124409828Y-61654752D01*
X124374603Y-61454982D01*
X124374602Y-61454981D01*
X124374600Y-61454965D01*
X124277698Y-61131289D01*
X124143875Y-60821052D01*
X123974940Y-60528448D01*
X123972560Y-60525251D01*
X123773181Y-60257438D01*
X123773176Y-60257432D01*
X123661064Y-60138601D01*
X123541317Y-60011677D01*
X123541310Y-60011671D01*
X123541308Y-60011669D01*
X123282498Y-59794500D01*
X123141351Y-59701667D01*
X123000208Y-59608836D01*
X122856275Y-59536550D01*
X122698283Y-59457203D01*
X122698277Y-59457200D01*
X122380784Y-59341642D01*
X122380781Y-59341641D01*
X122154139Y-59287926D01*
X122052020Y-59263724D01*
X121716435Y-59224500D01*
X121378565Y-59224500D01*
X121042980Y-59263724D01*
X120714218Y-59341641D01*
X120714215Y-59341642D01*
X120396722Y-59457200D01*
X120396716Y-59457203D01*
X120094795Y-59608834D01*
X119812501Y-59794500D01*
X119553691Y-60011669D01*
X119553681Y-60011679D01*
X119321823Y-60257432D01*
X119321818Y-60257438D01*
X119120060Y-60528446D01*
X118951127Y-60821047D01*
X118951121Y-60821060D01*
X118817301Y-61131289D01*
X118720399Y-61454968D01*
X118720396Y-61454982D01*
X118661730Y-61787690D01*
X118661729Y-61787701D01*
X118642084Y-62124996D01*
X118642084Y-62125003D01*
X118348086Y-62125003D01*
X118348171Y-62121756D01*
X118362906Y-61840583D01*
X118365188Y-61797045D01*
X118366545Y-61784139D01*
X118377776Y-61713229D01*
X118416902Y-61466201D01*
X118419595Y-61453525D01*
X118502917Y-61142564D01*
X118506925Y-61130232D01*
X118506926Y-61130229D01*
X118622287Y-60829703D01*
X118627552Y-60817875D01*
X118773715Y-60531015D01*
X118780181Y-60519816D01*
X118955522Y-60249815D01*
X118963124Y-60239352D01*
X119165730Y-59989153D01*
X119174397Y-59979528D01*
X119402028Y-59751897D01*
X119411653Y-59743230D01*
X119661852Y-59540624D01*
X119672315Y-59533022D01*
X119942316Y-59357681D01*
X119953515Y-59351215D01*
X120240375Y-59205052D01*
X120252203Y-59199787D01*
X120552736Y-59084423D01*
X120565064Y-59080417D01*
X120876025Y-58997095D01*
X120888701Y-58994402D01*
X121206641Y-58944044D01*
X121219545Y-58942688D01*
X121443334Y-58930960D01*
X121544276Y-58925670D01*
X121550766Y-58925500D01*
X121595095Y-58925500D01*
X179499905Y-58925500D01*
X179544254Y-58925500D01*
X179550743Y-58925669D01*
G37*
%TD.AperFunction*%
%TD*%
M02*
