M48
; DRILL file {KiCad 8.0.1-8.0.1-0~ubuntu20.04.1} date 2024-04-20T12:53:35-0300
; FORMAT={-:-/ absolute / inch / decimal}
; #@! TF.CreationDate,2024-04-20T12:53:35-03:00
; #@! TF.GenerationSoftware,Kicad,Pcbnew,8.0.1-8.0.1-0~ubuntu20.04.1
; #@! TF.FileFunction,Plated,1,4,PTH
FMAT,2
INCH
; #@! TA.AperFunction,Plated,PTH,ViaDrill
T1C0.0118
; #@! TA.AperFunction,Plated,PTH,ComponentDrill
T2C0.0118
; #@! TA.AperFunction,Plated,PTH,ViaDrill
T3C0.0157
; #@! TA.AperFunction,Plated,PTH,ComponentDrill
T4C0.0197
; #@! TA.AperFunction,Plated,PTH,ComponentDrill
T5C0.0236
; #@! TA.AperFunction,Plated,PTH,ComponentDrill
T6C0.0394
; #@! TA.AperFunction,Plated,PTH,ComponentDrill
T7C0.0709
; #@! TA.AperFunction,Plated,PTH,ComponentDrill
T8C0.1260
%
G90
G05
T1
X4.7243Y-3.1064
X4.7243Y-3.1536
X4.7243Y-3.1969
X4.7814Y-3.1064
X4.7814Y-3.1536
X4.7814Y-3.1969
X4.8385Y-3.1064
X4.8385Y-3.1536
X4.8385Y-3.1969
X4.8956Y-3.1536
X4.8956Y-3.1969
X4.9507Y-4.0532
X5.0865Y-3.9627
X5.1002Y-4.2753
X5.1357Y-3.7895
X5.1377Y-3.9627
X5.1515Y-3.5532
X5.1515Y-3.6044
X5.183Y-4.2737
X5.2223Y-3.851
X5.2342Y-3.6005
X5.246Y-3.5572
X5.3309Y-3.8552
X5.3326Y-3.6084
X5.368Y-2.8229
X5.4153Y-2.8229
X5.4231Y-2.7678
X5.4231Y-2.8859
X5.4704Y-2.7678
X5.4704Y-2.8859
X5.5176Y-2.7678
X5.5176Y-2.8859
X5.5649Y-2.7678
X5.5649Y-2.8859
X5.6121Y-2.7678
X5.6121Y-2.8859
X5.6121Y-2.9332
X5.62Y-2.7014
X5.6279Y-3.0021
X5.6318Y-3.6041
X5.6318Y-3.6541
X5.6318Y-3.7041
X5.6318Y-3.7541
X5.6318Y-3.8041
X5.6318Y-3.8541
X5.6318Y-3.9041
X5.6318Y-3.9541
X5.6318Y-4.1041
X5.6318Y-4.1541
X5.683Y-3.0887
X5.6844Y-3.4233
X5.7344Y-3.4233
X5.7844Y-3.4233
X5.8344Y-3.4233
X5.8844Y-3.4233
X5.9344Y-3.4233
X5.9349Y-2.7088
X5.9349Y-2.7777
X5.9349Y-2.8446
X5.9349Y-2.9174
X5.996Y-2.7088
X5.996Y-2.7777
X5.996Y-2.8446
X5.996Y-2.9174
X6.0344Y-3.4233
X6.057Y-2.7777
X6.057Y-2.8446
X6.0844Y-3.4233
X6.1712Y-3.6541
X6.1712Y-3.7029
X6.1712Y-3.754
X6.1712Y-3.8041
X6.1712Y-3.8541
X6.1712Y-3.9041
X6.1712Y-3.9541
X6.1712Y-4.0041
X6.1712Y-4.0541
X6.1781Y-2.9927
X6.5216Y-3.7737
X6.6712Y-4.2737
X6.6968Y-3.8308
X6.7322Y-3.3702
X6.7538Y-3.6254
X6.7735Y-4.2777
X6.8011Y-3.5726
X6.9094Y-3.9903
X7.0019Y-3.1005
T2
X5.7202Y-2.7836
X5.7202Y-2.8347
X5.7714Y-2.7836
X5.7714Y-2.8347
X5.8225Y-2.7836
X5.8225Y-2.8347
X5.8737Y-2.7836
X5.8737Y-2.8347
T3
X5.4349Y-4.4155
X5.4468Y-3.508
X5.5058Y-3.4607
X5.5491Y-3.504
X6.3365Y-4.1595
X6.3405Y-4.0781
X6.3995Y-4.4036
X6.4192Y-4.1635
T4
X4.7042Y-2.4455
X4.7042Y-4.3746
X4.7267Y-2.5037
X4.7267Y-4.4329
X4.7271Y-2.3876
X4.7271Y-4.3167
X4.7853Y-2.3644
X4.7853Y-2.5266
X4.7853Y-4.2935
X4.7853Y-4.4557
X4.8432Y-2.3876
X4.8432Y-2.5037
X4.8432Y-4.3167
X4.8432Y-4.4329
X4.8664Y-2.4455
X4.8664Y-4.3746
X6.9877Y-2.4455
X6.9877Y-4.3746
X7.0101Y-2.5037
X7.0101Y-4.4329
X7.0105Y-2.3876
X7.0105Y-4.3167
X7.0688Y-2.3644
X7.0688Y-2.5266
X7.0688Y-4.2935
X7.0688Y-4.4557
X7.1267Y-2.3876
X7.1267Y-2.5037
X7.1267Y-4.3167
X7.1267Y-4.4329
X7.1499Y-2.4455
X7.1499Y-4.3746
T6
X4.7353Y-3.2726
X4.7353Y-3.3726
X4.7353Y-3.4726
X4.7353Y-3.5726
X4.7353Y-3.6726
X4.7353Y-3.7726
X4.7353Y-3.8726
X4.7353Y-3.9726
X4.7353Y-4.0726
X4.7353Y-4.1726
X4.8353Y-3.2726
X4.8353Y-3.3726
X4.8353Y-3.4726
X4.8353Y-3.5726
X4.8353Y-3.6726
X4.8353Y-3.7726
X4.8353Y-3.8726
X4.8353Y-3.9726
X4.8353Y-4.0726
X4.8353Y-4.1726
X4.979Y-2.3931
X4.979Y-2.4931
X5.079Y-2.3931
X5.079Y-2.4931
X5.179Y-2.3931
X5.179Y-2.4931
X5.279Y-2.3931
X5.279Y-2.4931
X5.379Y-2.3931
X5.379Y-2.4931
X5.479Y-2.3931
X5.479Y-2.4931
X5.579Y-2.3931
X5.579Y-2.4931
X5.679Y-2.3931
X5.679Y-2.4931
X5.779Y-2.3931
X5.779Y-2.4931
X5.879Y-2.3931
X5.879Y-2.4931
X5.979Y-2.3931
X5.979Y-2.4931
X6.079Y-2.3931
X6.079Y-2.4931
X6.179Y-2.3931
X6.179Y-2.4931
X6.279Y-2.3931
X6.279Y-2.4931
X6.379Y-2.3931
X6.379Y-2.4931
X6.4727Y-2.6379
X6.4727Y-2.9469
X6.4727Y-3.0469
X6.479Y-2.3931
X6.479Y-2.4931
X6.5727Y-2.6379
X6.5727Y-2.9469
X6.5727Y-3.0469
X6.579Y-2.3931
X6.579Y-2.4931
X6.679Y-2.3931
X6.679Y-2.4931
X6.779Y-2.3931
X6.779Y-2.4931
X6.879Y-2.3931
X6.879Y-2.4931
X7.0188Y-3.2726
X7.0188Y-3.3726
X7.0188Y-3.4726
X7.0188Y-3.5726
X7.0188Y-3.6726
X7.0188Y-3.7726
X7.0188Y-3.8726
X7.0188Y-3.9726
X7.0188Y-4.0726
X7.0188Y-4.1726
X7.1188Y-3.2726
X7.1188Y-3.3726
X7.1188Y-3.4726
X7.1188Y-3.5726
X7.1188Y-3.6726
X7.1188Y-3.7726
X7.1188Y-3.8726
X7.1188Y-3.9726
X7.1188Y-4.0726
X7.1188Y-4.1726
T7
X4.7893Y-3.0128
X4.9861Y-3.0128
T8
X4.7853Y-2.4459
X4.7853Y-4.375
X7.0688Y-2.4459
X7.0688Y-4.375
T5
G00X4.9597Y-4.2156
M15
G01X4.9597Y-4.2589
M16
G05
G00X4.9597Y-4.3868
M15
G01X4.9597Y-4.4183
M16
G05
G00X5.2999Y-4.2156
M15
G01X5.2999Y-4.2589
M16
G05
G00X5.2999Y-4.3868
M15
G01X5.2999Y-4.4183
M16
G05
G00X6.5523Y-4.2156
M15
G01X6.5523Y-4.2589
M16
G05
G00X6.5523Y-4.3868
M15
G01X6.5523Y-4.4183
M16
G05
G00X6.8924Y-4.2156
M15
G01X6.8924Y-4.2589
M16
G05
G00X6.8924Y-4.3868
M15
G01X6.8924Y-4.4183
M16
G05
T6
G00X4.7538Y-2.7707
M15
G01X4.7538Y-2.7116
M16
G05
G00X4.9389Y-2.7707
M15
G01X4.9389Y-2.7116
M16
G05
G00X5.1239Y-2.7707
M15
G01X5.1239Y-2.7116
M16
G05
M30
