<?xml version="1.0" encoding="UTF-8"?>
<!DOCTYPE svg PUBLIC "-//W3C//DTD SVG 1.1//EN" "http://www.w3.org/Graphics/SVG/1.1/DTD/svg11.dtd">

<svg xmlns="http://www.w3.org/2000/svg" xmlns:xlink="http://www.w3.org/1999/xlink" width="255.0px" height="204.2px" viewbox="0 0 255.0 204.2" version="1.1">
  <title>TPS54X27_28_TPS56X28_BUCK_DDA_A_mid2: null</title>
  <desc>TPS54X27_28_TPS56X28_BUCK_DDA_A WebTHERM&amp;reg; Board Layout file</desc>
  <g id="board" fill-opacity="1" transform="scale(0.1016,-0.1016) translate(0,-2010.1)">
    <rect x="0" y="0" width="2510" height="2010" stroke="#006600" stroke-width="0" fill="#006600" type="Fill" layer="PCB" />
    <polygon net="1" points="1625,1260 1155,1260 1155,1905 1625,1905" stroke-width="0.0" stroke="#ff9900" fill="#ff9900" stroke-linecap="round" stroke-linejoin="round" opacity="1.0" layer="MID2" />
    <polygon net="0" points="2479,28 29,28 29,1978 1099,1978 1099,1768 764,1768 569,1573 569,1113 664,1113 664,1548 809,1693 1099,1693 1099,1218 1684,1218 1684,1978 2479,1978" stroke-width="0.0" stroke="#ff9900" fill="#ff9900" stroke-linecap="round" stroke-linejoin="round" opacity="1.0" layer="MID2" />
    <polygon net="0" points="435,1072 426,1070 419,1065 414,1058 412,1050 414,1041 419,1034 426,1029 435,1027 443,1029 450,1034 455,1041 457,1050 455,1058 450,1065 443,1070" stroke-width="0.0" stroke="#006600" fill="#006600" stroke-linecap="round" stroke-linejoin="round" opacity="1.0" layer="MID2" />
    <polygon net="0" points="512,857 503,855 496,850 491,843 489,835 491,826 496,819 503,814 512,812 520,814 527,819 532,826 534,835 532,843 527,850 520,855" stroke-width="0.0" stroke="#006600" fill="#006600" stroke-linecap="round" stroke-linejoin="round" opacity="1.0" layer="MID2" />
    <polygon net="0" points="2355,759 2341,757 2328,751 2316,743 2308,732 2302,719 2301,705 2302,691 2308,678 2316,666 2328,658 2341,652 2355,651 2369,652 2382,658 2393,666 2401,678 2407,691 2409,705 2407,719 2401,732 2393,743 2382,751 2369,757" stroke-width="0.0" stroke="#006600" fill="#006600" stroke-linecap="round" stroke-linejoin="round" opacity="1.0" layer="MID2" />
    <polygon net="0" points="1734,625 1725,623 1718,618 1713,611 1711,603 1713,594 1718,587 1725,582 1734,580 1742,582 1749,587 1754,594 1756,603 1754,611 1749,618 1742,623" stroke-width="0.0" stroke="#006600" fill="#006600" stroke-linecap="round" stroke-linejoin="round" opacity="1.0" layer="MID2" />
    <line net="1" x1="785" y1="1735" x2="1305" y2="1735" stroke-width="20" stroke="#ff9900" stroke-linecap="round" stroke-linejoin="round" opacity="1.0" layer="MID2" />
    <line net="1" x1="1305" y1="1735" x2="1425" y2="1855" stroke-width="20" stroke="#ff9900" stroke-linecap="round" stroke-linejoin="round" opacity="1.0" layer="MID2" />
    <line net="1" x1="613" y1="1224" x2="613" y2="1563" stroke-width="20" stroke="#ff9900" stroke-linecap="round" stroke-linejoin="round" opacity="1.0" layer="MID2" />
    <line net="1" x1="613" y1="1563" x2="785" y2="1735" stroke-width="20" stroke="#ff9900" stroke-linecap="round" stroke-linejoin="round" opacity="1.0" layer="MID2" />
    <circle net="0" cx="995" cy="665" r="9" r1="12" r2="6" stroke-width="6" stroke="#ff9900" fill="#ffffff" opacity="1" layer="MULTILAYER" />
    <circle net="0" cx="1088" cy="1087" r="8" r1="12" r2="5" stroke-width="7" stroke="#ff9900" fill="#ffffff" opacity="1" layer="MULTILAYER" />
    <circle net="2" cx="1734" cy="603" r="9" r1="12" r2="6" stroke-width="6" stroke="#ff9900" fill="#ffffff" opacity="1" layer="MULTILAYER" />
    <circle net="0" cx="512" cy="835" r="9" r1="12" r2="6" stroke-width="6" stroke="#ff9900" fill="#ffffff" opacity="1" layer="MULTILAYER" />
    <circle net="0" cx="995" cy="851" r="9" r1="12" r2="6" stroke-width="6" stroke="#ff9900" fill="#ffffff" opacity="1" layer="MULTILAYER" />
    <circle net="0" cx="995" cy="895" r="9" r1="12" r2="6" stroke-width="6" stroke="#ff9900" fill="#ffffff" opacity="1" layer="MULTILAYER" />
    <circle net="0" cx="825" cy="1565" r="9" r1="12" r2="6" stroke-width="6" stroke="#ff9900" fill="#ffffff" opacity="1" layer="MULTILAYER" />
    <circle net="0" cx="825" cy="1365" r="9" r1="12" r2="6" stroke-width="6" stroke="#ff9900" fill="#ffffff" opacity="1" layer="MULTILAYER" />
    <circle net="0" cx="975" cy="1365" r="9" r1="12" r2="6" stroke-width="6" stroke="#ff9900" fill="#ffffff" opacity="1" layer="MULTILAYER" />
    <circle net="0" cx="925" cy="1365" r="9" r1="12" r2="6" stroke-width="6" stroke="#ff9900" fill="#ffffff" opacity="1" layer="MULTILAYER" />
    <circle net="0" cx="875" cy="1415" r="9" r1="12" r2="6" stroke-width="6" stroke="#ff9900" fill="#ffffff" opacity="1" layer="MULTILAYER" />
    <circle net="0" cx="925" cy="1265" r="9" r1="12" r2="6" stroke-width="6" stroke="#ff9900" fill="#ffffff" opacity="1" layer="MULTILAYER" />
    <circle net="0" cx="925" cy="1315" r="9" r1="12" r2="6" stroke-width="6" stroke="#ff9900" fill="#ffffff" opacity="1" layer="MULTILAYER" />
    <circle net="0" cx="975" cy="1315" r="9" r1="12" r2="6" stroke-width="6" stroke="#ff9900" fill="#ffffff" opacity="1" layer="MULTILAYER" />
    <circle net="0" cx="875" cy="1315" r="9" r1="12" r2="6" stroke-width="6" stroke="#ff9900" fill="#ffffff" opacity="1" layer="MULTILAYER" />
    <circle net="0" cx="975" cy="1265" r="9" r1="12" r2="6" stroke-width="6" stroke="#ff9900" fill="#ffffff" opacity="1" layer="MULTILAYER" />
    <circle net="0" cx="875" cy="1365" r="9" r1="12" r2="6" stroke-width="6" stroke="#ff9900" fill="#ffffff" opacity="1" layer="MULTILAYER" />
    <circle net="0" cx="975" cy="1515" r="9" r1="12" r2="6" stroke-width="6" stroke="#ff9900" fill="#ffffff" opacity="1" layer="MULTILAYER" />
    <circle net="0" cx="925" cy="1465" r="9" r1="12" r2="6" stroke-width="6" stroke="#ff9900" fill="#ffffff" opacity="1" layer="MULTILAYER" />
    <circle net="0" cx="925" cy="1515" r="9" r1="12" r2="6" stroke-width="6" stroke="#ff9900" fill="#ffffff" opacity="1" layer="MULTILAYER" />
    <circle net="0" cx="825" cy="1415" r="9" r1="12" r2="6" stroke-width="6" stroke="#ff9900" fill="#ffffff" opacity="1" layer="MULTILAYER" />
    <circle net="0" cx="975" cy="1415" r="9" r1="12" r2="6" stroke-width="6" stroke="#ff9900" fill="#ffffff" opacity="1" layer="MULTILAYER" />
    <circle net="0" cx="925" cy="1415" r="9" r1="12" r2="6" stroke-width="6" stroke="#ff9900" fill="#ffffff" opacity="1" layer="MULTILAYER" />
    <circle net="0" cx="875" cy="1515" r="9" r1="12" r2="6" stroke-width="6" stroke="#ff9900" fill="#ffffff" opacity="1" layer="MULTILAYER" />
    <circle net="0" cx="975" cy="1465" r="9" r1="12" r2="6" stroke-width="6" stroke="#ff9900" fill="#ffffff" opacity="1" layer="MULTILAYER" />
    <circle net="0" cx="875" cy="1465" r="9" r1="12" r2="6" stroke-width="6" stroke="#ff9900" fill="#ffffff" opacity="1" layer="MULTILAYER" />
    <circle net="0" cx="1975" cy="1245" r="9" r1="12" r2="6" stroke-width="6" stroke="#ff9900" fill="#ffffff" opacity="1" layer="MULTILAYER" />
    <circle net="0" cx="1925" cy="1245" r="9" r1="12" r2="6" stroke-width="6" stroke="#ff9900" fill="#ffffff" opacity="1" layer="MULTILAYER" />
    <circle net="0" cx="1975" cy="1195" r="9" r1="12" r2="6" stroke-width="6" stroke="#ff9900" fill="#ffffff" opacity="1" layer="MULTILAYER" />
    <circle net="0" cx="1875" cy="1245" r="9" r1="12" r2="6" stroke-width="6" stroke="#ff9900" fill="#ffffff" opacity="1" layer="MULTILAYER" />
    <circle net="0" cx="1925" cy="1195" r="9" r1="12" r2="6" stroke-width="6" stroke="#ff9900" fill="#ffffff" opacity="1" layer="MULTILAYER" />
    <circle net="0" cx="1875" cy="1195" r="9" r1="12" r2="6" stroke-width="6" stroke="#ff9900" fill="#ffffff" opacity="1" layer="MULTILAYER" />
    <circle net="0" cx="2125" cy="1245" r="9" r1="12" r2="6" stroke-width="6" stroke="#ff9900" fill="#ffffff" opacity="1" layer="MULTILAYER" />
    <circle net="0" cx="2075" cy="1245" r="9" r1="12" r2="6" stroke-width="6" stroke="#ff9900" fill="#ffffff" opacity="1" layer="MULTILAYER" />
    <circle net="0" cx="2125" cy="1195" r="9" r1="12" r2="6" stroke-width="6" stroke="#ff9900" fill="#ffffff" opacity="1" layer="MULTILAYER" />
    <circle net="0" cx="2025" cy="1245" r="9" r1="12" r2="6" stroke-width="6" stroke="#ff9900" fill="#ffffff" opacity="1" layer="MULTILAYER" />
    <circle net="0" cx="2075" cy="1195" r="9" r1="12" r2="6" stroke-width="6" stroke="#ff9900" fill="#ffffff" opacity="1" layer="MULTILAYER" />
    <circle net="0" cx="2025" cy="1195" r="9" r1="12" r2="6" stroke-width="6" stroke="#ff9900" fill="#ffffff" opacity="1" layer="MULTILAYER" />
    <circle net="0" cx="2175" cy="1295" r="9" r1="12" r2="6" stroke-width="6" stroke="#ff9900" fill="#ffffff" opacity="1" layer="MULTILAYER" />
    <circle net="0" cx="2175" cy="1245" r="9" r1="12" r2="6" stroke-width="6" stroke="#ff9900" fill="#ffffff" opacity="1" layer="MULTILAYER" />
    <circle net="0" cx="2225" cy="1195" r="9" r1="12" r2="6" stroke-width="6" stroke="#ff9900" fill="#ffffff" opacity="1" layer="MULTILAYER" />
    <circle net="0" cx="2075" cy="1295" r="9" r1="12" r2="6" stroke-width="6" stroke="#ff9900" fill="#ffffff" opacity="1" layer="MULTILAYER" />
    <circle net="0" cx="2175" cy="1195" r="9" r1="12" r2="6" stroke-width="6" stroke="#ff9900" fill="#ffffff" opacity="1" layer="MULTILAYER" />
    <circle net="0" cx="2125" cy="1295" r="9" r1="12" r2="6" stroke-width="6" stroke="#ff9900" fill="#ffffff" opacity="1" layer="MULTILAYER" />
    <circle net="0" cx="1875" cy="1295" r="9" r1="12" r2="6" stroke-width="6" stroke="#ff9900" fill="#ffffff" opacity="1" layer="MULTILAYER" />
    <circle net="0" cx="1925" cy="1295" r="9" r1="12" r2="6" stroke-width="6" stroke="#ff9900" fill="#ffffff" opacity="1" layer="MULTILAYER" />
    <circle net="0" cx="2225" cy="1295" r="9" r1="12" r2="6" stroke-width="6" stroke="#ff9900" fill="#ffffff" opacity="1" layer="MULTILAYER" />
    <circle net="0" cx="1975" cy="1295" r="9" r1="12" r2="6" stroke-width="6" stroke="#ff9900" fill="#ffffff" opacity="1" layer="MULTILAYER" />
    <circle net="0" cx="2225" cy="1245" r="9" r1="12" r2="6" stroke-width="6" stroke="#ff9900" fill="#ffffff" opacity="1" layer="MULTILAYER" />
    <circle net="0" cx="2025" cy="1295" r="9" r1="12" r2="6" stroke-width="6" stroke="#ff9900" fill="#ffffff" opacity="1" layer="MULTILAYER" />
    <circle net="0" cx="975" cy="1215" r="9" r1="12" r2="6" stroke-width="6" stroke="#ff9900" fill="#ffffff" opacity="1" layer="MULTILAYER" />
    <circle net="0" cx="825" cy="1515" r="9" r1="12" r2="6" stroke-width="6" stroke="#ff9900" fill="#ffffff" opacity="1" layer="MULTILAYER" />
    <circle net="0" cx="825" cy="1315" r="9" r1="12" r2="6" stroke-width="6" stroke="#ff9900" fill="#ffffff" opacity="1" layer="MULTILAYER" />
    <circle net="0" cx="975" cy="1565" r="9" r1="12" r2="6" stroke-width="6" stroke="#ff9900" fill="#ffffff" opacity="1" layer="MULTILAYER" />
    <circle net="0" cx="925" cy="1215" r="9" r1="12" r2="6" stroke-width="6" stroke="#ff9900" fill="#ffffff" opacity="1" layer="MULTILAYER" />
    <circle net="0" cx="975" cy="1615" r="9" r1="12" r2="6" stroke-width="6" stroke="#ff9900" fill="#ffffff" opacity="1" layer="MULTILAYER" />
    <circle net="0" cx="825" cy="1615" r="9" r1="12" r2="6" stroke-width="6" stroke="#ff9900" fill="#ffffff" opacity="1" layer="MULTILAYER" />
    <circle net="0" cx="925" cy="1615" r="9" r1="12" r2="6" stroke-width="6" stroke="#ff9900" fill="#ffffff" opacity="1" layer="MULTILAYER" />
    <circle net="0" cx="925" cy="1565" r="9" r1="12" r2="6" stroke-width="6" stroke="#ff9900" fill="#ffffff" opacity="1" layer="MULTILAYER" />
    <circle net="0" cx="875" cy="1565" r="9" r1="12" r2="6" stroke-width="6" stroke="#ff9900" fill="#ffffff" opacity="1" layer="MULTILAYER" />
    <circle net="0" cx="825" cy="1465" r="9" r1="12" r2="6" stroke-width="6" stroke="#ff9900" fill="#ffffff" opacity="1" layer="MULTILAYER" />
    <circle net="0" cx="875" cy="1615" r="9" r1="12" r2="6" stroke-width="6" stroke="#ff9900" fill="#ffffff" opacity="1" layer="MULTILAYER" />
    <circle net="1" cx="1270" cy="1295" r="9" r1="12" r2="6" stroke-width="6" stroke="#ff9900" fill="#ffffff" opacity="1" layer="MULTILAYER" />
    <circle net="1" cx="1270" cy="1340" r="9" r1="12" r2="6" stroke-width="6" stroke="#ff9900" fill="#ffffff" opacity="1" layer="MULTILAYER" />
    <circle net="1" cx="1270" cy="1390" r="9" r1="12" r2="6" stroke-width="6" stroke="#ff9900" fill="#ffffff" opacity="1" layer="MULTILAYER" />
    <circle net="1" cx="1270" cy="1435" r="9" r1="12" r2="6" stroke-width="6" stroke="#ff9900" fill="#ffffff" opacity="1" layer="MULTILAYER" />
    <circle net="1" cx="1315" cy="1435" r="9" r1="12" r2="6" stroke-width="6" stroke="#ff9900" fill="#ffffff" opacity="1" layer="MULTILAYER" />
    <circle net="1" cx="1315" cy="1390" r="9" r1="12" r2="6" stroke-width="6" stroke="#ff9900" fill="#ffffff" opacity="1" layer="MULTILAYER" />
    <circle net="1" cx="1315" cy="1340" r="9" r1="12" r2="6" stroke-width="6" stroke="#ff9900" fill="#ffffff" opacity="1" layer="MULTILAYER" />
    <circle net="1" cx="1315" cy="1295" r="9" r1="12" r2="6" stroke-width="6" stroke="#ff9900" fill="#ffffff" opacity="1" layer="MULTILAYER" />
    <circle net="0" cx="1115" cy="894" r="9" r1="12" r2="6" stroke-width="6" stroke="#ff9900" fill="#ffffff" opacity="1" layer="MULTILAYER" />
    <circle net="0" cx="1175" cy="894" r="9" r1="12" r2="6" stroke-width="6" stroke="#ff9900" fill="#ffffff" opacity="1" layer="MULTILAYER" />
    <circle net="0" cx="435" cy="1050" r="9" r1="12" r2="6" stroke-width="6" stroke="#ff9900" fill="#ffffff" opacity="1" layer="MULTILAYER" />
    <circle net="0" cx="1115" cy="855" r="9" r1="12" r2="6" stroke-width="6" stroke="#ff9900" fill="#ffffff" opacity="1" layer="MULTILAYER" />
    <circle net="0" cx="1175" cy="855" r="9" r1="12" r2="6" stroke-width="6" stroke="#ff9900" fill="#ffffff" opacity="1" layer="MULTILAYER" />
    <circle net="0" cx="995" cy="805" r="9" r1="12" r2="6" stroke-width="6" stroke="#ff9900" fill="#ffffff" opacity="1" layer="MULTILAYER" />
    <circle net="0" cx="1115" cy="805" r="9" r1="12" r2="6" stroke-width="6" stroke="#ff9900" fill="#ffffff" opacity="1" layer="MULTILAYER" />
    <circle net="0" cx="1175" cy="805" r="9" r1="12" r2="6" stroke-width="6" stroke="#ff9900" fill="#ffffff" opacity="1" layer="MULTILAYER" />
    <circle net="2" cx="600" cy="1143" r="9" r1="12" r2="6" stroke-width="6" stroke="#ff9900" fill="#ffffff" opacity="1" layer="MULTILAYER" />
    <circle net="1" cx="613" cy="1224" r="19" r1="25" r2="14" stroke-width="11" stroke="#ff9900" fill="#ffffff" opacity="1" layer="MULTILAYER" />
    <circle net="0" cx="1028" cy="1087" r="8" r1="12" r2="5" stroke-width="7" stroke="#ff9900" fill="#ffffff" opacity="1" layer="MULTILAYER" />
    <circle net="0" cx="1088" cy="1030" r="8" r1="12" r2="5" stroke-width="7" stroke="#ff9900" fill="#ffffff" opacity="1" layer="MULTILAYER" />
    <circle net="0" cx="1028" cy="969" r="8" r1="12" r2="5" stroke-width="7" stroke="#ff9900" fill="#ffffff" opacity="1" layer="MULTILAYER" />
    <circle net="0" cx="1028" cy="1030" r="8" r1="12" r2="5" stroke-width="7" stroke="#ff9900" fill="#ffffff" opacity="1" layer="MULTILAYER" />
    <circle net="0" cx="1088" cy="969" r="8" r1="12" r2="5" stroke-width="7" stroke="#ff9900" fill="#ffffff" opacity="1" layer="MULTILAYER" />
    <circle net="0" cx="1055" cy="895" r="9" r1="12" r2="6" stroke-width="6" stroke="#ff9900" fill="#ffffff" opacity="1" layer="MULTILAYER" />
    <circle net="0" cx="1055" cy="851" r="9" r1="12" r2="6" stroke-width="6" stroke="#ff9900" fill="#ffffff" opacity="1" layer="MULTILAYER" />
    <circle net="0" cx="1055" cy="805" r="9" r1="12" r2="6" stroke-width="6" stroke="#ff9900" fill="#ffffff" opacity="1" layer="MULTILAYER" />
    <circle net="2" cx="2355" cy="705" r="37" r1="43" r2="31" stroke-width="12" stroke="#ff9900" fill="#ffffff" opacity="1" layer="MULTILAYER" />
    <circle net="0" cx="875" cy="1855" r="37" r1="43" r2="31" stroke-width="12" stroke="#ff9900" fill="#ffffff" opacity="1" layer="MULTILAYER" />
    <circle net="1" cx="1425" cy="1855" r="37" r1="43" r2="31" stroke-width="12" stroke="#ff9900" fill="#ffffff" opacity="1" layer="MULTILAYER" />
    <circle net="0" cx="2355" cy="1265" r="37" r1="43" r2="31" stroke-width="12" stroke="#ff9900" fill="#ffffff" opacity="1" layer="MULTILAYER" />
  </g>
</svg>

